<?xml version="1.0" encoding="utf-8"?>
<!-- Generator: Adobe Illustrator 23.0.5, SVG Export Plug-In . SVG Version: 6.00 Build 0)  -->
<svg version="1.1" id="Layer_1" xmlns="http://www.w3.org/2000/svg" xmlns:xlink="http://www.w3.org/1999/xlink" x="0px" y="0px"
	 viewBox="0 0 300 300" style="enable-background:new 0 0 300 300;" xml:space="preserve">
<style type="text/css">
	.st0{fill:#4472C4;stroke:#4472C4;stroke-width:9.375000e-02;}
	.st1{fill:#ED7D31;stroke:#ED7D31;stroke-width:9.375000e-02;}
	.st2{fill:#A5A5A5;stroke:#A5A5A5;stroke-width:9.375000e-02;}
	.st3{enable-background:new    ;}
	.st4{fill:#4C7BD1;stroke:#4C7BD1;stroke-width:9.375000e-02;}
	.st5{opacity:0.8;enable-background:new    ;}
</style>
<path class="st0" d="M119.8,267.7c1.7,0,3.4,0,5.1,0c0,1.7,0,3.4,0,5.1c-1.7,0-3.4,0-5.1,0C119.8,271.2,119.8,269.4,119.8,267.7z"/>
<path class="st1" d="M145.3,267.7c1.7,0,3.4,0,5.1,0c0,1.7,0,3.4,0,5.1c-1.7,0-3.4,0-5.1,0C145.3,271.2,145.3,269.4,145.3,267.7z"/>
<path class="st2" d="M170.7,267.7c1.7,0,3.4,0,5.1,0c0,1.7,0,3.4,0,5.1c-1.7,0-3.4,0-5.1,0C170.7,271.2,170.7,269.4,170.7,267.7z"/>
<g class="st3">
	<path d="M135.6,273.5c0,0.1,0,0.1,0,0.2c0,0.1,0,0.1,0,0.1c0,0,0,0.1-0.1,0.1s-0.1,0-0.1,0h-4.2c0,0-0.1,0-0.1,0s0,0-0.1-0.1
		c0,0,0-0.1-0.1-0.1c0-0.1,0-0.1,0-0.2c0-0.1,0-0.1,0-0.2c0-0.1,0-0.1,0-0.1s0-0.1,0.1-0.1c0,0,0.1,0,0.1,0h1.7v-6.1l-1.6,0.9
		c-0.1,0-0.1,0.1-0.2,0.1c0,0-0.1,0-0.1,0c0,0,0-0.1-0.1-0.1c0-0.1,0-0.1,0-0.2c0-0.1,0-0.1,0-0.2c0,0,0-0.1,0-0.1s0-0.1,0.1-0.1
		s0.1,0,0.1-0.1l1.9-1.2c0,0,0,0,0.1,0c0,0,0.1,0,0.1,0c0,0,0.1,0,0.1,0s0.1,0,0.2,0c0.1,0,0.2,0,0.2,0c0.1,0,0.1,0,0.2,0
		c0,0,0.1,0,0.1,0.1c0,0,0,0,0,0.1v7.1h1.5c0,0,0.1,0,0.1,0c0,0,0.1,0,0.1,0.1s0,0.1,0,0.1S135.6,273.4,135.6,273.5z"/>
</g>
<g class="st3">
	<path d="M161.1,273.5c0,0.1,0,0.1,0,0.2c0,0.1,0,0.1,0,0.1c0,0,0,0.1-0.1,0.1s-0.1,0-0.1,0h-4.4c-0.1,0-0.1,0-0.2,0s-0.1,0-0.1-0.1
		c0,0-0.1-0.1-0.1-0.1c0-0.1,0-0.1,0-0.2c0-0.1,0-0.2,0-0.2s0-0.1,0-0.2c0,0,0-0.1,0.1-0.1c0,0,0.1-0.1,0.1-0.2l1.6-1.7
		c0.4-0.4,0.7-0.7,0.9-1c0.2-0.3,0.4-0.6,0.5-0.8c0.1-0.2,0.2-0.5,0.2-0.7s0.1-0.4,0.1-0.6c0-0.2,0-0.3-0.1-0.5
		c-0.1-0.2-0.1-0.3-0.3-0.4s-0.3-0.2-0.4-0.3c-0.2-0.1-0.4-0.1-0.6-0.1c-0.3,0-0.5,0-0.7,0.1c-0.2,0.1-0.4,0.1-0.5,0.2
		s-0.3,0.2-0.4,0.2c-0.1,0.1-0.2,0.1-0.2,0.1c0,0-0.1,0-0.1,0s0,0-0.1-0.1c0,0,0-0.1,0-0.1c0-0.1,0-0.1,0-0.2c0-0.1,0-0.1,0-0.2
		c0,0,0-0.1,0-0.1c0,0,0-0.1,0-0.1c0,0,0-0.1,0.1-0.1c0,0,0.1-0.1,0.3-0.2c0.1-0.1,0.3-0.1,0.5-0.2c0.2-0.1,0.4-0.1,0.6-0.2
		c0.2,0,0.5-0.1,0.7-0.1c0.4,0,0.7,0.1,1,0.2c0.3,0.1,0.5,0.3,0.7,0.5c0.2,0.2,0.3,0.4,0.4,0.7s0.1,0.5,0.1,0.8c0,0.3,0,0.5-0.1,0.8
		c0,0.3-0.1,0.5-0.3,0.8c-0.1,0.3-0.4,0.6-0.6,1c-0.3,0.4-0.6,0.8-1.1,1.3l-1.3,1.3h3.5c0,0,0.1,0,0.1,0c0,0,0.1,0,0.1,0.1
		c0,0,0,0.1,0,0.1C161.1,273.3,161.1,273.4,161.1,273.5z"/>
</g>
<g class="st3">
	<path d="M186.5,271.6c0,0.4-0.1,0.7-0.2,1c-0.1,0.3-0.3,0.5-0.6,0.8c-0.2,0.2-0.5,0.4-0.9,0.5c-0.4,0.1-0.8,0.2-1.2,0.2
		c-0.3,0-0.5,0-0.8-0.1c-0.2,0-0.4-0.1-0.6-0.2c-0.2-0.1-0.3-0.1-0.5-0.2s-0.2-0.1-0.2-0.1c0,0-0.1-0.1-0.1-0.1s0-0.1,0-0.1
		c0,0,0-0.1,0-0.2c0-0.1,0-0.1,0-0.2c0-0.1,0-0.3,0-0.3c0-0.1,0.1-0.1,0.1-0.1c0,0,0.1,0,0.2,0.1c0.1,0.1,0.3,0.1,0.4,0.2
		c0.2,0.1,0.4,0.1,0.6,0.2c0.2,0.1,0.5,0.1,0.8,0.1c0.3,0,0.5,0,0.7-0.1c0.2-0.1,0.4-0.2,0.5-0.3c0.1-0.1,0.3-0.3,0.3-0.5
		s0.1-0.4,0.1-0.6c0-0.2,0-0.4-0.1-0.6c-0.1-0.2-0.2-0.3-0.4-0.5c-0.2-0.1-0.4-0.2-0.7-0.3s-0.6-0.1-0.9-0.1h-0.8c0,0-0.1,0-0.1,0
		s-0.1,0-0.1-0.1c0,0,0-0.1-0.1-0.1c0-0.1,0-0.1,0-0.2c0-0.1,0-0.1,0-0.2c0-0.1,0-0.1,0.1-0.1c0,0,0-0.1,0.1-0.1s0.1,0,0.1,0h0.7
		c0.3,0,0.5,0,0.7-0.1s0.4-0.2,0.6-0.3c0.2-0.1,0.3-0.3,0.3-0.5s0.1-0.4,0.1-0.6c0-0.2,0-0.3-0.1-0.5s-0.1-0.3-0.2-0.4
		c-0.1-0.1-0.2-0.2-0.4-0.3c-0.2-0.1-0.4-0.1-0.6-0.1c-0.2,0-0.5,0-0.7,0.1s-0.4,0.2-0.5,0.2c-0.2,0.1-0.3,0.2-0.4,0.2
		c-0.1,0.1-0.2,0.1-0.2,0.1c0,0-0.1,0-0.1,0c0,0,0,0-0.1-0.1s0-0.1,0-0.1c0-0.1,0-0.1,0-0.2c0-0.1,0-0.1,0-0.2s0-0.1,0-0.1
		c0,0,0-0.1,0-0.1c0,0,0-0.1,0.1-0.1c0,0,0.1-0.1,0.2-0.2c0.1-0.1,0.3-0.1,0.4-0.2c0.2-0.1,0.4-0.1,0.6-0.2c0.2,0,0.5-0.1,0.7-0.1
		c0.4,0,0.7,0,1,0.1c0.3,0.1,0.5,0.2,0.7,0.4s0.3,0.4,0.4,0.6c0.1,0.2,0.1,0.5,0.1,0.8c0,0.3,0,0.5-0.1,0.7s-0.2,0.4-0.3,0.6
		c-0.1,0.2-0.3,0.3-0.5,0.4c-0.2,0.1-0.4,0.2-0.6,0.2v0c0.3,0,0.5,0.1,0.8,0.2c0.2,0.1,0.4,0.2,0.6,0.4c0.2,0.2,0.3,0.4,0.4,0.6
		C186.4,271.1,186.5,271.4,186.5,271.6z"/>
</g>
<path class="st2" d="M124.1,28.9c7.3-3.1,15.3-3.3,23.1-4.2c1.8,2.3,1.4,5.2,1.4,8.1c-0.1,28,0.3,56-0.1,83.9
	C139.7,87.6,132.1,58.2,124.1,28.9z"/>
<path class="st4" d="M152.3,24.5c14.4-0.6,28.6,3.5,41.9,8.8c30.2,13.4,54.5,40.8,62.8,73c9.3,33.5,1,71.2-21.5,97.8
	c-3.5,3.7-7.2,7.4-10.6,11.1c-25.2,24-62.4,34.7-96.4,27.1c-13.9-2.4-27-8.4-38.9-16.2c-9.1-5.6-16.1-13.8-23.5-21.4
	c-20.7-23.8-29.7-57-24.4-88c3.1-18.4,11-35.9,22.5-50.6c3.1-3.3,6.1-6.8,9-10.4c2.9,2.7,5.8,5.5,8.3,8.6c5.4,7.2,12.5,13,18.5,19.6
	c10.4,12.9,23.4,23.4,34,36.2c5.8,6,11.4,12.1,17.5,17.6c1.3-4.2,0.6-8.6,0.8-12.9C152.3,91.3,152.2,58,152.3,24.5z"/>
<path class="st1" d="M76.1,53.2c12.4-11.1,27.2-20.2,43.5-24c9.1,33.1,18,66.5,27.5,99.5C123.6,103.5,99.9,78.3,76.1,53.2z"/>
<g class="st5">
	<path d="M191.3,212.7c0,0.4-0.1,0.8-0.2,1.2c-0.2,0.3-0.4,0.6-0.7,0.9c-0.3,0.2-0.7,0.4-1.1,0.5c-0.4,0.1-0.9,0.2-1.5,0.2
		c-0.5,0-1-0.1-1.4-0.2c-0.4-0.1-0.8-0.3-1-0.5c-0.3-0.2-0.5-0.5-0.6-0.8c-0.1-0.3-0.2-0.7-0.2-1.1c0-0.3,0-0.5,0.1-0.8
		s0.2-0.5,0.4-0.7c0.2-0.2,0.4-0.4,0.6-0.6c0.2-0.2,0.5-0.4,0.8-0.5c-0.3-0.1-0.5-0.3-0.7-0.5c-0.2-0.2-0.4-0.3-0.5-0.5
		s-0.3-0.4-0.3-0.6s-0.1-0.5-0.1-0.7c0-0.4,0.1-0.7,0.2-1.1c0.1-0.3,0.3-0.6,0.6-0.8c0.3-0.2,0.6-0.4,1-0.5c0.4-0.1,0.9-0.2,1.4-0.2
		c0.5,0,1,0.1,1.4,0.2c0.4,0.1,0.7,0.3,0.9,0.5c0.2,0.2,0.4,0.5,0.5,0.8c0.1,0.3,0.2,0.6,0.2,1c0,0.2,0,0.5-0.1,0.7
		c-0.1,0.2-0.2,0.4-0.3,0.6c-0.1,0.2-0.3,0.4-0.5,0.6c-0.2,0.2-0.4,0.3-0.7,0.5c0.3,0.2,0.6,0.3,0.8,0.5c0.2,0.2,0.4,0.4,0.6,0.6
		c0.2,0.2,0.3,0.4,0.4,0.7S191.3,212.4,191.3,212.7z M189.4,212.8c0-0.2,0-0.4-0.1-0.5c-0.1-0.2-0.2-0.3-0.3-0.4
		c-0.1-0.1-0.3-0.3-0.5-0.4s-0.4-0.3-0.7-0.4c-0.2,0.1-0.4,0.2-0.6,0.4c-0.2,0.1-0.3,0.3-0.4,0.4s-0.2,0.3-0.3,0.4
		c-0.1,0.2-0.1,0.3-0.1,0.5c0,0.4,0.1,0.7,0.4,0.9c0.3,0.2,0.6,0.3,1.1,0.3c0.5,0,0.9-0.1,1.1-0.3
		C189.3,213.5,189.4,213.2,189.4,212.8z M189.2,208c0-0.2,0-0.3-0.1-0.5c-0.1-0.1-0.1-0.3-0.2-0.4c-0.1-0.1-0.2-0.2-0.4-0.2
		s-0.3-0.1-0.6-0.1c-0.4,0-0.7,0.1-0.9,0.3c-0.2,0.2-0.3,0.5-0.3,0.8c0,0.2,0,0.3,0.1,0.4c0.1,0.1,0.1,0.3,0.2,0.4s0.3,0.2,0.4,0.4
		c0.2,0.1,0.4,0.2,0.6,0.4c0.4-0.2,0.6-0.4,0.8-0.7C189.1,208.6,189.2,208.3,189.2,208z"/>
	<path d="M199.1,212.7c0,0.4-0.1,0.8-0.2,1.2c-0.2,0.3-0.4,0.6-0.7,0.9s-0.7,0.4-1.1,0.5c-0.4,0.1-0.9,0.2-1.5,0.2
		c-0.5,0-1-0.1-1.4-0.2c-0.4-0.1-0.8-0.3-1-0.5c-0.3-0.2-0.5-0.5-0.6-0.8c-0.1-0.3-0.2-0.7-0.2-1.1c0-0.3,0-0.5,0.1-0.8
		s0.2-0.5,0.4-0.7c0.2-0.2,0.4-0.4,0.6-0.6c0.2-0.2,0.5-0.4,0.8-0.5c-0.3-0.1-0.5-0.3-0.7-0.5c-0.2-0.2-0.4-0.3-0.5-0.5
		c-0.1-0.2-0.3-0.4-0.3-0.6s-0.1-0.5-0.1-0.7c0-0.4,0.1-0.7,0.2-1.1c0.1-0.3,0.3-0.6,0.6-0.8c0.3-0.2,0.6-0.4,1-0.5
		c0.4-0.1,0.9-0.2,1.4-0.2c0.5,0,1,0.1,1.4,0.2c0.4,0.1,0.7,0.3,0.9,0.5c0.2,0.2,0.4,0.5,0.5,0.8c0.1,0.3,0.2,0.6,0.2,1
		c0,0.2,0,0.5-0.1,0.7c-0.1,0.2-0.2,0.4-0.3,0.6c-0.1,0.2-0.3,0.4-0.5,0.6c-0.2,0.2-0.4,0.3-0.7,0.5c0.3,0.2,0.6,0.3,0.8,0.5
		c0.2,0.2,0.4,0.4,0.6,0.6c0.2,0.2,0.3,0.4,0.4,0.7C199,212.2,199.1,212.4,199.1,212.7z M197.1,212.8c0-0.2,0-0.4-0.1-0.5
		s-0.2-0.3-0.3-0.4c-0.1-0.1-0.3-0.3-0.5-0.4c-0.2-0.1-0.4-0.3-0.7-0.4c-0.2,0.1-0.4,0.2-0.6,0.4s-0.3,0.3-0.4,0.4s-0.2,0.3-0.3,0.4
		c-0.1,0.2-0.1,0.3-0.1,0.5c0,0.4,0.1,0.7,0.4,0.9c0.3,0.2,0.6,0.3,1.1,0.3c0.5,0,0.9-0.1,1.1-0.3
		C197,213.5,197.1,213.2,197.1,212.8z M196.9,208c0-0.2,0-0.3-0.1-0.5c0-0.1-0.1-0.3-0.2-0.4c-0.1-0.1-0.2-0.2-0.4-0.2
		c-0.2,0-0.3-0.1-0.6-0.1c-0.4,0-0.7,0.1-0.9,0.3c-0.2,0.2-0.3,0.5-0.3,0.8c0,0.2,0,0.3,0.1,0.4c0.1,0.1,0.1,0.3,0.2,0.4
		s0.3,0.2,0.4,0.4s0.4,0.2,0.6,0.4c0.4-0.2,0.6-0.4,0.8-0.7C196.8,208.6,196.9,208.3,196.9,208z"/>
	<path d="M204.4,208c0,0.4,0,0.7-0.1,1.1s-0.2,0.6-0.4,0.8c-0.2,0.2-0.4,0.4-0.7,0.5s-0.6,0.2-1,0.2c-0.4,0-0.8-0.1-1.1-0.2
		c-0.3-0.1-0.5-0.3-0.7-0.5c-0.2-0.2-0.3-0.5-0.4-0.8s-0.1-0.6-0.1-1c0-0.4,0-0.7,0.1-1c0.1-0.3,0.2-0.6,0.4-0.8
		c0.2-0.2,0.4-0.4,0.7-0.5c0.3-0.1,0.6-0.2,1-0.2c0.4,0,0.8,0.1,1.1,0.2c0.3,0.1,0.5,0.3,0.7,0.5s0.3,0.5,0.3,0.8
		C204.4,207.3,204.4,207.7,204.4,208z M202.4,215.2c0,0.1-0.1,0.1-0.1,0.1c0,0-0.1,0.1-0.2,0.1c-0.1,0-0.2,0-0.3,0.1
		c-0.1,0-0.2,0-0.4,0c-0.2,0-0.3,0-0.4,0c-0.1,0-0.2,0-0.2-0.1c0,0-0.1-0.1-0.1-0.1c0-0.1,0-0.1,0.1-0.2l6.9-9.4
		c0-0.1,0.1-0.1,0.1-0.1s0.1-0.1,0.2-0.1c0.1,0,0.2,0,0.3-0.1c0.1,0,0.2,0,0.4,0c0.2,0,0.3,0,0.4,0c0.1,0,0.2,0,0.2,0.1
		c0,0,0.1,0.1,0,0.1s0,0.1-0.1,0.2L202.4,215.2z M203,208c0-0.3,0-0.5,0-0.7s-0.1-0.3-0.1-0.5c-0.1-0.1-0.1-0.2-0.2-0.3
		s-0.2-0.1-0.4-0.1c-0.1,0-0.2,0-0.3,0.1c-0.1,0.1-0.2,0.1-0.2,0.3c-0.1,0.1-0.1,0.3-0.1,0.5s0,0.4,0,0.7c0,0.3,0,0.6,0.1,0.8
		s0.1,0.4,0.1,0.5c0.1,0.1,0.1,0.2,0.2,0.2s0.2,0.1,0.3,0.1c0.1,0,0.3,0,0.4-0.1c0.1-0.1,0.2-0.1,0.2-0.3c0.1-0.1,0.1-0.3,0.1-0.5
		C203,208.5,203,208.3,203,208z M210.3,212.8c0,0.4,0,0.7-0.1,1.1c-0.1,0.3-0.2,0.6-0.4,0.8c-0.2,0.2-0.4,0.4-0.7,0.5
		c-0.3,0.1-0.6,0.2-1,0.2c-0.4,0-0.8-0.1-1.1-0.2c-0.3-0.1-0.5-0.3-0.7-0.5c-0.2-0.2-0.3-0.5-0.4-0.8c-0.1-0.3-0.1-0.6-0.1-1
		c0-0.4,0-0.7,0.1-1c0.1-0.3,0.2-0.6,0.4-0.8c0.2-0.2,0.4-0.4,0.7-0.5s0.6-0.2,1-0.2c0.4,0,0.8,0.1,1.1,0.2c0.3,0.1,0.5,0.3,0.7,0.5
		s0.3,0.5,0.3,0.8C210.2,212.2,210.3,212.5,210.3,212.8z M208.8,212.9c0-0.3,0-0.5,0-0.7c0-0.2-0.1-0.3-0.1-0.5
		c-0.1-0.1-0.1-0.2-0.2-0.3s-0.2-0.1-0.4-0.1c-0.1,0-0.2,0-0.3,0.1c-0.1,0.1-0.2,0.1-0.2,0.3c-0.1,0.1-0.1,0.3-0.1,0.5s0,0.4,0,0.7
		c0,0.3,0,0.6,0.1,0.8c0,0.2,0.1,0.4,0.1,0.5c0.1,0.1,0.1,0.2,0.2,0.2c0.1,0,0.2,0.1,0.3,0.1c0.1,0,0.3,0,0.4-0.1
		c0.1-0.1,0.2-0.1,0.2-0.3s0.1-0.3,0.1-0.5C208.8,213.3,208.8,213.1,208.8,212.9z"/>
</g>
<g class="st5">
	<path d="M105.6,60c0,0.4-0.1,0.8-0.2,1.2s-0.4,0.6-0.7,0.9c-0.3,0.2-0.7,0.4-1.1,0.5c-0.4,0.1-0.9,0.2-1.5,0.2
		c-0.5,0-1-0.1-1.4-0.2s-0.8-0.3-1-0.5c-0.3-0.2-0.5-0.5-0.6-0.8s-0.2-0.7-0.2-1.1c0-0.3,0-0.5,0.1-0.8s0.2-0.5,0.4-0.7
		c0.2-0.2,0.4-0.4,0.6-0.6s0.5-0.4,0.8-0.5c-0.3-0.1-0.5-0.3-0.7-0.5c-0.2-0.2-0.4-0.3-0.5-0.5c-0.1-0.2-0.3-0.4-0.3-0.6
		s-0.1-0.5-0.1-0.7c0-0.4,0.1-0.7,0.2-1.1c0.1-0.3,0.3-0.6,0.6-0.8c0.3-0.2,0.6-0.4,1-0.5c0.4-0.1,0.9-0.2,1.4-0.2
		c0.5,0,1,0.1,1.4,0.2s0.7,0.3,0.9,0.5c0.2,0.2,0.4,0.5,0.5,0.8s0.2,0.6,0.2,1c0,0.2,0,0.5-0.1,0.7c-0.1,0.2-0.2,0.4-0.3,0.6
		c-0.1,0.2-0.3,0.4-0.5,0.6c-0.2,0.2-0.4,0.3-0.7,0.5c0.3,0.2,0.6,0.3,0.8,0.5c0.2,0.2,0.4,0.4,0.6,0.6c0.2,0.2,0.3,0.4,0.4,0.7
		C105.6,59.5,105.6,59.8,105.6,60z M103.7,60.2c0-0.2,0-0.4-0.1-0.5c-0.1-0.2-0.2-0.3-0.3-0.4c-0.1-0.1-0.3-0.3-0.5-0.4
		c-0.2-0.1-0.4-0.3-0.7-0.4c-0.2,0.1-0.4,0.2-0.6,0.4c-0.2,0.1-0.3,0.3-0.4,0.4s-0.2,0.3-0.3,0.4s-0.1,0.3-0.1,0.5
		c0,0.4,0.1,0.7,0.4,0.9s0.6,0.3,1.1,0.3c0.5,0,0.9-0.1,1.1-0.3C103.6,60.8,103.7,60.5,103.7,60.2z M103.5,55.4c0-0.2,0-0.3-0.1-0.5
		c0-0.1-0.1-0.3-0.2-0.4c-0.1-0.1-0.2-0.2-0.4-0.2c-0.2,0-0.3-0.1-0.6-0.1c-0.4,0-0.7,0.1-0.9,0.3c-0.2,0.2-0.3,0.5-0.3,0.8
		c0,0.2,0,0.3,0.1,0.4c0.1,0.1,0.1,0.3,0.2,0.4s0.3,0.2,0.4,0.4c0.2,0.1,0.4,0.2,0.6,0.4c0.4-0.2,0.6-0.4,0.8-0.7
		C103.4,55.9,103.5,55.7,103.5,55.4z"/>
	<path d="M111,55.3c0,0.4,0,0.7-0.1,1.1s-0.2,0.6-0.4,0.8c-0.2,0.2-0.4,0.4-0.7,0.5c-0.3,0.1-0.6,0.2-1,0.2c-0.4,0-0.8-0.1-1.1-0.2
		c-0.3-0.1-0.5-0.3-0.7-0.5c-0.2-0.2-0.3-0.5-0.4-0.8c-0.1-0.3-0.1-0.6-0.1-1c0-0.4,0-0.7,0.1-1c0.1-0.3,0.2-0.6,0.4-0.8
		c0.2-0.2,0.4-0.4,0.7-0.5c0.3-0.1,0.6-0.2,1-0.2c0.4,0,0.8,0.1,1.1,0.2c0.3,0.1,0.5,0.3,0.7,0.5s0.3,0.5,0.3,0.8
		C110.9,54.7,111,55,111,55.3z M108.9,62.6c0,0.1-0.1,0.1-0.1,0.1c0,0-0.1,0.1-0.2,0.1c-0.1,0-0.2,0-0.3,0.1c-0.1,0-0.2,0-0.4,0
		c-0.2,0-0.3,0-0.4,0c-0.1,0-0.2,0-0.2-0.1c0,0-0.1-0.1-0.1-0.1c0-0.1,0-0.1,0.1-0.2l6.9-9.4c0-0.1,0.1-0.1,0.1-0.1s0.1-0.1,0.2-0.1
		c0.1,0,0.2,0,0.3-0.1c0.1,0,0.2,0,0.4,0c0.2,0,0.3,0,0.4,0c0.1,0,0.2,0,0.2,0.1c0,0,0.1,0.1,0,0.1s0,0.1-0.1,0.2L108.9,62.6z
		 M109.5,55.4c0-0.3,0-0.5,0-0.7s-0.1-0.3-0.1-0.5c-0.1-0.1-0.1-0.2-0.2-0.3s-0.2-0.1-0.4-0.1c-0.1,0-0.2,0-0.3,0.1
		c-0.1,0.1-0.2,0.1-0.2,0.3c-0.1,0.1-0.1,0.3-0.1,0.5s0,0.4,0,0.7c0,0.3,0,0.6,0.1,0.8c0,0.2,0.1,0.4,0.1,0.5
		c0.1,0.1,0.1,0.2,0.2,0.2c0.1,0,0.2,0.1,0.3,0.1c0.1,0,0.3,0,0.4-0.1c0.1-0.1,0.2-0.1,0.2-0.3s0.1-0.3,0.1-0.5
		C109.5,55.9,109.5,55.7,109.5,55.4z M116.8,60.2c0,0.4,0,0.7-0.1,1.1c-0.1,0.3-0.2,0.6-0.4,0.8s-0.4,0.4-0.7,0.5
		c-0.3,0.1-0.6,0.2-1,0.2c-0.4,0-0.8-0.1-1.1-0.2c-0.3-0.1-0.5-0.3-0.7-0.5c-0.2-0.2-0.3-0.5-0.4-0.8c-0.1-0.3-0.1-0.6-0.1-1
		c0-0.4,0-0.7,0.1-1c0.1-0.3,0.2-0.6,0.4-0.8c0.2-0.2,0.4-0.4,0.7-0.5c0.3-0.1,0.6-0.2,1-0.2c0.4,0,0.8,0.1,1.1,0.2
		c0.3,0.1,0.5,0.3,0.7,0.5s0.3,0.5,0.3,0.8C116.8,59.5,116.8,59.8,116.8,60.2z M115.3,60.2c0-0.3,0-0.5,0-0.7s-0.1-0.3-0.1-0.5
		c-0.1-0.1-0.1-0.2-0.2-0.3s-0.2-0.1-0.4-0.1c-0.1,0-0.2,0-0.3,0.1c-0.1,0.1-0.2,0.1-0.2,0.3c-0.1,0.1-0.1,0.3-0.1,0.5s0,0.4,0,0.7
		c0,0.3,0,0.6,0.1,0.8s0.1,0.4,0.1,0.5c0.1,0.1,0.1,0.2,0.2,0.2c0.1,0,0.2,0.1,0.3,0.1c0.1,0,0.3,0,0.4-0.1c0.1-0.1,0.2-0.1,0.2-0.3
		s0.1-0.3,0.1-0.5C115.3,60.7,115.3,60.5,115.3,60.2z"/>
</g>
<g class="st5">
	<path d="M137.8,46.8c0,0.3,0,0.4-0.1,0.6s-0.1,0.2-0.2,0.2h-0.9v1.7c0,0,0,0.1,0,0.1s-0.1,0.1-0.2,0.1c-0.1,0-0.2,0-0.3,0.1
		c-0.1,0-0.3,0-0.5,0c-0.2,0-0.3,0-0.5,0c-0.1,0-0.2,0-0.3-0.1c-0.1,0-0.1-0.1-0.1-0.1s0-0.1,0-0.1v-1.7h-3.7c-0.1,0-0.1,0-0.2,0
		s-0.1-0.1-0.1-0.1c0-0.1-0.1-0.2-0.1-0.3c0-0.1,0-0.3,0-0.5c0-0.2,0-0.3,0-0.4c0-0.1,0-0.2,0-0.3s0-0.2,0.1-0.3s0.1-0.2,0.1-0.3
		l3-5.3c0,0,0.1-0.1,0.1-0.1c0.1,0,0.1-0.1,0.3-0.1s0.2,0,0.4,0c0.2,0,0.4,0,0.6,0c0.3,0,0.5,0,0.6,0c0.2,0,0.3,0,0.4,0.1
		s0.2,0.1,0.2,0.1c0,0,0.1,0.1,0.1,0.1V46h0.9c0.1,0,0.1,0.1,0.2,0.2S137.8,46.5,137.8,46.8z M134.8,41.6L134.8,41.6l-2.6,4.4h2.6
		V41.6z"/>
	<path d="M143,42.3c0,0.4,0,0.7-0.1,1.1s-0.2,0.6-0.4,0.8c-0.2,0.2-0.4,0.4-0.7,0.5c-0.3,0.1-0.6,0.2-1,0.2c-0.4,0-0.8-0.1-1.1-0.2
		c-0.3-0.1-0.5-0.3-0.7-0.5c-0.2-0.2-0.3-0.5-0.4-0.8c-0.1-0.3-0.1-0.6-0.1-1c0-0.4,0-0.7,0.1-1c0.1-0.3,0.2-0.6,0.4-0.8
		c0.2-0.2,0.4-0.4,0.7-0.5c0.3-0.1,0.6-0.2,1-0.2c0.4,0,0.8,0.1,1.1,0.2c0.3,0.1,0.5,0.3,0.7,0.5s0.3,0.5,0.3,0.8
		C143,41.7,143,42,143,42.3z M141,49.5c0,0.1-0.1,0.1-0.1,0.1c0,0-0.1,0.1-0.2,0.1c-0.1,0-0.2,0-0.3,0.1c-0.1,0-0.2,0-0.4,0
		c-0.2,0-0.3,0-0.4,0c-0.1,0-0.2,0-0.2-0.1c0,0-0.1-0.1-0.1-0.1c0-0.1,0-0.1,0.1-0.2l6.9-9.4c0-0.1,0.1-0.1,0.1-0.1s0.1-0.1,0.2-0.1
		c0.1,0,0.2,0,0.3-0.1c0.1,0,0.2,0,0.4,0c0.2,0,0.3,0,0.4,0c0.1,0,0.2,0,0.2,0.1c0,0,0.1,0.1,0,0.1s0,0.1-0.1,0.2L141,49.5z
		 M141.5,42.4c0-0.3,0-0.5,0-0.7s-0.1-0.3-0.1-0.5c-0.1-0.1-0.1-0.2-0.2-0.3s-0.2-0.1-0.4-0.1c-0.1,0-0.2,0-0.3,0.1
		c-0.1,0.1-0.2,0.1-0.2,0.3c-0.1,0.1-0.1,0.3-0.1,0.5s0,0.4,0,0.7c0,0.3,0,0.6,0.1,0.8c0,0.2,0.1,0.4,0.1,0.5
		c0.1,0.1,0.1,0.2,0.2,0.2c0.1,0,0.2,0.1,0.3,0.1c0.1,0,0.3,0,0.4-0.1c0.1-0.1,0.2-0.1,0.2-0.3s0.1-0.3,0.1-0.5
		C141.5,42.8,141.5,42.6,141.5,42.4z M148.8,47.1c0,0.4,0,0.7-0.1,1.1c-0.1,0.3-0.2,0.6-0.4,0.8s-0.4,0.4-0.7,0.5
		c-0.3,0.1-0.6,0.2-1,0.2c-0.4,0-0.8-0.1-1.1-0.2c-0.3-0.1-0.5-0.3-0.7-0.5c-0.2-0.2-0.3-0.5-0.4-0.8c-0.1-0.3-0.1-0.6-0.1-1
		c0-0.4,0-0.7,0.1-1c0.1-0.3,0.2-0.6,0.4-0.8c0.2-0.2,0.4-0.4,0.7-0.5c0.3-0.1,0.6-0.2,1-0.2c0.4,0,0.8,0.1,1.1,0.2
		c0.3,0.1,0.5,0.3,0.7,0.5s0.3,0.5,0.3,0.8C148.8,46.5,148.8,46.8,148.8,47.1z M147.3,47.2c0-0.3,0-0.5,0-0.7s-0.1-0.3-0.1-0.5
		c-0.1-0.1-0.1-0.2-0.2-0.3s-0.2-0.1-0.4-0.1c-0.1,0-0.2,0-0.3,0.1c-0.1,0.1-0.2,0.1-0.2,0.3c-0.1,0.1-0.1,0.3-0.1,0.5s0,0.4,0,0.7
		c0,0.3,0,0.6,0.1,0.8s0.1,0.4,0.1,0.5c0.1,0.1,0.1,0.2,0.2,0.2c0.1,0,0.2,0.1,0.3,0.1c0.1,0,0.3,0,0.4-0.1c0.1-0.1,0.2-0.1,0.2-0.3
		s0.1-0.3,0.1-0.5C147.3,47.7,147.3,47.4,147.3,47.2z"/>
</g>
</svg>
