<?xml version="1.0" encoding="utf-8"?>
<!-- Generator: Adobe Illustrator 23.0.5, SVG Export Plug-In . SVG Version: 6.00 Build 0)  -->
<svg version="1.1" id="Layer_1" xmlns="http://www.w3.org/2000/svg" xmlns:xlink="http://www.w3.org/1999/xlink" x="0px" y="0px"
	 viewBox="0 0 300 300" style="enable-background:new 0 0 300 300;" xml:space="preserve">
<style type="text/css">
	.st0{fill:#4472C4;stroke:#4472C4;stroke-width:9.375000e-02;}
	.st1{fill:#ED7D31;stroke:#ED7D31;stroke-width:9.375000e-02;}
	.st2{fill:#A5A5A5;stroke:#A5A5A5;stroke-width:9.375000e-02;}
	.st3{enable-background:new    ;}
	.st4{opacity:0.8;enable-background:new    ;}
</style>
<path class="st0" d="M119.8,267.7c1.7,0,3.4,0,5.1,0c0,1.7,0,3.4,0,5.1c-1.7,0-3.4,0-5.1,0C119.8,271.2,119.8,269.4,119.8,267.7z"/>
<path class="st1" d="M145.3,267.7c1.7,0,3.4,0,5.1,0c0,1.7,0,3.4,0,5.1c-1.7,0-3.4,0-5.1,0C145.3,271.2,145.3,269.4,145.3,267.7z"/>
<path class="st2" d="M170.7,267.7c1.7,0,3.4,0,5.1,0c0,1.7,0,3.4,0,5.1c-1.7,0-3.4,0-5.1,0C170.7,271.2,170.7,269.4,170.7,267.7z"/>
<g class="st3">
	<path d="M135.6,273.5c0,0.1,0,0.1,0,0.2c0,0.1,0,0.1,0,0.1c0,0,0,0.1-0.1,0.1s-0.1,0-0.1,0h-4.2c0,0-0.1,0-0.1,0s0,0-0.1-0.1
		c0,0,0-0.1-0.1-0.1c0-0.1,0-0.1,0-0.2c0-0.1,0-0.1,0-0.2c0-0.1,0-0.1,0-0.1s0-0.1,0.1-0.1c0,0,0.1,0,0.1,0h1.7v-6.1l-1.6,0.9
		c-0.1,0-0.1,0.1-0.2,0.1c0,0-0.1,0-0.1,0c0,0,0-0.1-0.1-0.1c0-0.1,0-0.1,0-0.2c0-0.1,0-0.1,0-0.2c0,0,0-0.1,0-0.1s0-0.1,0.1-0.1
		s0.1,0,0.1-0.1l1.9-1.2c0,0,0,0,0.1,0c0,0,0.1,0,0.1,0c0,0,0.1,0,0.1,0s0.1,0,0.2,0c0.1,0,0.2,0,0.2,0c0.1,0,0.1,0,0.2,0
		c0,0,0.1,0,0.1,0.1c0,0,0,0,0,0.1v7.1h1.5c0,0,0.1,0,0.1,0c0,0,0.1,0,0.1,0.1s0,0.1,0,0.1S135.6,273.4,135.6,273.5z"/>
</g>
<g class="st3">
	<path d="M161.1,273.5c0,0.1,0,0.1,0,0.2c0,0.1,0,0.1,0,0.1c0,0,0,0.1-0.1,0.1s-0.1,0-0.1,0h-4.4c-0.1,0-0.1,0-0.2,0s-0.1,0-0.1-0.1
		c0,0-0.1-0.1-0.1-0.1c0-0.1,0-0.1,0-0.2c0-0.1,0-0.2,0-0.2s0-0.1,0-0.2c0,0,0-0.1,0.1-0.1c0,0,0.1-0.1,0.1-0.2l1.6-1.7
		c0.4-0.4,0.7-0.7,0.9-1c0.2-0.3,0.4-0.6,0.5-0.8c0.1-0.2,0.2-0.5,0.2-0.7s0.1-0.4,0.1-0.6c0-0.2,0-0.3-0.1-0.5
		c-0.1-0.2-0.1-0.3-0.3-0.4s-0.3-0.2-0.4-0.3c-0.2-0.1-0.4-0.1-0.6-0.1c-0.3,0-0.5,0-0.7,0.1c-0.2,0.1-0.4,0.1-0.5,0.2
		s-0.3,0.2-0.4,0.2c-0.1,0.1-0.2,0.1-0.2,0.1c0,0-0.1,0-0.1,0s0,0-0.1-0.1c0,0,0-0.1,0-0.1c0-0.1,0-0.1,0-0.2c0-0.1,0-0.1,0-0.2
		c0,0,0-0.1,0-0.1c0,0,0-0.1,0-0.1c0,0,0-0.1,0.1-0.1c0,0,0.1-0.1,0.3-0.2c0.1-0.1,0.3-0.1,0.5-0.2c0.2-0.1,0.4-0.1,0.6-0.2
		c0.2,0,0.5-0.1,0.7-0.1c0.4,0,0.7,0.1,1,0.2c0.3,0.1,0.5,0.3,0.7,0.5c0.2,0.2,0.3,0.4,0.4,0.7s0.1,0.5,0.1,0.8c0,0.3,0,0.5-0.1,0.8
		c0,0.3-0.1,0.5-0.3,0.8c-0.1,0.3-0.4,0.6-0.6,1c-0.3,0.4-0.6,0.8-1.1,1.3l-1.3,1.3h3.5c0,0,0.1,0,0.1,0c0,0,0.1,0,0.1,0.1
		c0,0,0,0.1,0,0.1C161.1,273.3,161.1,273.4,161.1,273.5z"/>
</g>
<g class="st3">
	<path d="M186.5,271.6c0,0.4-0.1,0.7-0.2,1c-0.1,0.3-0.3,0.5-0.6,0.8c-0.2,0.2-0.5,0.4-0.9,0.5c-0.4,0.1-0.8,0.2-1.2,0.2
		c-0.3,0-0.5,0-0.8-0.1c-0.2,0-0.4-0.1-0.6-0.2c-0.2-0.1-0.3-0.1-0.5-0.2s-0.2-0.1-0.2-0.1c0,0-0.1-0.1-0.1-0.1s0-0.1,0-0.1
		c0,0,0-0.1,0-0.2c0-0.1,0-0.1,0-0.2c0-0.1,0-0.3,0-0.3c0-0.1,0.1-0.1,0.1-0.1c0,0,0.1,0,0.2,0.1c0.1,0.1,0.3,0.1,0.4,0.2
		c0.2,0.1,0.4,0.1,0.6,0.2c0.2,0.1,0.5,0.1,0.8,0.1c0.3,0,0.5,0,0.7-0.1c0.2-0.1,0.4-0.2,0.5-0.3c0.1-0.1,0.3-0.3,0.3-0.5
		s0.1-0.4,0.1-0.6c0-0.2,0-0.4-0.1-0.6c-0.1-0.2-0.2-0.3-0.4-0.5c-0.2-0.1-0.4-0.2-0.7-0.3s-0.6-0.1-0.9-0.1h-0.8c0,0-0.1,0-0.1,0
		s-0.1,0-0.1-0.1c0,0,0-0.1-0.1-0.1c0-0.1,0-0.1,0-0.2c0-0.1,0-0.1,0-0.2c0-0.1,0-0.1,0.1-0.1c0,0,0-0.1,0.1-0.1s0.1,0,0.1,0h0.7
		c0.3,0,0.5,0,0.7-0.1s0.4-0.2,0.6-0.3c0.2-0.1,0.3-0.3,0.3-0.5s0.1-0.4,0.1-0.6c0-0.2,0-0.3-0.1-0.5s-0.1-0.3-0.2-0.4
		c-0.1-0.1-0.2-0.2-0.4-0.3c-0.2-0.1-0.4-0.1-0.6-0.1c-0.2,0-0.5,0-0.7,0.1s-0.4,0.2-0.5,0.2c-0.2,0.1-0.3,0.2-0.4,0.2
		c-0.1,0.1-0.2,0.1-0.2,0.1c0,0-0.1,0-0.1,0c0,0,0,0-0.1-0.1s0-0.1,0-0.1c0-0.1,0-0.1,0-0.2c0-0.1,0-0.1,0-0.2s0-0.1,0-0.1
		c0,0,0-0.1,0-0.1c0,0,0-0.1,0.1-0.1c0,0,0.1-0.1,0.2-0.2c0.1-0.1,0.3-0.1,0.4-0.2c0.2-0.1,0.4-0.1,0.6-0.2c0.2,0,0.5-0.1,0.7-0.1
		c0.4,0,0.7,0,1,0.1c0.3,0.1,0.5,0.2,0.7,0.4s0.3,0.4,0.4,0.6c0.1,0.2,0.1,0.5,0.1,0.8c0,0.3,0,0.5-0.1,0.7s-0.2,0.4-0.3,0.6
		c-0.1,0.2-0.3,0.3-0.5,0.4c-0.2,0.1-0.4,0.2-0.6,0.2v0c0.3,0,0.5,0.1,0.8,0.2c0.2,0.1,0.4,0.2,0.6,0.4c0.2,0.2,0.3,0.4,0.4,0.6
		C186.4,271.1,186.5,271.4,186.5,271.6z"/>
</g>
<path class="st0" d="M152.6,24.5c25.7,0.5,51.1,10.2,70.6,27.1c13.4,12.1,24.6,27.2,30.7,44.4c7.2,18.9,8.7,39.8,5,59.5
	c-4.1,20.7-13.9,40.2-28.6,55.4c-17.9,18.7-42.5,30.7-68.2,33.2c-22.3,2.6-45.1-2.4-64.6-13.2c-20.7-11.6-37.6-29.9-47.3-51.5
	c29.4-12.3,58.7-24.9,88.1-37.3c4.9-2,9.8-3.8,14.4-6.3C152.6,98.7,152.8,61.6,152.6,24.5z"/>
<path class="st2" d="M93.4,41.9c16.4-10.5,35.8-16.1,55.2-16.8c0,33.9,0.1,67.9-0.1,101.9c-5-4.2-8.6-9.8-12.9-14.8
	c-18.3-20.6-35.4-42.2-54-62.5C85.8,47.6,89.3,44.3,93.4,41.9z"/>
<path class="st1" d="M42.5,114.9c4.3-24.2,17-46.8,35.5-62.8c23.4,27.2,46.5,54.7,69.9,81.8c-33,14.1-66.1,28.1-99.1,42.2
	C41,156.8,38.7,135.4,42.5,114.9z"/>
<g class="st4">
	<path d="M214.3,181c0,0.5-0.1,0.9-0.2,1.4c-0.2,0.4-0.4,0.8-0.7,1.1c-0.3,0.3-0.6,0.5-1.1,0.7c-0.4,0.2-0.9,0.3-1.5,0.3
		c-0.4,0-0.8-0.1-1.2-0.2c-0.3-0.1-0.6-0.2-0.9-0.4c-0.2-0.2-0.4-0.4-0.6-0.7c-0.2-0.3-0.3-0.6-0.4-0.9c-0.1-0.3-0.2-0.7-0.2-1.1
		s-0.1-0.8-0.1-1.3c0-0.4,0-0.8,0.1-1.2c0-0.4,0.1-0.8,0.2-1.2c0.1-0.4,0.3-0.8,0.5-1.1c0.2-0.4,0.4-0.7,0.7-0.9
		c0.3-0.3,0.7-0.5,1.1-0.6c0.4-0.2,1-0.2,1.5-0.2c0.2,0,0.4,0,0.6,0s0.4,0.1,0.5,0.1c0.2,0,0.3,0.1,0.4,0.1c0.1,0,0.2,0.1,0.2,0.1
		s0.1,0.1,0.1,0.1c0,0,0,0.1,0,0.1c0,0,0,0.1,0,0.2c0,0.1,0,0.2,0,0.3c0,0.2,0,0.3,0,0.4c0,0.1,0,0.2,0,0.2s0,0.1-0.1,0.1
		c0,0-0.1,0-0.1,0c-0.1,0-0.1,0-0.2,0c-0.1,0-0.2-0.1-0.3-0.1c-0.1,0-0.3-0.1-0.5-0.1c-0.2,0-0.4,0-0.6,0c-0.4,0-0.7,0.1-1,0.2
		s-0.5,0.4-0.7,0.6c-0.2,0.3-0.3,0.6-0.4,0.9c-0.1,0.3-0.1,0.7-0.1,1.1c0.1-0.1,0.2-0.1,0.4-0.2c0.1-0.1,0.3-0.1,0.5-0.2
		s0.3-0.1,0.5-0.1c0.2,0,0.4,0,0.6,0c0.5,0,0.9,0.1,1.3,0.2c0.3,0.1,0.6,0.3,0.9,0.6c0.2,0.2,0.4,0.5,0.5,0.9
		C214.3,180.2,214.3,180.6,214.3,181z M212.4,181.2c0-0.3,0-0.5-0.1-0.7s-0.1-0.4-0.2-0.5s-0.2-0.2-0.4-0.3
		c-0.2-0.1-0.4-0.1-0.6-0.1c-0.1,0-0.3,0-0.4,0c-0.1,0-0.3,0.1-0.4,0.1c-0.1,0-0.3,0.1-0.4,0.2c-0.1,0.1-0.2,0.1-0.3,0.2
		c0,0.5,0,1,0.1,1.3c0.1,0.4,0.1,0.6,0.3,0.8c0.1,0.2,0.3,0.4,0.4,0.4c0.2,0.1,0.4,0.1,0.6,0.1c0.2,0,0.4,0,0.6-0.1
		c0.2-0.1,0.3-0.2,0.4-0.4c0.1-0.2,0.2-0.3,0.3-0.5C212.4,181.7,212.4,181.5,212.4,181.2z"/>
	<path d="M222,179c0,0.4,0,0.8-0.1,1.2c0,0.4-0.1,0.8-0.2,1.2c-0.1,0.4-0.3,0.8-0.5,1.1s-0.4,0.7-0.8,1c-0.3,0.3-0.7,0.5-1.1,0.6
		s-1,0.2-1.6,0.2c-0.2,0-0.4,0-0.6,0c-0.2,0-0.4-0.1-0.6-0.1s-0.3-0.1-0.4-0.1c-0.1,0-0.2-0.1-0.3-0.2c-0.1-0.1-0.1-0.1-0.1-0.2
		c0-0.1,0-0.2,0-0.4c0-0.2,0-0.3,0-0.4c0-0.1,0-0.2,0-0.2s0-0.1,0.1-0.1c0,0,0.1,0,0.1,0c0.1,0,0.1,0,0.3,0.1c0.1,0,0.2,0.1,0.4,0.1
		c0.2,0,0.3,0.1,0.5,0.1c0.2,0,0.4,0.1,0.7,0.1c0.4,0,0.8-0.1,1.1-0.2c0.3-0.1,0.5-0.4,0.7-0.6c0.2-0.3,0.3-0.5,0.4-0.9
		s0.1-0.7,0.1-1.1c-0.2,0.1-0.5,0.3-0.8,0.4c-0.3,0.1-0.7,0.2-1.1,0.2c-0.5,0-0.9-0.1-1.3-0.2c-0.4-0.1-0.6-0.3-0.9-0.6
		c-0.2-0.3-0.4-0.6-0.5-0.9c-0.1-0.4-0.2-0.8-0.2-1.2c0-0.5,0.1-0.9,0.2-1.3c0.1-0.4,0.4-0.8,0.6-1.1s0.6-0.5,1.1-0.7
		c0.4-0.2,0.9-0.2,1.5-0.2c0.4,0,0.8,0.1,1.2,0.2s0.6,0.3,0.9,0.4c0.2,0.2,0.4,0.4,0.6,0.7c0.2,0.3,0.3,0.6,0.4,0.9s0.2,0.7,0.2,1.1
		C221.9,178.2,222,178.6,222,179z M220,178.7c0-0.5,0-1-0.1-1.3c-0.1-0.4-0.1-0.6-0.3-0.9s-0.3-0.4-0.4-0.5
		c-0.2-0.1-0.4-0.1-0.6-0.1c-0.2,0-0.4,0-0.6,0.1c-0.2,0.1-0.3,0.2-0.4,0.3s-0.2,0.3-0.3,0.5c-0.1,0.2-0.1,0.4-0.1,0.7
		c0,0.3,0,0.5,0.1,0.7c0,0.2,0.1,0.4,0.2,0.5c0.1,0.1,0.2,0.2,0.4,0.3s0.4,0.1,0.6,0.1c0.3,0,0.6,0,0.8-0.1S219.8,178.9,220,178.7z"
		/>
	<path d="M227.4,177c0,0.4,0,0.7-0.1,1.1s-0.2,0.6-0.4,0.8c-0.2,0.2-0.4,0.4-0.7,0.5s-0.6,0.2-1,0.2c-0.4,0-0.8-0.1-1.1-0.2
		c-0.3-0.1-0.5-0.3-0.7-0.5c-0.2-0.2-0.3-0.5-0.4-0.8s-0.1-0.6-0.1-1c0-0.4,0-0.7,0.1-1c0.1-0.3,0.2-0.6,0.4-0.8
		c0.2-0.2,0.4-0.4,0.7-0.5c0.3-0.1,0.6-0.2,1-0.2c0.4,0,0.8,0.1,1.1,0.2c0.3,0.1,0.5,0.3,0.7,0.5s0.3,0.5,0.3,0.8
		C227.4,176.3,227.4,176.7,227.4,177z M225.4,184.2c0,0.1-0.1,0.1-0.1,0.1c0,0-0.1,0.1-0.2,0.1c-0.1,0-0.2,0-0.3,0.1
		c-0.1,0-0.2,0-0.4,0c-0.2,0-0.3,0-0.4,0c-0.1,0-0.2,0-0.2-0.1c0,0-0.1-0.1-0.1-0.1c0-0.1,0-0.1,0.1-0.2l6.9-9.4
		c0-0.1,0.1-0.1,0.1-0.1s0.1-0.1,0.2-0.1c0.1,0,0.2,0,0.3-0.1c0.1,0,0.2,0,0.4,0c0.2,0,0.3,0,0.4,0c0.1,0,0.2,0,0.2,0.1
		c0,0,0.1,0.1,0,0.1s0,0.1-0.1,0.2L225.4,184.2z M226,177c0-0.3,0-0.5,0-0.7s-0.1-0.3-0.1-0.5c-0.1-0.1-0.1-0.2-0.2-0.3
		s-0.2-0.1-0.4-0.1c-0.1,0-0.2,0-0.3,0.1c-0.1,0.1-0.2,0.1-0.2,0.3c-0.1,0.1-0.1,0.3-0.1,0.5s0,0.4,0,0.7c0,0.3,0,0.6,0.1,0.8
		s0.1,0.4,0.1,0.5c0.1,0.1,0.1,0.2,0.2,0.2s0.2,0.1,0.3,0.1c0.1,0,0.3,0,0.4-0.1c0.1-0.1,0.2-0.1,0.2-0.3c0.1-0.1,0.1-0.3,0.1-0.5
		C226,177.5,226,177.3,226,177z M233.3,181.8c0,0.4,0,0.7-0.1,1.1c-0.1,0.3-0.2,0.6-0.4,0.8c-0.2,0.2-0.4,0.4-0.7,0.5
		c-0.3,0.1-0.6,0.2-1,0.2c-0.4,0-0.8-0.1-1.1-0.2c-0.3-0.1-0.5-0.3-0.7-0.5c-0.2-0.2-0.3-0.5-0.4-0.8c-0.1-0.3-0.1-0.6-0.1-1
		c0-0.4,0-0.7,0.1-1c0.1-0.3,0.2-0.6,0.4-0.8c0.2-0.2,0.4-0.4,0.7-0.5s0.6-0.2,1-0.2c0.4,0,0.8,0.1,1.1,0.2c0.3,0.1,0.5,0.3,0.7,0.5
		s0.3,0.5,0.3,0.8C233.2,181.2,233.3,181.5,233.3,181.8z M231.8,181.9c0-0.3,0-0.5,0-0.7c0-0.2-0.1-0.3-0.1-0.5
		c-0.1-0.1-0.1-0.2-0.2-0.3s-0.2-0.1-0.4-0.1c-0.1,0-0.2,0-0.3,0.1c-0.1,0.1-0.2,0.1-0.2,0.3c-0.1,0.1-0.1,0.3-0.1,0.5s0,0.4,0,0.7
		c0,0.3,0,0.6,0.1,0.8c0,0.2,0.1,0.4,0.1,0.5c0.1,0.1,0.1,0.2,0.2,0.2c0.1,0,0.2,0.1,0.3,0.1c0.1,0,0.3,0,0.4-0.1
		c0.1-0.1,0.2-0.1,0.2-0.3s0.1-0.3,0.1-0.5C231.8,182.3,231.8,182.1,231.8,181.9z"/>
</g>
<g class="st4">
	<path d="M62.5,123.8c0,0.1,0,0.3,0,0.4c0,0.1,0,0.2-0.1,0.3s-0.1,0.1-0.1,0.1c0,0-0.1,0-0.1,0h-5.5c-0.1,0-0.2,0-0.3,0
		c-0.1,0-0.1-0.1-0.2-0.1c0-0.1-0.1-0.1-0.1-0.3s0-0.3,0-0.4c0-0.2,0-0.3,0-0.4c0-0.1,0-0.2,0.1-0.3c0-0.1,0.1-0.2,0.2-0.3
		s0.1-0.2,0.2-0.3l1.7-1.8c0.3-0.3,0.6-0.7,0.8-1c0.2-0.3,0.4-0.5,0.5-0.8c0.1-0.2,0.2-0.5,0.2-0.7c0-0.2,0.1-0.4,0.1-0.6
		c0-0.2,0-0.3-0.1-0.5c-0.1-0.1-0.1-0.3-0.2-0.4c-0.1-0.1-0.2-0.2-0.4-0.3c-0.2-0.1-0.3-0.1-0.5-0.1c-0.3,0-0.6,0-0.8,0.1
		c-0.2,0.1-0.4,0.2-0.6,0.3c-0.2,0.1-0.3,0.2-0.4,0.3s-0.2,0.1-0.3,0.1c0,0-0.1,0-0.1,0c0,0-0.1-0.1-0.1-0.1c0-0.1,0-0.2,0-0.3
		c0-0.1,0-0.3,0-0.4c0-0.1,0-0.2,0-0.3c0-0.1,0-0.1,0-0.2c0-0.1,0-0.1,0.1-0.1s0.1-0.1,0.1-0.2c0.1-0.1,0.2-0.1,0.3-0.2
		c0.2-0.1,0.4-0.2,0.6-0.3s0.5-0.2,0.8-0.2s0.6-0.1,0.9-0.1c0.5,0,0.9,0.1,1.3,0.2s0.7,0.3,0.9,0.5c0.2,0.2,0.4,0.5,0.6,0.8
		c0.1,0.3,0.2,0.6,0.2,1c0,0.3,0,0.6-0.1,0.9c-0.1,0.3-0.2,0.6-0.4,1c-0.2,0.4-0.5,0.7-0.8,1.2c-0.3,0.4-0.8,0.9-1.4,1.5l-1.1,1.2
		h3.8c0,0,0.1,0,0.1,0c0,0,0.1,0.1,0.1,0.1c0,0.1,0.1,0.1,0.1,0.2C62.5,123.6,62.5,123.7,62.5,123.8z"/>
	<path d="M70.4,119.8c0,0.8-0.1,1.5-0.2,2.1c-0.1,0.6-0.3,1.2-0.6,1.6s-0.6,0.8-1.1,1c-0.5,0.2-1,0.4-1.7,0.4
		c-0.7,0-1.2-0.1-1.6-0.3c-0.4-0.2-0.8-0.6-1-1c-0.3-0.4-0.4-0.9-0.5-1.6c-0.1-0.6-0.2-1.3-0.2-2.1c0-0.8,0.1-1.5,0.2-2.1
		s0.3-1.2,0.6-1.6c0.3-0.4,0.6-0.8,1.1-1c0.4-0.2,1-0.4,1.6-0.4c0.7,0,1.2,0.1,1.6,0.3s0.8,0.6,1,1c0.3,0.4,0.4,0.9,0.5,1.6
		C70.4,118.3,70.4,119,70.4,119.8z M68.4,119.9c0-0.5,0-0.9,0-1.2s-0.1-0.7-0.1-0.9c-0.1-0.3-0.1-0.5-0.2-0.7
		c-0.1-0.2-0.2-0.3-0.3-0.4c-0.1-0.1-0.2-0.2-0.4-0.2c-0.1,0-0.3-0.1-0.5-0.1c-0.3,0-0.5,0.1-0.7,0.2c-0.2,0.1-0.3,0.4-0.5,0.6
		c-0.1,0.3-0.2,0.6-0.2,1.1c0,0.4-0.1,0.9-0.1,1.5c0,0.7,0,1.3,0.1,1.7s0.1,0.8,0.3,1.1c0.1,0.3,0.3,0.5,0.5,0.6
		c0.2,0.1,0.4,0.2,0.7,0.2c0.2,0,0.4,0,0.5-0.1c0.1-0.1,0.3-0.2,0.4-0.3s0.2-0.3,0.3-0.5c0.1-0.2,0.1-0.4,0.2-0.7
		c0-0.2,0.1-0.5,0.1-0.8C68.4,120.6,68.4,120.2,68.4,119.9z"/>
	<path d="M75.7,117.3c0,0.4,0,0.7-0.1,1.1s-0.2,0.6-0.4,0.8c-0.2,0.2-0.4,0.4-0.7,0.5c-0.3,0.1-0.6,0.2-1,0.2
		c-0.4,0-0.8-0.1-1.1-0.2c-0.3-0.1-0.5-0.3-0.7-0.5c-0.2-0.2-0.3-0.5-0.4-0.8c-0.1-0.3-0.1-0.6-0.1-1c0-0.4,0-0.7,0.1-1
		c0.1-0.3,0.2-0.6,0.4-0.8c0.2-0.2,0.4-0.4,0.7-0.5c0.3-0.1,0.6-0.2,1-0.2c0.4,0,0.8,0.1,1.1,0.2c0.3,0.1,0.5,0.3,0.7,0.5
		s0.3,0.5,0.3,0.8C75.7,116.7,75.7,117,75.7,117.3z M73.7,124.6c0,0.1-0.1,0.1-0.1,0.1c0,0-0.1,0.1-0.2,0.1c-0.1,0-0.2,0-0.3,0.1
		c-0.1,0-0.2,0-0.4,0c-0.2,0-0.3,0-0.4,0c-0.1,0-0.2,0-0.2-0.1c0,0-0.1-0.1-0.1-0.1c0-0.1,0-0.1,0.1-0.2l6.9-9.4
		c0-0.1,0.1-0.1,0.1-0.1s0.1-0.1,0.2-0.1c0.1,0,0.2,0,0.3-0.1c0.1,0,0.2,0,0.4,0c0.2,0,0.3,0,0.4,0c0.1,0,0.2,0,0.2,0.1
		c0,0,0.1,0.1,0,0.1s0,0.1-0.1,0.2L73.7,124.6z M74.2,117.4c0-0.3,0-0.5,0-0.7s-0.1-0.3-0.1-0.5c-0.1-0.1-0.1-0.2-0.2-0.3
		s-0.2-0.1-0.4-0.1c-0.1,0-0.2,0-0.3,0.1c-0.1,0.1-0.2,0.1-0.2,0.3c-0.1,0.1-0.1,0.3-0.1,0.5s0,0.4,0,0.7c0,0.3,0,0.6,0.1,0.8
		c0,0.2,0.1,0.4,0.1,0.5c0.1,0.1,0.1,0.2,0.2,0.2c0.1,0,0.2,0.1,0.3,0.1c0.1,0,0.3,0,0.4-0.1c0.1-0.1,0.2-0.1,0.2-0.3
		s0.1-0.3,0.1-0.5C74.2,117.9,74.2,117.7,74.2,117.4z M81.5,122.2c0,0.4,0,0.7-0.1,1.1c-0.1,0.3-0.2,0.6-0.4,0.8s-0.4,0.4-0.7,0.5
		c-0.3,0.1-0.6,0.2-1,0.2c-0.4,0-0.8-0.1-1.1-0.2c-0.3-0.1-0.5-0.3-0.7-0.5c-0.2-0.2-0.3-0.5-0.4-0.8c-0.1-0.3-0.1-0.6-0.1-1
		c0-0.4,0-0.7,0.1-1c0.1-0.3,0.2-0.6,0.4-0.8c0.2-0.2,0.4-0.4,0.7-0.5c0.3-0.1,0.6-0.2,1-0.2c0.4,0,0.8,0.1,1.1,0.2
		c0.3,0.1,0.5,0.3,0.7,0.5s0.3,0.5,0.3,0.8C81.5,121.5,81.5,121.8,81.5,122.2z M80.1,122.2c0-0.3,0-0.5,0-0.7s-0.1-0.3-0.1-0.5
		c-0.1-0.1-0.1-0.2-0.2-0.3s-0.2-0.1-0.4-0.1c-0.1,0-0.2,0-0.3,0.1c-0.1,0.1-0.2,0.1-0.2,0.3c-0.1,0.1-0.1,0.3-0.1,0.5s0,0.4,0,0.7
		c0,0.3,0,0.6,0.1,0.8s0.1,0.4,0.1,0.5c0.1,0.1,0.1,0.2,0.2,0.2c0.1,0,0.2,0.1,0.3,0.1c0.1,0,0.3,0,0.4-0.1c0.1-0.1,0.2-0.1,0.2-0.3
		s0.1-0.3,0.1-0.5C80,122.7,80.1,122.5,80.1,122.2z"/>
</g>
<g class="st4">
	<path d="M115.4,55.8c0,0.1,0,0.3,0,0.4c0,0.1,0,0.2-0.1,0.2c0,0.1-0.1,0.1-0.1,0.1c0,0-0.1,0-0.1,0h-5.3c0,0-0.1,0-0.1,0
		c0,0-0.1-0.1-0.1-0.1c0-0.1,0-0.1-0.1-0.2c0-0.1,0-0.2,0-0.4c0-0.1,0-0.3,0-0.4c0-0.1,0-0.2,0.1-0.2s0.1-0.1,0.1-0.1
		c0,0,0.1,0,0.1,0h1.8v-6.3l-1.6,0.9c-0.1,0.1-0.2,0.1-0.3,0.1c-0.1,0-0.1,0-0.2,0c0,0-0.1-0.1-0.1-0.2c0-0.1,0-0.3,0-0.4
		c0-0.1,0-0.2,0-0.3c0-0.1,0-0.1,0-0.2s0-0.1,0.1-0.1c0,0,0.1-0.1,0.1-0.1l2.1-1.3c0,0,0.1,0,0.1,0c0,0,0.1,0,0.1,0
		c0.1,0,0.1,0,0.2,0c0.1,0,0.2,0,0.4,0c0.2,0,0.3,0,0.5,0c0.1,0,0.2,0,0.3,0s0.1,0,0.1,0.1c0,0,0,0.1,0,0.1v8h1.6c0,0,0.1,0,0.1,0
		c0,0,0.1,0.1,0.1,0.1s0,0.1,0.1,0.2C115.4,55.6,115.4,55.7,115.4,55.8z"/>
	<path d="M123.2,55.8c0,0.1,0,0.3,0,0.4c0,0.1,0,0.2-0.1,0.2c0,0.1-0.1,0.1-0.1,0.1c0,0-0.1,0-0.1,0h-5.3c0,0-0.1,0-0.1,0
		c0,0-0.1-0.1-0.1-0.1c0-0.1,0-0.1-0.1-0.2c0-0.1,0-0.2,0-0.4c0-0.1,0-0.3,0-0.4c0-0.1,0-0.2,0.1-0.2s0.1-0.1,0.1-0.1
		c0,0,0.1,0,0.1,0h1.8v-6.3l-1.6,0.9c-0.1,0.1-0.2,0.1-0.3,0.1c-0.1,0-0.1,0-0.2,0c0,0-0.1-0.1-0.1-0.2c0-0.1,0-0.3,0-0.4
		c0-0.1,0-0.2,0-0.3c0-0.1,0-0.1,0-0.2s0-0.1,0.1-0.1c0,0,0.1-0.1,0.1-0.1l2.1-1.3c0,0,0.1,0,0.1,0c0,0,0.1,0,0.1,0
		c0.1,0,0.1,0,0.2,0c0.1,0,0.2,0,0.4,0c0.2,0,0.3,0,0.5,0c0.1,0,0.2,0,0.3,0s0.1,0,0.1,0.1c0,0,0,0.1,0,0.1v8h1.6c0,0,0.1,0,0.1,0
		c0,0,0.1,0.1,0.1,0.1s0,0.1,0.1,0.2C123.1,55.6,123.2,55.7,123.2,55.8z"/>
	<path d="M128.7,49.3c0,0.4,0,0.7-0.1,1.1s-0.2,0.6-0.4,0.8c-0.2,0.2-0.4,0.4-0.7,0.5c-0.3,0.1-0.6,0.2-1,0.2
		c-0.4,0-0.8-0.1-1.1-0.2c-0.3-0.1-0.5-0.3-0.7-0.5c-0.2-0.2-0.3-0.5-0.4-0.8c-0.1-0.3-0.1-0.6-0.1-1c0-0.4,0-0.7,0.1-1
		c0.1-0.3,0.2-0.6,0.4-0.8c0.2-0.2,0.4-0.4,0.7-0.5c0.3-0.1,0.6-0.2,1-0.2c0.4,0,0.8,0.1,1.1,0.2c0.3,0.1,0.5,0.3,0.7,0.5
		s0.3,0.5,0.3,0.8C128.7,48.7,128.7,49,128.7,49.3z M126.7,56.5c0,0.1-0.1,0.1-0.1,0.1c0,0-0.1,0.1-0.2,0.1c-0.1,0-0.2,0-0.3,0.1
		c-0.1,0-0.2,0-0.4,0c-0.2,0-0.3,0-0.4,0c-0.1,0-0.2,0-0.2-0.1c0,0-0.1-0.1-0.1-0.1c0-0.1,0-0.1,0.1-0.2l6.9-9.4
		c0-0.1,0.1-0.1,0.1-0.1s0.1-0.1,0.2-0.1c0.1,0,0.2,0,0.3-0.1c0.1,0,0.2,0,0.4,0c0.2,0,0.3,0,0.4,0c0.1,0,0.2,0,0.2,0.1
		c0,0,0.1,0.1,0,0.1s0,0.1-0.1,0.2L126.7,56.5z M127.3,49.4c0-0.3,0-0.5,0-0.7s-0.1-0.3-0.1-0.5c-0.1-0.1-0.1-0.2-0.2-0.3
		s-0.2-0.1-0.4-0.1c-0.1,0-0.2,0-0.3,0.1c-0.1,0.1-0.2,0.1-0.2,0.3c-0.1,0.1-0.1,0.3-0.1,0.5s0,0.4,0,0.7c0,0.3,0,0.6,0.1,0.8
		c0,0.2,0.1,0.4,0.1,0.5c0.1,0.1,0.1,0.2,0.2,0.2c0.1,0,0.2,0.1,0.3,0.1c0.1,0,0.3,0,0.4-0.1c0.1-0.1,0.2-0.1,0.2-0.3
		s0.1-0.3,0.1-0.5C127.3,49.8,127.3,49.6,127.3,49.4z M134.6,54.1c0,0.4,0,0.7-0.1,1.1c-0.1,0.3-0.2,0.6-0.4,0.8s-0.4,0.4-0.7,0.5
		c-0.3,0.1-0.6,0.2-1,0.2c-0.4,0-0.8-0.1-1.1-0.2c-0.3-0.1-0.5-0.3-0.7-0.5c-0.2-0.2-0.3-0.5-0.4-0.8c-0.1-0.3-0.1-0.6-0.1-1
		c0-0.4,0-0.7,0.1-1c0.1-0.3,0.2-0.6,0.4-0.8c0.2-0.2,0.4-0.4,0.7-0.5c0.3-0.1,0.6-0.2,1-0.2c0.4,0,0.8,0.1,1.1,0.2
		c0.3,0.1,0.5,0.3,0.7,0.5s0.3,0.5,0.3,0.8C134.5,53.5,134.6,53.8,134.6,54.1z M133.1,54.2c0-0.3,0-0.5,0-0.7s-0.1-0.3-0.1-0.5
		c-0.1-0.1-0.1-0.2-0.2-0.3s-0.2-0.1-0.4-0.1c-0.1,0-0.2,0-0.3,0.1c-0.1,0.1-0.2,0.1-0.2,0.3c-0.1,0.1-0.1,0.3-0.1,0.5s0,0.4,0,0.7
		c0,0.3,0,0.6,0.1,0.8s0.1,0.4,0.1,0.5c0.1,0.1,0.1,0.2,0.2,0.2c0.1,0,0.2,0.1,0.3,0.1c0.1,0,0.3,0,0.4-0.1c0.1-0.1,0.2-0.1,0.2-0.3
		s0.1-0.3,0.1-0.5C133.1,54.7,133.1,54.4,133.1,54.2z"/>
</g>
</svg>
