<?xml version="1.0" encoding="utf-8"?>
<!-- Generator: Adobe Illustrator 23.0.5, SVG Export Plug-In . SVG Version: 6.00 Build 0)  -->
<svg version="1.1" id="Layer_1" xmlns="http://www.w3.org/2000/svg" xmlns:xlink="http://www.w3.org/1999/xlink" x="0px" y="0px"
	 viewBox="0 0 300 300" style="enable-background:new 0 0 300 300;" xml:space="preserve">
<style type="text/css">
	.st0{fill:#4472C4;stroke:#4472C4;stroke-width:9.375000e-02;}
	.st1{fill:#ED7D31;stroke:#ED7D31;stroke-width:9.375000e-02;}
	.st2{fill:#A5A5A5;stroke:#A5A5A5;stroke-width:9.375000e-02;}
	.st3{enable-background:new    ;}
	.st4{opacity:0.8;enable-background:new    ;}
</style>
<path class="st0" d="M119.8,267.7c1.7,0,3.4,0,5.1,0c0,1.7,0,3.4,0,5.1c-1.7,0-3.4,0-5.1,0C119.8,271.2,119.8,269.4,119.8,267.7z"/>
<path class="st1" d="M145.3,267.7c1.7,0,3.4,0,5.1,0c0,1.7,0,3.4,0,5.1c-1.7,0-3.4,0-5.1,0C145.3,271.2,145.3,269.4,145.3,267.7z"/>
<path class="st2" d="M170.7,267.7c1.7,0,3.4,0,5.1,0c0,1.7,0,3.4,0,5.1c-1.7,0-3.4,0-5.1,0C170.7,271.2,170.7,269.4,170.7,267.7z"/>
<g class="st3">
	<path d="M135.6,273.5c0,0.1,0,0.1,0,0.2c0,0.1,0,0.1,0,0.1c0,0,0,0.1-0.1,0.1s-0.1,0-0.1,0h-4.2c0,0-0.1,0-0.1,0s0,0-0.1-0.1
		c0,0,0-0.1-0.1-0.1c0-0.1,0-0.1,0-0.2c0-0.1,0-0.1,0-0.2c0-0.1,0-0.1,0-0.1s0-0.1,0.1-0.1c0,0,0.1,0,0.1,0h1.7v-6.1l-1.6,0.9
		c-0.1,0-0.1,0.1-0.2,0.1c0,0-0.1,0-0.1,0c0,0,0-0.1-0.1-0.1c0-0.1,0-0.1,0-0.2c0-0.1,0-0.1,0-0.2c0,0,0-0.1,0-0.1s0-0.1,0.1-0.1
		s0.1,0,0.1-0.1l1.9-1.2c0,0,0,0,0.1,0c0,0,0.1,0,0.1,0c0,0,0.1,0,0.1,0s0.1,0,0.2,0c0.1,0,0.2,0,0.2,0c0.1,0,0.1,0,0.2,0
		c0,0,0.1,0,0.1,0.1c0,0,0,0,0,0.1v7.1h1.5c0,0,0.1,0,0.1,0c0,0,0.1,0,0.1,0.1s0,0.1,0,0.1S135.6,273.4,135.6,273.5z"/>
</g>
<g class="st3">
	<path d="M161.1,273.5c0,0.1,0,0.1,0,0.2c0,0.1,0,0.1,0,0.1c0,0,0,0.1-0.1,0.1s-0.1,0-0.1,0h-4.4c-0.1,0-0.1,0-0.2,0s-0.1,0-0.1-0.1
		c0,0-0.1-0.1-0.1-0.1c0-0.1,0-0.1,0-0.2c0-0.1,0-0.2,0-0.2s0-0.1,0-0.2c0,0,0-0.1,0.1-0.1c0,0,0.1-0.1,0.1-0.2l1.6-1.7
		c0.4-0.4,0.7-0.7,0.9-1c0.2-0.3,0.4-0.6,0.5-0.8c0.1-0.2,0.2-0.5,0.2-0.7s0.1-0.4,0.1-0.6c0-0.2,0-0.3-0.1-0.5
		c-0.1-0.2-0.1-0.3-0.3-0.4s-0.3-0.2-0.4-0.3c-0.2-0.1-0.4-0.1-0.6-0.1c-0.3,0-0.5,0-0.7,0.1c-0.2,0.1-0.4,0.1-0.5,0.2
		s-0.3,0.2-0.4,0.2c-0.1,0.1-0.2,0.1-0.2,0.1c0,0-0.1,0-0.1,0s0,0-0.1-0.1c0,0,0-0.1,0-0.1c0-0.1,0-0.1,0-0.2c0-0.1,0-0.1,0-0.2
		c0,0,0-0.1,0-0.1c0,0,0-0.1,0-0.1c0,0,0-0.1,0.1-0.1c0,0,0.1-0.1,0.3-0.2c0.1-0.1,0.3-0.1,0.5-0.2c0.2-0.1,0.4-0.1,0.6-0.2
		c0.2,0,0.5-0.1,0.7-0.1c0.4,0,0.7,0.1,1,0.2c0.3,0.1,0.5,0.3,0.7,0.5c0.2,0.2,0.3,0.4,0.4,0.7s0.1,0.5,0.1,0.8c0,0.3,0,0.5-0.1,0.8
		c0,0.3-0.1,0.5-0.3,0.8c-0.1,0.3-0.4,0.6-0.6,1c-0.3,0.4-0.6,0.8-1.1,1.3l-1.3,1.3h3.5c0,0,0.1,0,0.1,0c0,0,0.1,0,0.1,0.1
		c0,0,0,0.1,0,0.1C161.1,273.3,161.1,273.4,161.1,273.5z"/>
</g>
<g class="st3">
	<path d="M186.5,271.6c0,0.4-0.1,0.7-0.2,1c-0.1,0.3-0.3,0.5-0.6,0.8c-0.2,0.2-0.5,0.4-0.9,0.5c-0.4,0.1-0.8,0.2-1.2,0.2
		c-0.3,0-0.5,0-0.8-0.1c-0.2,0-0.4-0.1-0.6-0.2c-0.2-0.1-0.3-0.1-0.5-0.2s-0.2-0.1-0.2-0.1c0,0-0.1-0.1-0.1-0.1s0-0.1,0-0.1
		c0,0,0-0.1,0-0.2c0-0.1,0-0.1,0-0.2c0-0.1,0-0.3,0-0.3c0-0.1,0.1-0.1,0.1-0.1c0,0,0.1,0,0.2,0.1c0.1,0.1,0.3,0.1,0.4,0.2
		c0.2,0.1,0.4,0.1,0.6,0.2c0.2,0.1,0.5,0.1,0.8,0.1c0.3,0,0.5,0,0.7-0.1c0.2-0.1,0.4-0.2,0.5-0.3c0.1-0.1,0.3-0.3,0.3-0.5
		s0.1-0.4,0.1-0.6c0-0.2,0-0.4-0.1-0.6c-0.1-0.2-0.2-0.3-0.4-0.5c-0.2-0.1-0.4-0.2-0.7-0.3s-0.6-0.1-0.9-0.1h-0.8c0,0-0.1,0-0.1,0
		s-0.1,0-0.1-0.1c0,0,0-0.1-0.1-0.1c0-0.1,0-0.1,0-0.2c0-0.1,0-0.1,0-0.2c0-0.1,0-0.1,0.1-0.1c0,0,0-0.1,0.1-0.1s0.1,0,0.1,0h0.7
		c0.3,0,0.5,0,0.7-0.1s0.4-0.2,0.6-0.3c0.2-0.1,0.3-0.3,0.3-0.5s0.1-0.4,0.1-0.6c0-0.2,0-0.3-0.1-0.5s-0.1-0.3-0.2-0.4
		c-0.1-0.1-0.2-0.2-0.4-0.3c-0.2-0.1-0.4-0.1-0.6-0.1c-0.2,0-0.5,0-0.7,0.1s-0.4,0.2-0.5,0.2c-0.2,0.1-0.3,0.2-0.4,0.2
		c-0.1,0.1-0.2,0.1-0.2,0.1c0,0-0.1,0-0.1,0c0,0,0,0-0.1-0.1s0-0.1,0-0.1c0-0.1,0-0.1,0-0.2c0-0.1,0-0.1,0-0.2s0-0.1,0-0.1
		c0,0,0-0.1,0-0.1c0,0,0-0.1,0.1-0.1c0,0,0.1-0.1,0.2-0.2c0.1-0.1,0.3-0.1,0.4-0.2c0.2-0.1,0.4-0.1,0.6-0.2c0.2,0,0.5-0.1,0.7-0.1
		c0.4,0,0.7,0,1,0.1c0.3,0.1,0.5,0.2,0.7,0.4s0.3,0.4,0.4,0.6c0.1,0.2,0.1,0.5,0.1,0.8c0,0.3,0,0.5-0.1,0.7s-0.2,0.4-0.3,0.6
		c-0.1,0.2-0.3,0.3-0.5,0.4c-0.2,0.1-0.4,0.2-0.6,0.2v0c0.3,0,0.5,0.1,0.8,0.2c0.2,0.1,0.4,0.2,0.6,0.4c0.2,0.2,0.3,0.4,0.4,0.6
		C186.4,271.1,186.5,271.4,186.5,271.6z"/>
</g>
<path class="st0" d="M79.5,49.3c19.1-15.7,43.6-24.9,68.3-25.1c0,37.6-0.1,75.1,0,112.8c1,0,2.8,0,3.9,0c0.1-37.6,0-75.1,0-112.8
	c40.6,0,80,24.7,97.7,61.3c18.7,36.7,14.3,83.8-11,116.4c-24.5,33.3-69,50.3-109.6,41.9c-21.1-4.3-41.5-14.4-56.6-30
	c-16.6-15.9-27.6-37.2-31.4-59.7c-4.8-25.5,0.5-52.5,13.4-74.9C60.6,67.6,69.9,58.2,79.5,49.3z"/>
<g class="st4">
	<path d="M140.1,228.5c0,0.1,0,0.3,0,0.4c0,0.1,0,0.2-0.1,0.2c0,0.1-0.1,0.1-0.1,0.1c0,0-0.1,0-0.1,0h-5.3c0,0-0.1,0-0.1,0
		c0,0-0.1-0.1-0.1-0.1c0-0.1,0-0.1-0.1-0.2c0-0.1,0-0.2,0-0.4c0-0.1,0-0.3,0-0.4c0-0.1,0-0.2,0.1-0.2s0.1-0.1,0.1-0.1
		c0,0,0.1,0,0.1,0h1.8v-6.3l-1.6,0.9c-0.1,0.1-0.2,0.1-0.3,0.1c-0.1,0-0.1,0-0.2,0c0,0-0.1-0.1-0.1-0.2c0-0.1,0-0.3,0-0.4
		c0-0.1,0-0.2,0-0.3c0-0.1,0-0.1,0-0.2s0-0.1,0.1-0.1c0,0,0.1-0.1,0.1-0.1l2.1-1.3c0,0,0.1,0,0.1,0c0,0,0.1,0,0.1,0
		c0.1,0,0.1,0,0.2,0c0.1,0,0.2,0,0.4,0c0.2,0,0.3,0,0.5,0c0.1,0,0.2,0,0.3,0s0.1,0,0.1,0.1c0,0,0,0.1,0,0.1v8h1.6c0,0,0.1,0,0.1,0
		c0,0,0.1,0.1,0.1,0.1s0,0.1,0.1,0.2C140.1,228.3,140.1,228.4,140.1,228.5z"/>
	<path d="M148.1,224.4c0,0.8-0.1,1.5-0.2,2.1c-0.1,0.6-0.3,1.2-0.6,1.6s-0.6,0.8-1.1,1c-0.5,0.2-1,0.4-1.7,0.4
		c-0.7,0-1.2-0.1-1.6-0.3c-0.4-0.2-0.8-0.6-1-1c-0.3-0.4-0.4-0.9-0.5-1.6c-0.1-0.6-0.2-1.3-0.2-2.1c0-0.8,0.1-1.5,0.2-2.1
		s0.3-1.2,0.6-1.6c0.3-0.4,0.6-0.8,1.1-1c0.4-0.2,1-0.4,1.6-0.4c0.7,0,1.2,0.1,1.6,0.3s0.8,0.6,1,1c0.3,0.4,0.4,0.9,0.5,1.6
		C148.1,222.9,148.1,223.6,148.1,224.4z M146.2,224.5c0-0.5,0-0.9,0-1.2s-0.1-0.7-0.1-0.9c-0.1-0.3-0.1-0.5-0.2-0.7
		c-0.1-0.2-0.2-0.3-0.3-0.4c-0.1-0.1-0.2-0.2-0.4-0.2c-0.1,0-0.3-0.1-0.5-0.1c-0.3,0-0.5,0.1-0.7,0.2c-0.2,0.1-0.3,0.4-0.5,0.6
		c-0.1,0.3-0.2,0.6-0.2,1.1c0,0.4-0.1,0.9-0.1,1.5c0,0.7,0,1.3,0.1,1.7s0.1,0.8,0.3,1.1c0.1,0.3,0.3,0.5,0.5,0.6
		c0.2,0.1,0.4,0.2,0.7,0.2c0.2,0,0.4,0,0.5-0.1c0.1-0.1,0.3-0.2,0.4-0.3s0.2-0.3,0.3-0.5c0.1-0.2,0.1-0.4,0.2-0.7
		c0-0.2,0.1-0.5,0.1-0.8C146.1,225.2,146.2,224.9,146.2,224.5z"/>
	<path d="M155.9,224.4c0,0.8-0.1,1.5-0.2,2.1c-0.1,0.6-0.3,1.2-0.6,1.6s-0.6,0.8-1.1,1c-0.4,0.2-1,0.4-1.7,0.4
		c-0.7,0-1.2-0.1-1.6-0.3c-0.4-0.2-0.8-0.6-1-1c-0.3-0.4-0.4-0.9-0.5-1.6c-0.1-0.6-0.2-1.3-0.2-2.1c0-0.8,0.1-1.5,0.2-2.1
		s0.3-1.2,0.6-1.6c0.3-0.4,0.6-0.8,1.1-1c0.4-0.2,1-0.4,1.6-0.4c0.7,0,1.2,0.1,1.6,0.3c0.4,0.2,0.8,0.6,1,1c0.3,0.4,0.4,0.9,0.5,1.6
		C155.8,222.9,155.9,223.6,155.9,224.4z M153.9,224.5c0-0.5,0-0.9,0-1.2c0-0.4-0.1-0.7-0.1-0.9c-0.1-0.3-0.1-0.5-0.2-0.7
		c-0.1-0.2-0.2-0.3-0.3-0.4c-0.1-0.1-0.2-0.2-0.4-0.2c-0.1,0-0.3-0.1-0.5-0.1c-0.3,0-0.5,0.1-0.7,0.2c-0.2,0.1-0.3,0.4-0.5,0.6
		c-0.1,0.3-0.2,0.6-0.2,1.1c0,0.4-0.1,0.9-0.1,1.5c0,0.7,0,1.3,0.1,1.7s0.1,0.8,0.3,1.1c0.1,0.3,0.3,0.5,0.5,0.6
		c0.2,0.1,0.4,0.2,0.7,0.2c0.2,0,0.4,0,0.5-0.1c0.1-0.1,0.3-0.2,0.4-0.3s0.2-0.3,0.3-0.5c0.1-0.2,0.1-0.4,0.2-0.7
		c0-0.2,0.1-0.5,0.1-0.8C153.9,225.2,153.9,224.9,153.9,224.5z"/>
	<path d="M161.2,222c0,0.4,0,0.7-0.1,1.1s-0.2,0.6-0.4,0.8s-0.4,0.4-0.7,0.5c-0.3,0.1-0.6,0.2-1,0.2c-0.4,0-0.8-0.1-1.1-0.2
		s-0.5-0.3-0.7-0.5c-0.2-0.2-0.3-0.5-0.4-0.8c-0.1-0.3-0.1-0.6-0.1-1c0-0.4,0-0.7,0.1-1c0.1-0.3,0.2-0.6,0.4-0.8s0.4-0.4,0.7-0.5
		c0.3-0.1,0.6-0.2,1-0.2c0.4,0,0.8,0.1,1.1,0.2c0.3,0.1,0.5,0.3,0.7,0.5s0.3,0.5,0.3,0.8C161.2,221.3,161.2,221.7,161.2,222z
		 M159.1,229.2c0,0.1-0.1,0.1-0.1,0.1c0,0-0.1,0.1-0.2,0.1c-0.1,0-0.2,0-0.3,0.1c-0.1,0-0.2,0-0.4,0c-0.2,0-0.3,0-0.4,0
		c-0.1,0-0.2,0-0.2-0.1c0,0-0.1-0.1-0.1-0.1c0-0.1,0-0.1,0.1-0.2l6.9-9.4c0-0.1,0.1-0.1,0.1-0.1s0.1-0.1,0.2-0.1
		c0.1,0,0.2,0,0.3-0.1c0.1,0,0.2,0,0.4,0c0.2,0,0.3,0,0.4,0c0.1,0,0.2,0,0.2,0.1c0,0,0.1,0.1,0,0.1s0,0.1-0.1,0.2L159.1,229.2z
		 M159.7,222c0-0.3,0-0.5,0-0.7s-0.1-0.3-0.1-0.5c-0.1-0.1-0.1-0.2-0.2-0.3s-0.2-0.1-0.4-0.1c-0.1,0-0.2,0-0.3,0.1
		c-0.1,0.1-0.2,0.1-0.2,0.3c-0.1,0.1-0.1,0.3-0.1,0.5s0,0.4,0,0.7c0,0.3,0,0.6,0.1,0.8c0,0.2,0.1,0.4,0.1,0.5
		c0.1,0.1,0.1,0.2,0.2,0.2c0.1,0,0.2,0.1,0.3,0.1c0.1,0,0.3,0,0.4-0.1c0.1-0.1,0.2-0.1,0.2-0.3c0.1-0.1,0.1-0.3,0.1-0.5
		C159.7,222.5,159.7,222.3,159.7,222z M167,226.8c0,0.4,0,0.7-0.1,1.1c-0.1,0.3-0.2,0.6-0.4,0.8c-0.2,0.2-0.4,0.4-0.7,0.5
		s-0.6,0.2-1,0.2c-0.4,0-0.8-0.1-1.1-0.2s-0.5-0.3-0.7-0.5c-0.2-0.2-0.3-0.5-0.4-0.8s-0.1-0.6-0.1-1c0-0.4,0-0.7,0.1-1
		c0.1-0.3,0.2-0.6,0.4-0.8s0.4-0.4,0.7-0.5c0.3-0.1,0.6-0.2,1-0.2c0.4,0,0.8,0.1,1.1,0.2c0.3,0.1,0.5,0.3,0.7,0.5s0.3,0.5,0.3,0.8
		C167,226.2,167,226.5,167,226.8z M165.5,226.9c0-0.3,0-0.5,0-0.7c0-0.2-0.1-0.3-0.1-0.5c-0.1-0.1-0.1-0.2-0.2-0.3s-0.2-0.1-0.3-0.1
		c-0.1,0-0.2,0-0.3,0.1c-0.1,0.1-0.2,0.1-0.2,0.3c-0.1,0.1-0.1,0.3-0.1,0.5s0,0.4,0,0.7c0,0.3,0,0.6,0.1,0.8c0,0.2,0.1,0.4,0.1,0.5
		c0.1,0.1,0.1,0.2,0.2,0.2c0.1,0,0.2,0.1,0.3,0.1c0.1,0,0.3,0,0.4-0.1c0.1-0.1,0.2-0.1,0.2-0.3s0.1-0.3,0.1-0.5
		C165.5,227.3,165.5,227.1,165.5,226.9z"/>
</g>
<g class="st4">
	<path d="M146.7,43.7c0,0.8-0.1,1.5-0.2,2.1c-0.1,0.6-0.3,1.2-0.6,1.6s-0.6,0.8-1.1,1c-0.5,0.2-1,0.4-1.7,0.4
		c-0.7,0-1.2-0.1-1.6-0.3c-0.4-0.2-0.8-0.6-1-1c-0.3-0.4-0.4-0.9-0.5-1.6c-0.1-0.6-0.2-1.3-0.2-2.1c0-0.8,0.1-1.5,0.2-2.1
		s0.3-1.2,0.6-1.6c0.3-0.4,0.6-0.8,1.1-1c0.4-0.2,1-0.4,1.6-0.4c0.7,0,1.2,0.1,1.6,0.3s0.8,0.6,1,1c0.3,0.4,0.4,0.9,0.5,1.6
		C146.6,42.3,146.7,43,146.7,43.7z M144.7,43.8c0-0.5,0-0.9,0-1.2s-0.1-0.7-0.1-0.9c-0.1-0.3-0.1-0.5-0.2-0.7
		c-0.1-0.2-0.2-0.3-0.3-0.4c-0.1-0.1-0.2-0.2-0.4-0.2c-0.1,0-0.3-0.1-0.5-0.1c-0.3,0-0.5,0.1-0.7,0.2c-0.2,0.1-0.3,0.4-0.5,0.6
		c-0.1,0.3-0.2,0.6-0.2,1.1c0,0.4-0.1,0.9-0.1,1.5c0,0.7,0,1.3,0.1,1.7s0.1,0.8,0.3,1.1c0.1,0.3,0.3,0.5,0.5,0.6
		c0.2,0.1,0.4,0.2,0.7,0.2c0.2,0,0.4,0,0.5-0.1c0.1-0.1,0.3-0.2,0.4-0.3s0.2-0.3,0.3-0.5c0.1-0.2,0.1-0.4,0.2-0.7
		c0-0.2,0.1-0.5,0.1-0.8C144.7,44.5,144.7,44.2,144.7,43.8z"/>
	<path d="M152,41.3c0,0.4,0,0.7-0.1,1.1s-0.2,0.6-0.4,0.8c-0.2,0.2-0.4,0.4-0.7,0.5c-0.3,0.1-0.6,0.2-1,0.2c-0.4,0-0.8-0.1-1.1-0.2
		c-0.3-0.1-0.5-0.3-0.7-0.5c-0.2-0.2-0.3-0.5-0.4-0.8c-0.1-0.3-0.1-0.6-0.1-1c0-0.4,0-0.7,0.1-1c0.1-0.3,0.2-0.6,0.4-0.8
		c0.2-0.2,0.4-0.4,0.7-0.5c0.3-0.1,0.6-0.2,1-0.2c0.4,0,0.8,0.1,1.1,0.2c0.3,0.1,0.5,0.3,0.7,0.5s0.3,0.5,0.3,0.8
		C152,40.7,152,41,152,41.3z M150,48.5c0,0.1-0.1,0.1-0.1,0.1c0,0-0.1,0.1-0.2,0.1c-0.1,0-0.2,0-0.3,0.1c-0.1,0-0.2,0-0.4,0
		c-0.2,0-0.3,0-0.4,0c-0.1,0-0.2,0-0.2-0.1c0,0-0.1-0.1-0.1-0.1c0-0.1,0-0.1,0.1-0.2l6.9-9.4c0-0.1,0.1-0.1,0.1-0.1s0.1-0.1,0.2-0.1
		c0.1,0,0.2,0,0.3-0.1c0.1,0,0.2,0,0.4,0c0.2,0,0.3,0,0.4,0c0.1,0,0.2,0,0.2,0.1c0,0,0.1,0.1,0,0.1s0,0.1-0.1,0.2L150,48.5z
		 M150.5,41.4c0-0.3,0-0.5,0-0.7s-0.1-0.3-0.1-0.5c-0.1-0.1-0.1-0.2-0.2-0.3s-0.2-0.1-0.4-0.1c-0.1,0-0.2,0-0.3,0.1
		c-0.1,0.1-0.2,0.1-0.2,0.3c-0.1,0.1-0.1,0.3-0.1,0.5s0,0.4,0,0.7c0,0.3,0,0.6,0.1,0.8c0,0.2,0.1,0.4,0.1,0.5
		c0.1,0.1,0.1,0.2,0.2,0.2c0.1,0,0.2,0.1,0.3,0.1c0.1,0,0.3,0,0.4-0.1c0.1-0.1,0.2-0.1,0.2-0.3s0.1-0.3,0.1-0.5
		C150.5,41.8,150.5,41.6,150.5,41.4z M157.8,46.1c0,0.4,0,0.7-0.1,1.1c-0.1,0.3-0.2,0.6-0.4,0.8c-0.2,0.2-0.4,0.4-0.7,0.5
		c-0.3,0.1-0.6,0.2-1,0.2c-0.4,0-0.8-0.1-1.1-0.2s-0.5-0.3-0.7-0.5c-0.2-0.2-0.3-0.5-0.4-0.8c-0.1-0.3-0.1-0.6-0.1-1
		c0-0.4,0-0.7,0.1-1c0.1-0.3,0.2-0.6,0.4-0.8s0.4-0.4,0.7-0.5s0.6-0.2,1-0.2c0.4,0,0.8,0.1,1.1,0.2c0.3,0.1,0.5,0.3,0.7,0.5
		s0.3,0.5,0.3,0.8C157.8,45.5,157.8,45.8,157.8,46.1z M156.3,46.2c0-0.3,0-0.5,0-0.7c0-0.2-0.1-0.3-0.1-0.5
		c-0.1-0.1-0.1-0.2-0.2-0.3s-0.2-0.1-0.4-0.1c-0.1,0-0.2,0-0.3,0.1c-0.1,0.1-0.2,0.1-0.2,0.3c-0.1,0.1-0.1,0.3-0.1,0.5
		c0,0.2,0,0.4,0,0.7c0,0.3,0,0.6,0.1,0.8c0,0.2,0.1,0.4,0.1,0.5c0.1,0.1,0.1,0.2,0.2,0.2c0.1,0,0.2,0.1,0.3,0.1c0.1,0,0.3,0,0.4-0.1
		c0.1-0.1,0.2-0.1,0.2-0.3c0.1-0.1,0.1-0.3,0.1-0.5C156.3,46.7,156.3,46.4,156.3,46.2z"/>
</g>
</svg>
