<?xml version="1.0" encoding="utf-8"?>
<!-- Generator: Adobe Illustrator 23.0.5, SVG Export Plug-In . SVG Version: 6.00 Build 0)  -->
<svg version="1.1" id="Layer_1" xmlns="http://www.w3.org/2000/svg" xmlns:xlink="http://www.w3.org/1999/xlink" x="0px" y="0px"
	 viewBox="0 0 300 300" style="enable-background:new 0 0 300 300;" xml:space="preserve">
<style type="text/css">
	.st0{fill:#4472C4;stroke:#4472C4;stroke-width:9.375000e-02;}
	.st1{fill:#ED7D31;stroke:#ED7D31;stroke-width:9.375000e-02;}
	.st2{fill:#A5A5A5;stroke:#A5A5A5;stroke-width:9.375000e-02;}
	.st3{enable-background:new    ;}
	.st4{opacity:0.8;enable-background:new    ;}
</style>
<path class="st0" d="M119.8,267.7c1.7,0,3.4,0,5.1,0c0,1.7,0,3.4,0,5.1c-1.7,0-3.4,0-5.1,0C119.8,271.2,119.8,269.4,119.8,267.7z"/>
<path class="st1" d="M145.3,267.7c1.7,0,3.4,0,5.1,0c0,1.7,0,3.4,0,5.1c-1.7,0-3.4,0-5.1,0C145.3,271.2,145.3,269.4,145.3,267.7z"/>
<path class="st2" d="M170.7,267.7c1.7,0,3.4,0,5.1,0c0,1.7,0,3.4,0,5.1c-1.7,0-3.4,0-5.1,0C170.7,271.2,170.7,269.4,170.7,267.7z"/>
<g class="st3">
	<path d="M135.6,273.5c0,0.1,0,0.1,0,0.2c0,0.1,0,0.1,0,0.1c0,0,0,0.1-0.1,0.1s-0.1,0-0.1,0h-4.2c0,0-0.1,0-0.1,0s0,0-0.1-0.1
		c0,0,0-0.1-0.1-0.1c0-0.1,0-0.1,0-0.2c0-0.1,0-0.1,0-0.2c0-0.1,0-0.1,0-0.1s0-0.1,0.1-0.1c0,0,0.1,0,0.1,0h1.7v-6.1l-1.6,0.9
		c-0.1,0-0.1,0.1-0.2,0.1c0,0-0.1,0-0.1,0c0,0,0-0.1-0.1-0.1c0-0.1,0-0.1,0-0.2c0-0.1,0-0.1,0-0.2c0,0,0-0.1,0-0.1s0-0.1,0.1-0.1
		s0.1,0,0.1-0.1l1.9-1.2c0,0,0,0,0.1,0c0,0,0.1,0,0.1,0c0,0,0.1,0,0.1,0s0.1,0,0.2,0c0.1,0,0.2,0,0.2,0c0.1,0,0.1,0,0.2,0
		c0,0,0.1,0,0.1,0.1c0,0,0,0,0,0.1v7.1h1.5c0,0,0.1,0,0.1,0c0,0,0.1,0,0.1,0.1s0,0.1,0,0.1S135.6,273.4,135.6,273.5z"/>
</g>
<g class="st3">
	<path d="M161.1,273.5c0,0.1,0,0.1,0,0.2c0,0.1,0,0.1,0,0.1c0,0,0,0.1-0.1,0.1s-0.1,0-0.1,0h-4.4c-0.1,0-0.1,0-0.2,0s-0.1,0-0.1-0.1
		c0,0-0.1-0.1-0.1-0.1c0-0.1,0-0.1,0-0.2c0-0.1,0-0.2,0-0.2s0-0.1,0-0.2c0,0,0-0.1,0.1-0.1c0,0,0.1-0.1,0.1-0.2l1.6-1.7
		c0.4-0.4,0.7-0.7,0.9-1c0.2-0.3,0.4-0.6,0.5-0.8c0.1-0.2,0.2-0.5,0.2-0.7s0.1-0.4,0.1-0.6c0-0.2,0-0.3-0.1-0.5
		c-0.1-0.2-0.1-0.3-0.3-0.4s-0.3-0.2-0.4-0.3c-0.2-0.1-0.4-0.1-0.6-0.1c-0.3,0-0.5,0-0.7,0.1c-0.2,0.1-0.4,0.1-0.5,0.2
		s-0.3,0.2-0.4,0.2c-0.1,0.1-0.2,0.1-0.2,0.1c0,0-0.1,0-0.1,0s0,0-0.1-0.1c0,0,0-0.1,0-0.1c0-0.1,0-0.1,0-0.2c0-0.1,0-0.1,0-0.2
		c0,0,0-0.1,0-0.1c0,0,0-0.1,0-0.1c0,0,0-0.1,0.1-0.1c0,0,0.1-0.1,0.3-0.2c0.1-0.1,0.3-0.1,0.5-0.2c0.2-0.1,0.4-0.1,0.6-0.2
		c0.2,0,0.5-0.1,0.7-0.1c0.4,0,0.7,0.1,1,0.2c0.3,0.1,0.5,0.3,0.7,0.5c0.2,0.2,0.3,0.4,0.4,0.7s0.1,0.5,0.1,0.8c0,0.3,0,0.5-0.1,0.8
		c0,0.3-0.1,0.5-0.3,0.8c-0.1,0.3-0.4,0.6-0.6,1c-0.3,0.4-0.6,0.8-1.1,1.3l-1.3,1.3h3.5c0,0,0.1,0,0.1,0c0,0,0.1,0,0.1,0.1
		c0,0,0,0.1,0,0.1C161.1,273.3,161.1,273.4,161.1,273.5z"/>
</g>
<g class="st3">
	<path d="M186.5,271.6c0,0.4-0.1,0.7-0.2,1c-0.1,0.3-0.3,0.5-0.6,0.8c-0.2,0.2-0.5,0.4-0.9,0.5c-0.4,0.1-0.8,0.2-1.2,0.2
		c-0.3,0-0.5,0-0.8-0.1c-0.2,0-0.4-0.1-0.6-0.2c-0.2-0.1-0.3-0.1-0.5-0.2s-0.2-0.1-0.2-0.1c0,0-0.1-0.1-0.1-0.1s0-0.1,0-0.1
		c0,0,0-0.1,0-0.2c0-0.1,0-0.1,0-0.2c0-0.1,0-0.3,0-0.3c0-0.1,0.1-0.1,0.1-0.1c0,0,0.1,0,0.2,0.1c0.1,0.1,0.3,0.1,0.4,0.2
		c0.2,0.1,0.4,0.1,0.6,0.2c0.2,0.1,0.5,0.1,0.8,0.1c0.3,0,0.5,0,0.7-0.1c0.2-0.1,0.4-0.2,0.5-0.3c0.1-0.1,0.3-0.3,0.3-0.5
		s0.1-0.4,0.1-0.6c0-0.2,0-0.4-0.1-0.6c-0.1-0.2-0.2-0.3-0.4-0.5c-0.2-0.1-0.4-0.2-0.7-0.3s-0.6-0.1-0.9-0.1h-0.8c0,0-0.1,0-0.1,0
		s-0.1,0-0.1-0.1c0,0,0-0.1-0.1-0.1c0-0.1,0-0.1,0-0.2c0-0.1,0-0.1,0-0.2c0-0.1,0-0.1,0.1-0.1c0,0,0-0.1,0.1-0.1s0.1,0,0.1,0h0.7
		c0.3,0,0.5,0,0.7-0.1s0.4-0.2,0.6-0.3c0.2-0.1,0.3-0.3,0.3-0.5s0.1-0.4,0.1-0.6c0-0.2,0-0.3-0.1-0.5s-0.1-0.3-0.2-0.4
		c-0.1-0.1-0.2-0.2-0.4-0.3c-0.2-0.1-0.4-0.1-0.6-0.1c-0.2,0-0.5,0-0.7,0.1s-0.4,0.2-0.5,0.2c-0.2,0.1-0.3,0.2-0.4,0.2
		c-0.1,0.1-0.2,0.1-0.2,0.1c0,0-0.1,0-0.1,0c0,0,0,0-0.1-0.1s0-0.1,0-0.1c0-0.1,0-0.1,0-0.2c0-0.1,0-0.1,0-0.2s0-0.1,0-0.1
		c0,0,0-0.1,0-0.1c0,0,0-0.1,0.1-0.1c0,0,0.1-0.1,0.2-0.2c0.1-0.1,0.3-0.1,0.4-0.2c0.2-0.1,0.4-0.1,0.6-0.2c0.2,0,0.5-0.1,0.7-0.1
		c0.4,0,0.7,0,1,0.1c0.3,0.1,0.5,0.2,0.7,0.4s0.3,0.4,0.4,0.6c0.1,0.2,0.1,0.5,0.1,0.8c0,0.3,0,0.5-0.1,0.7s-0.2,0.4-0.3,0.6
		c-0.1,0.2-0.3,0.3-0.5,0.4c-0.2,0.1-0.4,0.2-0.6,0.2v0c0.3,0,0.5,0.1,0.8,0.2c0.2,0.1,0.4,0.2,0.6,0.4c0.2,0.2,0.3,0.4,0.4,0.6
		C186.4,271.1,186.5,271.4,186.5,271.6z"/>
</g>
<path class="st0" d="M153.4,23.8c33.9,0.6,67.1,17.6,86.8,45.3c21.5,28.9,27.1,68.6,14.7,102.4c-5.2,13.3-12,26.3-22.5,36.2
	c-6.4,6-11.9,12.9-19.4,17.5c-6.4,4.6-13.7,7.8-20.7,11.2c-11.2-30.4-23-60.6-34.5-90.9c-1.4-4.5-4.1-8.7-4.2-13.4
	C153.4,96,153.7,59.9,153.4,23.8z"/>
<path class="st2" d="M81.1,50.3c19.2-15.7,43.5-25.3,68.3-26c-0.1,34.4,0.3,68.8-0.1,103.2c-2.9-4.5-7.3-7.5-10.4-11.9
	c-2.6-3.8-6.4-6.5-8.9-10.2c-3.2-4.5-7.8-7.7-10.7-12.3C106.2,78.9,94.2,64.1,81.1,50.3z"/>
<path class="st1" d="M41.9,120.2C45,94.1,58.2,69.8,77.2,52.1C97.4,76,118.6,99.2,139.1,123c4.6,5.5,10.7,10.4,13,17.5
	c12.1,32.5,24.8,64.7,36.7,97.2c-31.8,11.5-68.8,7.5-97.2-11C56.5,204.6,36.2,161.2,41.9,120.2z"/>
<g class="st4">
	<path d="M67,159.7c0,0.3,0,0.4-0.1,0.6s-0.1,0.2-0.2,0.2h-0.9v1.7c0,0,0,0.1,0,0.1s-0.1,0.1-0.2,0.1c-0.1,0-0.2,0-0.3,0.1
		c-0.1,0-0.3,0-0.5,0c-0.2,0-0.3,0-0.5,0c-0.1,0-0.2,0-0.3-0.1c-0.1,0-0.1-0.1-0.1-0.1s0-0.1,0-0.1v-1.7h-3.7c-0.1,0-0.1,0-0.2,0
		s-0.1-0.1-0.1-0.1c0-0.1-0.1-0.2-0.1-0.3c0-0.1,0-0.3,0-0.5c0-0.2,0-0.3,0-0.4c0-0.1,0-0.2,0-0.3s0-0.2,0.1-0.3s0.1-0.2,0.1-0.3
		l3-5.3c0,0,0.1-0.1,0.1-0.1c0.1,0,0.1-0.1,0.3-0.1s0.2,0,0.4,0c0.2,0,0.4,0,0.6,0c0.3,0,0.5,0,0.6,0c0.2,0,0.3,0,0.4,0.1
		s0.2,0.1,0.2,0.1c0,0,0.1,0.1,0.1,0.1v5.8h0.9c0.1,0,0.1,0.1,0.2,0.2S67,159.4,67,159.7z M64,154.5L64,154.5l-2.6,4.4H64V154.5z"/>
	<path d="M74.8,159.7c0,0.3,0,0.4-0.1,0.6s-0.1,0.2-0.2,0.2h-0.9v1.7c0,0,0,0.1,0,0.1s-0.1,0.1-0.2,0.1c-0.1,0-0.2,0-0.3,0.1
		c-0.1,0-0.3,0-0.5,0c-0.2,0-0.3,0-0.5,0c-0.1,0-0.2,0-0.3-0.1c-0.1,0-0.1-0.1-0.1-0.1s0-0.1,0-0.1v-1.7h-3.7c-0.1,0-0.1,0-0.2,0
		s-0.1-0.1-0.1-0.1c0-0.1-0.1-0.2-0.1-0.3c0-0.1,0-0.3,0-0.5c0-0.2,0-0.3,0-0.4c0-0.1,0-0.2,0-0.3s0-0.2,0.1-0.3s0.1-0.2,0.1-0.3
		l3-5.3c0,0,0.1-0.1,0.1-0.1c0.1,0,0.1-0.1,0.3-0.1s0.2,0,0.4,0c0.2,0,0.4,0,0.6,0c0.3,0,0.5,0,0.6,0c0.2,0,0.3,0,0.4,0.1
		s0.2,0.1,0.2,0.1c0,0,0.1,0.1,0.1,0.1v5.8h0.9c0.1,0,0.1,0.1,0.2,0.2S74.8,159.4,74.8,159.7z M71.8,154.5L71.8,154.5l-2.6,4.4h2.6
		V154.5z"/>
	<path d="M80,155.2c0,0.4,0,0.7-0.1,1.1s-0.2,0.6-0.4,0.8c-0.2,0.2-0.4,0.4-0.7,0.5c-0.3,0.1-0.6,0.2-1,0.2c-0.4,0-0.8-0.1-1.1-0.2
		c-0.3-0.1-0.5-0.3-0.7-0.5c-0.2-0.2-0.3-0.5-0.4-0.8c-0.1-0.3-0.1-0.6-0.1-1c0-0.4,0-0.7,0.1-1c0.1-0.3,0.2-0.6,0.4-0.8
		c0.2-0.2,0.4-0.4,0.7-0.5c0.3-0.1,0.6-0.2,1-0.2c0.4,0,0.8,0.1,1.1,0.2c0.3,0.1,0.5,0.3,0.7,0.5s0.3,0.5,0.3,0.8
		C80,154.6,80,154.9,80,155.2z M78,162.4c0,0.1-0.1,0.1-0.1,0.1c0,0-0.1,0.1-0.2,0.1c-0.1,0-0.2,0-0.3,0.1c-0.1,0-0.2,0-0.4,0
		c-0.2,0-0.3,0-0.4,0c-0.1,0-0.2,0-0.2-0.1c0,0-0.1-0.1-0.1-0.1c0-0.1,0-0.1,0.1-0.2l6.9-9.4c0-0.1,0.1-0.1,0.1-0.1s0.1-0.1,0.2-0.1
		c0.1,0,0.2,0,0.3-0.1c0.1,0,0.2,0,0.4,0c0.2,0,0.3,0,0.4,0c0.1,0,0.2,0,0.2,0.1c0,0,0.1,0.1,0,0.1s0,0.1-0.1,0.2L78,162.4z
		 M78.5,155.3c0-0.3,0-0.5,0-0.7s-0.1-0.3-0.1-0.5c-0.1-0.1-0.1-0.2-0.2-0.3s-0.2-0.1-0.4-0.1c-0.1,0-0.2,0-0.3,0.1
		c-0.1,0.1-0.2,0.1-0.2,0.3c-0.1,0.1-0.1,0.3-0.1,0.5s0,0.4,0,0.7c0,0.3,0,0.6,0.1,0.8c0,0.2,0.1,0.4,0.1,0.5
		c0.1,0.1,0.1,0.2,0.2,0.2c0.1,0,0.2,0.1,0.3,0.1c0.1,0,0.3,0,0.4-0.1c0.1-0.1,0.2-0.1,0.2-0.3s0.1-0.3,0.1-0.5
		C78.5,155.7,78.5,155.5,78.5,155.3z M85.8,160c0,0.4,0,0.7-0.1,1.1c-0.1,0.3-0.2,0.6-0.4,0.8s-0.4,0.4-0.7,0.5
		c-0.3,0.1-0.6,0.2-1,0.2c-0.4,0-0.8-0.1-1.1-0.2c-0.3-0.1-0.5-0.3-0.7-0.5c-0.2-0.2-0.3-0.5-0.4-0.8c-0.1-0.3-0.1-0.6-0.1-1
		c0-0.4,0-0.7,0.1-1c0.1-0.3,0.2-0.6,0.4-0.8c0.2-0.2,0.4-0.4,0.7-0.5c0.3-0.1,0.6-0.2,1-0.2c0.4,0,0.8,0.1,1.1,0.2
		c0.3,0.1,0.5,0.3,0.7,0.5s0.3,0.5,0.3,0.8C85.8,159.4,85.8,159.7,85.8,160z M84.3,160.1c0-0.3,0-0.5,0-0.7s-0.1-0.3-0.1-0.5
		c-0.1-0.1-0.1-0.2-0.2-0.3s-0.2-0.1-0.4-0.1c-0.1,0-0.2,0-0.3,0.1c-0.1,0.1-0.2,0.1-0.2,0.3c-0.1,0.1-0.1,0.3-0.1,0.5s0,0.4,0,0.7
		c0,0.3,0,0.6,0.1,0.8s0.1,0.4,0.1,0.5c0.1,0.1,0.1,0.2,0.2,0.2c0.1,0,0.2,0.1,0.3,0.1c0.1,0,0.3,0,0.4-0.1c0.1-0.1,0.2-0.1,0.2-0.3
		s0.1-0.3,0.1-0.5C84.3,160.6,84.3,160.3,84.3,160.1z"/>
</g>
<g class="st4">
	<path d="M228.8,130.4c0,0.3,0,0.4-0.1,0.6c-0.1,0.1-0.1,0.2-0.2,0.2h-0.9v1.7c0,0,0,0.1,0,0.1c0,0-0.1,0.1-0.2,0.1
		c-0.1,0-0.2,0-0.3,0.1c-0.1,0-0.3,0-0.5,0c-0.2,0-0.3,0-0.5,0c-0.1,0-0.2,0-0.3-0.1c-0.1,0-0.1-0.1-0.1-0.1s0-0.1,0-0.1v-1.7h-3.7
		c-0.1,0-0.1,0-0.2,0s-0.1-0.1-0.1-0.1c0-0.1-0.1-0.2-0.1-0.3c0-0.1,0-0.3,0-0.5c0-0.2,0-0.3,0-0.4c0-0.1,0-0.2,0-0.3s0-0.2,0.1-0.3
		s0.1-0.2,0.1-0.3l3-5.3c0,0,0.1-0.1,0.1-0.1s0.1-0.1,0.3-0.1c0.1,0,0.2,0,0.4,0c0.2,0,0.4,0,0.6,0c0.3,0,0.5,0,0.6,0
		c0.2,0,0.3,0,0.4,0.1c0.1,0,0.2,0.1,0.2,0.1c0,0,0.1,0.1,0.1,0.1v5.8h0.9c0.1,0,0.1,0.1,0.2,0.2C228.8,130,228.8,130.2,228.8,130.4
		z M225.7,125.2L225.7,125.2l-2.6,4.4h2.6V125.2z"/>
	<path d="M236.5,130.4c0,0.3,0,0.4-0.1,0.6c-0.1,0.1-0.1,0.2-0.2,0.2h-0.9v1.7c0,0,0,0.1,0,0.1c0,0-0.1,0.1-0.2,0.1
		c-0.1,0-0.2,0-0.3,0.1c-0.1,0-0.3,0-0.5,0c-0.2,0-0.3,0-0.5,0c-0.1,0-0.2,0-0.3-0.1c-0.1,0-0.1-0.1-0.1-0.1s0-0.1,0-0.1v-1.7h-3.7
		c-0.1,0-0.1,0-0.2,0s-0.1-0.1-0.1-0.1c0-0.1-0.1-0.2-0.1-0.3c0-0.1,0-0.3,0-0.5c0-0.2,0-0.3,0-0.4c0-0.1,0-0.2,0-0.3s0-0.2,0.1-0.3
		s0.1-0.2,0.1-0.3l3-5.3c0,0,0.1-0.1,0.1-0.1s0.1-0.1,0.3-0.1c0.1,0,0.2,0,0.4,0c0.2,0,0.4,0,0.6,0c0.3,0,0.5,0,0.6,0
		c0.2,0,0.3,0,0.4,0.1c0.1,0,0.2,0.1,0.2,0.1c0,0,0.1,0.1,0.1,0.1v5.8h0.9c0.1,0,0.1,0.1,0.2,0.2C236.5,130,236.5,130.2,236.5,130.4
		z M233.5,125.2L233.5,125.2l-2.6,4.4h2.6V125.2z"/>
	<path d="M241.7,125.9c0,0.4,0,0.7-0.1,1.1s-0.2,0.6-0.4,0.8s-0.4,0.4-0.7,0.5c-0.3,0.1-0.6,0.2-1,0.2c-0.4,0-0.8-0.1-1.1-0.2
		s-0.5-0.3-0.7-0.5c-0.2-0.2-0.3-0.5-0.4-0.8c-0.1-0.3-0.1-0.6-0.1-1c0-0.4,0-0.7,0.1-1c0.1-0.3,0.2-0.6,0.4-0.8s0.4-0.4,0.7-0.5
		c0.3-0.1,0.6-0.2,1-0.2c0.4,0,0.8,0.1,1.1,0.2c0.3,0.1,0.5,0.3,0.7,0.5s0.3,0.5,0.3,0.8C241.7,125.3,241.7,125.6,241.7,125.9z
		 M239.7,133.2c0,0.1-0.1,0.1-0.1,0.1c0,0-0.1,0.1-0.2,0.1c-0.1,0-0.2,0-0.3,0.1c-0.1,0-0.2,0-0.4,0c-0.2,0-0.3,0-0.4,0
		c-0.1,0-0.2,0-0.2-0.1c0,0-0.1-0.1-0.1-0.1c0-0.1,0-0.1,0.1-0.2l6.9-9.4c0-0.1,0.1-0.1,0.1-0.1s0.1-0.1,0.2-0.1
		c0.1,0,0.2,0,0.3-0.1c0.1,0,0.2,0,0.4,0c0.2,0,0.3,0,0.4,0c0.1,0,0.2,0,0.2,0.1c0,0,0.1,0.1,0,0.1s0,0.1-0.1,0.2L239.7,133.2z
		 M240.3,126c0-0.3,0-0.5,0-0.7c0-0.2-0.1-0.3-0.1-0.5c-0.1-0.1-0.1-0.2-0.2-0.3s-0.2-0.1-0.4-0.1c-0.1,0-0.2,0-0.3,0.1
		c-0.1,0.1-0.2,0.1-0.2,0.3c-0.1,0.1-0.1,0.3-0.1,0.5c0,0.2,0,0.4,0,0.7c0,0.3,0,0.6,0.1,0.8s0.1,0.4,0.1,0.5
		c0.1,0.1,0.1,0.2,0.2,0.2s0.2,0.1,0.3,0.1c0.1,0,0.3,0,0.4-0.1c0.1-0.1,0.2-0.1,0.2-0.3c0.1-0.1,0.1-0.3,0.1-0.5
		C240.2,126.5,240.3,126.3,240.3,126z M247.5,130.8c0,0.4,0,0.7-0.1,1.1c-0.1,0.3-0.2,0.6-0.4,0.8c-0.2,0.2-0.4,0.4-0.7,0.5
		s-0.6,0.2-1,0.2c-0.4,0-0.8-0.1-1.1-0.2c-0.3-0.1-0.5-0.3-0.7-0.5c-0.2-0.2-0.3-0.5-0.4-0.8s-0.1-0.6-0.1-1c0-0.4,0-0.7,0.1-1
		c0.1-0.3,0.2-0.6,0.4-0.8c0.2-0.2,0.4-0.4,0.7-0.5c0.3-0.1,0.6-0.2,1-0.2c0.4,0,0.8,0.1,1.1,0.2c0.3,0.1,0.5,0.3,0.7,0.5
		s0.3,0.5,0.3,0.8C247.5,130.1,247.5,130.4,247.5,130.8z M246.1,130.8c0-0.3,0-0.5,0-0.7c0-0.2-0.1-0.3-0.1-0.5
		c-0.1-0.1-0.1-0.2-0.2-0.3s-0.2-0.1-0.4-0.1c-0.1,0-0.2,0-0.3,0.1c-0.1,0.1-0.2,0.1-0.2,0.3c-0.1,0.1-0.1,0.3-0.1,0.5
		c0,0.2,0,0.4,0,0.7c0,0.3,0,0.6,0.1,0.8c0,0.2,0.1,0.4,0.1,0.5c0.1,0.1,0.1,0.2,0.2,0.2s0.2,0.1,0.3,0.1c0.1,0,0.3,0,0.4-0.1
		c0.1-0.1,0.2-0.1,0.2-0.3c0.1-0.1,0.1-0.3,0.1-0.5C246.1,131.3,246.1,131.1,246.1,130.8z"/>
</g>
<g class="st4">
	<path d="M117.5,52.6c0,0.1,0,0.3,0,0.4c0,0.1,0,0.2-0.1,0.2c0,0.1-0.1,0.1-0.1,0.1c0,0-0.1,0-0.1,0h-5.3c0,0-0.1,0-0.1,0
		c0,0-0.1-0.1-0.1-0.1c0-0.1,0-0.1-0.1-0.2c0-0.1,0-0.2,0-0.4c0-0.1,0-0.3,0-0.4c0-0.1,0-0.2,0.1-0.2s0.1-0.1,0.1-0.1
		c0,0,0.1,0,0.1,0h1.8v-6.3l-1.6,0.9c-0.1,0.1-0.2,0.1-0.3,0.1c-0.1,0-0.1,0-0.2,0c0,0-0.1-0.1-0.1-0.2c0-0.1,0-0.3,0-0.4
		c0-0.1,0-0.2,0-0.3c0-0.1,0-0.1,0-0.2s0-0.1,0.1-0.1c0,0,0.1-0.1,0.1-0.1l2.1-1.3c0,0,0.1,0,0.1,0c0,0,0.1,0,0.1,0
		c0.1,0,0.1,0,0.2,0c0.1,0,0.2,0,0.4,0c0.2,0,0.3,0,0.5,0c0.1,0,0.2,0,0.3,0s0.1,0,0.1,0.1c0,0,0,0.1,0,0.1v8h1.6c0,0,0.1,0,0.1,0
		c0,0,0.1,0.1,0.1,0.1s0,0.1,0.1,0.2C117.5,52.4,117.5,52.5,117.5,52.6z"/>
	<path d="M125.4,52.6c0,0.1,0,0.3,0,0.4c0,0.1,0,0.2-0.1,0.3s-0.1,0.1-0.1,0.1c0,0-0.1,0-0.1,0h-5.5c-0.1,0-0.2,0-0.3,0
		c-0.1,0-0.1-0.1-0.2-0.1c0-0.1-0.1-0.1-0.1-0.3s0-0.3,0-0.4c0-0.2,0-0.3,0-0.4c0-0.1,0-0.2,0.1-0.3c0-0.1,0.1-0.2,0.2-0.3
		s0.1-0.2,0.2-0.3l1.7-1.8c0.3-0.3,0.6-0.7,0.8-1c0.2-0.3,0.4-0.5,0.5-0.8c0.1-0.2,0.2-0.5,0.2-0.7c0-0.2,0.1-0.4,0.1-0.6
		c0-0.2,0-0.3-0.1-0.5c-0.1-0.1-0.1-0.3-0.2-0.4c-0.1-0.1-0.2-0.2-0.4-0.3c-0.2-0.1-0.3-0.1-0.5-0.1c-0.3,0-0.6,0-0.8,0.1
		c-0.2,0.1-0.4,0.2-0.6,0.3c-0.2,0.1-0.3,0.2-0.4,0.3s-0.2,0.1-0.3,0.1c0,0-0.1,0-0.1,0c0,0-0.1-0.1-0.1-0.1c0-0.1,0-0.2,0-0.3
		c0-0.1,0-0.3,0-0.4c0-0.1,0-0.2,0-0.3c0-0.1,0-0.1,0-0.2c0-0.1,0-0.1,0.1-0.1s0.1-0.1,0.1-0.2c0.1-0.1,0.2-0.1,0.3-0.2
		c0.2-0.1,0.4-0.2,0.6-0.3s0.5-0.2,0.8-0.2s0.6-0.1,0.9-0.1c0.5,0,0.9,0.1,1.3,0.2s0.7,0.3,0.9,0.5c0.2,0.2,0.4,0.5,0.6,0.8
		c0.1,0.3,0.2,0.6,0.2,1c0,0.3,0,0.6-0.1,0.9c-0.1,0.3-0.2,0.6-0.4,1c-0.2,0.4-0.5,0.7-0.8,1.2c-0.3,0.4-0.8,0.9-1.4,1.5l-1.1,1.2
		h3.8c0,0,0.1,0,0.1,0c0,0,0.1,0.1,0.1,0.1c0,0.1,0.1,0.1,0.1,0.2C125.4,52.3,125.4,52.4,125.4,52.6z"/>
	<path d="M130.9,46.1c0,0.4,0,0.7-0.1,1.1s-0.2,0.6-0.4,0.8c-0.2,0.2-0.4,0.4-0.7,0.5c-0.3,0.1-0.6,0.2-1,0.2
		c-0.4,0-0.8-0.1-1.1-0.2c-0.3-0.1-0.5-0.3-0.7-0.5c-0.2-0.2-0.3-0.5-0.4-0.8c-0.1-0.3-0.1-0.6-0.1-1c0-0.4,0-0.7,0.1-1
		c0.1-0.3,0.2-0.6,0.4-0.8c0.2-0.2,0.4-0.4,0.7-0.5c0.3-0.1,0.6-0.2,1-0.2c0.4,0,0.8,0.1,1.1,0.2c0.3,0.1,0.5,0.3,0.7,0.5
		s0.3,0.5,0.3,0.8C130.8,45.4,130.9,45.8,130.9,46.1z M128.8,53.3c0,0.1-0.1,0.1-0.1,0.1c0,0-0.1,0.1-0.2,0.1c-0.1,0-0.2,0-0.3,0.1
		c-0.1,0-0.2,0-0.4,0c-0.2,0-0.3,0-0.4,0c-0.1,0-0.2,0-0.2-0.1c0,0-0.1-0.1-0.1-0.1c0-0.1,0-0.1,0.1-0.2l6.9-9.4
		c0-0.1,0.1-0.1,0.1-0.1s0.1-0.1,0.2-0.1c0.1,0,0.2,0,0.3-0.1c0.1,0,0.2,0,0.4,0c0.2,0,0.3,0,0.4,0c0.1,0,0.2,0,0.2,0.1
		c0,0,0.1,0.1,0,0.1s0,0.1-0.1,0.2L128.8,53.3z M129.4,46.1c0-0.3,0-0.5,0-0.7s-0.1-0.3-0.1-0.5c-0.1-0.1-0.1-0.2-0.2-0.3
		s-0.2-0.1-0.4-0.1c-0.1,0-0.2,0-0.3,0.1c-0.1,0.1-0.2,0.1-0.2,0.3c-0.1,0.1-0.1,0.3-0.1,0.5s0,0.4,0,0.7c0,0.3,0,0.6,0.1,0.8
		c0,0.2,0.1,0.4,0.1,0.5c0.1,0.1,0.1,0.2,0.2,0.2c0.1,0,0.2,0.1,0.3,0.1c0.1,0,0.3,0,0.4-0.1c0.1-0.1,0.2-0.1,0.2-0.3
		s0.1-0.3,0.1-0.5C129.4,46.6,129.4,46.4,129.4,46.1z M136.7,50.9c0,0.4,0,0.7-0.1,1.1c-0.1,0.3-0.2,0.6-0.4,0.8s-0.4,0.4-0.7,0.5
		c-0.3,0.1-0.6,0.2-1,0.2c-0.4,0-0.8-0.1-1.1-0.2c-0.3-0.1-0.5-0.3-0.7-0.5c-0.2-0.2-0.3-0.5-0.4-0.8c-0.1-0.3-0.1-0.6-0.1-1
		c0-0.4,0-0.7,0.1-1c0.1-0.3,0.2-0.6,0.4-0.8c0.2-0.2,0.4-0.4,0.7-0.5c0.3-0.1,0.6-0.2,1-0.2c0.4,0,0.8,0.1,1.1,0.2
		c0.3,0.1,0.5,0.3,0.7,0.5s0.3,0.5,0.3,0.8C136.7,50.3,136.7,50.6,136.7,50.9z M135.2,51c0-0.3,0-0.5,0-0.7s-0.1-0.3-0.1-0.5
		c-0.1-0.1-0.1-0.2-0.2-0.3s-0.2-0.1-0.4-0.1c-0.1,0-0.2,0-0.3,0.1c-0.1,0.1-0.2,0.1-0.2,0.3c-0.1,0.1-0.1,0.3-0.1,0.5s0,0.4,0,0.7
		c0,0.3,0,0.6,0.1,0.8s0.1,0.4,0.1,0.5c0.1,0.1,0.1,0.2,0.2,0.2c0.1,0,0.2,0.1,0.3,0.1c0.1,0,0.3,0,0.4-0.1c0.1-0.1,0.2-0.1,0.2-0.3
		s0.1-0.3,0.1-0.5C135.2,51.4,135.2,51.2,135.2,51z"/>
</g>
</svg>
