<?xml version="1.0" encoding="utf-8"?>
<!-- Generator: Adobe Illustrator 23.0.5, SVG Export Plug-In . SVG Version: 6.00 Build 0)  -->
<svg version="1.1" id="Layer_1" xmlns="http://www.w3.org/2000/svg" xmlns:xlink="http://www.w3.org/1999/xlink" x="0px" y="0px"
	 viewBox="0 0 300 300" style="enable-background:new 0 0 300 300;" xml:space="preserve">
<style type="text/css">
	.st0{fill:#4472C4;stroke:#4472C4;stroke-width:9.375000e-02;}
	.st1{fill:#ED7D31;stroke:#ED7D31;stroke-width:9.375000e-02;}
	.st2{fill:#A5A5A5;stroke:#A5A5A5;stroke-width:9.375000e-02;}
	.st3{enable-background:new    ;}
	.st4{opacity:0.8;enable-background:new    ;}
</style>
<path class="st0" d="M119.8,267.7c1.7,0,3.4,0,5.1,0c0,1.7,0,3.4,0,5.1c-1.7,0-3.4,0-5.1,0C119.8,271.2,119.8,269.4,119.8,267.7z"/>
<path class="st1" d="M145.3,267.7c1.7,0,3.4,0,5.1,0c0,1.7,0,3.4,0,5.1c-1.7,0-3.4,0-5.1,0C145.3,271.2,145.3,269.4,145.3,267.7z"/>
<path class="st2" d="M170.7,267.7c1.7,0,3.4,0,5.1,0c0,1.7,0,3.4,0,5.1c-1.7,0-3.4,0-5.1,0C170.7,271.2,170.7,269.4,170.7,267.7z"/>
<g class="st3">
	<path d="M135.6,273.5c0,0.1,0,0.1,0,0.2c0,0.1,0,0.1,0,0.1c0,0,0,0.1-0.1,0.1s-0.1,0-0.1,0h-4.2c0,0-0.1,0-0.1,0s0,0-0.1-0.1
		c0,0,0-0.1-0.1-0.1c0-0.1,0-0.1,0-0.2c0-0.1,0-0.1,0-0.2c0-0.1,0-0.1,0-0.1s0-0.1,0.1-0.1c0,0,0.1,0,0.1,0h1.7v-6.1l-1.6,0.9
		c-0.1,0-0.1,0.1-0.2,0.1c0,0-0.1,0-0.1,0c0,0,0-0.1-0.1-0.1c0-0.1,0-0.1,0-0.2c0-0.1,0-0.1,0-0.2c0,0,0-0.1,0-0.1s0-0.1,0.1-0.1
		s0.1,0,0.1-0.1l1.9-1.2c0,0,0,0,0.1,0c0,0,0.1,0,0.1,0c0,0,0.1,0,0.1,0s0.1,0,0.2,0c0.1,0,0.2,0,0.2,0c0.1,0,0.1,0,0.2,0
		c0,0,0.1,0,0.1,0.1c0,0,0,0,0,0.1v7.1h1.5c0,0,0.1,0,0.1,0c0,0,0.1,0,0.1,0.1s0,0.1,0,0.1S135.6,273.4,135.6,273.5z"/>
</g>
<g class="st3">
	<path d="M161.1,273.5c0,0.1,0,0.1,0,0.2c0,0.1,0,0.1,0,0.1c0,0,0,0.1-0.1,0.1s-0.1,0-0.1,0h-4.4c-0.1,0-0.1,0-0.2,0s-0.1,0-0.1-0.1
		c0,0-0.1-0.1-0.1-0.1c0-0.1,0-0.1,0-0.2c0-0.1,0-0.2,0-0.2s0-0.1,0-0.2c0,0,0-0.1,0.1-0.1c0,0,0.1-0.1,0.1-0.2l1.6-1.7
		c0.4-0.4,0.7-0.7,0.9-1c0.2-0.3,0.4-0.6,0.5-0.8c0.1-0.2,0.2-0.5,0.2-0.7s0.1-0.4,0.1-0.6c0-0.2,0-0.3-0.1-0.5
		c-0.1-0.2-0.1-0.3-0.3-0.4s-0.3-0.2-0.4-0.3c-0.2-0.1-0.4-0.1-0.6-0.1c-0.3,0-0.5,0-0.7,0.1c-0.2,0.1-0.4,0.1-0.5,0.2
		s-0.3,0.2-0.4,0.2c-0.1,0.1-0.2,0.1-0.2,0.1c0,0-0.1,0-0.1,0s0,0-0.1-0.1c0,0,0-0.1,0-0.1c0-0.1,0-0.1,0-0.2c0-0.1,0-0.1,0-0.2
		c0,0,0-0.1,0-0.1c0,0,0-0.1,0-0.1c0,0,0-0.1,0.1-0.1c0,0,0.1-0.1,0.3-0.2c0.1-0.1,0.3-0.1,0.5-0.2c0.2-0.1,0.4-0.1,0.6-0.2
		c0.2,0,0.5-0.1,0.7-0.1c0.4,0,0.7,0.1,1,0.2c0.3,0.1,0.5,0.3,0.7,0.5c0.2,0.2,0.3,0.4,0.4,0.7s0.1,0.5,0.1,0.8c0,0.3,0,0.5-0.1,0.8
		c0,0.3-0.1,0.5-0.3,0.8c-0.1,0.3-0.4,0.6-0.6,1c-0.3,0.4-0.6,0.8-1.1,1.3l-1.3,1.3h3.5c0,0,0.1,0,0.1,0c0,0,0.1,0,0.1,0.1
		c0,0,0,0.1,0,0.1C161.1,273.3,161.1,273.4,161.1,273.5z"/>
</g>
<g class="st3">
	<path d="M186.5,271.6c0,0.4-0.1,0.7-0.2,1c-0.1,0.3-0.3,0.5-0.6,0.8c-0.2,0.2-0.5,0.4-0.9,0.5c-0.4,0.1-0.8,0.2-1.2,0.2
		c-0.3,0-0.5,0-0.8-0.1c-0.2,0-0.4-0.1-0.6-0.2c-0.2-0.1-0.3-0.1-0.5-0.2s-0.2-0.1-0.2-0.1c0,0-0.1-0.1-0.1-0.1s0-0.1,0-0.1
		c0,0,0-0.1,0-0.2c0-0.1,0-0.1,0-0.2c0-0.1,0-0.3,0-0.3c0-0.1,0.1-0.1,0.1-0.1c0,0,0.1,0,0.2,0.1c0.1,0.1,0.3,0.1,0.4,0.2
		c0.2,0.1,0.4,0.1,0.6,0.2c0.2,0.1,0.5,0.1,0.8,0.1c0.3,0,0.5,0,0.7-0.1c0.2-0.1,0.4-0.2,0.5-0.3c0.1-0.1,0.3-0.3,0.3-0.5
		s0.1-0.4,0.1-0.6c0-0.2,0-0.4-0.1-0.6c-0.1-0.2-0.2-0.3-0.4-0.5c-0.2-0.1-0.4-0.2-0.7-0.3s-0.6-0.1-0.9-0.1h-0.8c0,0-0.1,0-0.1,0
		s-0.1,0-0.1-0.1c0,0,0-0.1-0.1-0.1c0-0.1,0-0.1,0-0.2c0-0.1,0-0.1,0-0.2c0-0.1,0-0.1,0.1-0.1c0,0,0-0.1,0.1-0.1s0.1,0,0.1,0h0.7
		c0.3,0,0.5,0,0.7-0.1s0.4-0.2,0.6-0.3c0.2-0.1,0.3-0.3,0.3-0.5s0.1-0.4,0.1-0.6c0-0.2,0-0.3-0.1-0.5s-0.1-0.3-0.2-0.4
		c-0.1-0.1-0.2-0.2-0.4-0.3c-0.2-0.1-0.4-0.1-0.6-0.1c-0.2,0-0.5,0-0.7,0.1s-0.4,0.2-0.5,0.2c-0.2,0.1-0.3,0.2-0.4,0.2
		c-0.1,0.1-0.2,0.1-0.2,0.1c0,0-0.1,0-0.1,0c0,0,0,0-0.1-0.1s0-0.1,0-0.1c0-0.1,0-0.1,0-0.2c0-0.1,0-0.1,0-0.2s0-0.1,0-0.1
		c0,0,0-0.1,0-0.1c0,0,0-0.1,0.1-0.1c0,0,0.1-0.1,0.2-0.2c0.1-0.1,0.3-0.1,0.4-0.2c0.2-0.1,0.4-0.1,0.6-0.2c0.2,0,0.5-0.1,0.7-0.1
		c0.4,0,0.7,0,1,0.1c0.3,0.1,0.5,0.2,0.7,0.4s0.3,0.4,0.4,0.6c0.1,0.2,0.1,0.5,0.1,0.8c0,0.3,0,0.5-0.1,0.7s-0.2,0.4-0.3,0.6
		c-0.1,0.2-0.3,0.3-0.5,0.4c-0.2,0.1-0.4,0.2-0.6,0.2v0c0.3,0,0.5,0.1,0.8,0.2c0.2,0.1,0.4,0.2,0.6,0.4c0.2,0.2,0.3,0.4,0.4,0.6
		C186.4,271.1,186.5,271.4,186.5,271.6z"/>
</g>
<path class="st0" d="M153.6,24.2c20.7-0.3,41.2,6.7,58.5,17.8c22.7,14.9,39.6,38.2,46.1,64.4c10.1,37.3-1,80.2-29.7,106.4
	c-7.2,7.7-15.8,14.1-25.2,18.7c-27.4,15.1-61.6,17.3-90.7,5.8c13.3-34.7,27.7-68.9,41.2-103.3c-0.9-26-0.3-52.1-0.4-78.1
	C153.6,45.3,153.2,34.7,153.6,24.2z"/>
<path class="st2" d="M133.2,26.3c5.2-1.7,10.9-1.8,16.4-1.5c0,27.7,0.3,55.2-0.1,82.8c-1.7-2.2-1.3-5.1-2-7.6
	C143.1,75.4,137.3,51.1,133.2,26.3z"/>
<path class="st1" d="M64.3,66.5c15.9-20.4,39.1-35.2,64.4-40.1c6.8,33.2,12.8,66.5,19.5,99.6c0.6,3.6,1.8,7.4,0.5,11
	c-13.2,33-26.6,65.8-39.6,98.9c-20.1-7.8-37.4-22.4-49.3-40.3c-13.2-19.5-19.7-43.4-18.6-67C42.4,106.2,50.6,84.3,64.3,66.5z"/>
<g class="st4">
	<path d="M229.1,148.1c0,0.5-0.1,1-0.3,1.4c-0.2,0.4-0.4,0.8-0.8,1s-0.7,0.5-1.2,0.6c-0.5,0.1-1,0.2-1.5,0.2c-0.3,0-0.6,0-0.8-0.1
		c-0.3,0-0.5-0.1-0.7-0.1c-0.2-0.1-0.4-0.1-0.5-0.2c-0.1-0.1-0.2-0.1-0.3-0.1c0,0-0.1-0.1-0.1-0.1c0,0,0-0.1,0-0.2
		c0-0.1,0-0.1,0-0.2c0-0.1,0-0.2,0-0.3c0-0.1,0-0.3,0-0.4c0-0.1,0-0.2,0-0.2s0-0.1,0.1-0.1c0,0,0.1,0,0.1,0c0,0,0.1,0,0.2,0.1
		c0.1,0.1,0.2,0.1,0.4,0.2c0.2,0.1,0.4,0.1,0.6,0.2c0.2,0.1,0.5,0.1,0.9,0.1c0.3,0,0.6,0,0.8-0.1s0.4-0.2,0.6-0.3s0.3-0.3,0.4-0.5
		c0.1-0.2,0.1-0.4,0.1-0.7c0-0.2,0-0.5-0.1-0.6s-0.2-0.3-0.4-0.5c-0.2-0.1-0.4-0.2-0.6-0.3c-0.3-0.1-0.6-0.1-0.9-0.1
		c-0.3,0-0.6,0-0.8,0c-0.2,0-0.5,0-0.7,0c-0.1,0-0.2,0-0.3-0.1s-0.1-0.2-0.1-0.4v-4.2c0-0.2,0-0.3,0.1-0.4s0.2-0.1,0.4-0.1h4.6
		c0,0,0.1,0,0.1,0c0,0,0.1,0.1,0.1,0.1s0,0.2,0.1,0.3c0,0.1,0,0.2,0,0.4c0,0.3,0,0.5-0.1,0.6c-0.1,0.1-0.1,0.2-0.2,0.2h-3.4v2.1
		c0.2,0,0.3,0,0.5,0c0.2,0,0.4,0,0.5,0c0.5,0,1,0.1,1.4,0.2s0.7,0.3,1,0.5c0.3,0.2,0.5,0.5,0.6,0.9
		C229,147.3,229.1,147.7,229.1,148.1z"/>
	<path d="M237.1,148c0,0.5-0.1,0.9-0.2,1.4c-0.1,0.4-0.4,0.8-0.7,1.1c-0.3,0.3-0.6,0.5-1.1,0.7c-0.4,0.2-0.9,0.3-1.5,0.3
		c-0.4,0-0.8-0.1-1.2-0.2c-0.3-0.1-0.6-0.2-0.9-0.4c-0.2-0.2-0.4-0.4-0.6-0.7c-0.2-0.3-0.3-0.6-0.4-0.9c-0.1-0.3-0.2-0.7-0.2-1.1
		s-0.1-0.8-0.1-1.3c0-0.4,0-0.8,0.1-1.2c0-0.4,0.1-0.8,0.2-1.2c0.1-0.4,0.3-0.8,0.5-1.1c0.2-0.4,0.4-0.7,0.8-0.9
		c0.3-0.3,0.7-0.5,1.1-0.6c0.4-0.2,1-0.2,1.5-0.2c0.2,0,0.4,0,0.6,0s0.4,0.1,0.5,0.1c0.2,0,0.3,0.1,0.4,0.1c0.1,0,0.2,0.1,0.2,0.1
		s0.1,0.1,0.1,0.1c0,0,0,0.1,0,0.1c0,0,0,0.1,0,0.2c0,0.1,0,0.2,0,0.3c0,0.2,0,0.3,0,0.4c0,0.1,0,0.2,0,0.2c0,0.1,0,0.1-0.1,0.1
		c0,0-0.1,0-0.1,0c-0.1,0-0.1,0-0.2,0c-0.1,0-0.2-0.1-0.3-0.1c-0.1,0-0.3-0.1-0.5-0.1c-0.2,0-0.4,0-0.6,0c-0.4,0-0.7,0.1-1,0.2
		s-0.5,0.4-0.7,0.6c-0.2,0.3-0.3,0.6-0.4,0.9c-0.1,0.3-0.1,0.7-0.1,1.1c0.1-0.1,0.2-0.1,0.4-0.2c0.1-0.1,0.3-0.1,0.5-0.2
		s0.3-0.1,0.5-0.1c0.2,0,0.4,0,0.6,0c0.5,0,0.9,0.1,1.3,0.2c0.3,0.1,0.6,0.3,0.9,0.6c0.2,0.2,0.4,0.5,0.5,0.9
		C237,147.2,237.1,147.6,237.1,148z M235.2,148.2c0-0.3,0-0.5-0.1-0.7s-0.1-0.4-0.2-0.5s-0.2-0.2-0.4-0.3c-0.2-0.1-0.4-0.1-0.6-0.1
		c-0.1,0-0.3,0-0.4,0c-0.1,0-0.3,0.1-0.4,0.1c-0.1,0-0.3,0.1-0.4,0.2c-0.1,0.1-0.2,0.1-0.3,0.2c0,0.5,0,1,0.1,1.3
		c0.1,0.4,0.1,0.6,0.3,0.8s0.3,0.4,0.4,0.4c0.2,0.1,0.4,0.1,0.6,0.1c0.2,0,0.4,0,0.6-0.1c0.2-0.1,0.3-0.2,0.4-0.4
		c0.1-0.2,0.2-0.3,0.3-0.5C235.1,148.7,235.2,148.5,235.2,148.2z"/>
	<path d="M242.4,144c0,0.4,0,0.7-0.1,1.1s-0.2,0.6-0.4,0.8c-0.2,0.2-0.4,0.4-0.7,0.5s-0.6,0.2-1,0.2c-0.4,0-0.8-0.1-1.1-0.2
		c-0.3-0.1-0.5-0.3-0.7-0.5c-0.2-0.2-0.3-0.5-0.4-0.8s-0.1-0.6-0.1-1c0-0.4,0-0.7,0.1-1c0.1-0.3,0.2-0.6,0.4-0.8
		c0.2-0.2,0.4-0.4,0.7-0.5c0.3-0.1,0.6-0.2,1-0.2c0.4,0,0.8,0.1,1.1,0.2c0.3,0.1,0.5,0.3,0.7,0.5s0.3,0.5,0.3,0.8
		C242.4,143.3,242.4,143.7,242.4,144z M240.4,151.2c0,0.1-0.1,0.1-0.1,0.1c0,0-0.1,0.1-0.2,0.1c-0.1,0-0.2,0-0.3,0.1
		c-0.1,0-0.2,0-0.4,0c-0.2,0-0.3,0-0.4,0c-0.1,0-0.2,0-0.2-0.1c0,0-0.1-0.1-0.1-0.1c0-0.1,0-0.1,0.1-0.2l6.9-9.4
		c0-0.1,0.1-0.1,0.1-0.1s0.1-0.1,0.2-0.1c0.1,0,0.2,0,0.3-0.1c0.1,0,0.2,0,0.4,0c0.2,0,0.3,0,0.4,0c0.1,0,0.2,0,0.2,0.1
		c0,0,0.1,0.1,0,0.1s0,0.1-0.1,0.2L240.4,151.2z M241,144c0-0.3,0-0.5,0-0.7s-0.1-0.3-0.1-0.5c-0.1-0.1-0.1-0.2-0.2-0.3
		s-0.2-0.1-0.4-0.1c-0.1,0-0.2,0-0.3,0.1c-0.1,0.1-0.2,0.1-0.2,0.3c-0.1,0.1-0.1,0.3-0.1,0.5s0,0.4,0,0.7c0,0.3,0,0.6,0.1,0.8
		s0.1,0.4,0.1,0.5c0.1,0.1,0.1,0.2,0.2,0.2s0.2,0.1,0.3,0.1c0.1,0,0.3,0,0.4-0.1c0.1-0.1,0.2-0.1,0.2-0.3c0.1-0.1,0.1-0.3,0.1-0.5
		C241,144.5,241,144.3,241,144z M248.3,148.8c0,0.4,0,0.7-0.1,1.1c-0.1,0.3-0.2,0.6-0.4,0.8c-0.2,0.2-0.4,0.4-0.7,0.5
		c-0.3,0.1-0.6,0.2-1,0.2c-0.4,0-0.8-0.1-1.1-0.2c-0.3-0.1-0.5-0.3-0.7-0.5c-0.2-0.2-0.3-0.5-0.4-0.8c-0.1-0.3-0.1-0.6-0.1-1
		c0-0.4,0-0.7,0.1-1c0.1-0.3,0.2-0.6,0.4-0.8c0.2-0.2,0.4-0.4,0.7-0.5s0.6-0.2,1-0.2c0.4,0,0.8,0.1,1.1,0.2c0.3,0.1,0.5,0.3,0.7,0.5
		s0.3,0.5,0.3,0.8C248.2,148.2,248.3,148.5,248.3,148.8z M246.8,148.9c0-0.3,0-0.5,0-0.7c0-0.2-0.1-0.3-0.1-0.5
		c-0.1-0.1-0.1-0.2-0.2-0.3s-0.2-0.1-0.4-0.1c-0.1,0-0.2,0-0.3,0.1c-0.1,0.1-0.2,0.1-0.2,0.3c-0.1,0.1-0.1,0.3-0.1,0.5s0,0.4,0,0.7
		c0,0.3,0,0.6,0.1,0.8c0,0.2,0.1,0.4,0.1,0.5c0.1,0.1,0.1,0.2,0.2,0.2c0.1,0,0.2,0.1,0.3,0.1c0.1,0,0.3,0,0.4-0.1
		c0.1-0.1,0.2-0.1,0.2-0.3s0.1-0.3,0.1-0.5C246.8,149.3,246.8,149.1,246.8,148.9z"/>
</g>
<g class="st4">
	<path d="M63.8,131.9c0,0.3,0,0.4-0.1,0.6s-0.1,0.2-0.2,0.2h-0.9v1.7c0,0,0,0.1,0,0.1s-0.1,0.1-0.2,0.1c-0.1,0-0.2,0-0.3,0.1
		c-0.1,0-0.3,0-0.5,0c-0.2,0-0.3,0-0.5,0c-0.1,0-0.2,0-0.3-0.1c-0.1,0-0.1-0.1-0.1-0.1s0-0.1,0-0.1v-1.7H57c-0.1,0-0.1,0-0.2,0
		s-0.1-0.1-0.1-0.1c0-0.1-0.1-0.2-0.1-0.3c0-0.1,0-0.3,0-0.5c0-0.2,0-0.3,0-0.4c0-0.1,0-0.2,0-0.3s0-0.2,0.1-0.3s0.1-0.2,0.1-0.3
		l3-5.3c0,0,0.1-0.1,0.1-0.1c0.1,0,0.1-0.1,0.3-0.1s0.2,0,0.4,0c0.2,0,0.4,0,0.6,0c0.3,0,0.5,0,0.6,0c0.2,0,0.3,0,0.4,0.1
		s0.2,0.1,0.2,0.1c0,0,0.1,0.1,0.1,0.1v5.8h0.9c0.1,0,0.1,0.1,0.2,0.2S63.8,131.6,63.8,131.9z M60.7,126.6L60.7,126.6l-2.6,4.4h2.6
		V126.6z"/>
	<path d="M71.1,133.9c0,0.1,0,0.3,0,0.4c0,0.1,0,0.2-0.1,0.2c0,0.1-0.1,0.1-0.1,0.1c0,0-0.1,0-0.1,0h-5.3c0,0-0.1,0-0.1,0
		c0,0-0.1-0.1-0.1-0.1c0-0.1,0-0.1-0.1-0.2c0-0.1,0-0.2,0-0.4c0-0.1,0-0.3,0-0.4c0-0.1,0-0.2,0.1-0.2s0.1-0.1,0.1-0.1
		c0,0,0.1,0,0.1,0h1.8v-6.3l-1.6,0.9c-0.1,0.1-0.2,0.1-0.3,0.1c-0.1,0-0.1,0-0.2,0c0,0-0.1-0.1-0.1-0.2c0-0.1,0-0.3,0-0.4
		c0-0.1,0-0.2,0-0.3c0-0.1,0-0.1,0-0.2s0-0.1,0.1-0.1c0,0,0.1-0.1,0.1-0.1l2.1-1.3c0,0,0.1,0,0.1,0c0,0,0.1,0,0.1,0
		c0.1,0,0.1,0,0.2,0c0.1,0,0.2,0,0.4,0c0.2,0,0.3,0,0.5,0c0.1,0,0.2,0,0.3,0s0.1,0,0.1,0.1c0,0,0,0.1,0,0.1v8h1.6c0,0,0.1,0,0.1,0
		c0,0,0.1,0.1,0.1,0.1s0,0.1,0.1,0.2C71.1,133.6,71.1,133.7,71.1,133.9z"/>
	<path d="M76.7,127.3c0,0.4,0,0.7-0.1,1.1s-0.2,0.6-0.4,0.8c-0.2,0.2-0.4,0.4-0.7,0.5c-0.3,0.1-0.6,0.2-1,0.2
		c-0.4,0-0.8-0.1-1.1-0.2c-0.3-0.1-0.5-0.3-0.7-0.5c-0.2-0.2-0.3-0.5-0.4-0.8c-0.1-0.3-0.1-0.6-0.1-1c0-0.4,0-0.7,0.1-1
		c0.1-0.3,0.2-0.6,0.4-0.8c0.2-0.2,0.4-0.4,0.7-0.5c0.3-0.1,0.6-0.2,1-0.2c0.4,0,0.8,0.1,1.1,0.2c0.3,0.1,0.5,0.3,0.7,0.5
		s0.3,0.5,0.3,0.8C76.7,126.7,76.7,127,76.7,127.3z M74.7,134.6c0,0.1-0.1,0.1-0.1,0.1c0,0-0.1,0.1-0.2,0.1c-0.1,0-0.2,0-0.3,0.1
		c-0.1,0-0.2,0-0.4,0c-0.2,0-0.3,0-0.4,0c-0.1,0-0.2,0-0.2-0.1c0,0-0.1-0.1-0.1-0.1c0-0.1,0-0.1,0.1-0.2l6.9-9.4
		c0-0.1,0.1-0.1,0.1-0.1s0.1-0.1,0.2-0.1c0.1,0,0.2,0,0.3-0.1c0.1,0,0.2,0,0.4,0c0.2,0,0.3,0,0.4,0c0.1,0,0.2,0,0.2,0.1
		c0,0,0.1,0.1,0,0.1s0,0.1-0.1,0.2L74.7,134.6z M75.2,127.4c0-0.3,0-0.5,0-0.7s-0.1-0.3-0.1-0.5c-0.1-0.1-0.1-0.2-0.2-0.3
		s-0.2-0.1-0.4-0.1c-0.1,0-0.2,0-0.3,0.1c-0.1,0.1-0.2,0.1-0.2,0.3c-0.1,0.1-0.1,0.3-0.1,0.5s0,0.4,0,0.7c0,0.3,0,0.6,0.1,0.8
		c0,0.2,0.1,0.4,0.1,0.5c0.1,0.1,0.1,0.2,0.2,0.2c0.1,0,0.2,0.1,0.3,0.1c0.1,0,0.3,0,0.4-0.1c0.1-0.1,0.2-0.1,0.2-0.3
		s0.1-0.3,0.1-0.5C75.2,127.9,75.2,127.7,75.2,127.4z M82.5,132.2c0,0.4,0,0.7-0.1,1.1c-0.1,0.3-0.2,0.6-0.4,0.8s-0.4,0.4-0.7,0.5
		c-0.3,0.1-0.6,0.2-1,0.2c-0.4,0-0.8-0.1-1.1-0.2c-0.3-0.1-0.5-0.3-0.7-0.5c-0.2-0.2-0.3-0.5-0.4-0.8c-0.1-0.3-0.1-0.6-0.1-1
		c0-0.4,0-0.7,0.1-1c0.1-0.3,0.2-0.6,0.4-0.8c0.2-0.2,0.4-0.4,0.7-0.5c0.3-0.1,0.6-0.2,1-0.2c0.4,0,0.8,0.1,1.1,0.2
		c0.3,0.1,0.5,0.3,0.7,0.5s0.3,0.5,0.3,0.8C82.5,131.5,82.5,131.8,82.5,132.2z M81.1,132.2c0-0.3,0-0.5,0-0.7s-0.1-0.3-0.1-0.5
		c-0.1-0.1-0.1-0.2-0.2-0.3s-0.2-0.1-0.4-0.1c-0.1,0-0.2,0-0.3,0.1c-0.1,0.1-0.2,0.1-0.2,0.3c-0.1,0.1-0.1,0.3-0.1,0.5s0,0.4,0,0.7
		c0,0.3,0,0.6,0.1,0.8s0.1,0.4,0.1,0.5c0.1,0.1,0.1,0.2,0.2,0.2c0.1,0,0.2,0.1,0.3,0.1c0.1,0,0.3,0,0.4-0.1c0.1-0.1,0.2-0.1,0.2-0.3
		s0.1-0.3,0.1-0.5C81,132.7,81.1,132.5,81.1,132.2z"/>
</g>
<g class="st4">
	<path d="M141.5,43.8c0,0.5-0.1,0.9-0.3,1.3c-0.2,0.4-0.4,0.7-0.8,0.9c-0.3,0.3-0.7,0.4-1.2,0.6s-1,0.2-1.5,0.2
		c-0.3,0-0.6,0-0.9-0.1c-0.3,0-0.5-0.1-0.8-0.2c-0.2-0.1-0.4-0.1-0.5-0.2c-0.1-0.1-0.2-0.1-0.3-0.2c0,0-0.1-0.1-0.1-0.1
		s0-0.1-0.1-0.2c0-0.1,0-0.2,0-0.3s0-0.2,0-0.4c0-0.2,0-0.4,0.1-0.5c0-0.1,0.1-0.1,0.2-0.1c0,0,0.1,0,0.3,0.1
		c0.1,0.1,0.3,0.1,0.5,0.2c0.2,0.1,0.4,0.1,0.7,0.2s0.5,0.1,0.9,0.1c0.3,0,0.5,0,0.7-0.1s0.4-0.2,0.5-0.3s0.3-0.3,0.3-0.4
		c0.1-0.2,0.1-0.4,0.1-0.6c0-0.2,0-0.4-0.1-0.6s-0.2-0.3-0.4-0.5c-0.2-0.1-0.4-0.2-0.6-0.3c-0.3-0.1-0.6-0.1-0.9-0.1h-0.8
		c-0.1,0-0.1,0-0.2,0c0,0-0.1-0.1-0.1-0.1s-0.1-0.1-0.1-0.2c0-0.1,0-0.2,0-0.4c0-0.1,0-0.3,0-0.4c0-0.1,0-0.2,0.1-0.2
		c0,0,0.1-0.1,0.1-0.1c0,0,0.1,0,0.2,0h0.8c0.3,0,0.5,0,0.8-0.1s0.4-0.2,0.6-0.3c0.2-0.1,0.3-0.3,0.3-0.5s0.1-0.4,0.1-0.6
		c0-0.2,0-0.3-0.1-0.5s-0.1-0.3-0.2-0.4c-0.1-0.1-0.2-0.2-0.4-0.3s-0.4-0.1-0.6-0.1c-0.3,0-0.5,0-0.7,0.1c-0.2,0.1-0.4,0.2-0.6,0.3
		c-0.2,0.1-0.3,0.2-0.5,0.3c-0.1,0.1-0.2,0.1-0.3,0.1c0,0-0.1,0-0.1,0c0,0-0.1-0.1-0.1-0.1c0,0,0-0.1,0-0.2c0-0.1,0-0.2,0-0.4
		c0-0.1,0-0.2,0-0.3s0-0.2,0-0.2c0-0.1,0-0.1,0.1-0.1c0,0,0.1-0.1,0.1-0.1c0,0,0.2-0.1,0.3-0.2c0.2-0.1,0.3-0.2,0.6-0.3
		c0.2-0.1,0.5-0.2,0.8-0.2s0.6-0.1,1-0.1c0.5,0,0.9,0.1,1.2,0.2s0.7,0.3,0.9,0.5c0.2,0.2,0.4,0.5,0.6,0.8c0.1,0.3,0.2,0.6,0.2,1
		c0,0.3,0,0.6-0.1,0.8c-0.1,0.3-0.2,0.5-0.3,0.7c-0.1,0.2-0.3,0.4-0.5,0.5c-0.2,0.1-0.5,0.2-0.7,0.3v0c0.3,0,0.6,0.1,0.9,0.3
		c0.3,0.1,0.5,0.3,0.7,0.5s0.3,0.4,0.4,0.7C141.4,43.2,141.5,43.5,141.5,43.8z"/>
	<path d="M147,39.3c0,0.4,0,0.7-0.1,1.1s-0.2,0.6-0.4,0.8c-0.2,0.2-0.4,0.4-0.7,0.5c-0.3,0.1-0.6,0.2-1,0.2c-0.4,0-0.8-0.1-1.1-0.2
		c-0.3-0.1-0.5-0.3-0.7-0.5c-0.2-0.2-0.3-0.5-0.4-0.8c-0.1-0.3-0.1-0.6-0.1-1c0-0.4,0-0.7,0.1-1c0.1-0.3,0.2-0.6,0.4-0.8
		c0.2-0.2,0.4-0.4,0.7-0.5c0.3-0.1,0.6-0.2,1-0.2c0.4,0,0.8,0.1,1.1,0.2c0.3,0.1,0.5,0.3,0.7,0.5s0.3,0.5,0.3,0.8
		C147,38.7,147,39,147,39.3z M145,46.5c0,0.1-0.1,0.1-0.1,0.1c0,0-0.1,0.1-0.2,0.1c-0.1,0-0.2,0-0.3,0.1c-0.1,0-0.2,0-0.4,0
		c-0.2,0-0.3,0-0.4,0c-0.1,0-0.2,0-0.2-0.1c0,0-0.1-0.1-0.1-0.1c0-0.1,0-0.1,0.1-0.2l6.9-9.4c0-0.1,0.1-0.1,0.1-0.1s0.1-0.1,0.2-0.1
		c0.1,0,0.2,0,0.3-0.1c0.1,0,0.2,0,0.4,0c0.2,0,0.3,0,0.4,0c0.1,0,0.2,0,0.2,0.1c0,0,0.1,0.1,0,0.1s0,0.1-0.1,0.2L145,46.5z
		 M145.5,39.4c0-0.3,0-0.5,0-0.7s-0.1-0.3-0.1-0.5c-0.1-0.1-0.1-0.2-0.2-0.3s-0.2-0.1-0.4-0.1c-0.1,0-0.2,0-0.3,0.1
		c-0.1,0.1-0.2,0.1-0.2,0.3c-0.1,0.1-0.1,0.3-0.1,0.5s0,0.4,0,0.7c0,0.3,0,0.6,0.1,0.8c0,0.2,0.1,0.4,0.1,0.5
		c0.1,0.1,0.1,0.2,0.2,0.2c0.1,0,0.2,0.1,0.3,0.1c0.1,0,0.3,0,0.4-0.1c0.1-0.1,0.2-0.1,0.2-0.3s0.1-0.3,0.1-0.5
		C145.5,39.8,145.5,39.6,145.5,39.4z M152.8,44.1c0,0.4,0,0.7-0.1,1.1c-0.1,0.3-0.2,0.6-0.4,0.8c-0.2,0.2-0.4,0.4-0.7,0.5
		c-0.3,0.1-0.6,0.2-1,0.2c-0.4,0-0.8-0.1-1.1-0.2c-0.3-0.1-0.5-0.3-0.7-0.5c-0.2-0.2-0.3-0.5-0.4-0.8c-0.1-0.3-0.1-0.6-0.1-1
		c0-0.4,0-0.7,0.1-1c0.1-0.3,0.2-0.6,0.4-0.8c0.2-0.2,0.4-0.4,0.7-0.5c0.3-0.1,0.6-0.2,1-0.2c0.4,0,0.8,0.1,1.1,0.2
		c0.3,0.1,0.5,0.3,0.7,0.5s0.3,0.5,0.3,0.8C152.8,43.5,152.8,43.8,152.8,44.1z M151.3,44.2c0-0.3,0-0.5,0-0.7c0-0.2-0.1-0.3-0.1-0.5
		c-0.1-0.1-0.1-0.2-0.2-0.3c-0.1-0.1-0.2-0.1-0.4-0.1c-0.1,0-0.2,0-0.3,0.1c-0.1,0.1-0.2,0.1-0.2,0.3c-0.1,0.1-0.1,0.3-0.1,0.5
		s0,0.4,0,0.7c0,0.3,0,0.6,0.1,0.8s0.1,0.4,0.1,0.5c0.1,0.1,0.1,0.2,0.2,0.2c0.1,0,0.2,0.1,0.3,0.1c0.1,0,0.3,0,0.4-0.1
		c0.1-0.1,0.2-0.1,0.2-0.3c0.1-0.1,0.1-0.3,0.1-0.5C151.3,44.7,151.3,44.4,151.3,44.2z"/>
</g>
</svg>
