<svg xmlns="http://www.w3.org/2000/svg" width="66" height="74" viewBox="0 0 66 74"><g transform="translate(0.966 1)"><g transform="translate(0 0)"><g transform="translate(0 0)"><g transform="translate(0 0)"><g transform="translate(0)"><rect width="64" height="65" rx="2" transform="translate(0.034 7)" fill="none" stroke="#c3cedb" stroke-linecap="round" stroke-linejoin="round" stroke-width="2"/><line y2="15" transform="translate(46.034 0)" fill="none" stroke="#c3cedb" stroke-linecap="round" stroke-linejoin="round" stroke-width="2"/><line y2="15" transform="translate(18.034 0)" fill="none" stroke="#c3cedb" stroke-linecap="round" stroke-linejoin="round" stroke-width="2"/><line x2="64" transform="translate(0.034 27)" fill="none" stroke="#c3cedb" stroke-linecap="round" stroke-linejoin="round" stroke-width="2"/></g></g></g></g><rect width="7" height="7" transform="translate(8.034 34)" fill="#c3cedb"/><rect width="7" height="7" transform="translate(22.034 34)" fill="#c3cedb"/><rect width="7" height="7" transform="translate(35.034 34)" fill="#c3cedb"/><rect width="7" height="7" transform="translate(49.034 34)" fill="#c3cedb"/><rect width="7" height="6" transform="translate(8.034 46)" fill="#c3cedb"/><rect width="7" height="6" transform="translate(22.034 46)" fill="#c3cedb"/><rect width="7" height="6" transform="translate(35.034 46)" fill="#c3cedb"/><rect width="7" height="6" transform="translate(49.034 46)" fill="#c3cedb"/><rect width="7" height="7" transform="translate(8.034 57)" fill="#c3cedb"/><rect width="7" height="7" transform="translate(22.034 57)" fill="#c3cedb"/></g></svg>