<svg xmlns="http://www.w3.org/2000/svg" width="76.799" height="70" viewBox="0 0 76.799 70">
  <g id="Group_12" data-name="Group 12" transform="translate(-983 -743)">
    <circle id="Ellipse_7" data-name="Ellipse 7" cx="32.5" cy="32.5" r="32.5" transform="translate(983 743)" fill="#ffd2b1"/>
    <g id="alert-octagon" transform="translate(1033.236 786.438)">
      <path id="Path_21" data-name="Path 21" d="M9.49,2H20.073l7.49,7.49V20.073l-7.49,7.49H9.49L2,20.073V9.49Z" transform="translate(-2 -2)" fill="#fb671b" stroke="#fb671b" stroke-linecap="round" stroke-linejoin="round" stroke-width="2"/>
    </g>
    <line id="Line_18" data-name="Line 18" y2="6" transform="translate(1046 793)" fill="none" stroke="#fff" stroke-linecap="round" stroke-linejoin="round" stroke-width="2"/>
    <line id="Line_19" data-name="Line 19" x2="0.013" transform="translate(1046.017 804.331)" fill="none" stroke="#fff" stroke-linecap="round" stroke-linejoin="round" stroke-width="2"/>
    <g id="construction-hazard-banner" transform="translate(1000.782 759.983)">
      <path id="Path_35" data-name="Path 35" d="M28.254,6.749a1.235,1.235,0,0,0-1.037-.562h-.682V5.27a1.231,1.231,0,0,0-1.223-1.23V3.227a1.64,1.64,0,1,0-.834,0v.814a1.231,1.231,0,0,0-1.223,1.23v.917H5.193V5.221a1.231,1.231,0,0,0-1.223-1.23V3.227a1.64,1.64,0,1,0-.834,0v.765a1.231,1.231,0,0,0-1.223,1.23v.966H1.237A1.239,1.239,0,0,0,0,7.425v7.136a1.23,1.23,0,0,0,.185.65h0a1.229,1.229,0,0,0,1.052.587h.675V27.621H1.729a.417.417,0,0,0,0,.834H5.383a.417.417,0,0,0,0-.834h-.19V25.136a.417.417,0,0,0-.834,0v2.485H2.746V15.8H4.359v7.671a.417.417,0,1,0,.834,0V15.8c.734-.008,11.794,0,12.477,0a.417.417,0,1,0,0-.834H17.58l4.047-7.944h2.691l-4.047,7.944h-.935a.417.417,0,0,0,0,.834h3.918V27.621h-.183a.417.417,0,0,0,0,.834h3.654a.417.417,0,0,0,0-.834h-.19V15.8h.682a1.239,1.239,0,0,0,1.237-1.237V7.425a1.216,1.216,0,0,0-.2-.675ZM2.746,1.64a.807.807,0,1,1,.807.807A.808.808,0,0,1,2.746,1.64Zm0,3.581a.4.4,0,0,1,.4-.4h.821a.4.4,0,0,1,.4.4v.966H2.746ZM.834,7.425a.4.4,0,0,1,.4-.4H4.152L.834,13.533ZM3.2,14.965H1.237a.4.4,0,0,1-.176-.041l4.026-7.9h2.16Zm3.627,0H4.135L8.183,7.021h2.692Zm3.1,0H7.762L11.81,7.021h2.16Zm3.627,0H10.858l4.047-7.944H17.6Zm3.1,0h-2.16l4.047-7.944h2.16ZM24.089,1.64a.807.807,0,1,1,.807.807A.808.808,0,0,1,24.089,1.64Zm0,4.547V5.27a.4.4,0,0,1,.4-.4h.821a.4.4,0,0,1,.4.4v.917Zm-2.881,8.778,4.047-7.944h1.963a.4.4,0,0,1,.176.041l-4.026,7.9ZM25.7,27.621H24.089V15.8H25.7Zm1.919-13.06a.4.4,0,0,1-.4.4H24.3l3.318-6.512Z" fill="#ff7a34" stroke="#ff7a34" stroke-width="0.5"/>
    </g>
  </g>
</svg>
