<svg xmlns="http://www.w3.org/2000/svg" width="80.051" height="82.952" viewBox="0 0 80.051 82.952">
  <g id="Group_10" data-name="Group 10" transform="translate(-1317 -593)">
    <circle id="Ellipse_6" data-name="Ellipse 6" cx="37.5" cy="37.5" r="37.5" transform="translate(1317 593)" fill="#e5f8ff"/>
    <circle id="circle" cx="13.526" cy="13.526" r="13.526" transform="translate(1369 647.901)" fill="#08f" stroke="#08f" stroke-linecap="round" stroke-linejoin="round" stroke-width="2"/>
    <path id="check_2_" data-name="check (2)" d="M14.821,6,7.381,13.439,4,10.058" transform="translate(1373.115 652.045)" fill="none" stroke="#fff" stroke-linecap="round" stroke-linejoin="round" stroke-width="2"/>
    <g id="maintenance" transform="translate(1337.337 610.5)">
      <path id="Path_29" data-name="Path 29" d="M35.349,14.759l-3.306-.319a14.09,14.09,0,0,0-1.679-3.987l2.107-2.544a.628.628,0,0,0-.039-.844L28.856,3.489a.628.628,0,0,0-.844-.039L25.466,5.557a14.492,14.492,0,0,0-3.985-1.679L21.162.568A.628.628,0,0,0,20.537,0H15.65a.628.628,0,0,0-.625.568l-.319,3.31A14.483,14.483,0,0,0,10.72,5.557L8.174,3.449a.628.628,0,0,0-.844.039L3.754,7.065a.628.628,0,0,0-.039.845l2.107,2.544a14.084,14.084,0,0,0-1.68,3.988l-3.3.319a.625.625,0,0,0-.564.625v5.069a.624.624,0,0,0,.564.625l3.308.319a14.484,14.484,0,0,0,1.678,3.985L3.715,27.929a.628.628,0,0,0,.067.871l2.712,2.4a.628.628,0,0,0,.931-.111l3.9-5.593a.628.628,0,0,0-.071-.8,9.577,9.577,0,1,1,13.544,0,.628.628,0,0,0-.065.812L28.766,31.1a.628.628,0,0,0,.925.1L32.4,28.8a.628.628,0,0,0,.067-.871l-2.108-2.546A14.482,14.482,0,0,0,32.042,21.4l3.306-.319a.624.624,0,0,0,.564-.625v-5.07a.625.625,0,0,0-.564-.625Zm-.692,5.124-3.185.307a.626.626,0,0,0-.551.489,13.244,13.244,0,0,1-1.857,4.409.628.628,0,0,0,.042.745l2.012,2.428L29.379,29.8,26.054,25.19A10.833,10.833,0,1,0,10,25.2L6.8,29.791,5.069,28.262l2.011-2.428a.628.628,0,0,0,.042-.745A13.257,13.257,0,0,1,5.264,20.68a.623.623,0,0,0-.549-.489L1.53,19.883V15.955l3.185-.308a.625.625,0,0,0,.552-.492,12.857,12.857,0,0,1,1.855-4.4.628.628,0,0,0-.04-.748L5.047,7.549,7.814,4.781,10.27,6.815a.627.627,0,0,0,.745.042A13.25,13.25,0,0,1,15.423,5a.628.628,0,0,0,.489-.553l.307-3.189h3.746l.308,3.189A.628.628,0,0,0,20.763,5a13.249,13.249,0,0,1,4.409,1.859.627.627,0,0,0,.745-.042l2.456-2.034L31.14,7.549l-2.034,2.457a.628.628,0,0,0-.04.747,12.86,12.86,0,0,1,1.856,4.4.623.623,0,0,0,.549.492l3.185.307Zm0,0" transform="translate(0 0)" fill="#429ec1"/>
      <path id="Path_30" data-name="Path 30" d="M168.288,148.747v-9.536a5.238,5.238,0,0,0,2.622-4.438,4.611,4.611,0,0,0-3.738-4.76.628.628,0,0,0-.767.661l.208,2.665a1.8,1.8,0,0,1-1.675,0l.223-2.68a.628.628,0,0,0-.8-.655,5.074,5.074,0,0,0-.461,9.452v9.5a5.2,5.2,0,0,0-2.6,4.42,4.682,4.682,0,0,0,3.692,4.793.629.629,0,0,0,.78-.658l-.207-2.665a1.8,1.8,0,0,1,1.675,0l-.223,2.68a.628.628,0,0,0,.8.655,5.057,5.057,0,0,0,.471-9.434Zm.067,7.838.167-2.008a.628.628,0,0,0-.245-.552l-.024-.018a3.06,3.06,0,0,0-3.732.025.628.628,0,0,0-.237.542l.16,2.066a3.436,3.436,0,0,1-1.885-3.27A3.94,3.94,0,0,1,164.8,149.9a.624.624,0,0,0,.358-.569V139.011a.625.625,0,0,0-.443-.6,3.6,3.6,0,0,1-2.568-3.6,3.641,3.641,0,0,1,1.677-3.21l-.167,2.008a.627.627,0,0,0,.246.552l.023.018a3.059,3.059,0,0,0,3.729-.021l.017-.014a.629.629,0,0,0,.224-.531l-.163-2.088a3.364,3.364,0,0,1,1.923,3.25,4.018,4.018,0,0,1-2.263,3.491.628.628,0,0,0-.358.567v10.359a.628.628,0,0,0,.446.6,3.6,3.6,0,0,1,2.571,3.6,3.671,3.671,0,0,1-1.695,3.2Zm0,0" transform="translate(-148.005 -119.776)" fill="#429ec1"/>
    </g>
  </g>
</svg>
