<svg xmlns="http://www.w3.org/2000/svg" xmlns:xlink="http://www.w3.org/1999/xlink" viewBox="0 0 500 500">
  <g id="Custom_Size_1" data-name="Custom Size – 1" clip-path="url(#clip-Custom_Size_1)">
    <g id="_403_Error_Forbidden-amico" data-name="403 Error Forbidden-amico" transform="translate(26.73 -16.848)">
      <g id="freepik--Floor--inject-33" transform="translate(-22.73 286.846)">
        <ellipse id="freepik--floor--inject-33-2" data-name="freepik--floor--inject-33" cx="246.238" cy="111.29" rx="246.238" ry="111.29" fill="#f5f5f5"/>
      </g>
      <g id="freepik--Shadows--inject-33" transform="translate(221.354 250.88)">
        <g id="freepik--Shadows--inject-2" transform="translate(0 150.401)">
          <path id="freepik--shadow--inject-2" d="M237.6,363.613l42.191,24.363a11.242,11.242,0,0,0,10.145,0l85.035-49.083c2.8-1.622,2.8-4.242,0-5.854l-42.191-24.363a11.242,11.242,0,0,0-10.145,0L237.6,357.759C234.788,359.41,234.788,362,237.6,363.613Z" transform="translate(-235.49 -307.467)" fill="#e0e0e0"/>
        </g>
        <g id="freepik--Padlock--inject-2" transform="translate(7.436)">
          <path id="Path_243" data-name="Path 243" d="M362.317,244.942a30.968,30.968,0,0,1,4.746-16.275v-9.186a2.907,2.907,0,0,0-1.038-2.492h0a1.619,1.619,0,0,0-.287-.158L335.947,199.6h0a2.838,2.838,0,0,0-2.788.3L309.675,213.45a9.028,9.028,0,0,0-3.886,6.921c-.267,6.724-2.462,19.172-14.337,26.024s-14.1-3.184-14.347-9.591c-.1-2.551-1.671-3.579-3.876-2.3l-23.493,13.556a8.83,8.83,0,0,0-3.955,6.921v9.186s4.746,1.325,4.746,10.8-7.337,26.647-7.337,50.487c0,11.935,3.787,21.9,11.737,26.479h0l29.851,17.224h0c7.91,4.667,20.033,3.955,36.713-5.715,33.2-19.172,48.292-52.613,48.292-76.442S362.317,254.375,362.317,244.942Z" transform="translate(-243.012 -155.853)" fill="#0f73ef"/>
          <path id="Path_244" data-name="Path 244" d="M333.058,199.864,309.575,213.42a9.008,9.008,0,0,0-3.886,6.921c-.247,6.2-2.126,17.254-11.717,24.3l-18.065-10.432-.1-.049a2.65,2.65,0,0,0-2.68.306l-23.493,13.556a5.835,5.835,0,0,0-.92.662A8.75,8.75,0,0,0,246.807,251a8.315,8.315,0,0,0-1.167,3.955v9.186l1.3.751c1.424,1.147,3.451,3.856,3.451,10.036,0,9.472-7.337,26.7-7.337,50.487,0,11.934,3.787,21.921,11.737,26.5l29.742,17.155c-7.8-4.637-11.509-14.525-11.509-26.351,0-23.839,7.327-41.024,7.327-50.5s-4.746-10.787-4.746-10.787v-9.186a8.9,8.9,0,0,1,3.955-6.921l23.493-13.556a2.709,2.709,0,0,1,2.591-.356h.1a2.966,2.966,0,0,1,1.186,2.6c.237,6.417,2.393,16.5,14.347,9.6s14.07-19.3,14.347-26.025a8.988,8.988,0,0,1,3.876-6.921l23.483-13.556a2.867,2.867,0,0,1,2.68-.346L335.945,199.6a2.848,2.848,0,0,0-2.887.267Z" transform="translate(-243.01 -155.852)" fill="#0f73ef"/>
          <path id="Path_245" data-name="Path 245" d="M246.985,265.473h0l28.674,16.542v-9.186a8.108,8.108,0,0,1,1.177-3.955h0l-30-17.274a8.276,8.276,0,0,0-1.167,3.955v9.186h0Z" transform="translate(-243.04 -156.439)" opacity="0.1"/>
          <path id="Path_246" data-name="Path 246" d="M294.014,245.038,275.95,234.607l-.1-.049a2.65,2.65,0,0,0-2.68.307L249.678,248.42a5.834,5.834,0,0,0-.92.663,8.749,8.749,0,0,0-1.908,2.314l30.009,17.323a8.138,8.138,0,0,1,2.818-2.966L303.171,252.2a2.709,2.709,0,0,1,2.591-.356Z" transform="translate(-243.053 -156.245)" fill="#fff" opacity="0.4"/>
          <path id="Path_247" data-name="Path 247" d="M366.462,216.8,336.67,199.6a2.848,2.848,0,0,0-2.848.267L310.339,213.42a7.7,7.7,0,0,0-2.729,2.966l30,17.313a7.7,7.7,0,0,1,2.729-2.966l23.483-13.556a2.867,2.867,0,0,1,2.64-.376Z" transform="translate(-243.735 -155.852)" fill="#fff" opacity="0.4"/>
          <path id="Path_248" data-name="Path 248" d="M337.423,233.9a9.4,9.4,0,0,0-1.157,3.955c-.267,6.724-2.472,19.172-14.337,26.025s-14.11-3.184-14.347-9.6a2.967,2.967,0,0,0-1.187-2.6h-.1L294.55,244.9c9.591-7.05,11.47-18.1,11.717-24.3a9.3,9.3,0,0,1,1.157-3.955Z" transform="translate(-243.589 -156.047)" opacity="0.1"/>
          <path id="Path_249" data-name="Path 249" d="M284.529,369.817l-29.782-17.175c-7.91-4.578-11.737-14.565-11.737-26.5,0-23.829,7.337-41.014,7.337-50.487,0-6.13-1.978-8.84-3.411-10.016l28.674,16.542s4.746,1.325,4.746,10.788-7.327,26.7-7.327,50.5C273.059,355.3,276.767,365.19,284.529,369.817Z" transform="translate(-243.01 -156.597)" opacity="0.2"/>
          <path id="Path_250" data-name="Path 250" d="M328.978,329.335l-12.854,7.416,1.978-23.246c-1.542-.811-2.521-2.808-2.521-5.676,0-5.122,3.115-11.064,6.921-13.289s6.921.138,6.921,5.26a17.531,17.531,0,0,1-2.511,8.592Z" transform="translate(-243.825 -156.912)" fill="#455a64"/>
          <path id="Path_251" data-name="Path 251" d="M328.984,329.664l-11.638-6.724-1.216,14.139Z" transform="translate(-243.831 -157.24)" fill="#37474f"/>
          <path id="Path_252" data-name="Path 252" d="M322.563,294.54c-2.512,1.454-4.707,4.5-5.933,7.91l10.362,5.982h0a17.531,17.531,0,0,0,2.512-8.592C329.514,294.679,326.4,292.326,322.563,294.54Z" transform="translate(-243.837 -156.912)" fill="#37474f"/>
          <path id="Path_253" data-name="Path 253" d="M336.511,157.842c-6.358-3.668-14.337-3.253-21.921,1.117l-28.012,16.176c-12.142,7.01-21.3,22.87-21.3,36.881v37.821h0c0,1.562,1.048,3.134,3.115,4.331a16.572,16.572,0,0,0,15,0c2.067-1.2,3.115-2.769,3.115-4.331h0V212.017c0-6.447,5.092-15.267,10.679-18.49L325.2,177.35h.069v37.89h0c0,1.572,1.048,3.134,3.115,4.331a16.572,16.572,0,0,0,15,0c2.067-1.2,3.115-2.759,3.115-4.331h0V177.39C346.5,168.629,342.859,161.51,336.511,157.842Z" transform="translate(-243.26 -155.359)" fill="#37474f"/>
          <path id="Path_254" data-name="Path 254" d="M326,177.6v37.811c0,1.572,1.048,3.134,3.115,4.331a12.853,12.853,0,0,0,3.125,1.246V173.92l-6.239,3.6Z" transform="translate(-243.942 -155.567)" fill="#263238"/>
        </g>
      </g>
      <g id="freepik--Door--inject-33" transform="translate(43.06 92.716)">
        <g id="freepik--Bricks--inject-33" transform="translate(0 15.506)">
          <path id="Path_1" data-name="Path 1" d="M103.87,225.855v3.421c0,1.078.761,1.513,1.691.989l3.3-1.9V221l-3.3,1.978A3.738,3.738,0,0,0,103.87,225.855Z" transform="translate(-73.05 -110.422)" fill="#e0e0e0"/>
          <path id="Path_2" data-name="Path 2" d="M93.28,222.877v3.411c0,1.078.761,1.513,1.691.989l13.774-7.91V212l-13.764,7.91A3.738,3.738,0,0,0,93.28,222.877Z" transform="translate(-72.931 -110.321)" fill="#e0e0e0"/>
          <path id="Path_3" data-name="Path 3" d="M100.623,262.047l-15.642,9.028a3.757,3.757,0,0,0-1.691,2.966v3.421c0,1.078.761,1.513,1.691.989l15.642-9.028a3.738,3.738,0,0,0,1.691-2.966v-3.471C102.314,261.939,101.553,261.5,100.623,262.047Z" transform="translate(-72.819 -110.881)" fill="#e0e0e0"/>
          <path id="Path_4" data-name="Path 4" d="M108.744,302.88l-13.774,7.91a3.738,3.738,0,0,0-1.691,2.966v3.421c0,1.078.761,1.513,1.691.989l13.774-7.91Z" transform="translate(-72.931 -111.342)" fill="#e0e0e0"/>
          <path id="Path_5" data-name="Path 5" d="M93.28,186.467v3.372c0,1.078.761,1.513,1.691.989l13.774-7.91V175.6l-13.774,7.91A3.737,3.737,0,0,0,93.28,186.467Z" transform="translate(-72.931 -109.913)" fill="#e0e0e0"/>
          <path id="Path_6" data-name="Path 6" d="M77.44,295.771v3.421c0,1.078.751,1.513,1.691.989L94.8,291.144a3.728,3.728,0,0,0,1.691-2.966v-3.421c0-1.078-.751-1.513-1.691-.989l-15.672,9.126A3.728,3.728,0,0,0,77.44,295.771Z" transform="translate(-72.753 -111.125)" fill="#e0e0e0"/>
          <path id="Path_7" data-name="Path 7" d="M93.28,259.2v3.421c0,1.078.761,1.513,1.691.989l13.774-7.91V248.37l-13.764,7.91a3.738,3.738,0,0,0-1.7,2.917Z" transform="translate(-72.931 -110.73)" fill="#e0e0e0"/>
          <path id="Path_8" data-name="Path 8" d="M91.724,318.037v-3.411c0-1.078-.751-1.523-1.691-.989l-15.642,9.027a3.758,3.758,0,0,0-1.691,2.966v3.421c0,1.078.761,1.513,1.691.989L90.033,321a3.708,3.708,0,0,0,1.691-2.966Z" transform="translate(-72.7 -111.46)" fill="#e0e0e0"/>
          <path id="Path_9" data-name="Path 9" d="M91.8,176.327l-15.623,9.028a3.757,3.757,0,0,0-1.691,2.966v3.421c0,1.078.761,1.513,1.691.989L91.8,183.654a3.757,3.757,0,0,0,1.691-2.966v-3.421C93.514,176.229,92.792,175.793,91.8,176.327Z" transform="translate(-72.72 -109.918)" fill="#e0e0e0"/>
          <path id="Path_10" data-name="Path 10" d="M100.623,189.307l-15.642,9.027A3.757,3.757,0,0,0,83.29,201.3v3.421c0,1.078.761,1.513,1.691.989l15.642-9.037a3.737,3.737,0,0,0,1.691-2.966v-3.421C102.314,189.2,101.553,188.764,100.623,189.307Z" transform="translate(-72.819 -110.064)" fill="#e0e0e0"/>
          <path id="Path_11" data-name="Path 11" d="M100.623,225.677,84.981,234.7a3.757,3.757,0,0,0-1.691,2.966v3.421c0,1.078.761,1.513,1.691.989l15.642-9.028a3.737,3.737,0,0,0,1.691-2.966v-3.421C102.314,225.569,101.553,225.134,100.623,225.677Z" transform="translate(-72.819 -110.472)" fill="#e0e0e0"/>
          <path id="Path_12" data-name="Path 12" d="M84.981,332.951l15.642-9.037a3.757,3.757,0,0,0,1.691-2.966v-3.421c0-1.078-.761-1.513-1.691-.989l-15.642,9.087a3.757,3.757,0,0,0-1.691,2.966v3.421C83.29,333.05,84.051,333.485,84.981,332.951Z" transform="translate(-72.819 -111.492)" fill="#e0e0e0"/>
          <path id="Path_13" data-name="Path 13" d="M235.593,161.906v3.421a3.728,3.728,0,0,1-1.681,2.966l-3.3,1.908v-7.327l3.3-1.9C234.842,160.394,235.593,160.829,235.593,161.906Z" transform="translate(-74.473 -109.746)" fill="#e0e0e0"/>
          <path id="Path_14" data-name="Path 14" d="M230.61,281l13.774-7.91c.929-.544,1.681-.1,1.681.989v3.411a3.727,3.727,0,0,1-1.681,2.966l-13.774,7.91Z" transform="translate(-74.473 -111.005)" fill="#e0e0e0"/>
          <path id="Path_15" data-name="Path 15" d="M246.065,146.726v3.421a3.747,3.747,0,0,1-1.681,2.966l-13.774,7.91v-7.317l13.774-7.91C245.313,145.214,246.065,145.649,246.065,146.726Z" transform="translate(-74.473 -109.575)" fill="#e0e0e0"/>
          <path id="Path_16" data-name="Path 16" d="M238.691,194.435l15.642-9.037c.929-.534,1.691-.1,1.691.989v3.421a3.757,3.757,0,0,1-1.691,2.966L238.691,201.8c-.989.544-1.691.1-1.691-.989v-3.451a3.708,3.708,0,0,1,1.691-2.927Z" transform="translate(-74.545 -110.02)" fill="#e0e0e0"/>
          <path id="Path_17" data-name="Path 17" d="M230.61,244.628l13.774-7.91c.929-.534,1.681-.1,1.681.989v3.411a3.727,3.727,0,0,1-1.681,2.966l-13.774,7.91Z" transform="translate(-74.473 -110.596)" fill="#e0e0e0"/>
          <path id="Path_18" data-name="Path 18" d="M246.065,110.356v3.421a3.728,3.728,0,0,1-1.681,2.966l-13.774,7.91v-7.317l13.774-7.91C245.313,108.844,246.065,109.279,246.065,110.356Z" transform="translate(-74.473 -109.167)" fill="#e0e0e0"/>
          <path id="Path_19" data-name="Path 19" d="M261.874,201.386v3.421a3.728,3.728,0,0,1-1.691,2.966l-15.642,9.037c-.929.544-1.681.109-1.681-.989V212.4a3.728,3.728,0,0,1,1.681-2.966l15.642-9.028C261.123,199.873,261.874,200.309,261.874,201.386Z" transform="translate(-74.61 -110.189)" fill="#e0e0e0"/>
          <path id="Path_20" data-name="Path 20" d="M246.065,183.1v3.421a3.747,3.747,0,0,1-1.681,2.966l-13.774,7.91v-7.317l13.774-7.91C245.313,181.584,246.065,182,246.065,183.1Z" transform="translate(-74.473 -109.983)" fill="#e0e0e0"/>
          <path id="Path_21" data-name="Path 21" d="M247.59,240.152v-3.421a3.728,3.728,0,0,1,1.691-2.966l15.642-9.027c.929-.544,1.691-.109,1.691.989v3.421a3.738,3.738,0,0,1-1.691,2.966l-15.642,9.037C248.341,241.665,247.59,241.23,247.59,240.152Z" transform="translate(-74.663 -110.462)" fill="#e0e0e0"/>
          <path id="Path_22" data-name="Path 22" d="M238.691,121.695l15.642-9.037c.929-.534,1.691-.1,1.691.989v3.421a3.757,3.757,0,0,1-1.691,2.966l-15.642,9.027c-.989.544-1.691.1-1.691-.989v-3.421a3.708,3.708,0,0,1,1.691-2.956Z" transform="translate(-74.545 -109.203)" fill="#e0e0e0"/>
          <path id="Path_23" data-name="Path 23" d="M238.691,158.064,254.333,149c.929-.534,1.691-.1,1.691.989v3.421a3.757,3.757,0,0,1-1.691,2.966L238.691,165.4c-.989.544-1.691.1-1.691-.989V161a3.708,3.708,0,0,1,1.691-2.937Z" transform="translate(-74.545 -109.611)" fill="#e0e0e0"/>
          <path id="Path_24" data-name="Path 24" d="M254.333,247.275l-15.642,9.037c-.989.534-1.691.1-1.691-.989V251.9a3.728,3.728,0,0,1,1.691-2.966L254.333,240c.929-.544,1.691-.1,1.691.989v3.421a3.738,3.738,0,0,1-1.691,2.867Z" transform="translate(-74.545 -110.633)" fill="#e0e0e0"/>
          <path id="Path_25" data-name="Path 25" d="M230.61,299.178l13.774-7.91c.929-.534,1.681-.1,1.681.989v3.421a3.747,3.747,0,0,1-1.681,2.966l-13.774,7.91Z" transform="translate(-74.473 -111.209)" fill="#e0e0e0"/>
        </g>
        <g id="freepik--door--inject-33-2" data-name="freepik--door--inject-33" transform="translate(35.813)">
          <g id="freepik--door--inject-33-3" data-name="freepik--door--inject-33">
            <path id="Path_26" data-name="Path 26" d="M108.92,409.413V164.632a11.865,11.865,0,0,1,5.359-9.275L220.2,94.2a3.787,3.787,0,0,1,3.787-.376l3.668,2.146a3.747,3.747,0,0,1,1.582,3.471V344.213l-7.722,4.459-6.269-3.629-94.922,54.8v7.248l-7.722,4.459Z" transform="translate(-108.92 -93.485)" fill="#37474f"/>
            <path id="Path_27" data-name="Path 27" d="M134,392.679l-13.695,7.91v7.248l-7.722,4.459-3.658-2.116V165.38a10.877,10.877,0,0,1,1.582-5.29l23.315,13.467Z" transform="translate(-108.92 -94.233)" fill="#263238"/>
            <path id="Path_28" data-name="Path 28" d="M112.62,166.782V411.553l7.722-4.449v-7.238l94.922-54.8,6.269,3.619,7.722-4.449V99.437c0-3.431-2.4-4.8-5.339-3.095L117.94,157.507A11.865,11.865,0,0,0,112.62,166.782Z" transform="translate(-108.962 -93.509)" fill="#455a64"/>
            <path id="Path_29" data-name="Path 29" d="M120.43,168.261V403.074l97.562-56.32V111.95Z" transform="translate(-109.049 -93.693)" fill="#0f73ef"/>
            <path id="Path_30" data-name="Path 30" d="M120.43,168.261V403.074l97.562-56.32V111.95Z" transform="translate(-109.049 -93.693)" fill="#fff" opacity="0.7"/>
            <g id="Group_1" data-name="Group 1" transform="translate(28.012 47.051)" opacity="0.43">
              <path id="Path_31" data-name="Path 31" d="M137.25,374.608V178.189l64.27-37.119V337.48Zm2.719-194.858V369.931l58.921-34.014V145.747Z" transform="translate(-137.25 -141.07)" fill="#0f73ef"/>
              <path id="Path_32" data-name="Path 32" d="M137.25,178.189v196.42l64.27-37.128V141.07Zm61.61,157.729-58.891,34.014V179.751l58.921-34Z" transform="translate(-137.25 -141.07)" opacity="0.1"/>
            </g>
            <path id="Path_33" data-name="Path 33" d="M219.1,346.73v-234.8l3.609-2.1.01,239.026Z" transform="translate(-110.157 -93.669)" fill="#263238"/>
            <path id="Path_34" data-name="Path 34" d="M120.43,409.953l101.181-58.407-3.619-2.126-97.562,56.32Z" transform="translate(-109.049 -96.359)" fill="#e0e0e0"/>
          </g>
          <g id="freepik--Latch--inject-33" transform="translate(13.269 156.439)">
            <path id="Path_35" data-name="Path 35" d="M122.34,258.22l1.948,1.127.01,32.363-1.958-1.127Z" transform="translate(-122.34 -251.773)" fill="#e0e0e0"/>
            <path id="Path_36" data-name="Path 36" d="M124.31,259.291l10.511-6.071.01,32.363-10.511,6.071Z" transform="translate(-122.362 -251.717)" fill="#fafafa"/>
            <path id="Path_37" data-name="Path 37" d="M134.948,262.23l-4.608,2.65v5.26a.633.633,0,0,0,.989.544l3.658-2.106Z" transform="translate(-122.43 -251.818)" opacity="0.05"/>
            <path id="Path_38" data-name="Path 38" d="M134.8,253.207l-1.948-1.127-10.511,6.071,1.948,1.127Z" transform="translate(-122.34 -251.704)" fill="#ebebeb"/>
            <path id="Path_39" data-name="Path 39" d="M128.385,263.781l4.825,2.778,1.928-3.342-4.825-2.778h0a.929.929,0,0,0-.989.089,2.966,2.966,0,0,0-1.365,2.363A.989.989,0,0,0,128.385,263.781Z" transform="translate(-122.403 -251.797)" fill="#e0e0e0"/>
            <path id="Path_40" data-name="Path 40" d="M130.29,264.872l1.75,1.018v-2.3l1.869-1.078-1.75-1.009-1.869,1.068Z" transform="translate(-122.429 -251.81)" opacity="0.1"/>
            <path id="Path_41" data-name="Path 41" d="M132.65,263.854v5.053l19.281-11.124V252.73Z" transform="translate(-122.456 -251.712)" fill="#fafafa"/>
            <path id="Path_42" data-name="Path 42" d="M132.63,263.968l-1.75-1.018v5.063l1.75,1.009Z" transform="translate(-122.436 -251.826)" fill="#e0e0e0"/>
            <path id="Path_43" data-name="Path 43" d="M151.911,252.718l-1.75-1.018L130.88,262.824l1.75,1.018Z" transform="translate(-122.436 -251.7)" fill="#ebebeb"/>
            <path id="Path_44" data-name="Path 44" d="M127.84,278.192a3.955,3.955,0,0,1,1.77-3.065c.989-.564,1.77-.109,1.77.989a3.876,3.876,0,0,1-1.068,2.492v3.312a1.335,1.335,0,0,1-.6,1.038l-.2.119a.374.374,0,0,1-.6-.346v-3.3C128.275,279.508,127.84,279.033,127.84,278.192Z" transform="translate(-122.402 -251.96)" fill="#455a64"/>
          </g>
          <g id="freepik--Close--inject-33" transform="translate(42.844 76.229)">
            <path id="Path_45" data-name="Path 45" d="M155.464,199.96,185.2,182.8c1.77-.989,3.214-.2,3.214,1.849v20.418a7.129,7.129,0,0,1-3.214,5.567l-29.732,17.165c-1.77.989-3.214.188-3.214-1.859V205.517a7.089,7.089,0,0,1,3.213-5.557Z" transform="translate(-152.25 -170.712)" opacity="0.15"/>
            <path id="Path_46" data-name="Path 46" d="M156.614,200.8l29.732-17.165c1.77-.989,3.213-.2,3.213,1.849V205.9a7.129,7.129,0,0,1-3.213,5.567l-29.732,17.165c-1.78.989-3.214.188-3.214-1.859V206.4a7.07,7.07,0,0,1,3.214-5.6Z" transform="translate(-152.263 -170.722)" fill="#455a64"/>
            <path id="Path_47" data-name="Path 47" d="M165.586,197.692h-.079a.366.366,0,0,1-.287-.445l6.032-26.38a.356.356,0,0,1,.346-.287h0a.366.366,0,0,1,.356.257l6.032,19.429a.376.376,0,1,1-.712.218l-5.616-18.1-5.666,25.056A.376.376,0,0,1,165.586,197.692Z" transform="translate(-152.395 -170.58)" fill="#263238"/>
            <path id="Path_48" data-name="Path 48" d="M157.659,220.723a.712.712,0,0,1-.089-.435V209.6a1.354,1.354,0,0,1,.089-.544.573.573,0,0,1,.287-.306l3.233-1.869a.173.173,0,0,1,.227.049,1.492,1.492,0,0,1,.059.514v.445a2.382,2.382,0,0,1-.059.593.494.494,0,0,1-.227.307l-2.136,1.236v2.966l1.918-1.048a.16.16,0,0,1,.218.049,1.285,1.285,0,0,1,.069.524v.415a1.869,1.869,0,0,1-.069.593.544.544,0,0,1-.218.316l-1.918,1.068v3.243l2.146-1.246a.148.148,0,0,1,.218,0,1.523,1.523,0,0,1,.059.524v.445a2.315,2.315,0,0,1-.059.6.534.534,0,0,1-.218.3l-3.243,1.879C157.807,220.772,157.708,220.782,157.659,220.723Z" transform="translate(-152.31 -170.987)" fill="#fafafa"/>
            <path id="Path_49" data-name="Path 49" d="M162.78,217.451V206.575a1.176,1.176,0,0,1,.1-.524.712.712,0,0,1,.287-.326l1.79-.989q2.225-1.3,2.225,1.978a5.834,5.834,0,0,1-.989,3.49v.069c.3.079.544.554.751,1.424l.672,2.917a.436.436,0,0,0,0,.1.338.338,0,0,1,0,.1c0,.267-.2.514-.6.742l-.316.188c-.346.2-.544.178-.573-.059l-.613-2.966a1.2,1.2,0,0,0-.306-.633c-.119-.079-.287-.049-.524.089l-.415.237v4.212a.989.989,0,0,1-.583.84l-.306.168C163,217.847,162.78,217.778,162.78,217.451Zm2.254-7.6a1.384,1.384,0,0,0,.5-.751,3.817,3.817,0,0,0,.218-1.355,1.977,1.977,0,0,0-.208-1.088q-.208-.267-.564-.059l-.751.435v3.283Z" transform="translate(-152.368 -170.959)" fill="#fafafa"/>
            <path id="Path_50" data-name="Path 50" d="M168.65,214.061V203.185a1.365,1.365,0,0,1,.089-.534.791.791,0,0,1,.3-.326l1.79-.989q2.225-1.3,2.225,1.978a5.873,5.873,0,0,1-.989,3.49v.059c.3.089.544.564.751,1.434l.662,2.907v.208c0,.257-.2.5-.6.732l-.316.188c-.356.2-.544.178-.583-.059l-.6-2.966a1.177,1.177,0,0,0-.307-.623c-.119-.079-.3-.059-.534.079l-.405.237v4.222a.989.989,0,0,1-.593.831l-.3.178C168.838,214.447,168.65,214.4,168.65,214.061Zm2.254-7.6a1.345,1.345,0,0,0,.5-.751,4.023,4.023,0,0,0,.208-1.355,1.9,1.9,0,0,0-.2-1.078.386.386,0,0,0-.564-.069l-.751.435v3.293Z" transform="translate(-152.434 -170.921)" fill="#fafafa"/>
            <path id="Path_51" data-name="Path 51" d="M174.29,205.268q0-6.081,2.858-7.732t2.858,4.43q0,6.111-2.858,7.762T174.29,205.268Zm3.886.989a13.44,13.44,0,0,0,.326-3.421,9.1,9.1,0,0,0-.326-3.036q-.326-.761-.989-.356a2.462,2.462,0,0,0-.989,1.542,13.3,13.3,0,0,0-.326,3.411,9.256,9.256,0,0,0,.326,3.045c.227.514.564.633.989.366a2.522,2.522,0,0,0,.989-1.552Z" transform="translate(-152.497 -170.879)" fill="#fafafa"/>
            <path id="Path_52" data-name="Path 52" d="M181.35,206.731V195.855a1.364,1.364,0,0,1,.089-.534.672.672,0,0,1,.3-.326l1.78-.989q2.245-1.3,2.235,1.978a5.873,5.873,0,0,1-1.038,3.49v.059c.287.089.544.564.751,1.434l.662,2.907a.3.3,0,0,1,0,.1.407.407,0,0,1,0,.109c0,.257-.2.5-.593.732l-.326.188c-.346.2-.534.178-.574-.059l-.613-2.966a1.118,1.118,0,0,0-.307-.623c-.109-.089-.287-.059-.524.079l-.405.237v4.192a.989.989,0,0,1-.593.831l-.3.168C181.538,207.117,181.35,207.058,181.35,206.731Zm2.245-7.6a1.305,1.305,0,0,0,.514-.751,4.064,4.064,0,0,0,.208-1.355,1.977,1.977,0,0,0-.208-1.088.386.386,0,0,0-.554-.059l-.751.435v3.283Z" transform="translate(-152.577 -170.839)" fill="#fafafa"/>
          </g>
        </g>
        <g id="freepik--Tapes--inject-33" transform="translate(35.25 116.888)">
          <path id="Path_53" data-name="Path 53" d="M112.488,369.836l-3.658-2.086.01,12.31,3.649,2.086Z" transform="translate(-108.355 -213.452)" opacity="0.2"/>
          <path id="Path_54" data-name="Path 54" d="M112.483,366.513,108.35,364.1l.01,12.31,4.123,2.413Z" transform="translate(-108.35 -213.411)" fill="#0f73ef"/>
          <path id="Path_55" data-name="Path 55" d="M112.483,366.513,108.35,364.1l.01,12.31,4.123,2.413Z" transform="translate(-108.35 -213.411)" opacity="0.2"/>
          <path id="Path_56" data-name="Path 56" d="M229.205,215.01,112.53,368.122l.01,12.31,116.665-153.1Z" transform="translate(-108.397 -211.737)" opacity="0.25"/>
          <path id="Path_57" data-name="Path 57" d="M229.205,211.7,112.53,364.8l.01,12.31,116.665-153.1Z" transform="translate(-108.397 -211.7)" fill="#0f73ef"/>
          <path id="Path_58" data-name="Path 58" d="M230.41,224.067V218.48l-5.784.89-4.815,6.318Z" transform="translate(-109.601 -211.776)" fill="#455a64"/>
          <path id="Path_59" data-name="Path 59" d="M215.764,243.32l-10.639,1.631L200.3,251.28l10.649-1.641Z" transform="translate(-109.382 -212.055)" fill="#455a64"/>
          <path id="Path_60" data-name="Path 60" d="M225.514,230.52l-10.639,1.631-4.825,6.328,10.649-1.631Z" transform="translate(-109.492 -211.911)" fill="#455a64"/>
          <path id="Path_61" data-name="Path 61" d="M206.014,256.11l-10.639,1.641-4.825,6.318,10.649-1.631Z" transform="translate(-109.273 -212.199)" fill="#455a64"/>
          <path id="Path_62" data-name="Path 62" d="M196.264,268.91l-10.649,1.632L180.8,276.87l10.639-1.632Z" transform="translate(-109.163 -212.342)" fill="#455a64"/>
          <path id="Path_63" data-name="Path 63" d="M186.514,281.71l-10.649,1.632-4.815,6.328,10.639-1.632Z" transform="translate(-109.054 -212.486)" fill="#455a64"/>
          <path id="Path_64" data-name="Path 64" d="M176.764,294.5l-10.649,1.641-4.825,6.318,10.649-1.631Z" transform="translate(-108.944 -212.63)" fill="#455a64"/>
          <path id="Path_65" data-name="Path 65" d="M167,307.3l-10.639,1.631-4.825,6.328,10.649-1.632Z" transform="translate(-108.835 -212.773)" fill="#455a64"/>
          <path id="Path_66" data-name="Path 66" d="M157.254,320.1l-10.639,1.632-4.825,6.328,10.649-1.631Z" transform="translate(-108.725 -212.917)" fill="#455a64"/>
          <path id="Path_67" data-name="Path 67" d="M147.5,332.89l-10.649,1.641-4.815,6.318,10.649-1.631Z" transform="translate(-108.616 -213.061)" fill="#455a64"/>
          <path id="Path_68" data-name="Path 68" d="M137.754,345.69l-10.649,1.631-4.815,6.328,10.639-1.631Z" transform="translate(-108.507 -213.204)" fill="#455a64"/>
          <path id="Path_69" data-name="Path 69" d="M128,358.49l-10.649,1.631-4.825,6.328,10.649-1.641Z" transform="translate(-108.397 -213.348)" fill="#455a64"/>
          <path id="Path_70" data-name="Path 70" d="M118.344,371.29l-5.814.89V378.9l.989-1.3Z" transform="translate(-108.397 -213.492)" fill="#455a64"/>
          <path id="Path_71" data-name="Path 71" d="M112.53,283.52l116.675,15.237v12.31L112.53,295.84Z" transform="translate(-108.397 -212.506)" opacity="0.25"/>
          <path id="Path_72" data-name="Path 72" d="M112.53,281.42l116.675,15.227v12.31L112.53,293.73Z" transform="translate(-108.397 -212.483)" fill="#0f73ef"/>
          <path id="Path_73" data-name="Path 73" d="M112.488,283.5l-3.658-2.146.01,12.32,3.649,2.136Z" transform="translate(-108.355 -212.482)" opacity="0.2"/>
          <path id="Path_74" data-name="Path 74" d="M112.483,281.392l-4.133-2.422.01,12.32,4.123,2.413Z" transform="translate(-108.35 -212.455)" fill="#0f73ef"/>
          <path id="Path_75" data-name="Path 75" d="M112.483,281.392l-4.133-2.422.01,12.32,4.123,2.413Z" transform="translate(-108.35 -212.455)" opacity="0.2"/>
          <path id="Path_76" data-name="Path 76" d="M117.763,284.777s.059,0,.069.089a.534.534,0,0,1,0,.218l-.168,1.137a.514.514,0,0,1-.059.2c0,.059-.069.079-.1.079l-1.325-.168-.218,1.463,1.236.158s.059,0,.079.1a.731.731,0,0,1,0,.208l-.168,1.147a.652.652,0,0,1-.059.2s-.069.079-.1.069l-1.236-.158-.336,2.324a.762.762,0,0,1-.069.2.086.086,0,0,1-.1.079l-.583-.069-.069-.1a.485.485,0,0,1,0-.208l.989-6.921a.583.583,0,0,1,.059-.2s.069-.079.1-.079Z" transform="translate(-108.42 -212.518)" fill="#37474f"/>
          <path id="Path_77" data-name="Path 77" d="M118.2,287.689a7.246,7.246,0,0,1,.267-1.127,4.688,4.688,0,0,1,.405-.89,1.811,1.811,0,0,1,.524-.564.791.791,0,0,1,.583-.109.8.8,0,0,1,.544.307,1.8,1.8,0,0,1,.346.672,4.5,4.5,0,0,1,.129.989,7.719,7.719,0,0,1-.138,2.136c-.049.356-.1.653-.148.989a7.387,7.387,0,0,1-.267,1.117,4.8,4.8,0,0,1-.405.9,1.976,1.976,0,0,1-.524.564.85.85,0,0,1-.6.158.831.831,0,0,1-.554-.307,1.859,1.859,0,0,1-.336-.672,3.954,3.954,0,0,1-.129-.989,7.693,7.693,0,0,1,0-1.147,8.514,8.514,0,0,1,.129-.989C118.068,288.352,118.137,287.966,118.2,287.689Zm1.671,2.106a.959.959,0,0,1,.069-.425,1.6,1.6,0,0,0,.079-.484,1.641,1.641,0,0,1,.069-.484c.069-.158,0-.287,0-.415a2.868,2.868,0,0,0,0-.494,1.562,1.562,0,0,0-.049-.405.7.7,0,0,0-.129-.287.336.336,0,0,0-.475-.059.733.733,0,0,0-.218.237,2.267,2.267,0,0,0-.158.376,3.3,3.3,0,0,0-.119.494,3.814,3.814,0,0,0-.069.405,1.064,1.064,0,0,1-.079.485c-.079.168,0,.326-.069.484s0,.3,0,.425a2.758,2.758,0,0,0,0,.92.387.387,0,0,0,.356.405.465.465,0,0,0,.455-.307,2.9,2.9,0,0,0,.336-.87Z" transform="translate(-108.457 -212.523)" fill="#37474f"/>
          <path id="Path_78" data-name="Path 78" d="M123.6,285.519a.988.988,0,0,1,.494.218,1.285,1.285,0,0,1,.336.5,2.888,2.888,0,0,1,.129.8,5.527,5.527,0,0,1-.069,1.1,5.359,5.359,0,0,1-.336,1.325,1.889,1.889,0,0,1-.5.761l.178,2.63v.119a.375.375,0,0,1-.059.158.071.071,0,0,1-.079.069l-.6-.079a.128.128,0,0,1-.109-.119.682.682,0,0,1,0-.2l-.158-2.363-.415-.049-.336,2.294a.514.514,0,0,1-.059.2.086.086,0,0,1-.1.079l-.583-.069-.069-.1a.485.485,0,0,1,0-.208l.989-6.921a.582.582,0,0,1,.059-.2c0-.049.069-.079.1-.079Zm-.989,3.194.5.069a.366.366,0,0,0,.326-.138,1.1,1.1,0,0,0,.218-.6,1.256,1.256,0,0,0,0-.643.346.346,0,0,0-.287-.208l-.5-.069Z" transform="translate(-108.495 -212.527)" fill="#37474f"/>
          <path id="Path_79" data-name="Path 79" d="M124.749,293.335a.118.118,0,0,1-.069-.1.475.475,0,0,1,0-.208l.989-6.921a.921.921,0,0,1,.069-.2c0-.049.069-.079.1-.069l1.424.178a.682.682,0,0,1,.475.267,1.355,1.355,0,0,1,.247.554,2.9,2.9,0,0,1,.079.742,7.266,7.266,0,0,1-.069.811,3.152,3.152,0,0,1-.109.534,3.956,3.956,0,0,1-.119.4c0,.109-.089.188-.129.257l-.089.148a1.977,1.977,0,0,1,.148.7,6.969,6.969,0,0,1-.069.929,6.176,6.176,0,0,1-.178.85,3.233,3.233,0,0,1-.287.722,1.3,1.3,0,0,1-.4.484.623.623,0,0,1-.5.138Zm.989-1.582.732.1a.277.277,0,0,0,.237-.168,1.226,1.226,0,0,0,.148-.455,1.246,1.246,0,0,0,0-.475.209.209,0,0,0-.188-.218l-.732-.089Zm1.473-3.451a1.157,1.157,0,0,0,0-.455.2.2,0,0,0-.178-.2l-.692-.089-.178,1.226.692.089a.2.2,0,0,0,.227-.138,1.425,1.425,0,0,0,.089-.435Z" transform="translate(-108.533 -212.532)" fill="#37474f"/>
          <path id="Path_80" data-name="Path 80" d="M128.269,293.785s-.049,0-.069-.1a.485.485,0,0,1,0-.208l.989-6.921a.583.583,0,0,1,.059-.2c0-.049.069-.079.1-.069l.583.069a.119.119,0,0,1,.069.1.475.475,0,0,1,0,.208l-.989,6.921a.85.85,0,0,1-.069.208c0,.049-.069.079-.1.069Z" transform="translate(-108.573 -212.537)" fill="#37474f"/>
          <path id="Path_81" data-name="Path 81" d="M132.344,286.639a.821.821,0,0,1,.524.287,1.7,1.7,0,0,1,.346.682,3.9,3.9,0,0,1,.158.989,8.829,8.829,0,0,1-.059,1.226,1.314,1.314,0,0,1-.059.415v.366a.773.773,0,0,1-.059.356,3.493,3.493,0,0,1-.059.4,7.32,7.32,0,0,1-.287,1.2,4.608,4.608,0,0,1-.425.91,1.918,1.918,0,0,1-.514.564.8.8,0,0,1-.583.148l-1.206-.148-.069-.1a.694.694,0,0,1,0-.208l.989-6.921a.584.584,0,0,1,.059-.2c0-.049.069-.079.1-.069Zm.148,3.026c.109-.821,0-1.266-.415-1.305l-.455-.059-.593,4.084.475.059c.366.049.623-.336.761-1.167l.059-.415.059-.4.059-.376c.02-.129.03-.267.049-.425Z" transform="translate(-108.594 -212.54)" fill="#37474f"/>
          <path id="Path_82" data-name="Path 82" d="M135.974,287.1a.781.781,0,0,1,.524.287,1.73,1.73,0,0,1,.346.672,4.054,4.054,0,0,1,.158.989,8.828,8.828,0,0,1-.059,1.226.943.943,0,0,1-.059.415c-.059.129,0,.247,0,.366a.841.841,0,0,1-.049.346c-.049.119,0,.257-.069.405a7.584,7.584,0,0,1-.287,1.2,4.605,4.605,0,0,1-.425.91,1.918,1.918,0,0,1-.514.564.8.8,0,0,1-.583.148l-1.206-.148-.069-.1a.485.485,0,0,1,0-.208l.989-6.921a.583.583,0,0,1,.059-.2s.069-.079.1-.069Zm.148,3.026c.109-.821,0-1.266-.415-1.315l-.455-.049-.593,4.084.475.059c.366,0,.623-.336.761-1.167l.059-.425.02-.356.059-.376c.02-.158.03-.3.049-.455Z" transform="translate(-108.634 -212.545)" fill="#37474f"/>
          <path id="Path_83" data-name="Path 83" d="M139.592,293.481l.069.089a.485.485,0,0,1,0,.208l-.158,1.147a.919.919,0,0,1-.069.2.139.139,0,0,1-.1.079l-2.106-.277-.069-.1a.661.661,0,0,1,0-.2l.989-6.921a.514.514,0,0,1,.059-.2c0-.059.069-.079.1-.079l2.067.267s.059,0,.079.1a.734.734,0,0,1,0,.208l-.168,1.137a.514.514,0,0,1-.059.2c0,.059-.069.079-.1.079l-1.365-.178-.168,1.167,1.266.158a.119.119,0,0,1,.069.1.475.475,0,0,1,0,.208l-.168,1.137a.643.643,0,0,1-.059.208c0,.049-.069.079-.1.069l-1.266-.158-.178,1.2Z" transform="translate(-108.673 -212.55)" fill="#37474f"/>
          <path id="Path_84" data-name="Path 84" d="M142.368,295.582s-.079,0-.1-.109a.406.406,0,0,1,0-.158l-.484-3.807-.524,3.629a.762.762,0,0,1-.069.2.087.087,0,0,1-.1.079l-.583-.069s-.049,0-.069-.1a.7.7,0,0,1,0-.208l.989-6.921a.584.584,0,0,1,.059-.2c0-.049.069-.079.1-.069l.465.059a.118.118,0,0,1,.109.109.381.381,0,0,1,0,.158l.475,3.807.534-3.639a.583.583,0,0,1,.059-.2c0-.049.069-.079.1-.069l.583.069s.059,0,.069.1a.475.475,0,0,1,0,.208l-.989,6.921a.642.642,0,0,1-.059.208s-.069.079-.1.069Z" transform="translate(-108.71 -212.555)" fill="#37474f"/>
          <path id="Path_85" data-name="Path 85" d="M146.7,296.135s-.059,0-.079-.089a.734.734,0,0,1,0-.208l.158-1.1-1.394-.178s-.059,0-.079-.1a.732.732,0,0,1,0-.208l.168-1.137a1.384,1.384,0,0,1,.119-.465l1.918-3.876a.415.415,0,0,1,.1-.148.138.138,0,0,1,.089,0l.672.089s.059,0,.069.1a.474.474,0,0,1,0,.208l-.6,4.123.386.049a.119.119,0,0,1,.069.1.475.475,0,0,1,0,.208l-.168,1.137a.475.475,0,0,1-.069.208.077.077,0,0,1-.089.069h-.386l-.158,1.1a.514.514,0,0,1-.069.2c0,.059-.059.079-.1.079Zm.346-3.115.3-1.978-.989,1.9Z" transform="translate(-108.765 -212.564)" fill="#37474f"/>
          <path id="Path_86" data-name="Path 86" d="M151.067,288.92a.781.781,0,0,1,.534.306,1.858,1.858,0,0,1,.307.692,4.538,4.538,0,0,1,.1.989q.006.53-.04,1.058a7.64,7.64,0,0,1-.138.989c-.049.356-.1.653-.138.989a11.172,11.172,0,0,1-.257,1.1,4.045,4.045,0,0,1-.376.9,1.819,1.819,0,0,1-.485.583.8.8,0,0,1-.6.168.781.781,0,0,1-.544-.307,1.79,1.79,0,0,1-.307-.692,4.539,4.539,0,0,1-.1-.989,11.1,11.1,0,0,1,.069-1.117,8.5,8.5,0,0,1,.129-.989c.049-.376.1-.663.158-.989a8.9,8.9,0,0,1,.247-1.1,4.047,4.047,0,0,1,.376-.9,1.82,1.82,0,0,1,.484-.583A.811.811,0,0,1,151.067,288.92Zm-.227,4.835c.1-.613.188-1.206.267-1.809v-.494a2.525,2.525,0,0,0,0-.405.7.7,0,0,0-.109-.277.267.267,0,0,0-.208-.129.3.3,0,0,0-.237.069.692.692,0,0,0-.178.247,2.323,2.323,0,0,0-.138.376,3.632,3.632,0,0,1-.1.494q-.148.89-.267,1.809a4.7,4.7,0,0,0,0,.494,1.741,1.741,0,0,0,0,.405.653.653,0,0,0,.109.277.267.267,0,0,0,.208.129.3.3,0,0,0,.237-.069.691.691,0,0,0,.178-.247,1.661,1.661,0,0,0,.138-.376,4.841,4.841,0,0,0,.1-.494Z" transform="translate(-108.807 -212.567)" fill="#37474f"/>
          <path id="Path_87" data-name="Path 87" d="M155.473,289.6s.059,0,.069.089a.485.485,0,0,1,0,.208l-.168,1.147a.642.642,0,0,1-.059.208l-.089.158-.722,1.236a1.572,1.572,0,0,1,.455.8,3.3,3.3,0,0,1,0,1.374,3.886,3.886,0,0,1-.613,1.79,1.078,1.078,0,0,1-1.048.484.91.91,0,0,1-.544-.257,1.473,1.473,0,0,1-.346-.534,2.68,2.68,0,0,1-.158-.712,3.519,3.519,0,0,1,0-.791.684.684,0,0,1,0-.168s.049-.059.079-.059l.564.069a.168.168,0,0,1,.129.119,2.152,2.152,0,0,0,.069.237.691.691,0,0,0,.129.237.316.316,0,0,0,.257.138.425.425,0,0,0,.376-.129.831.831,0,0,0,.218-.524.85.85,0,0,0-.059-.573.465.465,0,0,0-.326-.218h-.366a.119.119,0,0,1-.069-.1.475.475,0,0,1,0-.208l.138-.929a.643.643,0,0,1,.059-.208l.089-.168.633-1.088-1.157-.148s-.059,0-.069-.1a.475.475,0,0,1,0-.208l.168-1.137a.4.4,0,0,1,.069-.2.085.085,0,0,1,.089-.079Z" transform="translate(-108.843 -212.572)" fill="#37474f"/>
          <path id="Path_88" data-name="Path 88" d="M160.063,290.178s.059,0,.079.1a.73.73,0,0,1,0,.208l-.168,1.137a.573.573,0,0,1-.059.208s-.069.079-.1.069l-1.325-.168-.218,1.473,1.236.158s.059,0,.079.1a.732.732,0,0,1,0,.208l-.168,1.137a.643.643,0,0,1-.059.208c0,.049-.069.079-.1.069l-1.276-.138-.336,2.324a.515.515,0,0,1-.069.2c0,.059-.059.079-.1.079l-.583-.079s-.049,0-.069-.089a.534.534,0,0,1,0-.218l.989-6.921a.515.515,0,0,1,.059-.2c0-.059.069-.079.1-.079Z" transform="translate(-108.894 -212.579)" fill="#37474f"/>
          <path id="Path_89" data-name="Path 89" d="M160.467,293.089a8.809,8.809,0,0,1,.267-1.117,4.687,4.687,0,0,1,.405-.89,2.127,2.127,0,0,1,.524-.574.9.9,0,0,1,.613-.158.85.85,0,0,1,.544.307,1.977,1.977,0,0,1,.336.682,3.885,3.885,0,0,1,.129.989,6.561,6.561,0,0,1,0,1.147,7.882,7.882,0,0,1-.138.989c-.049.356-.1.653-.138.989a8.552,8.552,0,0,1-.277,1.127,4.146,4.146,0,0,1-.405.89,1.86,1.86,0,0,1-.524.573.831.831,0,0,1-.6.148.88.88,0,0,1-.554-.3,1.908,1.908,0,0,1-.326-.682,3.856,3.856,0,0,1-.138-.989,7.623,7.623,0,0,1,.059-1.147,8.514,8.514,0,0,1,.129-.989C160.417,293.712,160.417,293.4,160.467,293.089Zm1.671,2.106a2.62,2.62,0,0,1,.079-.425,2.119,2.119,0,0,1,.069-.484,1.67,1.67,0,0,0,.069-.475,1.77,1.77,0,0,1,.049-.415,4.736,4.736,0,0,0,0-.5,2.4,2.4,0,0,0-.049-.405.772.772,0,0,0-.138-.287.336.336,0,0,0-.227-.129.316.316,0,0,0-.247.069.82.82,0,0,0-.208.237,1.741,1.741,0,0,0-.168.386,3.16,3.16,0,0,0-.119.484.961.961,0,0,1-.069.415,1.906,1.906,0,0,0-.079.475l-.059.484a1.034,1.034,0,0,1-.059.435,2.7,2.7,0,0,0,0,.91.387.387,0,0,0,.356.405c.188.02.336-.079.465-.3A2.967,2.967,0,0,0,162.138,295.195Z" transform="translate(-108.932 -212.583)" fill="#37474f"/>
          <path id="Path_90" data-name="Path 90" d="M165.863,290.919a.988.988,0,0,1,.5.218,1.176,1.176,0,0,1,.326.5,2.61,2.61,0,0,1,.129.8,5.525,5.525,0,0,1-.069,1.1,5.932,5.932,0,0,1-.326,1.325,1.978,1.978,0,0,1-.514.761l.178,2.63a.471.471,0,0,1,0,.119.425.425,0,0,1-.059.168.1.1,0,0,1-.069.059l-.613-.079a.138.138,0,0,1-.109-.109.752.752,0,0,1,0-.208l-.158-2.363h-.405l-.336,2.3a.583.583,0,0,1-.069.2.082.082,0,0,1-.1.069l-.573-.069s-.059,0-.079-.1a.729.729,0,0,1,0-.208l.989-6.921a.475.475,0,0,1,.069-.208s.059-.079.089-.069Zm-.989,3.194.5.069a.386.386,0,0,0,.336-.138,1.108,1.108,0,0,0,.208-.6,1.067,1.067,0,0,0,0-.643.346.346,0,0,0-.287-.208l-.494-.069Z" transform="translate(-108.969 -212.588)" fill="#37474f"/>
          <path id="Path_91" data-name="Path 91" d="M167,298.735s-.059,0-.069-.1a.474.474,0,0,1,0-.208l.989-6.921a.643.643,0,0,1,.069-.208s.059-.079.1-.069l1.424.178a.722.722,0,0,1,.475.267,1.355,1.355,0,0,1,.247.554,2.966,2.966,0,0,1,.069.742,5.486,5.486,0,0,1-.059.811,5.267,5.267,0,0,1-.109.544,2.508,2.508,0,0,1-.129.386,1.273,1.273,0,0,1-.119.257l-.089.148a1.779,1.779,0,0,1,.138.7,5.439,5.439,0,0,1-.059.929c-.049.3-.109.574-.178.85a3.784,3.784,0,0,1-.287.722,1.453,1.453,0,0,1-.4.494.662.662,0,0,1-.5.138Zm.939-1.582.732.1a.227.227,0,0,0,.247-.158,1.354,1.354,0,0,0,.148-.465,1.235,1.235,0,0,0,0-.475.209.209,0,0,0-.178-.218l-.732-.089Zm1.483-3.451a1.384,1.384,0,0,0,0-.455.2.2,0,0,0-.178-.2l-.692-.089-.178,1.226.692.089a.217.217,0,0,0,.218-.138,1.128,1.128,0,0,0,.158-.435Z" transform="translate(-109.008 -212.593)" fill="#37474f"/>
          <path id="Path_92" data-name="Path 92" d="M170.549,299.185s-.059,0-.069-.1a.475.475,0,0,1,0-.208l.989-6.921a.514.514,0,0,1,.069-.2c0-.059.059-.079.1-.079l.574.079s.059,0,.079.089a.732.732,0,0,1,0,.208l-.989,6.921a.4.4,0,0,1-.069.2.085.085,0,0,1-.089.079Z" transform="translate(-109.047 -212.598)" fill="#37474f"/>
          <path id="Path_93" data-name="Path 93" d="M174.633,292a.811.811,0,0,1,.524.3,1.73,1.73,0,0,1,.346.672,4.054,4.054,0,0,1,.158.989,8.893,8.893,0,0,1-.059,1.226,1.375,1.375,0,0,1-.059.415.842.842,0,0,1-.049.356c-.049.109,0,.237-.049.356s0,.257-.069.4a7.453,7.453,0,0,1-.287,1.206,4.885,4.885,0,0,1-.425.91,1.919,1.919,0,0,1-.514.564.851.851,0,0,1-.583.148l-1.206-.158s-.049,0-.069-.089a.494.494,0,0,1,0-.208l.989-6.921a.514.514,0,0,1,.059-.2c0-.059.069-.079.1-.079Zm.148,3.036c.109-.831,0-1.266-.415-1.315l-.455-.059-.593,4.084.475.069c.366,0,.623-.346.761-1.167l.059-.425.059-.386.059-.386c.02-.089.03-.227.049-.376Z" transform="translate(-109.068 -212.6)" fill="#37474f"/>
          <path id="Path_94" data-name="Path 94" d="M178.224,292.5a.86.86,0,0,1,.524.3,1.731,1.731,0,0,1,.346.672,3.591,3.591,0,0,1,.148.989,6.634,6.634,0,0,1-.059,1.226,1.142,1.142,0,0,1-.049.415.862.862,0,0,0,0,.356l-.059.356a.965.965,0,0,1-.059.4,6.736,6.736,0,0,1-.3,1.206,4.33,4.33,0,0,1-.415.91,1.918,1.918,0,0,1-.514.564.92.92,0,0,1-.593.148l-1.2-.119s-.059,0-.069-.1a.474.474,0,0,1,0-.208l.989-6.921a.762.762,0,0,1,.069-.2c0-.059.069-.079.1-.079Zm.148,3.036c.1-.831,0-1.266-.425-1.315l-.455-.059-.593,4.084.475.059c.376.049.633-.336.761-1.157a2.729,2.729,0,0,1,.069-.425l.059-.386a1.037,1.037,0,0,1,.049-.386A1.83,1.83,0,0,0,178.372,295.535Z" transform="translate(-109.109 -212.606)" fill="#37474f"/>
          <path id="Path_95" data-name="Path 95" d="M181.882,298.931s.049,0,.069.1a.484.484,0,0,1,0,.208l-.158,1.137a.762.762,0,0,1-.069.2.087.087,0,0,1-.1.079l-2.1-.267s-.059,0-.079-.1a.731.731,0,0,1,0-.208l.989-6.921a.476.476,0,0,1,.069-.208.077.077,0,0,1,.089-.069l2.067.267s.059,0,.079.089a.79.79,0,0,1,0,.217l-.168,1.137a.583.583,0,0,1-.059.2.138.138,0,0,1-.1.079l-1.364-.178-.168,1.157,1.266.168s.059,0,.069.1a.474.474,0,0,1,0,.208l-.168,1.137a.513.513,0,0,1-.059.2c0,.059-.069.079-.1.079l-1.276-.168-.168,1.206Z" transform="translate(-109.148 -212.611)" fill="#37474f"/>
          <path id="Path_96" data-name="Path 96" d="M184.647,300.993a.148.148,0,0,1-.109-.119.72.72,0,0,1,0-.158l-.554-3.757-.524,3.639a.4.4,0,0,1-.069.2.085.085,0,0,1-.089.079l-.583-.079s-.059,0-.069-.1a.475.475,0,0,1,0-.208l.989-6.921a.514.514,0,0,1,.069-.2c0-.059.059-.079.1-.079l.455.059a.138.138,0,0,1,.109.109.888.888,0,0,1,0,.158l.485,3.807.524-3.629a.4.4,0,0,1,.069-.2.085.085,0,0,1,.089-.079l.583.069s.059,0,.079.1a.731.731,0,0,1,0,.208l-.989,6.921a.4.4,0,0,1-.069.2.085.085,0,0,1-.089.079Z" transform="translate(-109.184 -212.616)" fill="#37474f"/>
          <path id="Path_97" data-name="Path 97" d="M188.984,301.545a.119.119,0,0,1-.069-.1.475.475,0,0,1,0-.208l.158-1.1-1.394-.178s-.059,0-.069-.1a.475.475,0,0,1,0-.208l.168-1.137a1.592,1.592,0,0,1,.119-.455l1.918-3.886a.416.416,0,0,1,.1-.148.109.109,0,0,1,.1,0l.662.079s.059,0,.079.1a.731.731,0,0,1,0,.208l-.593,4.133.376.049s.059,0,.069.089a.524.524,0,0,1,0,.218l-.168,1.137a.515.515,0,0,1-.059.2s-.069.079-.1.079l-.386-.049-.158,1.1a.425.425,0,0,1-.069.2.077.077,0,0,1-.089.069Zm.356-3.125.287-1.977-.939,1.9Z" transform="translate(-109.24 -212.624)" fill="#37474f"/>
          <path id="Path_98" data-name="Path 98" d="M193.346,294.33a.751.751,0,0,1,.534.306,1.809,1.809,0,0,1,.307.682,4.023,4.023,0,0,1,.1.989,8.84,8.84,0,0,1-.069,1.127,7.761,7.761,0,0,1-.129.989c-.049.356-.1.653-.148.939a8.671,8.671,0,0,1-.257,1.107,4.479,4.479,0,0,1-.366.9,1.978,1.978,0,0,1-.494.583.781.781,0,0,1-.6.158.751.751,0,0,1-.544-.307,1.81,1.81,0,0,1-.3-.682,4.578,4.578,0,0,1-.109-.989,8.9,8.9,0,0,1,.079-1.127,8.5,8.5,0,0,1,.129-.989c.049-.376.1-.653.148-.989a8.9,8.9,0,0,1,.247-1.1,4.477,4.477,0,0,1,.376-.9,1.977,1.977,0,0,1,.484-.583.811.811,0,0,1,.613-.119Zm-.227,4.825c.109-.6.188-1.206.267-1.8v-.5a1.654,1.654,0,0,0,0-.4.692.692,0,0,0-.109-.287.277.277,0,0,0-.208-.119.257.257,0,0,0-.227.059.85.85,0,0,0-.188.247,2.458,2.458,0,0,0-.138.386,4.842,4.842,0,0,0-.1.494c-.1.583-.188,1.187-.267,1.8v.494a1.709,1.709,0,0,0,0,.405.692.692,0,0,0,.109.287.277.277,0,0,0,.208.119.287.287,0,0,0,.237-.059.692.692,0,0,0,.178-.247,1.751,1.751,0,0,0,.138-.386,3.118,3.118,0,0,0,.1-.494Z" transform="translate(-109.281 -212.627)" fill="#37474f"/>
          <path id="Path_99" data-name="Path 99" d="M197.743,295s.049,0,.069.1a.692.692,0,0,1,0,.208l-.168,1.137a.641.641,0,0,1-.069.208.785.785,0,0,1-.079.158l-.722,1.246a1.5,1.5,0,0,1,.455.791,3.531,3.531,0,0,1,0,1.384,3.8,3.8,0,0,1-.613,1.78,1.117,1.117,0,0,1-1.058.494.989.989,0,0,1-.534-.257,1.463,1.463,0,0,1-.346-.544,2.51,2.51,0,0,1-.158-.712,3.038,3.038,0,0,1,0-.791.416.416,0,0,1,.049-.168s0-.059.079-.059l.564.079q.089,0,.119.119a.782.782,0,0,0,.079.227.84.84,0,0,0,.129.247.336.336,0,0,0,.257.129.445.445,0,0,0,.376-.119.93.93,0,0,0,.217-.534.831.831,0,0,0-.059-.564.435.435,0,0,0-.326-.217l-.366-.049s-.059,0-.079-.1a.731.731,0,0,1,0-.208l.129-.92a.8.8,0,0,1,.069-.218l.089-.158.633-1.1-1.157-.138a.119.119,0,0,1-.069-.1.475.475,0,0,1,0-.208L195.42,295a.584.584,0,0,1,.059-.2c0-.049.069-.079.1-.069Z" transform="translate(-109.317 -212.632)" fill="#37474f"/>
          <path id="Path_100" data-name="Path 100" d="M202.324,295.587s.059,0,.079.089a.8.8,0,0,1,0,.217l-.168,1.137a.582.582,0,0,1-.059.2c0,.049-.069.079-.1.079l-1.325-.178-.218,1.473,1.236.158s.059,0,.079.1a.73.73,0,0,1,0,.208l-.168,1.147a.582.582,0,0,1-.059.2s-.069.079-.1.069l-1.236-.158-.336,2.324a.76.76,0,0,1-.069.2c0,.059-.059.079-.1.079l-.583-.079-.069-.089a.485.485,0,0,1,0-.208l.989-6.921a.584.584,0,0,1,.059-.2c0-.059.069-.079.1-.079Z" transform="translate(-109.369 -212.639)" fill="#37474f"/>
          <path id="Path_101" data-name="Path 101" d="M202.756,298.5a7.1,7.1,0,0,1,.277-1.117,3.739,3.739,0,0,1,.405-.89,1.977,1.977,0,0,1,.514-.573.86.86,0,0,1,.613-.158.831.831,0,0,1,.544.307,1.869,1.869,0,0,1,.336.672,4.015,4.015,0,0,1,.138.989,7.765,7.765,0,0,1-.059,1.147,8,8,0,0,1-.129.989c-.049.366-.1.653-.148.939a7.519,7.519,0,0,1-.277,1.127,3.893,3.893,0,0,1-.405.89,1.829,1.829,0,0,1-.514.574.87.87,0,0,1-1.157-.148,1.84,1.84,0,0,1-.336-.682,4.469,4.469,0,0,1-.138-.989,7.823,7.823,0,0,1,.059-1.157,7.074,7.074,0,0,1,.129-.939C202.657,299.141,202.707,298.805,202.756,298.5Zm1.681,2.106a.98.98,0,0,1,.069-.425,1.984,1.984,0,0,0,.079-.484l.059-.484a1.143,1.143,0,0,1,.049-.415,2.963,2.963,0,0,0,0-.494,1.622,1.622,0,0,0-.049-.405.7.7,0,0,0-.129-.287.316.316,0,0,0-.227-.129.356.356,0,0,0-.257.069.623.623,0,0,0-.208.237,2.664,2.664,0,0,0-.168.376,3.775,3.775,0,0,1-.109.494c-.03.178-.049.257-.079.415a2.041,2.041,0,0,1-.069.475,1.687,1.687,0,0,0-.069.484,2.02,2.02,0,0,1-.049.435,2.967,2.967,0,0,0,0,.91c.059.247.178.386.366.405a.465.465,0,0,0,.455-.306,2.8,2.8,0,0,0,.336-.87Z" transform="translate(-109.406 -212.644)" fill="#37474f"/>
          <path id="Path_102" data-name="Path 102" d="M208.143,296.328a.9.9,0,0,1,.494.218,1.118,1.118,0,0,1,.326.494,2.591,2.591,0,0,1,.138.8,6.447,6.447,0,0,1-.069,1.107,5.478,5.478,0,0,1-.336,1.325,1.977,1.977,0,0,1-.5.761l.178,2.62v.119a.425.425,0,0,1-.059.168c0,.049-.049.059-.079.059l-.6-.079c-.059,0-.1,0-.109-.109a.74.74,0,0,1,0-.2l-.158-2.363-.415-.059-.336,2.3a.514.514,0,0,1-.059.2c0,.059-.069.079-.1.079l-.583-.079s-.049,0-.069-.089a.783.783,0,0,1,0-.218l.989-6.921a.514.514,0,0,1,.059-.2c0-.059.069-.079.1-.079Zm-.989,3.194.5.059a.366.366,0,0,0,.326-.129,1.661,1.661,0,0,0,.188-1.246.376.376,0,0,0-.287-.218l-.5-.059Z" transform="translate(-109.444 -212.649)" fill="#37474f"/>
          <path id="Path_103" data-name="Path 103" d="M209.289,304.135s-.059,0-.069-.089a.474.474,0,0,1,0-.208l.989-6.921a.762.762,0,0,1,.069-.2c0-.059.059-.079.1-.079l1.424.188a.673.673,0,0,1,.475.257,1.394,1.394,0,0,1,.247.564,2.492,2.492,0,0,1,.069.742,5.488,5.488,0,0,1-.059.811,4.576,4.576,0,0,1-.109.534,2.32,2.32,0,0,1-.129.4,2.141,2.141,0,0,1-.119.257l-.089.138a1.829,1.829,0,0,1,.138.712,5.33,5.33,0,0,1-.059.92,6.019,6.019,0,0,1-.178.86,3.234,3.234,0,0,1-.287.722,1.514,1.514,0,0,1-.4.485.663.663,0,0,1-.5.138Zm.989-1.572.742.089c.079,0,.158,0,.237-.158a1.3,1.3,0,0,0,.148-.455,1.482,1.482,0,0,0,0-.475.209.209,0,0,0-.188-.218l-.732-.1Zm1.483-3.461a1.157,1.157,0,0,0,0-.455.186.186,0,0,0-.178-.188l-.692-.089-.178,1.226.692.089a.2.2,0,0,0,.227-.138,1.414,1.414,0,0,0,.079-.445Z" transform="translate(-109.482 -212.654)" fill="#37474f"/>
          <path id="Path_104" data-name="Path 104" d="M212.829,304.595s-.059,0-.079-.1a.731.731,0,0,1,0-.208l.989-6.921a.425.425,0,0,1,.069-.2.077.077,0,0,1,.089-.069l.583.069s.059,0,.069.1a.475.475,0,0,1,0,.208l-.989,6.921a.515.515,0,0,1-.069.2.082.082,0,0,1-.1.079Z" transform="translate(-109.522 -212.659)" fill="#37474f"/>
          <path id="Path_105" data-name="Path 105" d="M216.894,297.449a.8.8,0,0,1,.524.287,1.868,1.868,0,0,1,.346.672,4.081,4.081,0,0,1,.148.989,6.6,6.6,0,0,1-.059,1.226v.415l-.059.366a.865.865,0,0,1-.049.346c-.049.119,0,.257-.059.405a7.556,7.556,0,0,1-.3,1.2,4.1,4.1,0,0,1-.415.91,1.978,1.978,0,0,1-.524.564.791.791,0,0,1-.583.148l-1.2-.148a.119.119,0,0,1-.069-.1.474.474,0,0,1,0-.208l.989-6.921a.585.585,0,0,1,.069-.2.082.082,0,0,1,.1-.069Zm.148,3.026c.1-.821,0-1.266-.425-1.315l-.455-.059-.593,4.094.475.059c.376.049.633-.346.761-1.167a.9.9,0,0,1,.069-.425l.059-.386V300.9c0-.129.089-.277.109-.425Z" transform="translate(-109.543 -212.661)" fill="#37474f"/>
          <path id="Path_106" data-name="Path 106" d="M220.484,297.909a.8.8,0,0,1,.534.287,2.037,2.037,0,0,1,.346.672,4.635,4.635,0,0,1,.148.989,6.6,6.6,0,0,1-.059,1.226l-.059.415a.842.842,0,0,1-.049.356c-.049.109,0,.237,0,.356l-.059.4a8.6,8.6,0,0,1-.3,1.206,4.1,4.1,0,0,1-.415.91,1.976,1.976,0,0,1-.524.564.8.8,0,0,1-.583.148l-1.2-.158s-.059,0-.079-.089a.732.732,0,0,1,0-.208l.989-6.921a.4.4,0,0,1,.069-.2c0-.059.059-.079.1-.079Zm.158,3.026c.1-.821,0-1.266-.425-1.315l-.455-.059-.593,4.094.475.059c.376,0,.623-.346.761-1.167a.9.9,0,0,1,.069-.425c.069-.138,0-.257.049-.386l.059-.376c.02-.129.04-.277.059-.4Z" transform="translate(-109.583 -212.666)" fill="#37474f"/>
          <path id="Path_107" data-name="Path 107" d="M224.152,304.291l.069.089a.484.484,0,0,1,0,.208l-.158,1.147a.921.921,0,0,1-.069.2.082.082,0,0,1-.1.069l-2.106-.267-.069-.089a.731.731,0,0,1,0-.208l.989-6.922a.4.4,0,0,1,.069-.2.085.085,0,0,1,.089-.079l2.067.267s.059,0,.079.1a.73.73,0,0,1,0,.208l-.168,1.137a.514.514,0,0,1-.059.2c0,.059-.069.079-.1.079l-1.365-.178-.168,1.167,1.266.158a.119.119,0,0,1,.069.1.473.473,0,0,1,0,.208l-.168,1.137a.516.516,0,0,1-.059.2c0,.059-.069.079-.1.079l-1.275-.158-.168,1.2Z" transform="translate(-109.623 -212.672)" fill="#37474f"/>
          <path id="Path_108" data-name="Path 108" d="M226.918,306.392c-.049,0-.079,0-.109-.109a.682.682,0,0,1,0-.158l-.484-3.807-.534,3.629a.514.514,0,0,1-.059.2c0,.059-.069.079-.1.079l-.583-.079s-.059,0-.069-.089a.474.474,0,0,1,0-.208l.989-6.921a.515.515,0,0,1,.059-.2c0-.059.069-.079.1-.079l.465.059c.049,0,.079.049.1.119a.405.405,0,0,1,0,.158l.485,3.807.524-3.639a.762.762,0,0,1,.069-.2.138.138,0,0,1,.1-.079l.583.079.069.1a.475.475,0,0,1,0,.208l-.989,6.921a.515.515,0,0,1-.059.2c0,.059-.069.079-.1.079Z" transform="translate(-109.659 -212.676)" fill="#37474f"/>
        </g>
      </g>
      <g id="freepik--error-403--inject-33" transform="translate(73.863 24.929)">
        <g id="freepik--404--inject-33">
          <path id="Path_109" data-name="Path 109" d="M141.78,104.9a1.077,1.077,0,0,0-.168-.129l-5.2-2.966V77.137a1.691,1.691,0,0,0-.405-1.256.633.633,0,0,0-.168-.129l-5.557-3.2a.742.742,0,0,0-.811,0L121.8,77.057a3.51,3.51,0,0,0-1.058.88,7.476,7.476,0,0,0-.84,1.631l-15.346,38.513a10.541,10.541,0,0,0-.662,3.767V130.2a1.651,1.651,0,0,0,.415,1.256.691.691,0,0,0,.168.129l5.557,3.214a.742.742,0,0,0,.8-.059l10.55-6.091v1.612a1.671,1.671,0,0,0,.415,1.256l.158.129,5.567,3.214a.781.781,0,0,0,.811-.059l6.694-3.866a2.61,2.61,0,0,0,.989-1.2,4.094,4.094,0,0,0,.405-1.73V119.98l4.4-2.541a2.6,2.6,0,0,0,.989-1.2,3.954,3.954,0,0,0,.405-1.73v-8.345A1.681,1.681,0,0,0,141.78,104.9Z" transform="translate(-103.853 -25.462)" fill="#0f73ef"/>
          <path id="Path_110" data-name="Path 110" d="M126.219,81.2v.1a7.426,7.426,0,0,0-.781,1.533l-15.3,38.562a9.382,9.382,0,0,0-.455,1.582l-5.6-3.233a10.135,10.135,0,0,1,.445-1.562l15.286-38.552a7.652,7.652,0,0,1,.85-1.631h0Z" transform="translate(-103.856 -25.524)" opacity="0.15"/>
          <path id="Path_111" data-name="Path 111" d="M109.931,135.3c-.623-.366-5.26-3.045-5.488-3.164l-.168-.138a1.681,1.681,0,0,1-.415-1.266V122.4a11.242,11.242,0,0,1,.218-2.2l5.557,3.214a11.174,11.174,0,0,0-.208,2.2v8.345a1.711,1.711,0,0,0,.405,1.256Z" transform="translate(-103.853 -25.998)" opacity="0.3"/>
          <path id="Path_112" data-name="Path 112" d="M127.417,98.5v14.486l-4.687-2.7Z" transform="translate(-104.065 -25.755)" opacity="0.3"/>
          <path id="Path_113" data-name="Path 113" d="M127.385,113.119l-7.465,4.311,2.778-7.01Z" transform="translate(-104.033 -25.888)" opacity="0.4"/>
          <path id="Path_114" data-name="Path 114" d="M127.552,135.334l.1.079-5.488-3.164a.425.425,0,0,1-.168-.129,1.651,1.651,0,0,1-.415-1.256v-1.612l5.567-3.214v8.029A1.721,1.721,0,0,0,127.552,135.334Z" transform="translate(-104.052 -26.064)" opacity="0.3"/>
          <path id="Path_115" data-name="Path 115" d="M141.942,105.076a.771.771,0,0,0-.732.089l-4.4,2.541v-5.6Z" transform="translate(-104.223 -25.795)" opacity="0.15"/>
          <path id="Path_116" data-name="Path 116" d="M135.989,75.733a.781.781,0,0,0-.771.069L127.5,80.262a3.718,3.718,0,0,0-.989.88l-5.616-3.2a3.678,3.678,0,0,1,.989-.87l7.732-4.459a.741.741,0,0,1,.811,0Z" transform="translate(-104.044 -25.462)" fill="#fff" opacity="0.4"/>
          <path id="Path_117" data-name="Path 117" d="M128.4,134.838a.761.761,0,0,1-.989-.069A1.72,1.72,0,0,1,127,133.5v-8.068l-16.117,9.3a.732.732,0,0,1-.989-.069,1.721,1.721,0,0,1-.405-1.266v-8.345a10.333,10.333,0,0,1,.662-3.767l15.3-38.562a7.158,7.158,0,0,1,.84-1.622,3.471,3.471,0,0,1,1.048-.88l7.722-4.459a.742.742,0,0,1,.989.069,1.691,1.691,0,0,1,.405,1.256V107.33l4.4-2.541a.751.751,0,0,1,.989.069,1.681,1.681,0,0,1,.405,1.266v8.434a3.955,3.955,0,0,1-.405,1.73,2.6,2.6,0,0,1-.989,1.2l-4.4,2.541v8.029a4.093,4.093,0,0,1-.405,1.73,2.61,2.61,0,0,1-.989,1.2Zm-1.127-22.109V98.243L119.8,117.03Z" transform="translate(-103.916 -25.498)" fill="#0f73ef"/>
          <path id="Path_118" data-name="Path 118" d="M181.087,69.8a34.457,34.457,0,0,0-1.048-7.544A11.667,11.667,0,0,0,177.329,57a6.684,6.684,0,0,0-1.394-1.048l-5.577-3.214a6.862,6.862,0,0,0-3.174-.9,12.538,12.538,0,0,0-6.6,2.076,24.146,24.146,0,0,0-6.6,5.537,32.471,32.471,0,0,0-4.578,7.3,38.256,38.256,0,0,0-2.719,8.375,54.573,54.573,0,0,0-1.048,8.751q-.1,3.461-.1,7.149c0,2.472,0,4.756.1,6.921a35.074,35.074,0,0,0,1.048,7.544,11.678,11.678,0,0,0,2.719,5.25,6.05,6.05,0,0,0,1.384,1.088c.929.554,5.122,2.966,5.656,3.273a7.03,7.03,0,0,0,3.095.85,12.537,12.537,0,0,0,6.6-2.076,24.186,24.186,0,0,0,6.6-5.537,33.193,33.193,0,0,0,4.578-7.3,38.239,38.239,0,0,0,2.709-8.375,53.471,53.471,0,0,0,1.048-8.751q.1-3.293.1-6.991T181.087,69.8ZM160.876,97.778a21.952,21.952,0,0,1-.2-2.571q-.247-6.556,0-13.23a26.449,26.449,0,0,1,.356-3.836,17.66,17.66,0,0,1,.92-3.4,11.489,11.489,0,0,1,1.641-2.877,8.375,8.375,0,0,1,2.225-1.978q.158,1.157.237,2.551.208,6.407,0,13.23a29.03,29.03,0,0,1-.326,3.807,15.439,15.439,0,0,1-.92,3.411,11.779,11.779,0,0,1-1.671,2.887,8.652,8.652,0,0,1-2.264,2.027Z" transform="translate(-104.321 -25.231)" fill="#0f73ef"/>
          <path id="Path_119" data-name="Path 119" d="M156.308,115.129c-.92-.524-4.647-2.67-5.507-3.184a6.576,6.576,0,0,1-1.384-1.088,11.678,11.678,0,0,1-2.719-5.25,35.073,35.073,0,0,1-1.048-7.544c-.059-2.116-.1-4.4-.1-6.921s0-4.855.1-7.149a54.434,54.434,0,0,1,1.048-8.751,38.369,38.369,0,0,1,1.73-5.992l5.557,3.214a38.559,38.559,0,0,0-1.72,5.933,52.523,52.523,0,0,0-1.048,8.761q-.1,3.441-.109,7.149c0,2.472,0,4.756.109,6.921a33.954,33.954,0,0,0,1.048,7.544,11.578,11.578,0,0,0,2.709,5.24A6.466,6.466,0,0,0,156.308,115.129Z" transform="translate(-104.321 -25.426)" opacity="0.15"/>
          <path id="Path_120" data-name="Path 120" d="M175.75,55.8a7.05,7.05,0,0,0-2.966-.781q-2.759-.138-6.6,2.076a24.294,24.294,0,0,0-6.6,5.547,32.838,32.838,0,0,0-4.578,7.277c-.188.405-.356.8-.524,1.216l-.465,1.177h0L148.46,69.1c.129-.356.267-.7.405-1.048s.376-.89.583-1.335a32.925,32.925,0,0,1,4.568-7.3,24.482,24.482,0,0,1,6.605-5.537,12.449,12.449,0,0,1,6.6-2.076,6.823,6.823,0,0,1,3.174.9Z" transform="translate(-104.354 -25.23)" fill="#fff" opacity="0.4"/>
          <path id="Path_121" data-name="Path 121" d="M171.835,89.094a28.991,28.991,0,0,1-.336,3.817,15.343,15.343,0,0,1-.91,3.4,11.862,11.862,0,0,1-.653,1.365l-5.557-3.214A12.472,12.472,0,0,0,165,93.138a15.593,15.593,0,0,0,.929-3.411,29.021,29.021,0,0,0,.326-3.807q.208-6.813,0-13.23a18.071,18.071,0,0,0-.237-2.561l.326-.208a4.3,4.3,0,0,1,2.561-.771,2.314,2.314,0,0,1,1.641.989,6.041,6.041,0,0,1,.89,2.353,26.307,26.307,0,0,1,.386,3.411Q172.033,82.281,171.835,89.094Z" transform="translate(-104.533 -25.425)" opacity="0.3"/>
          <path id="Path_122" data-name="Path 122" d="M169.9,97.963a10.389,10.389,0,0,1-.989,1.562,8.761,8.761,0,0,1-2.561,2.185,4.331,4.331,0,0,1-2.551.761,2.3,2.3,0,0,1-1.661-.989,5.7,5.7,0,0,1-.92-2.343c-.059-.277-.1-.564-.138-.86a8.5,8.5,0,0,0,2.264-1.978,11.272,11.272,0,0,0,.989-1.562Z" transform="translate(-104.496 -25.712)" opacity="0.4"/>
          <path id="Path_123" data-name="Path 123" d="M166.209,57.136q3.836-2.225,6.6-2.076a6.635,6.635,0,0,1,4.578,1.978,11.667,11.667,0,0,1,2.709,5.25,34.462,34.462,0,0,1,1.048,7.544q.1,3.322.1,7.03t-.1,6.991A53.473,53.473,0,0,1,180.1,92.6a38.235,38.235,0,0,1-2.709,8.375,33.193,33.193,0,0,1-4.578,7.3,24.186,24.186,0,0,1-6.6,5.537,12.538,12.538,0,0,1-6.6,2.076,6.605,6.605,0,0,1-4.578-1.978,11.578,11.578,0,0,1-2.709-5.24,34.548,34.548,0,0,1-1.048-7.544c-.069-2.116-.1-4.4-.1-6.921s0-4.845.1-7.149a53.4,53.4,0,0,1,1.048-8.751,38.49,38.49,0,0,1,2.709-8.385,33.126,33.126,0,0,1,4.578-7.287,24.294,24.294,0,0,1,6.6-5.5Zm5.478,31.8q.208-6.8,0-13.23a26.34,26.34,0,0,0-.386-3.4,6.1,6.1,0,0,0-.89-2.353,2.284,2.284,0,0,0-1.641-.989,4.39,4.39,0,0,0-2.561.771,8.9,8.9,0,0,0-2.551,2.185,11.489,11.489,0,0,0-1.641,2.858,17.658,17.658,0,0,0-.92,3.4,26.453,26.453,0,0,0-.356,3.836q-.247,6.674,0,13.23a21.083,21.083,0,0,0,.336,3.421,5.458,5.458,0,0,0,.92,2.343,2.284,2.284,0,0,0,1.661.989,4.331,4.331,0,0,0,2.551-.761A8.9,8.9,0,0,0,168.8,99.05a11.748,11.748,0,0,0,1.661-2.887,15.584,15.584,0,0,0,.92-3.411A30.792,30.792,0,0,0,171.687,88.935Z" transform="translate(-104.384 -25.267)" fill="#0f73ef"/>
          <path id="Path_124" data-name="Path 124" d="M219.3,55.651a6.2,6.2,0,0,0-1.147-.84,6.487,6.487,0,0,0-.751-.346,5.936,5.936,0,0,1,.574.247l-4.222-2.452h0L219,41.106c.208-.435.425-.989.653-1.552a4.766,4.766,0,0,0,.356-1.75V29.538a1.661,1.661,0,0,0-.405-1.246.9.9,0,0,0-.237-.158h0L213.935,25a.8.8,0,0,0-.781.069L188.968,38.98a2.284,2.284,0,0,0-.821.989,1.471,1.471,0,0,0-.138.237,4.123,4.123,0,0,0-.405,1.72v8.187a1.641,1.641,0,0,0,.405,1.236,1.442,1.442,0,0,0,.208.158c.188.089,4.489,2.591,5.349,3.085a.064.064,0,0,1-.059-.059h0a.742.742,0,0,0,.989.069l3.569-2.067-1.187,2.689a17.648,17.648,0,0,0-.7,1.651,3.133,3.133,0,0,0-.138.4,2.162,2.162,0,0,1-.109.4.108.108,0,0,1,0,.049,1.88,1.88,0,0,0,0,.247v.079a3.066,3.066,0,0,0-.049.593v6.684a1.711,1.711,0,0,0,.4,1.246,1.413,1.413,0,0,0,.218.148l5.329,3.115-.079-.059a.742.742,0,0,0,.929,0l4.182-2.423h0a7.851,7.851,0,0,1-1.5,3.678,12.775,12.775,0,0,1-4.014,3.56,5.764,5.764,0,0,1-3.095,1.058,5.692,5.692,0,0,1-.653-.1h0l-2.413-1.394a.989.989,0,0,0-.336-.109,1.978,1.978,0,0,0-1.216.356l-6.368,3.678a2.155,2.155,0,0,0-.781.989.484.484,0,0,0,0,.109h0a4.1,4.1,0,0,0-.218.643,2.849,2.849,0,0,0-.069.643,11.944,11.944,0,0,0,1.078,5,7.03,7.03,0,0,0,2.966,3.243c.811.455,4.034,2.353,5.28,3.055-.178-.109-.336-.237-.494-.356a5.931,5.931,0,0,0,.712.475,7.811,7.811,0,0,0,4.716.771,16.928,16.928,0,0,0,6.378-2.393,29.06,29.06,0,0,0,14.95-26.282C221.776,59.923,220.955,57.154,219.3,55.651Z" transform="translate(-104.777 -24.929)" fill="#0f73ef"/>
          <path id="Path_125" data-name="Path 125" d="M188.174,40.219a.631.631,0,0,0,0-.069l-.129.247a3.955,3.955,0,0,0-.405,1.72v8.227a1.612,1.612,0,0,0,.405,1.246.692.692,0,0,0,.2.148l5.369,3.095a.118.118,0,0,0-.059-.059h0a1.631,1.631,0,0,1-.405-1.246V45.282a3.827,3.827,0,0,1,.405-1.7,2.969,2.969,0,0,1,.277-.455c-.059.089-.129.168-.188.277Z" transform="translate(-104.794 -25.099)" opacity="0.15"/>
          <path id="Path_126" data-name="Path 126" d="M201.4,62.024l-5.5-3.174V65.7a1.711,1.711,0,0,0,.4,1.246,1.413,1.413,0,0,0,.218.148c.208.109,4.776,2.749,5.4,3.115l-.069-.069h0a1.632,1.632,0,0,1-.405-1.226V62.192A.689.689,0,0,1,201.4,62.024Z" transform="translate(-104.886 -25.309)" opacity="0.15"/>
          <path id="Path_127" data-name="Path 127" d="M201.735,60.3c.237-.6.475-1.147.712-1.651L207.8,47.24,198.186,52.8l-1.2,2.68a14.289,14.289,0,0,0-.7,1.651,2.964,2.964,0,0,0-.138.386,1.967,1.967,0,0,1-.109.4v.059a1.986,1.986,0,0,1,0,.237.188.188,0,0,1,0,.079,2.226,2.226,0,0,0,0,.435l5.5,3.174a4.993,4.993,0,0,1,.2-1.592Z" transform="translate(-104.888 -25.179)" opacity="0.3"/>
          <path id="Path_128" data-name="Path 128" d="M186.447,79.655v.109h0a3.37,3.37,0,0,0-.218.653,2.966,2.966,0,0,0-.079.633,11.994,11.994,0,0,0,1.088,5.013A6.921,6.921,0,0,0,190.2,89.3l5.27,3.065a.446.446,0,0,1-.1-.089,6.99,6.99,0,0,1-2.63-3.026,11.865,11.865,0,0,1-1.088-5.013,3.292,3.292,0,0,1,.326-1.394,2.962,2.962,0,0,1,.267-.435l-5.507-3.164a2.735,2.735,0,0,0-.3.415Z" transform="translate(-104.777 -25.538)" opacity="0.15"/>
          <path id="Path_129" data-name="Path 129" d="M197.587,76.143h0l-2.413-1.4a1.117,1.117,0,0,0-.336-.1,2.057,2.057,0,0,0-1.216.346l-6.368,3.688a1.74,1.74,0,0,0-.514.524l5.507,3.164a1.878,1.878,0,0,1,.524-.524l6.358-3.668c.7-.405,1.246-.475,1.612-.188l-3.134-1.829Z" transform="translate(-104.784 -25.487)" opacity="0.3"/>
          <path id="Path_130" data-name="Path 130" d="M203.85,79.327a5.686,5.686,0,0,0,3.115-1.058,12.735,12.735,0,0,0,4-3.56,8.039,8.039,0,0,0,1.6-4.885c0-1.8-.544-2.828-1.6-3.045a5.933,5.933,0,0,0-4,1.088,7.762,7.762,0,0,1-1.5,3.668,12.735,12.735,0,0,1-4,3.56,5.646,5.646,0,0,1-3.1,1.048,4.2,4.2,0,0,1-.643-.089l3.134,1.819,1.246.88a3.708,3.708,0,0,0,1.76.573Z" transform="translate(-104.907 -25.398)" opacity="0.4"/>
          <path id="Path_131" data-name="Path 131" d="M214.06,52.55s3.045,1.78,4.222,2.452a.454.454,0,0,0-.138-.049.336.336,0,0,0-.148-.069,7.633,7.633,0,0,0-4.805-.475Z" transform="translate(-105.081 -25.239)" fill="#fff" opacity="0.4"/>
          <path id="Path_132" data-name="Path 132" d="M216.439,26.5l-2.492-1.453a.8.8,0,0,0-.781.069L188.991,39.05a2.334,2.334,0,0,0-.831.929.631.631,0,0,1,0,.069l5.488,3.184c.059-.109.129-.188.188-.277a2.97,2.97,0,0,1,.188-.3,1.77,1.77,0,0,1,.485-.425L218.654,28.3a.811.811,0,0,1,.7-.109Z" transform="translate(-104.8 -24.929)" fill="#fff" opacity="0.4"/>
          <path id="Path_133" data-name="Path 133" d="M218.693,28.258a.742.742,0,0,1,.989.069,1.661,1.661,0,0,1,.405,1.246V37.82a4.766,4.766,0,0,1-.405,1.75c-.227.6-.445,1.117-.653,1.552l-5.24,11.153-.87,1.859a7.5,7.5,0,0,1,5.27.7,6.556,6.556,0,0,1,1.147.84c1.651,1.513,2.472,4.281,2.472,8.325a29.06,29.06,0,0,1-14.921,26.291,16.928,16.928,0,0,1-6.437,2.393,7.811,7.811,0,0,1-4.716-.771,7.04,7.04,0,0,1-2.966-3.233,12.063,12.063,0,0,1-1.088-5.013,3.262,3.262,0,0,1,.326-1.394,2.047,2.047,0,0,1,.791-.989l6.358-3.678c.712-.405,1.246-.475,1.622-.2s.781.573,1.236.88a3.639,3.639,0,0,0,1.76.573,5.794,5.794,0,0,0,3.1-1.048,12.944,12.944,0,0,0,4.014-3.569,7.91,7.91,0,0,0,1.592-4.875c0-1.819-.524-2.828-1.592-3.045a6.021,6.021,0,0,0-4.014,1.068l-4.183,2.422a.742.742,0,0,1-.989-.069,1.671,1.671,0,0,1-.4-1.246V61.847a4.945,4.945,0,0,1,.346-1.76c.237-.6.475-1.147.712-1.651l5.349-11.41-13.18,7.614a.742.742,0,0,1-.989-.069,1.671,1.671,0,0,1-.405-1.246V45.087a4.014,4.014,0,0,1,.405-1.711,2.581,2.581,0,0,1,.989-1.177Z" transform="translate(-104.839 -24.964)" fill="#0f73ef"/>
        </g>
      </g>
      <g id="freepik--speech-bubble--inject-33" transform="translate(264.465 114.128)">
        <g id="freepik--speech-bubble--inject-33-2" data-name="freepik--speech-bubble--inject-33">
          <g id="freepik--speech-bubble--inject-33-3" data-name="freepik--speech-bubble--inject-33">
            <path id="Path_188" data-name="Path 188" d="M356.133,144.232l-7.821-17.818,6.288-18.148V97.08L335.35,108.195V119.31l8.279,17.446a1.246,1.246,0,0,0,.559.5h0Z" transform="translate(-275.478 -22.889)" fill="#ef0f7f"/>
            <path id="Path_189" data-name="Path 189" d="M356.133,144.232l-7.821-17.818,6.288-18.148V97.08L335.35,108.195V119.31l8.279,17.446a1.246,1.246,0,0,0,.559.5h0Z" transform="translate(-275.478 -22.889)" fill="#bf1414" opacity="0.4"/>
            <path id="Path_190" data-name="Path 190" d="M431.773,59.4a12.791,12.791,0,0,0-5.729-10.026l-4.7-2.707a12.719,12.719,0,0,0-11.545,0l-110.462,63.9a12.748,12.748,0,0,0-5.729,10.026v44.03a12.79,12.79,0,0,0,5.729,10.026l4.7,2.707a12.719,12.719,0,0,0,11.545,0l49.9-28.647,8.265,17.431a1.232,1.232,0,0,0,2.22-.215l8.737-28.317,41.237-24.149a12.762,12.762,0,0,0,5.729-10.026Z" transform="translate(-293.524 -45.283)" fill="#ef0f70"/>
            <path id="Path_191" data-name="Path 191" d="M293.593,143.632a12.791,12.791,0,0,0,5.729,10.026l4.7,2.707a12.891,12.891,0,0,0,10.556.473c-2.707,1.017-4.784-.516-4.784-3.8v-44.1a11.745,11.745,0,0,1,1.69-5.729L295.24,93.83a11.831,11.831,0,0,0-1.69,5.729Z" transform="translate(-293.55 -24.294)" opacity="0.2"/>
            <path id="Path_192" data-name="Path 192" d="M431.059,57.755c-.673-2.449-2.865-3.223-5.572-1.69L315.126,119.932a11.23,11.23,0,0,0-4.068,4.3l-16.228-9.367a11.458,11.458,0,0,1,4.054-4.3l110.4-63.882a12.891,12.891,0,0,1,11.559,0l4.712,2.721a12.791,12.791,0,0,1,5.5,8.35Z" transform="translate(-292.997 -45.269)" fill="#fff" opacity="0.5"/>
          </g>
          <path id="Path_193" data-name="Path 193" d="M310.481,131.932V108.657a3.064,3.064,0,0,1,.215-1.26,1.59,1.59,0,0,1,.673-.731l6.6-3.824c.244-.129.415-.086.53.143a3.337,3.337,0,0,1,.172,1.3v1.146a5.153,5.153,0,0,1-.172,1.5,1.2,1.2,0,0,1-.53.745l-3.738,2.163v5.4l3.523-2.034c.244-.143.415-.1.53.129a3.494,3.494,0,0,1,.158,1.318V115.8a5.359,5.359,0,0,1-.158,1.432,1.246,1.246,0,0,1-.53.745l-3.524,2.034V129.7a2.349,2.349,0,0,1-1.432,1.991l-.96.544C310.953,132.849,310.481,132.72,310.481,131.932Z" transform="translate(-286.231 -20.429)" fill="#fff"/>
          <path id="Path_194" data-name="Path 194" d="M317.25,116.32q0-13.206,6.288-16.859,3.065-1.762,4.669.53c1.06,1.518,1.6,4.555,1.6,9.081a31.1,31.1,0,0,1-1.6,10.943,11.1,11.1,0,0,1-4.669,5.916Q317.264,129.511,317.25,116.32Zm7.706,3.208a9.582,9.582,0,0,0,.788-3.022,39.464,39.464,0,0,0,.272-5.242,32.151,32.151,0,0,0-.272-4.884,3.61,3.61,0,0,0-.788-2.12c-.358-.286-.816-.258-1.432,0a3.623,3.623,0,0,0-1.432,1.547,10.026,10.026,0,0,0-.816,3.037,39.287,39.287,0,0,0-.272,5.214,32.5,32.5,0,0,0,.272,4.9,3.6,3.6,0,0,0,.816,2.12,1.189,1.189,0,0,0,1.432,0,3.767,3.767,0,0,0,1.432-1.6Z" transform="translate(-283.304 -22.191)" fill="#fff"/>
          <path id="Path_195" data-name="Path 195" d="M327.561,121.821v-23.3a2.864,2.864,0,0,1,.229-1.26,1.59,1.59,0,0,1,.73-.773l3.968-2.263a3.28,3.28,0,0,1,3.552-.372c.9.616,1.346,2.22,1.346,4.827a12.891,12.891,0,0,1-2.277,7.563v.158a1.619,1.619,0,0,1,.96.917,6.36,6.36,0,0,1,.645,1.848l1.432,6.274.072.4c0,.659-.487,1.275-1.432,1.848l-.831.487c-.845.487-1.332.444-1.432-.158l-1.275-6.288a1.547,1.547,0,0,0-.487-.859c-.186-.115-.473,0-.874.172l-.573.329v8.351a2.392,2.392,0,0,1-1.432,2.02l-.816.473C328.034,122.724,327.561,122.609,327.561,121.821Zm5.042-16.658a2.421,2.421,0,0,0,.888-1.332,7.436,7.436,0,0,0,.372-2.578,3.782,3.782,0,0,0-.372-2.063.673.673,0,0,0-.974-.158l-1.261.73v6.173Z" transform="translate(-278.847 -24.441)" fill="#fff"/>
          <path id="Path_196" data-name="Path 196" d="M336.418,117.565a1.561,1.561,0,0,1-.215-1V93.616a2.993,2.993,0,0,1,.215-1.217,1.59,1.59,0,0,1,.673-.731l4.3-2.478c3.366-1.948,5.042-.831,5.042,3.323a12.777,12.777,0,0,1-2.163,7.348v.129a1.833,1.833,0,0,1,1.919,1.046,7.162,7.162,0,0,1,.7,3.552,13.551,13.551,0,0,1-1.432,6.073,10.026,10.026,0,0,1-4.068,4.3l-4.369,2.535C336.791,117.708,336.562,117.708,336.418,117.565Zm5-17.861a2.65,2.65,0,0,0,1.132-1.432,7.233,7.233,0,0,0,.372-2.607,4,4,0,0,0-.344-2.063q-.344-.487-1.117,0l-1.7.988v6.087Zm.172,10.757a3.036,3.036,0,0,0,1.3-1.518,7.49,7.49,0,0,0,.416-2.865,3.8,3.8,0,0,0-.4-2.177c-.272-.329-.716-.315-1.318,0l-1.833,1.046v6.474Z" transform="translate(-275.115 -26.702)" fill="#fff"/>
          <path id="Path_197" data-name="Path 197" d="M345.15,111.128V87.48a2.32,2.32,0,0,1,1.432-2.02l1.017-.587c.9-.53,1.361-.372,1.361.43v23.648a2.335,2.335,0,0,1-1.361,2.02l-1.017.573C345.608,112.088,345.15,111.944,345.15,111.128Z" transform="translate(-271.242 -28.3)" fill="#fff"/>
          <path id="Path_198" data-name="Path 198" d="M349.854,109.852a1.432,1.432,0,0,1-.229-1V85.932a2.866,2.866,0,0,1,.229-1.26,1.432,1.432,0,0,1,.659-.73l4.569-2.636q3.122-1.8,4.6.559c.974,1.576,1.432,4.54,1.432,8.866a31.784,31.784,0,0,1-1.432,10.571,10.7,10.7,0,0,1-4.6,5.873l-4.569,2.621C350.169,109.953,349.982,109.967,349.854,109.852Zm5.1-7.434a4.412,4.412,0,0,0,1.833-2.865,29.24,29.24,0,0,0,.544-6.574,21,21,0,0,0-.544-5.944c-.372-1-.974-1.275-1.833-.773l-1.533.874v16.128Z" transform="translate(-269.313 -30.047)" fill="#fff"/>
          <path id="Path_199" data-name="Path 199" d="M359.508,104.242a1.59,1.59,0,0,1-.215-1V80.322a3.065,3.065,0,0,1,.215-1.26,1.59,1.59,0,0,1,.673-.73L364.75,75.7q3.108-1.8,4.583.559t1.432,8.866a31.511,31.511,0,0,1-1.432,10.571,10.614,10.614,0,0,1-4.584,5.873l-4.569,2.621C359.88,104.371,359.651,104.385,359.508,104.242Zm5.113-7.448a4.4,4.4,0,0,0,1.833-2.865A29.33,29.33,0,0,0,367,87.355a21,21,0,0,0-.544-5.944c-.372-1.017-.988-1.275-1.833-.788l-1.533.888V97.7Z" transform="translate(-265.132 -32.472)" fill="#fff"/>
          <path id="Path_200" data-name="Path 200" d="M369.178,98.889a1.59,1.59,0,0,1-.215-1V74.969a3.037,3.037,0,0,1,.215-1.246,1.691,1.691,0,0,1,.673-.745l7.076-4.082a.329.329,0,0,1,.53.129,3.422,3.422,0,0,1,.172,1.318v1.146a5.215,5.215,0,0,1-.172,1.432,1.246,1.246,0,0,1-.53.745L372.7,76.244V81.6l3.753-2.163c.243-.129.415-.086.53.143a3.3,3.3,0,0,1,.172,1.3v1.089a5.153,5.153,0,0,1-.172,1.5,1.2,1.2,0,0,1-.53.745L372.7,86.385v5.987l4.3-2.449c.243-.143.415-.1.516.143a3.767,3.767,0,0,1,.158,1.318v1.146a5.726,5.726,0,0,1-.158,1.432,1.174,1.174,0,0,1-.516.745l-7.162,4.1C369.551,99.018,369.321,99.032,369.178,98.889Z" transform="translate(-260.951 -35.111)" fill="#fff"/>
          <path id="Path_201" data-name="Path 201" d="M376.53,94.386V70.724a2.306,2.306,0,0,1,1.432-1.977l.616-.372a1.432,1.432,0,0,1,.773-.229c.186,0,.344.2.473.544l4.3,9.554a19.909,19.909,0,0,1,.817,2.421l.1-.143a28.341,28.341,0,0,1-.2-2.865V65.926a2.32,2.32,0,0,1,1.432-1.977l.587-.329c.917-.544,1.432-.415,1.432.372V87.64a2.349,2.349,0,0,1-1.432,1.991l-.458.258a1.518,1.518,0,0,1-.8.258c-.2,0-.372-.2-.5-.544l-4.583-9.912a14.545,14.545,0,0,1-.645-1.991l-.115.172a21.276,21.276,0,0,1,.186,2.406v12.16a2.321,2.321,0,0,1-1.432,1.991l-.573.329C377,95.289,376.53,95.16,376.53,94.386Z" transform="translate(-257.675 -37.498)" fill="#fff"/>
        </g>
      </g>
      <g id="freepik--Plant--inject-33" transform="translate(30.552 285.936)">
        <g id="freepik--Pot--inject-33">
          <g id="freepik--pot--inject-33-2" data-name="freepik--pot--inject-33" transform="translate(23.562 77.599)">
            <path id="Path_202" data-name="Path 202" d="M124.242,424.668c8.316-8.592,13.21-43.506,5.092-50.338h-41.3c-8.108,6.8-3.233,41.736,5.092,50.329l.227.237.287.277a8.467,8.467,0,0,0,.751.682l.2.158.623.475a9.89,9.89,0,0,0,1.078.692c6.842,4,17.946,4,24.789,0h0a9.888,9.888,0,0,0,1.078-.692c.208-.148.4-.3.593-.455l.237-.188c.267-.217.5-.435.732-.653l.326-.326Z" transform="translate(-83.879 -367.458)" fill="#455a64"/>
            <path id="Path_203" data-name="Path 203" d="M91.63,371.5c-9.423,5.507-9.423,14.426,0,19.924s24.719,5.5,34.123,0,9.423-14.416,0-19.924S101.053,366.015,91.63,371.5Z" transform="translate(-83.887 -367.38)" fill="#455a64"/>
            <g id="Group_3" data-name="Group 3" transform="translate(0.676)" opacity="0.1">
              <path id="Path_204" data-name="Path 204" d="M91.63,371.5c-9.423,5.507-9.423,14.426,0,19.924s24.719,5.5,34.123,0,9.423-14.416,0-19.924S101.053,366.015,91.63,371.5Z" transform="translate(-84.562 -367.38)" fill="#fff"/>
            </g>
            <path id="Path_205" data-name="Path 205" d="M96.231,374.2c-6.921,4.034-6.921,10.59,0,14.624s18.144,4.044,25.065,0,6.921-10.59,0-14.624S103.152,370.152,96.231,374.2Z" transform="translate(-83.96 -367.422)" fill="#263238"/>
            <path id="Path_206" data-name="Path 206" d="M121.3,381.216c-6.921-4.044-18.134-4.044-25.056,0a11.559,11.559,0,0,0-4.143,3.846,11.628,11.628,0,0,0,4.143,3.817c6.921,4.044,18.144,4.044,25.056,0a11.589,11.589,0,0,0,4.153-3.836A11.518,11.518,0,0,0,121.3,381.216Z" transform="translate(-83.971 -367.501)" fill="#f5f5f5"/>
          </g>
          <g id="freepik--Plants--inject-33">
            <path id="Path_207" data-name="Path 207" d="M85.695,305.581l16.512,11.292L86.594,310.94a28.457,28.457,0,0,0,3.085,12s10.313,5,15.919,10.283l-13.734-4.321a15.148,15.148,0,0,0,.425,7.179c.089.316.188.643.287.989.732,2.2,1.77,6.358,3.52,11.272h0a72.431,72.431,0,0,0,5.676,12.419,50.725,50.725,0,0,0,3.777,5.577l.257.336q3.827-2.551,7.91-4.993c1.582-4.054,3.332-13.9,3.649-21.891,1.2-30.583-22.969-46.364-41.835-50.892A53.609,53.609,0,0,1,85.695,305.581Z" transform="translate(-60.224 -288.9)" fill="#0f73ef"/>
            <path id="Path_208" data-name="Path 208" d="M85.695,305.581l16.512,11.292L86.594,310.94a28.457,28.457,0,0,0,3.085,12s10.313,5,15.919,10.283l-13.734-4.321a15.148,15.148,0,0,0,.425,7.179c.089.316.188.643.287.989.732,2.2,1.77,6.358,3.52,11.272h0a72.431,72.431,0,0,0,5.676,12.419,50.725,50.725,0,0,0,3.777,5.577l.257.336q3.827-2.551,7.91-4.993c1.582-4.054,3.332-13.9,3.649-21.891,1.2-30.583-22.969-46.364-41.835-50.892A53.609,53.609,0,0,1,85.695,305.581Z" transform="translate(-60.224 -288.9)" opacity="0.3"/>
            <path id="Path_209" data-name="Path 209" d="M99.13,306.12a22.684,22.684,0,0,1,4.291,5.171,47.739,47.739,0,0,1,3.026,6.031,61.947,61.947,0,0,1,3.7,12.933,57.032,57.032,0,0,1-1.453,26.588h0a.439.439,0,1,0,.84.257h0a57.7,57.7,0,0,0,1.048-26.924,62.115,62.115,0,0,0-3.955-12.943,47.329,47.329,0,0,0-3.124-6,23.108,23.108,0,0,0-4.37-5.112Z" transform="translate(-60.489 -289.093)" fill="#fafafa"/>
            <path id="Path_210" data-name="Path 210" d="M156.931,321.57h0c-.376.484-6.219,5.577-15.188,20.833l-18.184,4.568,14.832,1.335-6.8,11.865-15.524,3.836,12.3,1.523s-2.966,12.043-11.48,17.353c-4.726,2.966-7.07,3.441-8.573,2.126-1.048-.929-1.5-6.635-2.551-11.707s-1.434-13.368,2.966-23.562a31.1,31.1,0,0,1,4.726-7.554C124.5,328.917,146.114,321.827,156.931,321.57Z" transform="translate(-60.556 -289.267)" fill="#0f73ef"/>
            <path id="Path_211" data-name="Path 211" d="M156.931,321.57h0c-.376.484-6.219,5.577-15.188,20.833l-18.184,4.568,14.832,1.335-6.8,11.865-15.524,3.836,12.3,1.523s-2.966,12.043-11.48,17.353c-4.726,2.966-7.07,3.441-8.573,2.126-1.048-.929-1.5-6.635-2.551-11.707s-1.434-13.368,2.966-23.562a31.1,31.1,0,0,1,4.726-7.554C124.5,328.917,146.114,321.827,156.931,321.57Z" transform="translate(-60.556 -289.267)" opacity="0.15"/>
            <path id="Path_212" data-name="Path 212" d="M112.09,354.961h0a48.123,48.123,0,0,0-3.134,13.319h0a144.159,144.159,0,0,0,.218,17.254,2.886,2.886,0,0,1-.9-.5c-1.048-.929-1.5-6.635-2.551-11.707s-1.434-13.368,2.966-23.562a31.106,31.106,0,0,1,4.726-7.554c11.074-13.339,32.689-20.4,43.506-20.656-16.493,3.352-33.905,15.089-42.221,28.269a33.81,33.81,0,0,0-2.61,5.142Z" transform="translate(-60.555 -289.267)" opacity="0.1"/>
            <path id="Path_213" data-name="Path 213" d="M140.551,327.48c-8.078,3.955-15.672,9.176-21.526,16.127a43.012,43.012,0,0,0-7.129,11.539,41.341,41.341,0,0,0-2.966,13.19h.089a52.83,52.83,0,0,1,3.678-12.854,49.509,49.509,0,0,1,6.862-11.42,56.933,56.933,0,0,1,9.65-9.3,75.054,75.054,0,0,1,11.371-7.2v-.079Z" transform="translate(-60.599 -289.333)" fill="#fafafa"/>
            <path id="Path_214" data-name="Path 214" d="M60.05,333.249h0a33.323,33.323,0,0,1,3.955,0A63.491,63.491,0,0,1,79.5,336.117q2.8.875,5.6,1.978c.92.386,1.839.791,2.749,1.216a44.5,44.5,0,0,1,12.2,8.207,28.122,28.122,0,0,1,4.341,5.438c.158.257.326.514.475.771h0c.386.672.722,1.345,1.058,1.978a38.374,38.374,0,0,1,4.509,18.658c.089,4.568-1.177,9.888-1.978,10.768a2.207,2.207,0,0,1-.376.316c-1.256.9-3.352.534-7.337-1.414-7.979-3.9-11.628-14.693-11.628-14.693l10.659-2.423L85.808,364.94l-6.1-8.444,10.224-2.442-14.11-1.4a206.971,206.971,0,0,0-15.7-19.38h0Z" transform="translate(-60.05 -289.397)" fill="#0f73ef"/>
            <path id="Path_215" data-name="Path 215" d="M64.055,333.22a63.488,63.488,0,0,1,15.494,2.867q2.8.875,5.6,1.978c.92.386,1.839.791,2.749,1.216a44.494,44.494,0,0,1,12.2,8.207,28.121,28.121,0,0,1,4.341,5.438c.158.257.326.514.475.771h0c.386.672.722,1.345,1.058,1.978a38.374,38.374,0,0,1,4.459,18.688c.089,4.568-1.177,9.888-1.978,10.768a2.207,2.207,0,0,1-.376.316,2.392,2.392,0,0,1-.84.366c.564-7.119-3.955-24.848-9.571-31.927-5.933-7.366-19.509-17.8-37.573-20.616h0A32.629,32.629,0,0,1,64.055,333.22Z" transform="translate(-60.05 -289.397)" opacity="0.05"/>
            <path id="Path_216" data-name="Path 216" d="M107.435,385.859a60.453,60.453,0,0,0-1.889-15.573,50.368,50.368,0,0,0-6-14.5,35.593,35.593,0,0,0-5.072-6.081,52.136,52.136,0,0,0-6.071-5.063,58.841,58.841,0,0,0-13.912-7.317H74.43a.059.059,0,0,0,0,.059,77.913,77.913,0,0,1,13.428,7.91,65.477,65.477,0,0,1,5.933,4.944,34.826,34.826,0,0,1,5.092,5.834,49.735,49.735,0,0,1,6.16,14.258,60.552,60.552,0,0,1,2.225,15.464Z" transform="translate(-60.211 -289.444)" fill="#fafafa"/>
          </g>
        </g>
      </g>
    </g>
  </g>
</svg>
