<?xml version="1.0" encoding="utf-8"?>
<!-- Generator: Adobe Illustrator 23.0.5, SVG Export Plug-In . SVG Version: 6.00 Build 0)  -->
<svg version="1.1" xmlns="http://www.w3.org/2000/svg" xmlns:xlink="http://www.w3.org/1999/xlink" x="0px" y="0px"
	 viewBox="0 0 1094 793.8" style="enable-background:new 0 0 1094 793.8;" xml:space="preserve">
<style type="text/css">
	.st0{fill:none;stroke:#000000;stroke-width:1.5;stroke-linecap:round;stroke-linejoin:round;}
	.st1{fill:#BFBFBF;stroke:#000000;stroke-width:1.5;stroke-linecap:round;stroke-linejoin:round;}
	.st2{fill:#BFBFBF;fill-opacity:0.9813;stroke:#000000;stroke-width:1.5;stroke-linecap:round;stroke-linejoin:round;}
	.st3{fill:#FFE4B5;stroke:#000000;stroke-width:1.5;stroke-linecap:round;stroke-linejoin:round;}
	.st4{fill:#FF0000;stroke:#000000;stroke-width:1.5;stroke-linecap:round;stroke-linejoin:round;}
	.st5{fill:none;stroke:#9DC3E6;stroke-width:3;}
</style>
<g id="Layer_1">
	<g id="g5463">
		<path id="path3753" class="st0" d="M760.4,138l3.6,4l0.2,12.5h-0.8v9.9h-0.9l-0.2,5.2l-3.3,4.1v7l-9.1,10v7.3l-5.5,4.9l-0.3,2.9
			l-7.8,8.8h-1.7c-4.1,6.1-4.3,10.9-4.3,10.9c-6.1,9.3-33.7,30.4-33.7,30.4l-11.2,10.6h-6.1l-2.9,4h-2.1v9.9l-20.2,25.7l-0.3,7h-1.5
			c-7.4,8.5-8.3,8.4-8.3,8.4c-3.2,0.2-7.3,6.7-7.3,6.7l-2.7,0.2l0.2,4.1l-6.1,9h-6.4l-4.7,5.6v6.4l-14.3,17.2h-4.7
			c-8.8,2.4-11.7,5.9-11.7,5.9h-9.1c-7.1,4.9-15,6.7-15,6.7l-2,1.7l-13.4-0.8v2.3c-56.7,12.6-60.8,13.5-60.8,13.5
			c-27.7,8.7-27.8,8.7-27.8,8.7c-5.3,3.5-46.1,6.5-46.1,6.5c-14.1,3.5-18.2,3.5-18.2,3.5c8.5,5,16.4,6.5,16.4,6.5l2.3,0.6v4.4
			l-3,0.2l-0.2-1.8c-2.1-2.4-15.5-6.1-15.5-6.1c-2-0.3-4.4-3.3-4.4-3.3c-8.1,8.5-20.2,14.4-20.2,14.4l-4.3-0.2
			c-2.7,6.7-2.7,6.7-2.7,6.7l-6.2,0.2l-1.5,2.1v4.7c-3.3,0.5-4.7,12.6-4.7,12.6l-0.3,8.7c7.8,4,7.3,6.4,7.3,6.4l5,0.5l1.5-1.8
			l2.7,0.2c4.1,5.2,4.7,8.2,4.7,8.2h-3v-2.1l-2.3,0.5v-2.7l-9,0.2l-0.2-1.1h-4.1l-0.2,3h1.4v6.8c3.2,5.5,2.9,7.4,2.9,7.4
			c-2.4,3.6-10.8,3.6-10.8,3.6c-3,3.6-6.7-2.1-6.7-2.1c-9.3-10.6-13.1-9.9-13.1-9.9c-0.5-3.6-5.2-0.6-5.2-0.6
			c-1.4,8.8-3.5,10.3-3.5,10.3l0.2,10.6c-2,4-2.1,4-2.1,4l0.3,6.5c2.3,2.7,4.1-2.3,4.1-2.3h2.4l1.5,2.1l0.3,4h2.1c1.2,2,6.1-2,6.1-2
			l0.3,4.4c-2.2,6.5-10.8,0.3-10.8,0.3v-2.1l-1.7-2.3l-5.6,7.7c-2.1,0-3.4,1.5-3.4,1.5c0.6,6,7.5,4.3,7.5,4.3
			c0.2-1.5,8.8-1.1,8.8-1.1c-4.3,3-4.3,10.5-4.3,10.5c-3.6-2.3-7.9,11.5-7.9,11.5c-1.5,10-12.2,27.3-12.2,27.3v4.5
			c1.1,0.6-2.8,5.3-2.8,5.3v4.1l2.3,0.2l3.8,7l4.9,2.3l1.5,6h5.6c2.3,3.4-7.7,3-7.7,3c-0.6-5.8-0.6-5.8-0.6-5.8
			c-9.6-7.5-17.5,0.4-17.5,0.4c-8.3,7.9-7.3,22.2-7.3,22.2c9.2,4.7,10.7,12.4,10.7,12.4c3.8,5.1,11.7,5.1,11.7,5.1
			c1.9-0.4,6.6,4.7,6.6,4.7l4.7-3.6h12l4.1,3.6v4.1l7,2.6v3l-5.3-0.2c-7-2.1-6.4-7-6.4-7c-0.6-4.1-8.1-3-8.1-3
			c-3,0.4-7.3,5.8-7.3,5.8c-6.2-3.6-9.6-4.9-9.6-4.9c-15.6-3.8-17.9-11.1-17.9-11.1c-1-2.9-5.4-8.3-5.4-8.3
			c-4.9-3.3-15.3-2.8-15.3-2.8l-7.2-5.9h-11.9v8.8l-3.4,5.6l-0.2-8.1c-6.1-5-6.1-5-6.1-5h-4.8l-5.3-5l-15.3-0.2
			c-1.2-6.4-4.4-6.4-4.4-6.4c-4.7-3.6-2.3-6.1-2.3-6.1l-0.1-6.1l5.3-2.9l-3.3-4.7h-2.7v4h-6.3l-4.8,7h-1.7c-2-2.1-9.6-4-9.6-4
			l-0.6-8.6l-1.3,0.2l0.2-6.5H178l-2.1,3.2l-0.4,13l-14.7-0.2l-38.4,0.5v3.4h-2.6v-2.8l-3.8-0.1l-0.1,2.1h-5.9v-4.5
			c-4.4-0.3-6.7-3.3-6.7-3.3c1.8-1.4,2.2-2.8,2.2-2.8c-3.6-4.8-5-5.4-5-5.4l-5-0.4c-6-1.6-9.4-5.4-9.4-5.4l-4.6-0.2
			c-6.8-2-8.4-9-8.4-9c-3.4-2.4-3.6-2.4-3.6-2.4V547c-1.6-0.2,0-3.8,0-3.8l-0.2-2h-3.4v1l-2,2.4l-0.2,5.8l-0.6-0.2l-0.4,6
			c0,2.8-11,4.6-11,4.6v3.6l-2.2,2.8l0.2,12.1l0.2,2.6l3.8,0.2c0.4,6.6,3.6,7.4,3.6,7.4l13.9-0.2c1.8,2.8-1.8,8.8-1.8,8.8v6h1.4v4.8
			l-3.8,5.4l-0.2,2.8l4.2,3.8h3.6c-0.2,5.6,13.9,11.4,13.9,11.4l5.4,9.8l0.4-2.6l2.6,0.4v9h1.6v1l18.7,0.2c1.2,15.1,8,18.7,8,18.7
			c10.6,3.8,6.8,10,6.8,10v4.8l9.6,0.2l-0.2,2h2.8v-1.8c14.9,4.4,13.7,6.4,13.7,6.4v5.4c5.8,1,7.8,10.2,7.8,10.2l3,0.8
			c0.4,7.4,5,9.4,5,9.4h5h9c4,5,4.6,5.4,4.6,5.4v2.6l4.2,1.2v4.6h2.4v2.8h3.8v2.6c9.2,0.2,12.3,2.4,12.3,2.4h9l6-6.6
			c2.4-1.4,3.6,3.8,3.6,3.8l7.8-0.2v-1c10.8-8.6,10.8-8.6,10.8-8.6c3.4,5.2,5.4,3.4,5.4,3.4v-4.2l4.2-0.4l12.3-13.7
			c27.3-1,48.4-7.6,48.4-7.6c1.6-1.2,24.9,8.6,24.9,8.6v1.4l8.2,0.2c5.8-3.4,7.2-3.4,7.2-3.4c5,0.2,5.8,10.8,5.8,10.8l4.2,3.2h1.8
			v-3c6.6-9.4,19.1-14.3,19.1-14.3c5.8,3.6,6.8,3.4,6.8,3.4c1.8,4.4,5.8,0.8,5.8,0.8l6.8,0.4c6,6.6,11.6,0.8,11.6,0.8l0.2-4
			l11.6-12.7l34.1-4.4l0.4-9.8l2-1.8l1-13.7l5.2-4.2c8.2-8.8-0.8-14.1-0.8-14.1l3.4-5l8.6-0.4l7-8l17.9-1c6.6-8,14.7-10,14.7-10
			c10.4-0.6,14.9,1.8,14.9,1.8l34.7,4l8-7.6c10.8,0.4,16.1,1.6,16.1,1.6l5.4,3l6.6-0.2v2.4c-4.2,6.4-11.2,11.8-11.2,11.8
			c-5.6,5.8,0.4,8.6,0.4,8.6c3.6,2.2,19.3-3.4,19.3-3.4l6.4,7.8l26.1,0.2c5.6,3,8,10.2,8,10.2h4.4c3.8,5.8,7.4,6.6,7.4,6.6h4.2
			c8.4-5.2,10.2-5.2,10.2-5.2h6.8l9,10.8l2.6,4.6h4.6c7.2-6,7.4-7.2,7.4-7.2c4.8-3.2,14.9-4,14.9-4c3.6-2.6,6.8-7.4,6.8-7.4
			c-4.6-7.6,5.4-11.2,5.4-11.2l7.4-0.4l9.4-8h21.3v-0.8l6.2-0.2c8.4,7.4,10.4,7.2,10.4,7.2l6-6.2l12.3-0.2l4.2-3.4h3.6l5.6-6.4
			l5.6,4.4l7.8,0.4l6.6,7.2h6.4l9.6-11.4c-2-4.8-2.8-5.2-2.8-5.2l-0.2-5l13.7-14.5l0.4-13.5l2.4-3.8v-5.6c-2.4-1,2.2-7,2.2-7v-4.8
			l13.5,0.2v-1h4.6l3.6-4l0.2-8.8H906v-6l1.6-0.8V543H902v1.6l-4.6-0.4l0.4-12c-9.8-7.6-0.4-19.9-0.4-19.9l7-0.4l2.4-3.2l8.6-0.4
			l2.6-1.6l4.6-0.6c6-3.4-1-7-1-7l-0.2-4.6c2-2.2,5.2,0.6,5.2,0.6l4.8,0.2v-2.6h1.4l3.8-5h5.2c5.8-8.4,9.8-12.5,9.8-12.5
			c6.6-0.2,13.9-1.8,13.9-1.8l3.4-2.4v-5.2l-3.8-1.2l-0.4-3.4l-5-3.6v-4l-5.2-2.6H952l-2.6,2.8c-2,2.8-4.2-3.2-4.2-3.2h-3
			c0.2-5,6.4-12.5,6.4-12.5V436l2.2-2l-0.2-7.2c-2.2-3.8-3-6.8-3-6.8l8-8.6v-4l19.5-20.1h3.4v7.8l10.8,0.2l8-6.6h8l6-5.4l0.2-9.6
			l6.2-4.4c7.8-3.4-2.6-11.4-2.6-11.4l-0.6-15.1h-1.2l-0.2-8.4h1.2v-4.6l9-9.6l3,5.6c2.4,2.8,5.4-2.6,5.4-2.6v-7.2l-2.6-1.8v-9
			c-5.4-8.4-8-11.4-8-11.4l0.2-9.2l2.4-3.2l0.6-14.5h0.6v-4.6l1.6-1.6v-10c-8.2-1.6-8.8-8.2-8.8-8.2c2.6-2,8.8-2.2,8.8-2.2
			c7.8-4.2,7.6-11,7.6-11c0-7.4,3.6-13.5,3.6-13.5v-5c-5.4-0.6-6.6-4.6-6.6-4.6l-0.6-17.1c5.6-3.2,4.4-5.8,4.4-5.8l-12-12.7
			l-0.8-27.3c-7-6.2-5.6-12.3-5.6-12.3l4.4-3.8c4.6-5.6,5.6-14.7,5.6-14.7c0.2-1.8,4.8-6.6,4.8-6.6V96.3l-2.4-4.6v-9.2
			c-1.2-2.8-4-9.2-4-9.2l-6-0.6c-7.8,7.4-26.1,2.2-26.1,2.2c-5.6,6.2-8.8,11-8.8,11c-3.4,1-6.4-0.8-6.4-0.8c-2-2-11-3.2-11-3.2
			c-1-4-2.2-6-2.2-6h-6.2c0.2,5.4-8.6,8.8-8.6,8.8l3.8,7l10.6,12.1h1.8l0.2,10.4l1.2,1.4l0.4,11.8c4.2-0.2,4.2,2,4.2,2l-2.4,5
			l-0.4,11.8h1.6v11.4c3.8,9.2,6.4,9.2,6.4,9.2c4,6.4,6.4,6.4,6.4,6.4l0.2,7c-3.6,0-8-1.8-8-1.8v-1.2l-8.2-0.2l-0.2-4.8
			c-8.6-3.6-21.9-2.8-21.9-2.8c-0.4-10.8-0.4-10.8-0.4-10.8l-2.6-1.4l-2-18.3l-5.4-7l-1-10.8l-0.4-6.4l-1.2-0.2l-0.2-4.8h2.2v-10
			l2.6-5.4l-1.8-2.2l-0.2-2.4l-5.6-4.8h-1.6L923.3,99l-13.7,0.2c-9,5-9,12-9,12h-6.8c-4.8,3.6,0,12.5,0,12.5v9.6l3.8,2.6l-0.4,21.1
			c0.4,7,10.2,7.8,10.2,7.8c-2.8,14.5-10.6,20.5-10.6,20.5l0.6,6.2l1.8,0.2l2.2-3v4.8c-5.6,6.8-7.6,11-7.6,11l-0.2,3.4l-3.2,3.6v4.4
			l-4.8,4.8l-2.6-0.4l-5.4,6c-2.6,3-11.6,3-11.6,3l-1.8-2v-5.6l-6-0.4v-7c-5.2-4.6-12-4.8-12-4.8l-4-7.4v-2.6h-2v-3.2l-2.4-2.6v-5
			h-12.7v2h-8v-7.4l2-0.2l-1-7.8l-2.2-0.4c0.4-16.1-16.7-28.9-16.7-28.9l-3.6,0.2l-0.6-4.2l-4.8,0.2l-0.2-3.4l-11.8-2.8l-14.7,0.2
			l-0.4,1L760.4,138z"/>
		<path id="path3753-1" class="st1" d="M212,619.5c-1.2-6.4-4.4-6.4-4.4-6.4c-4.7-3.6-2.3-6.1-2.3-6.1l-0.1-6.1l5.3-2.9l-3.3-4.7
			h-2.7v4h-6.3l-4.8,7h-1.7c-2-2.1-9.6-4-9.6-4l-0.6-8.6l-1.3,0.2l0.2-6.5H178l-2.1,3.2l-0.4,13l-14.7-0.2l-38.4,0.5v3.4h-2.6v-2.8
			l-3.8-0.1l-0.1,2.1h-5.9v-4.5c-4.4-0.3-6.7-3.3-6.7-3.3c1.8-1.4,2.2-2.8,2.2-2.8c-3.6-4.8-5-5.4-5-5.4l-5-0.4
			c-6-1.6-9.4-5.4-9.4-5.4l-4.6-0.2c-6.8-2-8.4-9-8.4-9c-3.4-2.4-3.6-2.4-3.6-2.4V547c-1.6-0.2,0-3.8,0-3.8l-0.2-2h-3.4v1l-2,2.4
			l-0.2,5.8l-0.6-0.2l-0.4,6c0,2.8-11,4.6-11,4.6v3.6l-2.2,2.8l0.2,12.1l0.2,2.6l3.8,0.2c0.4,6.6,3.6,7.4,3.6,7.4l13.9-0.2
			c1.8,2.8-1.8,8.8-1.8,8.8v6h1.4v4.8l-3.8,5.4l-0.2,2.8l4.2,3.8h3.6c-0.2,5.6,13.9,11.4,13.9,11.4l5.4,9.8l0.4-2.6l2.6,0.4v9h1.6v1
			l18.7,0.2c1.2,15.1,8,18.7,8,18.7c10.6,3.8,6.8,10,6.8,10v4.8l9.6,0.2l-0.2,2h2.8v-1.8c14.9,4.4,13.7,6.4,13.7,6.4v5.4
			c5.8,1,7.8,10.2,7.8,10.2l3,0.8c3.6-0.7,3.6-0.7,3.6-0.7c5.8-8.1,11.8-9.4,11.8-9.4l4.9-3.4v-4.5c4.3-7.9,4.1-12.4,4.1-12.4
			l2.8-1.7v-6.4l2.4,0.4v-5.1c-6.2-6.2-8.1-12.2-8.1-12.2l-6.4-0.2v-1.1l-2.4-2.8l-3.6-0.2l-0.2-2.6c7.1-3.9,10.1-10.3,10.1-10.3
			l10.3,0.2v-1.3l7.3-0.4V631h2.6l-0.2-2.6l3.2-1.9v-3.9L212,619.5z"/>
		<path id="path3753-2" class="st1" d="M168.9,706.3c0.4,7.4,5,9.4,5,9.4h5h9c4,5,4.6,5.4,4.6,5.4v2.6l4.2,1.2v4.6h2.4v2.8h3.8v2.6
			c9.2,0.2,12.3,2.4,12.3,2.4h9l6-6.6c2.4-1.4,3.6,3.8,3.6,3.8l7.8-0.2v-1c10.8-8.6,10.8-8.6,10.8-8.6c3.4,5.2,5.4,3.4,5.4,3.4v-4.2
			l4.2-0.4l12.3-13.7c0,0,3.5-0.1,11.4-0.8 M168.9,706.3c3.6-0.7,3.6-0.7,3.6-0.7c5.8-8.1,11.8-9.4,11.8-9.4l4.9-3.4v-4.5
			c4.3-7.9,4.1-12.4,4.1-12.4l2.8-1.7v-6.4l2.4,0.4v-5.1c-6.2-6.2-8.1-12.2-8.1-12.2l-6.4-0.2v-1.1l-2.4-2.8l-3.6-0.2l-0.2-2.6
			c7.1-3.9,10.1-10.3,10.1-10.3l10.3,0.2v-1.3l7.3-0.4V631h2.6l-0.2-2.6l3.2-1.9v-3.9l1.2-3.1l15.3,0.2l5.3,5h4.8c0,0,0,0,6.1,5
			l0.2,8.1l3.4-5.6v-8.8h11.9l7.2,5.9c0,0,10.4-0.5,15.3,2.8c0,0,4.4,5.4,5.4,8.3c0,0,2.3,7.3,17.9,11.1l0.8,14.2
			c-4.4,2.2-6.8,12.8-6.8,12.8c-8.1,3-18.5,1.9-18.5,1.9l-3.1,4.1l3.3,5.3l-0.4,4.7h1.8v4l3.2,3.7l0.1,6.7"/>
		<path id="path3753-16" class="st2" d="M314.8,552.4c-1.5,10-12.2,27.3-12.2,27.3v4.5c1.1,0.6-2.8,5.3-2.8,5.3v4.1l2.3,0.2l3.8,7
			l4.9,2.3l1.5,6h5.6c2.3,3.4-7.7,3-7.7,3c-0.6-5.8-0.6-5.8-0.6-5.8c-9.6-7.5-17.5,0.4-17.5,0.4c-8.3,7.9-7.3,22.2-7.3,22.2
			c9.2,4.7,10.7,12.4,10.7,12.4c3.8,5.1,11.7,5.1,11.7,5.1c1.9-0.4,6.6,4.7,6.6,4.7l4.7-3.6h12l4.1,3.6v4.1l7,2.6v3l-5.3-0.2
			c-7-2.1-6.4-7-6.4-7c-0.6-4.1-8.1-3-8.1-3c-3,0.4-7.3,5.8-7.3,5.8c-6.2-3.6-9.6-4.9-9.6-4.9l0.8,14.2c-4.4,2.2-6.8,12.8-6.8,12.8
			c-8.1,3-18.5,1.9-18.5,1.9l-3.1,4.1l3.3,5.3l-0.4,4.7h1.8v4l3.2,3.7l0.1,6.9c15.8-0.7,37-6.9,37-6.9c1.6-1.2,24.9,8.6,24.9,8.6
			v1.4l8.2,0.2c5.8-3.4,7.2-3.4,7.2-3.4c5,0.2,5.8,10.8,5.8,10.8l4.2,3.2h1.8v-3c6.6-9.4,19.1-14.3,19.1-14.3
			c5.8,3.6,6.8,3.4,6.8,3.4c1.8,4.4,5.8,0.8,5.8,0.8l6.8,0.4c6,6.6,11.6,0.8,11.6,0.8l0.2-4l11.6-12.7l34.1-4.4l0.4-9.8l2-1.8
			l1-13.7l5.2-4.2c8.2-8.8-0.8-14.1-0.8-14.1l3.4-5l-27.8-0.9l-6.4-8.5v-7.9c-10.1,0.3-19.5-2.1-19.5-2.1h-15.8v-4.9
			c-6.1,1.5-7.9-8.5-7.9-8.5c-2.1-2.1-5.5,2.7-5.5,2.7h-8.2l-1.8-2.4l-0.6-12.2l-0.9,0.3l-1.2-4.3l-2.7,0.3l-4.6-5.5
			c-3,0.3-10.4-4.9-10.4-4.9v-6.1c-1.2-3.4-2.7-5.8-2.7-5.8l-7-0.3l-0.3-1.5l-0.3-6.1h-3.7l-0.3-0.6l-0.3-4.9l-10.1-1.2l-2.1-2.7
			l-9.8-0.9V548c-3.4,0.9-5.1,2.2-5.1,2.2c-1.9-0.9-7.9-6-7.9-6C315.9,547.9,314.8,552.4,314.8,552.4"/>
		<path id="path3753-5" class="st1" d="M560.1,384.7l-13.4-0.8v2.3c-56.7,12.6-60.8,13.5-60.8,13.5c-27.7,8.7-27.8,8.7-27.8,8.7
			c-5.3,3.5-46.1,6.5-46.1,6.5c-14.1,3.5-18.2,3.5-18.2,3.5c8.5,5,16.4,6.5,16.4,6.5l2.3,0.6v4.4l-3,0.2l-0.2-1.8
			c-2.1-2.4-15.5-6.1-15.5-6.1c-2-0.3-4.4-3.3-4.4-3.3c-8.1,8.5-20.2,14.4-20.2,14.4l-4.3-0.2c-2.7,6.7-2.7,6.7-2.7,6.7l-6.2,0.2
			l-1.5,2.1v4.7c-3.3,0.5-4.7,12.6-4.7,12.6l-0.3,8.7c7.8,4,7.3,6.4,7.3,6.4l5,0.5l1.5-1.8l2.7,0.2c4.1,5.2,4.7,8.2,4.7,8.2h-3v-2.1
			l-2.3,0.5v-2.7l-9,0.2l-0.2-1.1h-4.1l-0.2,3h1.4v6.8c3.2,5.5,2.9,7.4,2.9,7.4c-2.4,3.6-10.8,3.6-10.8,3.6c-3,3.6-6.7-2.1-6.7-2.1
			c-9.3-10.6-13.1-9.9-13.1-9.9c-0.5-3.6-5.2-0.6-5.2-0.6c-1.4,8.8-3.5,10.3-3.5,10.3l0.2,10.6c-2,4-2.1,4-2.1,4l0.3,6.5
			c2.3,2.7,4.1-2.3,4.1-2.3h2.4l1.5,2.1l0.3,4h2.1c1.2,2,6.1-2,6.1-2l0.3,4.4c-2.2,6.5-10.8,0.3-10.8,0.3v-2.1l-1.7-2.3l-5.6,7.7
			c-2.1,0-3.4,1.5-3.4,1.5c0.6,6,7.5,4.3,7.5,4.3c0.2-1.5,8.8-1.1,8.8-1.1c-4.3,3-4.3,10.5-4.3,10.5c-2-0.2-4.4,3.5-4.4,3.5
			s6,4.8,8,5.7c0,0,1.8-1.2,5.1-2.2v4.3l9.8,0.9l2.1,2.7l10.1,1.2l0.3,4.9l0.3,0.6h3.7l0.3,6.1l0.3,1.5l7,0.3c0,0,1.5,2.4,2.7,5.8
			v6.1c0,0,7.3,5.2,10.4,4.9l4.6,5.5l2.7-0.3l1.2,4.3l0.9-0.3l0.6,12.2l1.8,2.4h8.2c0,0,3.4-4.9,5.5-2.7c0,0,1.8,10.1,7.9,8.5v4.9
			h15.8c0,0,9.4,2.4,19.5,2.1v7.9l6.4,8.5l27.8,0.9l8.6-0.4l7-8l17.9-1c6.6-8,14.7-10,14.7-10c10.4-0.6,14.9,1.8,14.9,1.8l34.7,4
			l8-7.6c10.8,0.4,16.1,1.6,16.1,1.6l5.4,3l6.6-0.2v2.4c-4.2,6.4-11.2,11.8-11.2,11.8c-5.6,5.8,0.4,8.6,0.4,8.6
			c3.6,2.2,19.3-3.4,19.3-3.4l6.4,7.8l26.1,0.2c5.6,3,8,10.2,8,10.2h4.4c3.8,5.8,7.4,6.6,7.4,6.6h4.2c8.4-5.2,10.2-5.2,10.2-5.2h6.8
			l9,10.8l2.6,4.6h4.6c7.2-6,7.4-7.2,7.4-7.2c4.8-3.2,14.9-4,14.9-4c3.6-2.6,6.8-7.4,6.8-7.4c-4.6-7.6,5.4-11.2,5.4-11.2l7.4-0.4
			l9.4-8h21.3v-0.8l6.2-0.2c8.4,7.4,10.4,7.2,10.4,7.2l6-6.2l12.3-0.2l4.2-3.4h3.6l5.6-6.4l5.6,4.4l7.8,0.4l6.6,7.2h6.4l9.6-11.4
			c-2-4.8-2.8-5.2-2.8-5.2l-0.2-5l13.7-14.5l0.4-13.5l2.4-3.8v-5.6c-2.4-1,2.2-7,2.2-7v-4.8l13.5,0.2v-1h4.6l3.6-4l0.2-8.8H906v-6
			l1.6-0.8V543H902v1.6l-4.6-0.4l0.4-12c-9.8-7.6-0.4-19.9-0.4-19.9l7-0.4l2.4-3.2l8.6-0.4l2.6-1.6l4.6-0.6c6-3.4-1-7-1-7l-0.2-4.6
			c2-2.2,5.2,0.6,5.2,0.6l4.8,0.2v-2.6h1.4l3.8-5h5.2c5.8-8.4,9.8-12.5,9.8-12.5c6.6-0.2,13.9-1.8,13.9-1.8l3.4-2.4v-5.2l-3.8-1.2
			l-0.4-3.4l-5-3.6v-4l-5.2-2.6H952l-2.6,2.8c-2,2.8-4.2-3.2-4.2-3.2h-3c0.2-5,6.4-12.5,6.4-12.5V436l2.2-2l-0.2-7.2
			c-2.2-3.8-3-6.8-3-6.8l-5.2-0.5c-3.2,2.9-5,6.2-5,6.2v4.5c-18.4,18.2-25.7,9.3-25.7,9.3l-0.3-1h-4.7V438l-19.3-0.6v-2.9
			c-7.6-0.6-9.6-6.3-9.6-6.3l-0.3-5.7l-0.8,0.2l-0.2-4.7l-2.1-1.6l-5.2-0.3l-2-6.4l-11.5,0.7c0,5.3-6-2.7-6-2.7v-7.1l-1.8-2.7
			l-8.9-1.1l-3.9-3.2c-2.5-5-5.5-12.8-5.5-12.8h-4.4l-9.2-8.5l-0.2-7.8l2.3-1.1h4.4c0-4.1-5-9.2-5-9.2c-3.2-2.5-11.2-6.4-11.2-6.4
			c0.2-3.4-0.5-5.7-0.5-5.7c-5,0-7.1-5.3-7.1-5.3c-1.6-3.4-10.1,4.6-10.1,4.6h-11.2v1.6l-4.6-0.5v-1.4l3.4-3.4v-6l-6.2,3.7l-1.4,6.4
			l-2.6,1.9l-9.3,9v2.1l-2.7,0.9l-0.3,9c-3,0-4.8,13-4.8,13l-20.5,24.7l-0.3,1.5L714,421.7v5.7h-6.9l-3.9,3.6l3.2,1.6l6.9-0.1
			l4.2,3.2v3.1l-7.1,4l-0.2,5.1l1.3-0.3v2.6h-1.3l-1.8,4.3l-4.1-3.9H700l-7.8,11h-4.9l-0.8,1.3l-0.2,3l-4.3,2.8h-1.6l0.1-8.6h-3.3
			l-3.9,0.8l-3.1-0.1v3h-18.1c-4,2.2-10.3,6.1-10.3,6.1c-8.1,1.3-15.2,9.4-15.2,9.4l-8.6,0.3l-1.2,2.2h-4.2l-3.3,2.9v8.6l5.1,6.6v2
			l-5.1-0.3l-0.1-1.3h-2.8l-0.1,5.2l-2.2,3.2l-10.9-0.3l-2.9,3.5l-0.3,7.8l-2.7,5.9h-6.9l-1,3.1l-15.6-0.1
			c-3.7-3.6-14.3-5.2-14.3-5.2c-1.9-2-1-2.8-1-2.8l6.9-0.1l3.3-2.8v-3.1l8.6-0.1v1.3l4.2-0.1l1.9-4v-4l-9.5-0.1l-1.5-2.6l-7-0.5
			l-3.7-4.9l-0.3-6l10-13.4v-9.6l4-2.7v-3.7l-2.8-2.8l-0.3-10l9.2-0.1v0.9l7,0.5v-1h4.3l-0.1-4.3l-4.2-5.8l-10.2-0.3
			c-3.3-2.4-5.6-4.7-5.6-4.7c2.3-2.3,7.2-4.6,7.2-4.6l3.1-3.2l-2.7-4.1h-3.8l-7-7.8l0.3-5l3.8-6.6v-16.5L560.1,384.7z"/>
		<path id="path3988" class="st1" d="M333,483.3l7.6,5.8v6.7c2.5,0.9,5-0.6,5-0.6v-2.1h2.5v1.9l3.9-0.6l0.4-4.5l-2.1-1.8l0.2-7.8
			l-2.7-4.7v-37.4c-2.5-6.4-2.5-6.8-2.5-6.8H342c-3.1-6-9.3,1.9-9.3,1.9l-1.6-0.2v10.5l1.2,0.4v9.1h1.8L333,483.3z"/>
		<path id="path3990" class="st3" d="M349,438.9l2.8-3.1V432l-3.3,0.3l-0.3,3.6L349,438.9z"/>
		<path id="path3753-6" class="st1" d="M674.3,280.2l-20.2,25.7l-0.3,7h-1.5c-7.4,8.5-8.3,8.4-8.3,8.4c-3.2,0.2-7.3,6.7-7.3,6.7
			l-2.7,0.2l0.2,4.1l-6.1,9h-6.4l-4.7,5.6v6.4l-14.3,17.2h-4.7c-8.8,2.4-11.7,5.9-11.7,5.9h-9.1c-7.1,4.9-15,6.7-15,6.7l-2,1.7
			l3.3,3.9v16.5l-3.8,6.6l-0.3,5l7,7.8h3.8l2.7,4.1l-3.1,3.2c0,0-4.9,2.3-7.2,4.6c0,0,2.3,2.3,5.6,4.7l10.2,0.3l4.2,5.8l0.1,4.3
			h-4.3v1l-7-0.5v-0.9l-9.2,0.1l0.3,10l2.8,2.8v3.7l-4,2.7v9.6l-10,13.4l0.3,6l3.7,4.9l7,0.5l1.5,2.6l9.5,0.1v4l-1.9,4l-4.2,0.1
			v-1.3l-8.6,0.1v3.1l-3.3,2.8l-6.9,0.1c0,0-0.9,0.8,1,2.8c0,0,10.6,1.7,14.3,5.2l15.6,0.1l1-3.1h6.9l2.7-5.9l0.3-7.8l2.9-3.5
			l10.9,0.3l2.2-3.2l0.1-5.2h2.8l0.1,1.3l5.1,0.3v-2l-5.1-6.6v-8.6l3.3-2.9h4.2l1.2-2.2l8.6-0.3c0,0,7.1-8.1,15.2-9.4
			c0,0,6.3-3.9,10.3-6.1h18.1v-3l3.1,0.1l3.9-0.8h3.3l-0.1,8.6h1.6l4.3-2.8l0.2-3l0.8-1.3h4.9l7.8-11h4.3l4.1,3.9l1.8-4.3h1.3v-2.6
			l-1.3,0.3l0.2-5.1l7.1-4v-3.1l-4.2-3.2l-6.9,0.1l-3.2-1.6l3.9-3.6h6.9v-5.7l14.2-18.1l0.3-1.5l20.5-24.7c0,0,1.8-13,4.8-13l0.3-9
			l2.7-0.9v-2.1l9.3-9l2.6-1.9l1.4-6.4l-1.8,0.3v-6.2l3.2-5l-2.9,1.3l-3-0.2v-3.2l-1.2,0.5v-2.2l3.2-2.2v-5.7l-6.4-8.1H753
			c-3,6.7-5.7,10.7-5.7,10.7c-5.9,17.3-5.9,17.3-5.9,17.3l-9.7,7.9v1.3h-4l-6.4-7.2l-10.1-0.2v-6.5c-1.5-3.9-7.2-7.2-7.2-7.2
			l-12.2-0.2c-2.9-2.5-3.7-8.1-3.7-8.1l0.3-10.9C683.9,295.4,674.3,280.2,674.3,280.2L674.3,280.2z"/>
		<g>
			<path class="st1" d="M1037.5,211.4c-5.4-0.6-6.6-4.6-6.6-4.6l-0.6-17.1c5.6-3.2,4.4-5.8,4.4-5.8l-12-12.7l-0.8-27.3
				c-7-6.2-5.6-12.3-5.6-12.3l4.4-3.8c4.6-5.6,5.6-14.7,5.6-14.7c0.2-1.8,4.8-6.6,4.8-6.6V96.3l-2.4-4.6v-9.2c-1.2-2.8-4-9.2-4-9.2
				l-6-0.6c-7.8,7.4-26.1,2.2-26.1,2.2c-5.6,6.2-8.8,11-8.8,11c-3.4,1-6.4-0.8-6.4-0.8c-2-2-11-3.2-11-3.2c-1-4-2.2-6-2.2-6h-6.2
				c0.2,5.4-8.6,8.8-8.6,8.8l3.8,7l10.6,12.1h1.8l0.2,10.4l1.2,1.4l0.4,11.8c4.2-0.2,4.2,2,4.2,2l-2.4,5l-0.4,11.8h1.6v11.4
				c3.8,9.2,6.4,9.2,6.4,9.2c4,6.4,6.4,6.4,6.4,6.4l0.2,7c-3.6,0-8-1.8-8-1.8v-1.2l-8.2-0.2l-0.2-4.8c-8.6-3.6-21.9-2.8-21.9-2.8
				c-0.4-10.8-0.4-10.8-0.4-10.8l-2.6-1.4l-2-18.3l-5.4-7l-1-10.8l-0.4-6.4l-1.2-0.2l-0.2-4.8h2.2v-10l2.6-5.4l-1.8-2.2l-0.2-2.4
				l-5.6-4.8h-1.6L923.3,99l-13.7,0.2c-9,5-9,12-9,12h-6.8c-4.8,3.6,0,12.5,0,12.5v9.6l3.8,2.6l-0.4,21.1c0.4,7,10.2,7.8,10.2,7.8
				c-2.8,14.5-10.6,20.5-10.6,20.5l0.6,6.2l1.8,0.2l2.2-3v4.8c-5.6,6.8-7.6,11-7.6,11l-0.2,3.4c0,0,8.7-1.3,16.5,0.5
				c0,0,7.2,1.1,9.2,2.3c0,0,4.7,1.7,10.4,1.1c0,0,4.9,0.6,6.2,1.2c1.4,0.6,3.3,1.6,3.3,1.6l4,2.1c0,0,7.2,4.8,11.4,15.8
				c0,0,1.3,2.6,4,4.6l20.1,15.2c0,0,8.8,6.9,15.1,6.7c0,0,10.4,1.1,15-5.4c4.6-6.5,3.4-8.6,8.6-10.4c2.6-2,8.8-2.2,8.8-2.2
				c7.8-4.2,7.6-11,7.6-11c0-7.4,3.6-13.5,3.6-13.5V211.4z"/>
			<path class="st4" d="M1008.9,253.5c-4.6,6.5-15,5.4-15,5.4c-6.3,0.2-15.1-6.7-15.1-6.7L958.7,237c-2.7-1.9-4-4.6-4-4.6
				c-4.2-11-11.4-15.8-11.4-15.8l-4-2.1c0,0-2-1.1-3.3-1.6c-1.4-0.6-6.2-1.2-6.2-1.2c-5.7,0.6-10.4-1.1-10.4-1.1
				c-1.9-1.3-9.2-2.3-9.2-2.3c-7.7-1.8-16.5-0.5-16.5-0.5l-3.2,3.6v4.4l-4.8,4.8l-2.6-0.4l-5.4,6c-2.6,3-11.6,3-11.6,3l-1.8-2v-5.6
				l-6-0.4v-7c-5.2-4.6-12-4.8-12-4.8l-4-7.4v-2.6h-2v-3.2l-2.4-2.6v-5h-12.7v2h-8v-7.4l2-0.2l-1-7.8l-2.2-0.4
				c0.4-16.1-16.7-28.9-16.7-28.9l-3.6,0.2l-0.6-4.2l-4.8,0.2l-0.2-3.4l-11.8-2.8l-14.7,0.2l-0.4,1l-3,0.7l3.6,4l0.2,12.5h-0.8v9.9
				h-0.9l-0.2,5.2l-3.3,4.1v7l-9.1,10v7.3l-5.5,4.9l-0.3,2.9l-7.8,8.8h-1.7c-4.1,6.1-4.3,10.9-4.3,10.9
				c-6.1,9.3-33.7,30.4-33.7,30.4l-11.2,10.6h-6.1l-2.9,4h-2.1v9.9l0,0c0,0,9.5,15.2,14.1,21.2l-0.3,10.9c0,0,0.8,5.5,3.7,8.1
				l12.2,0.2c0,0,5.7,3.4,7.2,7.2v6.5l10.1,0.2l6.4,7.2h4v-1.3l9.7-7.9c0,0,0,0,5.9-17.3c0,0,2.7-4,5.7-10.7h8.2l6.4,8.1v5.7
				l-3.2,2.2v2.2l1.2-0.5v3.2l3,0.2l2.9-1.3l-3.2,5v6.2l1.8-0.3l6.2-3.7v6l-3.4,3.4v1.4l4.6,0.5V341h11.2c0,0,8.5-8,10.1-4.6
				c0,0,2.1,5.3,7.1,5.3c0,0,0.7,2.3,0.5,5.7c0,0,8,3.9,11.2,6.4c0,0,5,5,5,9.2h-4.4l-2.3,1.1l0.2,7.8l9.2,8.5h4.4
				c0,0,3,7.8,5.5,12.8l3.9,3.2l8.9,1.1l1.8,2.7v7.1c0,0,6,8,6,2.7l11.5-0.7l2,6.4l5.2,0.3l2.1,1.6l0.2,4.7l0.8-0.2l0.3,5.7
				c0,0,1.9,5.7,9.6,6.3v2.9l19.3,0.6v0.6h4.7l0.3,1c0,0,7.3,8.9,25.7-9.3v-4.5c0,0,1.8-3.2,5-6.2l5.2,0.5l8-8.6v-4l19.5-20.1h3.4
				v7.8l10.8,0.2l8-6.6h8l6-5.4l0.2-9.6l6.2-4.4c7.8-3.4-2.6-11.4-2.6-11.4l-0.6-15.1h-1.2l-0.2-8.4h1.2v-4.6l9-9.6l3,5.6
				c2.4,2.8,5.4-2.6,5.4-2.6v-7.2l-2.6-1.8v-9c-5.4-8.4-8-11.4-8-11.4l0.2-9.2l2.4-3.2l0.6-14.5h0.6v-4.6l1.6-1.6v-10
				c-8.2-1.6-8.8-8.2-8.8-8.2C1012.3,244.9,1013.5,247,1008.9,253.5z"/>
		</g>
	</g>
</g>
<g id="Layer_3">
	<line class="st5" x1="777.8" y1="195.5" x2="712.7" y2="90.6"/>
	<line class="st5" x1="725.5" y1="278.7" x2="573.5" y2="278.7"/>
	<line class="st5" x1="714" y1="91.3" x2="644" y2="91.3"/>
	<rect x="366.6" y="238.3" class="st5" width="206.9" height="80.8"/>
	<g>
		<path d="M519,84.4c0,0.3-0.1,0.5-0.3,0.7c-0.2,0.2-0.5,0.3-0.7,0.3c-0.4,0-0.7-0.2-1-0.5l-2.9-4.6c-0.3-0.5-0.7-0.9-1.1-1.1
			c-0.4-0.2-0.9-0.3-1.5-0.3H509v5.4c0,0.4-0.1,0.6-0.3,0.8c-0.2,0.2-0.5,0.3-0.8,0.3c-0.3,0-0.6-0.1-0.8-0.3
			c-0.2-0.2-0.3-0.5-0.3-0.8V70.8c0-0.3,0.1-0.6,0.3-0.8c0.2-0.2,0.5-0.3,0.8-0.3h5.5c1.7,0,3,0.4,3.9,1.1c0.9,0.8,1.4,1.9,1.4,3.3
			c0,1.2-0.3,2.2-1,3s-1.7,1.2-2.9,1.4c0.4,0.1,0.7,0.3,1,0.6c0.3,0.3,0.6,0.6,0.9,1.1l2.3,3.6C518.9,84,519,84.2,519,84.4z
			 M513.1,76.9c1.1,0,2-0.2,2.5-0.7c0.5-0.4,0.8-1.1,0.8-2.1c0-0.9-0.3-1.6-0.8-2.1c-0.5-0.4-1.4-0.6-2.6-0.6h-4.1v5.5H513.1z"/>
		<path d="M536.5,69.9c0.2,0.2,0.3,0.5,0.3,0.8v13.5c0,0.3-0.1,0.6-0.3,0.8c-0.2,0.2-0.4,0.3-0.8,0.3c-0.3,0-0.6-0.1-0.7-0.3
			s-0.3-0.5-0.3-0.8V74l-4.3,8.2c-0.3,0.5-0.6,0.8-1.1,0.8c-0.4,0-0.8-0.3-1.1-0.8l-4.3-8.1v10.1c0,0.3-0.1,0.6-0.3,0.8
			c-0.2,0.2-0.4,0.3-0.7,0.3c-0.3,0-0.6-0.1-0.7-0.3c-0.2-0.2-0.3-0.5-0.3-0.8V70.7c0-0.3,0.1-0.6,0.3-0.8c0.2-0.2,0.5-0.3,0.8-0.3
			c0.5,0,0.8,0.3,1.1,0.8l5.3,10.1l5.2-10.1c0.3-0.5,0.6-0.8,1.1-0.8C536,69.6,536.3,69.7,536.5,69.9z"/>
		<path d="M541.9,83.7c-1.1-1.1-1.6-2.6-1.6-4.7v-8.3c0-0.4,0.1-0.6,0.3-0.8c0.2-0.2,0.5-0.3,0.8-0.3c0.3,0,0.6,0.1,0.8,0.3
			c0.2,0.2,0.3,0.5,0.3,0.8v8.5c0,1.4,0.3,2.5,1,3.2s1.7,1.1,3,1.1c1.3,0,2.3-0.4,3-1.1s1-1.8,1-3.2v-8.5c0-0.3,0.1-0.6,0.3-0.8
			c0.2-0.2,0.5-0.3,0.8-0.3c0.3,0,0.6,0.1,0.8,0.3c0.2,0.2,0.3,0.5,0.3,0.8V79c0,2.1-0.5,3.6-1.6,4.7s-2.6,1.6-4.7,1.6
			C544.5,85.3,543,84.8,541.9,83.7z"/>
		<path d="M576.8,69.9c0.2,0.2,0.3,0.5,0.3,0.8v13.5c0,0.3-0.1,0.6-0.3,0.8c-0.2,0.2-0.4,0.3-0.8,0.3c-0.3,0-0.5-0.1-0.7-0.3
			s-0.3-0.5-0.3-0.8V74l-4.3,8.2c-0.3,0.5-0.6,0.8-1.1,0.8c-0.4,0-0.8-0.3-1.1-0.8l-4.3-8.1v10.1c0,0.3-0.1,0.6-0.3,0.8
			s-0.4,0.3-0.7,0.3c-0.3,0-0.6-0.1-0.7-0.3c-0.2-0.2-0.3-0.5-0.3-0.8V70.7c0-0.3,0.1-0.6,0.3-0.8c0.2-0.2,0.5-0.3,0.8-0.3
			c0.5,0,0.8,0.3,1.1,0.8l5.3,10.1l5.2-10.1c0.3-0.5,0.6-0.8,1.1-0.8C576.3,69.6,576.6,69.7,576.8,69.9z"/>
		<path d="M581,85c-0.2-0.2-0.3-0.5-0.3-0.8V70.7c0-0.3,0.1-0.6,0.3-0.8c0.2-0.2,0.5-0.3,0.8-0.3c0.4,0,0.6,0.1,0.8,0.3
			c0.2,0.2,0.3,0.5,0.3,0.8v13.4c0,0.4-0.1,0.6-0.3,0.8c-0.2,0.2-0.5,0.3-0.8,0.3C581.5,85.3,581.2,85.2,581,85z"/>
		<path d="M598.9,84.4c0,0.3-0.1,0.5-0.3,0.7c-0.2,0.2-0.5,0.3-0.7,0.3c-0.4,0-0.7-0.2-1-0.5l-2.9-4.6c-0.3-0.5-0.7-0.9-1.1-1.1
			c-0.4-0.2-0.9-0.3-1.5-0.3h-2.5v5.4c0,0.4-0.1,0.6-0.3,0.8c-0.2,0.2-0.5,0.3-0.8,0.3c-0.3,0-0.6-0.1-0.8-0.3
			c-0.2-0.2-0.3-0.5-0.3-0.8V70.8c0-0.3,0.1-0.6,0.3-0.8c0.2-0.2,0.5-0.3,0.8-0.3h5.5c1.7,0,3,0.4,3.9,1.1c0.9,0.8,1.4,1.9,1.4,3.3
			c0,1.2-0.3,2.2-1,3c-0.7,0.8-1.7,1.2-2.9,1.4c0.4,0.1,0.7,0.3,1,0.6c0.3,0.3,0.6,0.6,0.9,1.1l2.3,3.6
			C598.8,84,598.9,84.2,598.9,84.4z M592.9,76.9c1.1,0,2-0.2,2.5-0.7c0.6-0.4,0.8-1.1,0.8-2.1c0-0.9-0.3-1.6-0.8-2.1
			c-0.5-0.4-1.4-0.6-2.6-0.6h-4.1v5.5H592.9z"/>
		<path d="M602.1,85c-0.2-0.2-0.3-0.5-0.3-0.8V70.7c0-0.3,0.1-0.6,0.3-0.8c0.2-0.2,0.5-0.3,0.8-0.3c0.4,0,0.6,0.1,0.8,0.3
			c0.2,0.2,0.3,0.5,0.3,0.8v13.4c0,0.4-0.1,0.6-0.3,0.8c-0.2,0.2-0.5,0.3-0.8,0.3C602.6,85.3,602.3,85.2,602.1,85z"/>
	</g>
	<g>
		<path d="M516.5,99.6c1.2,1.4,1.7,3.5,1.7,6.2c0,1.8-0.3,3.4-0.8,4.8c-0.5,1.4-1.3,2.4-2.3,3.1c-1,0.7-2.2,1.1-3.6,1.1
			c-0.9,0-1.8-0.2-2.7-0.5c-0.9-0.3-1.7-0.8-2.3-1.3c-0.2-0.2-0.4-0.3-0.4-0.5s-0.1-0.4-0.1-0.6c0-0.4,0.1-0.7,0.3-0.9
			c0.2-0.2,0.4-0.4,0.7-0.4c0.2,0,0.3,0,0.5,0.1s0.3,0.1,0.5,0.3c1.3,0.9,2.5,1.4,3.6,1.4c1.2,0,2.1-0.5,2.8-1.6
			c0.7-1.1,1-2.6,1.1-4.5c-0.4,0.7-0.9,1.3-1.7,1.7c-0.7,0.4-1.6,0.6-2.5,0.6c-1,0-1.9-0.2-2.7-0.7c-0.8-0.5-1.4-1.1-1.8-1.9
			c-0.4-0.8-0.7-1.8-0.7-2.8c0-1.1,0.2-2.1,0.7-2.9c0.5-0.9,1.2-1.5,2-2s1.8-0.7,2.9-0.7C513.7,97.4,515.4,98.2,516.5,99.6z
			 M513.9,105.2c0.6-0.6,0.8-1.3,0.8-2.2c0-0.9-0.3-1.7-0.8-2.2c-0.6-0.6-1.3-0.9-2.2-0.9c-0.9,0-1.6,0.3-2.1,0.9
			c-0.5,0.6-0.8,1.3-0.8,2.2s0.3,1.7,0.8,2.2c0.5,0.6,1.2,0.8,2.1,0.8C512.6,106,513.3,105.8,513.9,105.2z"/>
		<path d="M532.7,113.3c0,0.8-0.5,1.3-1.4,1.3h-9.1c-0.4,0-0.7-0.1-1-0.4c-0.2-0.2-0.4-0.6-0.4-0.9c0-0.5,0.2-0.9,0.6-1.3l5.5-5.9
			c0.7-0.7,1.2-1.4,1.5-2c0.3-0.6,0.5-1.2,0.5-1.8c0-0.8-0.2-1.3-0.6-1.7s-1-0.6-1.8-0.6c-0.7,0-1.3,0.1-1.9,0.4
			c-0.6,0.2-1.2,0.6-1.9,1c-0.2,0.1-0.3,0.2-0.5,0.3c-0.2,0.1-0.3,0.1-0.5,0.1c-0.3,0-0.5-0.1-0.7-0.4c-0.2-0.3-0.3-0.6-0.3-0.9
			c0-0.2,0-0.4,0.1-0.6c0.1-0.2,0.2-0.3,0.4-0.5c0.7-0.6,1.5-1,2.5-1.3c0.9-0.3,1.9-0.5,2.8-0.5c1.6,0,3,0.4,3.9,1.2
			c1,0.8,1.5,2,1.5,3.4c0,1-0.2,1.9-0.6,2.7s-1.1,1.8-2.1,2.9l-4.2,4.4h6.3C532.2,112.1,532.7,112.5,532.7,113.3z"/>
		<path d="M535.4,114.2c-0.3-0.3-0.5-0.8-0.5-1.3s0.2-0.9,0.5-1.3c0.3-0.3,0.8-0.5,1.3-0.5c0.5,0,0.9,0.2,1.3,0.5
			c0.3,0.3,0.5,0.8,0.5,1.3s-0.2,0.9-0.5,1.3c-0.3,0.3-0.8,0.5-1.3,0.5C536.2,114.7,535.8,114.5,535.4,114.2z"/>
		<path d="M551.8,107.3c0.5,0.7,0.8,1.6,0.8,2.7c0,1.5-0.5,2.6-1.6,3.5c-1.1,0.9-2.5,1.3-4.3,1.3c-1,0-2-0.2-3-0.5s-1.8-0.8-2.4-1.3
			c-0.4-0.3-0.6-0.7-0.6-1.1c0-0.4,0.1-0.7,0.3-0.9c0.2-0.2,0.4-0.4,0.7-0.4c0.2,0,0.3,0,0.4,0.1c0.1,0.1,0.3,0.1,0.5,0.3
			c0.7,0.4,1.3,0.8,1.9,1c0.6,0.2,1.3,0.4,2,0.4c1.1,0,1.8-0.2,2.4-0.6c0.5-0.4,0.8-1.1,0.8-1.9c0-0.8-0.3-1.5-0.8-1.9
			c-0.5-0.4-1.4-0.6-2.5-0.6H545c-0.4,0-0.7-0.1-0.9-0.4s-0.3-0.5-0.3-0.9c0-0.3,0.1-0.6,0.3-0.9c0.2-0.2,0.5-0.4,0.9-0.4h1
			c2.2,0,3.3-0.8,3.3-2.5c0-0.8-0.2-1.4-0.7-1.8c-0.5-0.4-1.1-0.6-1.9-0.6c-1.2,0-2.4,0.5-3.7,1.4c-0.2,0.1-0.4,0.2-0.5,0.3
			c-0.1,0.1-0.3,0.1-0.4,0.1c-0.3,0-0.5-0.1-0.7-0.4c-0.2-0.2-0.3-0.5-0.3-0.9c0-0.2,0-0.4,0.1-0.6s0.2-0.3,0.4-0.5
			c0.7-0.6,1.5-1,2.4-1.3c0.9-0.3,1.9-0.5,2.9-0.5c1.7,0,3,0.4,4,1.2s1.5,1.9,1.5,3.3c0,0.9-0.3,1.7-0.7,2.4c-0.5,0.7-1.1,1.2-2,1.5
			C550.5,106.1,551.3,106.6,551.8,107.3z"/>
		<path d="M567.8,109.2c0.2,0.2,0.4,0.5,0.4,0.9c0,0.8-0.5,1.2-1.4,1.2h-1.2v1.9c0,0.5-0.1,0.9-0.4,1.2c-0.3,0.3-0.6,0.4-1.1,0.4
			c-0.4,0-0.8-0.1-1.1-0.4c-0.3-0.3-0.4-0.7-0.4-1.2v-1.9h-6.3c-0.4,0-0.8-0.1-1-0.4c-0.2-0.2-0.4-0.6-0.4-0.9
			c0-0.4,0.1-0.8,0.4-1.1l7.4-10.7c0.2-0.2,0.4-0.4,0.6-0.5c0.2-0.1,0.5-0.2,0.7-0.2c0.4,0,0.8,0.1,1.1,0.4s0.5,0.7,0.5,1.2v9.8h1.2
			C567.2,108.9,567.5,109,567.8,109.2z M558,108.9h4.5v-6.5L558,108.9z"/>
	</g>
	<g>
		<path d="M575.5,117.7c-0.6-0.2-1.2-0.5-1.5-0.8c-0.2-0.1-0.3-0.3-0.3-0.6c0-0.2,0-0.3,0.1-0.4c0.1-0.1,0.2-0.2,0.3-0.2
			c0.1,0,0.3,0.1,0.5,0.2c0.8,0.6,1.8,0.9,2.8,0.9c0.7,0,1.3-0.1,1.7-0.4c0.4-0.3,0.6-0.7,0.6-1.2c0-0.4-0.2-0.7-0.6-0.9
			c-0.4-0.2-1-0.4-1.8-0.6c-0.8-0.2-1.4-0.4-1.9-0.6s-0.9-0.5-1.2-0.9c-0.3-0.4-0.4-0.8-0.4-1.4c0-0.6,0.2-1.1,0.5-1.5
			c0.3-0.4,0.7-0.8,1.3-1c0.6-0.2,1.2-0.4,1.9-0.4c0.7,0,1.3,0.1,1.8,0.3c0.6,0.2,1,0.5,1.4,0.8c0.2,0.2,0.3,0.4,0.3,0.6
			c0,0.2,0,0.3-0.1,0.4c-0.1,0.1-0.2,0.2-0.3,0.2c-0.1,0-0.3-0.1-0.5-0.2c-0.4-0.3-0.8-0.6-1.2-0.7s-0.8-0.2-1.4-0.2
			c-0.7,0-1.3,0.1-1.7,0.4c-0.4,0.3-0.6,0.7-0.6,1.2c0,0.4,0.2,0.8,0.5,1c0.4,0.2,0.9,0.4,1.7,0.6c0.8,0.2,1.5,0.4,2,0.6
			s0.9,0.5,1.2,0.8c0.3,0.4,0.5,0.8,0.5,1.4c0,0.6-0.2,1.1-0.5,1.5s-0.8,0.8-1.3,1c-0.6,0.2-1.2,0.4-2,0.4
			C576.8,118,576.1,117.9,575.5,117.7z"/>
		<path d="M584.3,117.7c-0.1-0.1-0.2-0.3-0.2-0.5v-8.5c0-0.2,0.1-0.4,0.2-0.5s0.3-0.2,0.5-0.2h3.4c1,0,1.9,0.3,2.4,0.8
			c0.6,0.5,0.9,1.2,0.9,2.2c0,0.9-0.3,1.7-0.9,2.2c-0.6,0.5-1.4,0.8-2.4,0.8h-2.6v3.3c0,0.2-0.1,0.4-0.2,0.5
			c-0.1,0.1-0.3,0.2-0.5,0.2C584.6,117.9,584.4,117.9,584.3,117.7z M590.1,110.9c0-1.2-0.7-1.8-2.1-1.8h-2.5v3.6h2.5
			C589.4,112.8,590.1,112.2,590.1,110.9z"/>
		<path d="M594.4,117.7c-0.1-0.1-0.2-0.3-0.2-0.5v-8.6c0-0.2,0.1-0.4,0.2-0.5s0.3-0.2,0.5-0.2c0.2,0,0.4,0.1,0.5,0.2
			c0.1,0.1,0.2,0.3,0.2,0.5v8.6c0,0.2-0.1,0.4-0.2,0.5c-0.1,0.1-0.3,0.2-0.5,0.2C594.7,117.9,594.6,117.9,594.4,117.7z"/>
	</g>
	<g>
		<path d="M396,270.4c0,0.3-0.1,0.5-0.3,0.7c-0.2,0.2-0.5,0.3-0.7,0.3c-0.4,0-0.7-0.2-1-0.5l-2.9-4.6c-0.3-0.5-0.7-0.9-1.1-1.1
			c-0.4-0.2-0.9-0.3-1.5-0.3H386v5.4c0,0.4-0.1,0.6-0.3,0.8c-0.2,0.2-0.5,0.3-0.8,0.3c-0.3,0-0.6-0.1-0.8-0.3
			c-0.2-0.2-0.3-0.5-0.3-0.8v-13.4c0-0.3,0.1-0.6,0.3-0.8c0.2-0.2,0.5-0.3,0.8-0.3h5.5c1.7,0,3,0.4,3.9,1.1c0.9,0.8,1.4,1.9,1.4,3.3
			c0,1.2-0.3,2.2-1,3s-1.7,1.2-2.9,1.4c0.4,0.1,0.7,0.3,1,0.6c0.3,0.3,0.6,0.6,0.9,1.1l2.3,3.6C395.9,270,396,270.2,396,270.4z
			 M390.1,262.9c1.1,0,2-0.2,2.5-0.7c0.5-0.4,0.8-1.1,0.8-2.1c0-0.9-0.3-1.6-0.8-2.1c-0.5-0.4-1.4-0.6-2.6-0.6h-4.1v5.5H390.1z"/>
		<path d="M413.5,255.9c0.2,0.2,0.3,0.5,0.3,0.8v13.5c0,0.3-0.1,0.6-0.3,0.8c-0.2,0.2-0.4,0.3-0.8,0.3c-0.3,0-0.6-0.1-0.7-0.3
			s-0.3-0.5-0.3-0.8V260l-4.3,8.2c-0.3,0.5-0.6,0.8-1.1,0.8c-0.4,0-0.8-0.3-1.1-0.8l-4.3-8.1v10.1c0,0.3-0.1,0.6-0.3,0.8
			c-0.2,0.2-0.4,0.3-0.7,0.3c-0.3,0-0.6-0.1-0.7-0.3c-0.2-0.2-0.3-0.5-0.3-0.8v-13.5c0-0.3,0.1-0.6,0.3-0.8c0.2-0.2,0.5-0.3,0.8-0.3
			c0.5,0,0.8,0.3,1.1,0.8l5.3,10.1l5.2-10.1c0.3-0.5,0.6-0.8,1.1-0.8C413,255.6,413.3,255.7,413.5,255.9z"/>
		<path d="M418.9,269.7c-1.1-1.1-1.6-2.6-1.6-4.7v-8.3c0-0.4,0.1-0.6,0.3-0.8c0.2-0.2,0.5-0.3,0.8-0.3s0.6,0.1,0.8,0.3
			c0.2,0.2,0.3,0.5,0.3,0.8v8.5c0,1.4,0.3,2.5,1,3.2s1.7,1.1,3,1.1c1.3,0,2.3-0.4,3-1.1s1-1.8,1-3.2v-8.5c0-0.3,0.1-0.6,0.3-0.8
			c0.2-0.2,0.5-0.3,0.8-0.3c0.3,0,0.6,0.1,0.8,0.3c0.2,0.2,0.3,0.5,0.3,0.8v8.3c0,2.1-0.5,3.6-1.6,4.7s-2.6,1.6-4.7,1.6
			C421.5,271.3,420,270.8,418.9,269.7z"/>
		<path d="M450.4,264.5c0.5,0.6,0.7,1.5,0.7,2.4c0,1.3-0.5,2.4-1.4,3.1c-0.9,0.7-2.2,1.1-3.8,1.1h-5.6c-0.4,0-0.6-0.1-0.8-0.3
			c-0.2-0.2-0.3-0.5-0.3-0.8v-13.3c0-0.3,0.1-0.6,0.3-0.8c0.2-0.2,0.5-0.3,0.8-0.3h5.4c1.6,0,2.8,0.4,3.8,1.1s1.4,1.7,1.4,3
			c0,0.8-0.2,1.5-0.6,2.1c-0.4,0.6-1,1-1.8,1.3C449.2,263.4,449.9,263.9,450.4,264.5z M441.4,262.4h3.9c2.2,0,3.3-0.8,3.3-2.5
			c0-0.8-0.3-1.4-0.8-1.8c-0.5-0.4-1.4-0.6-2.5-0.6h-3.9V262.4z M448.2,268.7c0.5-0.4,0.8-1,0.8-1.9c0-0.9-0.3-1.5-0.8-2
			c-0.5-0.4-1.4-0.6-2.5-0.6h-4.3v5.1h4.3C446.8,269.3,447.7,269.1,448.2,268.7z"/>
		<path d="M467.7,270.3c0,0.3-0.1,0.5-0.3,0.7s-0.5,0.3-0.8,0.3c-0.2,0-0.4-0.1-0.5-0.2c-0.2-0.1-0.3-0.3-0.4-0.5l-1.5-3.3h-8.1
			l-1.5,3.3c-0.1,0.2-0.2,0.4-0.4,0.5c-0.2,0.1-0.4,0.2-0.5,0.2c-0.3,0-0.6-0.1-0.8-0.3s-0.3-0.4-0.3-0.7c0-0.1,0-0.3,0.1-0.4
			l6.2-13.6c0.1-0.2,0.3-0.4,0.5-0.5c0.2-0.1,0.5-0.2,0.7-0.2c0.2,0,0.5,0.1,0.7,0.2c0.2,0.1,0.4,0.3,0.5,0.5l6.2,13.6
			C467.7,270,467.7,270.2,467.7,270.3z M457,265.5h6.4l-3.2-7.3L457,265.5z"/>
		<path d="M472.2,271c-0.2-0.2-0.3-0.5-0.3-0.8v-12.6h-4.4c-0.7,0-1.1-0.3-1.1-0.9c0-0.3,0.1-0.5,0.3-0.7c0.2-0.2,0.4-0.2,0.8-0.2
			h11.1c0.3,0,0.6,0.1,0.8,0.2c0.2,0.2,0.3,0.4,0.3,0.7c0,0.6-0.4,0.9-1.1,0.9h-4.4v12.6c0,0.3-0.1,0.6-0.3,0.8
			c-0.2,0.2-0.5,0.3-0.8,0.3C472.7,271.3,472.4,271.2,472.2,271z"/>
		<path d="M483,269.7c-1.1-1.1-1.6-2.6-1.6-4.7v-8.3c0-0.4,0.1-0.6,0.3-0.8c0.2-0.2,0.5-0.3,0.8-0.3c0.3,0,0.6,0.1,0.8,0.3
			c0.2,0.2,0.3,0.5,0.3,0.8v8.5c0,1.4,0.3,2.5,1,3.2s1.7,1.1,3,1.1c1.3,0,2.3-0.4,3-1.1s1-1.8,1-3.2v-8.5c0-0.3,0.1-0.6,0.3-0.8
			c0.2-0.2,0.5-0.3,0.8-0.3c0.3,0,0.6,0.1,0.8,0.3c0.2,0.2,0.3,0.5,0.3,0.8v8.3c0,2.1-0.5,3.6-1.6,4.7s-2.6,1.6-4.7,1.6
			C485.6,271.3,484.1,270.8,483,269.7z"/>
		<path d="M515.8,255.9c0.2,0.2,0.3,0.5,0.3,0.8v13.4c0,0.3-0.1,0.6-0.3,0.8c-0.2,0.2-0.5,0.3-0.8,0.3c-0.4,0-0.7-0.1-0.9-0.4
			l-8.6-11.4v10.7c0,0.3-0.1,0.6-0.3,0.8c-0.2,0.2-0.5,0.3-0.8,0.3c-0.3,0-0.6-0.1-0.8-0.3c-0.2-0.2-0.3-0.5-0.3-0.8v-13.4
			c0-0.3,0.1-0.6,0.3-0.8c0.2-0.2,0.5-0.3,0.8-0.3c0.4,0,0.7,0.1,0.9,0.4l8.6,11.4v-10.7c0-0.3,0.1-0.6,0.3-0.8
			c0.2-0.2,0.4-0.3,0.8-0.3S515.6,255.7,515.8,255.9z"/>
		<path d="M520,271c-0.2-0.2-0.3-0.5-0.3-0.8v-13.4c0-0.3,0.1-0.6,0.3-0.8c0.2-0.2,0.5-0.3,0.8-0.3c0.4,0,0.6,0.1,0.8,0.3
			c0.2,0.2,0.3,0.5,0.3,0.8v13.4c0,0.4-0.1,0.6-0.3,0.8c-0.2,0.2-0.5,0.3-0.8,0.3C520.5,271.3,520.2,271.2,520,271z"/>
		<path d="M539.3,270.3c0,0.3-0.1,0.5-0.3,0.7s-0.5,0.3-0.8,0.3c-0.2,0-0.4-0.1-0.5-0.2c-0.2-0.1-0.3-0.3-0.4-0.5l-1.5-3.3h-8.1
			l-1.5,3.3c-0.1,0.2-0.2,0.4-0.4,0.5c-0.2,0.1-0.4,0.2-0.5,0.2c-0.3,0-0.6-0.1-0.8-0.3s-0.3-0.4-0.3-0.7c0-0.1,0-0.3,0.1-0.4
			l6.2-13.6c0.1-0.2,0.3-0.4,0.5-0.5c0.2-0.1,0.5-0.2,0.7-0.2c0.2,0,0.5,0.1,0.7,0.2c0.2,0.1,0.4,0.3,0.5,0.5l6.2,13.6
			C539.3,270,539.3,270.2,539.3,270.3z M528.6,265.5h6.4l-3.2-7.3L528.6,265.5z"/>
		<path d="M554.5,255.9c0.2,0.2,0.3,0.5,0.3,0.8v13.4c0,0.3-0.1,0.6-0.3,0.8c-0.2,0.2-0.5,0.3-0.8,0.3c-0.3,0-0.6-0.1-0.8-0.3
			c-0.2-0.2-0.3-0.5-0.3-0.8v-5.9h-8.7v5.9c0,0.3-0.1,0.6-0.3,0.8c-0.2,0.2-0.5,0.3-0.8,0.3c-0.3,0-0.6-0.1-0.8-0.3
			c-0.2-0.2-0.3-0.5-0.3-0.8v-13.4c0-0.3,0.1-0.6,0.3-0.8c0.2-0.2,0.5-0.3,0.8-0.3c0.3,0,0.6,0.1,0.8,0.3c0.2,0.2,0.3,0.5,0.3,0.8
			v5.7h8.7v-5.7c0-0.3,0.1-0.6,0.3-0.8c0.2-0.2,0.5-0.3,0.8-0.3C554.1,255.6,554.3,255.7,554.5,255.9z"/>
	</g>
	<g>
		<path d="M393.6,286.6c1.2,1.5,1.8,3.5,1.8,6.2c0,1.8-0.3,3.4-0.8,4.7c-0.6,1.4-1.4,2.4-2.4,3.1c-1,0.7-2.3,1.1-3.7,1.1
			c-0.9,0-1.8-0.2-2.8-0.5c-0.9-0.3-1.7-0.7-2.4-1.3c-0.2-0.2-0.4-0.4-0.5-0.6c-0.1-0.2-0.2-0.4-0.2-0.7c0-0.4,0.1-0.8,0.3-1.1
			c0.2-0.3,0.5-0.4,0.9-0.4c0.2,0,0.4,0,0.5,0.1c0.2,0.1,0.4,0.2,0.6,0.3c0.6,0.4,1.2,0.7,1.7,0.9c0.5,0.2,1,0.3,1.5,0.3
			c1,0,1.8-0.5,2.4-1.4s0.9-2.2,1-3.8c-0.4,0.6-0.9,1.1-1.6,1.5c-0.7,0.4-1.4,0.5-2.3,0.5c-1,0-1.9-0.2-2.7-0.7
			c-0.8-0.5-1.4-1.1-1.8-1.9c-0.4-0.8-0.7-1.8-0.7-2.8c0-1.1,0.2-2.1,0.7-3c0.5-0.9,1.2-1.6,2.1-2s1.9-0.7,3-0.7
			C390.7,284.4,392.4,285.2,393.6,286.6z M390.6,292c0.5-0.5,0.7-1.1,0.7-1.9c0-0.8-0.2-1.5-0.7-2c-0.5-0.5-1.1-0.8-1.8-0.8
			s-1.4,0.2-1.8,0.7s-0.7,1.2-0.7,2c0,0.8,0.2,1.4,0.7,1.9c0.5,0.5,1.1,0.7,1.8,0.7S390.1,292.5,390.6,292z"/>
		<path d="M410.5,297c0,1-0.6,1.4-1.8,1.4h-0.9v1.4c0,0.6-0.2,1.1-0.5,1.4c-0.3,0.3-0.8,0.5-1.3,0.5c-0.5,0-1-0.2-1.3-0.5
			c-0.3-0.3-0.5-0.8-0.5-1.4v-1.4h-5.8c-0.5,0-0.9-0.1-1.2-0.4c-0.3-0.3-0.4-0.7-0.4-1.1s0.2-0.9,0.5-1.3l7.2-10.2
			c0.2-0.3,0.4-0.5,0.7-0.6c0.3-0.1,0.6-0.2,0.9-0.2c0.5,0,0.9,0.2,1.3,0.5c0.4,0.3,0.6,0.8,0.6,1.4v9.2h0.9
			C410,295.6,410.5,296.1,410.5,297z M400.6,295.6h3.7v-5.3L400.6,295.6z"/>
		<path d="M412.4,301.1c-0.4-0.4-0.6-0.9-0.6-1.5c0-0.6,0.2-1.1,0.6-1.5c0.4-0.4,0.9-0.6,1.5-0.6c0.6,0,1.1,0.2,1.5,0.6
			s0.6,0.9,0.6,1.5c0,0.6-0.2,1.1-0.6,1.5s-0.9,0.6-1.5,0.6C413.2,301.7,412.8,301.5,412.4,301.1z"/>
		<path d="M428.7,286.6c1.2,1.5,1.8,3.5,1.8,6.2c0,1.8-0.3,3.4-0.8,4.7c-0.6,1.4-1.4,2.4-2.4,3.1c-1,0.7-2.3,1.1-3.7,1.1
			c-0.9,0-1.8-0.2-2.8-0.5c-0.9-0.3-1.7-0.7-2.4-1.3c-0.2-0.2-0.4-0.4-0.5-0.6c-0.1-0.2-0.2-0.4-0.2-0.7c0-0.4,0.1-0.8,0.3-1.1
			c0.2-0.3,0.5-0.4,0.9-0.4c0.2,0,0.4,0,0.5,0.1c0.2,0.1,0.4,0.2,0.6,0.3c0.6,0.4,1.2,0.7,1.7,0.9c0.5,0.2,1,0.3,1.5,0.3
			c1,0,1.8-0.5,2.4-1.4s0.9-2.2,1-3.8c-0.4,0.6-0.9,1.1-1.6,1.5c-0.7,0.4-1.4,0.5-2.3,0.5c-1,0-1.9-0.2-2.7-0.7
			c-0.8-0.5-1.4-1.1-1.8-1.9c-0.4-0.8-0.7-1.8-0.7-2.8c0-1.1,0.2-2.1,0.7-3c0.5-0.9,1.2-1.6,2.1-2s1.9-0.7,3-0.7
			C425.8,284.4,427.5,285.2,428.7,286.6z M425.6,292c0.5-0.5,0.7-1.1,0.7-1.9c0-0.8-0.2-1.5-0.7-2c-0.5-0.5-1.1-0.8-1.8-0.8
			s-1.4,0.2-1.8,0.7s-0.7,1.2-0.7,2c0,0.8,0.2,1.4,0.7,1.9c0.5,0.5,1.1,0.7,1.8,0.7S425.2,292.5,425.6,292z"/>
		<path d="M444.6,285.1c0.3,0.3,0.4,0.7,0.4,1.1c0,0.5-0.1,0.9-0.4,1.4l-7.5,13.2c-0.2,0.3-0.4,0.6-0.7,0.7s-0.6,0.2-0.9,0.2
			c-0.5,0-0.9-0.2-1.2-0.5c-0.4-0.3-0.6-0.7-0.6-1.2c0-0.3,0.1-0.7,0.3-1l6.6-11.5h-6.6c-1.2,0-1.8-0.5-1.8-1.5c0-1,0.6-1.5,1.8-1.5
			h9.5C443.9,284.6,444.3,284.8,444.6,285.1z"/>
	</g>
	<g>
		<path d="M448.5,304.7c-0.6-0.2-1.2-0.5-1.5-0.8c-0.2-0.1-0.3-0.3-0.3-0.6c0-0.2,0-0.3,0.1-0.4c0.1-0.1,0.2-0.2,0.3-0.2
			c0.1,0,0.3,0.1,0.5,0.2c0.8,0.6,1.8,0.9,2.8,0.9c0.7,0,1.3-0.1,1.7-0.4c0.4-0.3,0.6-0.7,0.6-1.2c0-0.4-0.2-0.7-0.6-0.9
			c-0.4-0.2-1-0.4-1.8-0.6c-0.8-0.2-1.4-0.4-1.9-0.6s-0.9-0.5-1.2-0.9c-0.3-0.4-0.4-0.8-0.4-1.4c0-0.6,0.2-1.1,0.5-1.5
			c0.3-0.4,0.7-0.8,1.3-1c0.6-0.2,1.2-0.4,1.9-0.4c0.7,0,1.3,0.1,1.8,0.3c0.6,0.2,1,0.5,1.4,0.8c0.2,0.2,0.3,0.4,0.3,0.6
			c0,0.2,0,0.3-0.1,0.4c-0.1,0.1-0.2,0.2-0.3,0.2c-0.1,0-0.3-0.1-0.5-0.2c-0.4-0.3-0.8-0.6-1.2-0.7s-0.8-0.2-1.4-0.2
			c-0.7,0-1.3,0.1-1.7,0.4c-0.4,0.3-0.6,0.7-0.6,1.2c0,0.4,0.2,0.8,0.5,1c0.4,0.2,0.9,0.4,1.7,0.6c0.8,0.2,1.5,0.4,2,0.6
			s0.9,0.5,1.2,0.8c0.3,0.4,0.5,0.8,0.5,1.4c0,0.6-0.2,1.1-0.5,1.5s-0.8,0.8-1.3,1c-0.6,0.2-1.2,0.4-2,0.4
			C449.8,305,449.1,304.9,448.5,304.7z"/>
		<path d="M457.3,304.7c-0.1-0.1-0.2-0.3-0.2-0.5v-8.5c0-0.2,0.1-0.4,0.2-0.5s0.3-0.2,0.5-0.2h3.4c1,0,1.9,0.3,2.4,0.8
			c0.6,0.5,0.9,1.2,0.9,2.2c0,0.9-0.3,1.7-0.9,2.2c-0.6,0.5-1.4,0.8-2.4,0.8h-2.6v3.3c0,0.2-0.1,0.4-0.2,0.5
			c-0.1,0.1-0.3,0.2-0.5,0.2C457.6,304.9,457.4,304.9,457.3,304.7z M463.1,297.9c0-1.2-0.7-1.8-2.1-1.8h-2.5v3.6h2.5
			C462.4,299.8,463.1,299.2,463.1,297.9z"/>
		<path d="M467.4,304.7c-0.1-0.1-0.2-0.3-0.2-0.5v-8.6c0-0.2,0.1-0.4,0.2-0.5s0.3-0.2,0.5-0.2c0.2,0,0.4,0.1,0.5,0.2
			c0.1,0.1,0.2,0.3,0.2,0.5v8.6c0,0.2-0.1,0.4-0.2,0.5c-0.1,0.1-0.3,0.2-0.5,0.2C467.7,304.9,467.6,304.9,467.4,304.7z"/>
	</g>
	<rect x="489.5" y="54.3" class="st5" width="154" height="77.5"/>
	<rect x="55.1" y="52.3" class="st5" width="337.4" height="105.8"/>
	<g>
		<path d="M81.7,93.1c-1.4-0.8-2.4-2-3.2-3.5c-0.7-1.5-1.1-3.3-1.1-5.3c0-2.1,0.4-3.9,1.1-5.4c0.7-1.5,1.8-2.7,3.2-3.5
			c1.4-0.8,3-1.2,4.9-1.2c1.9,0,3.5,0.4,4.9,1.2c1.4,0.8,2.4,2,3.2,3.5c0.7,1.5,1.1,3.3,1.1,5.4s-0.4,3.8-1.1,5.4
			c-0.7,1.5-1.8,2.7-3.2,3.5c-1.4,0.8-3,1.2-4.9,1.2C84.7,94.3,83.1,93.9,81.7,93.1z M91.2,90c1.1-1.3,1.7-3.3,1.7-5.7
			s-0.5-4.4-1.6-5.7c-1.1-1.3-2.6-2-4.6-2c-2,0-3.5,0.7-4.6,2c-1.1,1.3-1.6,3.2-1.6,5.7s0.5,4.4,1.6,5.7c1.1,1.3,2.6,2,4.6,2
			C88.5,92,90.1,91.3,91.2,90z"/>
		<path d="M109.5,80.4c0.2-0.1,0.4-0.2,0.7-0.2c0.4,0,0.7,0.1,0.9,0.4c0.3,0.2,0.4,0.5,0.4,0.9c0,0.2,0,0.4-0.1,0.5l-5.3,11.3
			c-0.1,0.3-0.3,0.5-0.6,0.7s-0.6,0.2-0.9,0.2s-0.6-0.1-0.9-0.2s-0.5-0.4-0.6-0.7L97.8,82c-0.1-0.1-0.1-0.3-0.1-0.5
			c0-0.3,0.1-0.6,0.4-0.9c0.3-0.2,0.6-0.4,1-0.4c0.5,0,0.9,0.3,1.2,0.8l4.3,9.6L109,81C109.1,80.7,109.3,80.5,109.5,80.4z"/>
		<path d="M125,91c0.2,0.2,0.3,0.5,0.3,0.8c0,0.5-0.3,1-1,1.4c-0.7,0.4-1.4,0.7-2.1,0.9c-0.8,0.2-1.5,0.3-2.2,0.3
			c-2.2,0-3.9-0.6-5.1-1.9c-1.3-1.3-1.9-3-1.9-5.2c0-1.4,0.3-2.6,0.8-3.7c0.6-1.1,1.3-1.9,2.3-2.5c1-0.6,2.1-0.9,3.4-0.9
			c1.8,0,3.3,0.6,4.3,1.8c1.1,1.2,1.6,2.8,1.6,4.8c0,0.7-0.3,1.1-1,1.1h-8.7c0.2,2.9,1.6,4.3,4.2,4.3c0.7,0,1.3-0.1,1.8-0.3
			c0.5-0.2,1-0.4,1.6-0.7c0.1,0,0.2-0.1,0.5-0.2c0.3-0.1,0.5-0.2,0.6-0.2C124.6,90.7,124.8,90.8,125,91z M116.9,83.2
			c-0.7,0.7-1,1.7-1.2,2.9h7.2c-0.1-1.3-0.4-2.2-1-2.9c-0.6-0.7-1.4-1-2.5-1C118.4,82.2,117.5,82.5,116.9,83.2z"/>
		<path d="M137,81.3c0,0.4-0.1,0.7-0.3,0.9c-0.2,0.2-0.6,0.3-1.1,0.4l-0.8,0.1c-1.2,0.1-2,0.5-2.6,1.2s-0.9,1.6-0.9,2.6v6.4
			c0,0.4-0.1,0.8-0.4,1c-0.3,0.2-0.6,0.3-1,0.3c-0.4,0-0.8-0.1-1-0.3c-0.3-0.2-0.4-0.6-0.4-1V81.5c0-0.4,0.1-0.8,0.4-1
			c0.3-0.2,0.6-0.3,1-0.3c0.4,0,0.7,0.1,0.9,0.3c0.3,0.2,0.4,0.6,0.4,1v1.3c0.4-0.8,0.9-1.4,1.6-1.9c0.7-0.4,1.5-0.7,2.4-0.8l0.4,0
			C136.5,80.1,137,80.5,137,81.3z"/>
		<path d="M148.4,81.5c0.9,0.9,1.3,2.3,1.3,4.2v7.3c0,0.4-0.1,0.8-0.4,1c-0.2,0.2-0.6,0.4-1,0.4c-0.4,0-0.7-0.1-1-0.4
			c-0.2-0.2-0.4-0.6-0.4-1v-1c-0.4,0.8-0.9,1.4-1.6,1.8c-0.7,0.4-1.5,0.6-2.5,0.6c-0.9,0-1.7-0.2-2.5-0.5c-0.7-0.4-1.3-0.9-1.8-1.5
			c-0.4-0.6-0.6-1.4-0.6-2.2c0-1,0.2-1.8,0.8-2.4c0.5-0.6,1.4-1,2.5-1.2s2.8-0.4,4.9-0.4h0.6v-0.8c0-1-0.2-1.8-0.6-2.3
			c-0.4-0.5-1.1-0.7-2.1-0.7c-0.7,0-1.3,0.1-1.8,0.3c-0.6,0.2-1.2,0.4-1.9,0.7c-0.5,0.3-0.9,0.4-1.1,0.4c-0.3,0-0.5-0.1-0.7-0.3
			c-0.2-0.2-0.3-0.5-0.3-0.8c0-0.3,0.1-0.5,0.2-0.7c0.2-0.2,0.4-0.4,0.8-0.6c0.7-0.4,1.4-0.6,2.3-0.9c0.9-0.2,1.7-0.3,2.5-0.3
			C146.2,80.1,147.5,80.6,148.4,81.5z M146,91.2c0.7-0.7,1-1.6,1-2.7v-0.7h-0.5c-1.5,0-2.6,0.1-3.4,0.2c-0.8,0.1-1.3,0.4-1.7,0.7
			c-0.3,0.3-0.5,0.8-0.5,1.3c0,0.7,0.2,1.2,0.7,1.7c0.5,0.4,1.1,0.6,1.8,0.6C144.5,92.2,145.4,91.9,146,91.2z"/>
		<path d="M154,93.9c-0.3-0.2-0.4-0.6-0.4-1V75.6c0-0.4,0.1-0.8,0.4-1c0.3-0.2,0.6-0.4,1-0.4c0.4,0,0.7,0.1,1,0.4
			c0.3,0.2,0.4,0.6,0.4,1v17.3c0,0.4-0.1,0.8-0.4,1c-0.3,0.2-0.6,0.3-1,0.3C154.6,94.3,154.3,94.1,154,93.9z"/>
		<path d="M160.8,93.9c-0.3-0.2-0.4-0.6-0.4-1V75.6c0-0.4,0.1-0.8,0.4-1c0.3-0.2,0.6-0.4,1-0.4c0.4,0,0.7,0.1,1,0.4
			c0.3,0.2,0.4,0.6,0.4,1v17.3c0,0.4-0.1,0.8-0.4,1c-0.3,0.2-0.6,0.3-1,0.3C161.4,94.3,161.1,94.1,160.8,93.9z"/>
		<path d="M177.4,93.8c-1.3-0.4-2.3-0.9-3.1-1.6c-0.4-0.3-0.5-0.7-0.5-1.1c0-0.3,0.1-0.6,0.3-0.9c0.2-0.2,0.4-0.3,0.7-0.3
			s0.6,0.1,1,0.4c1.7,1.2,3.6,1.8,5.7,1.8c1.5,0,2.6-0.3,3.4-0.8c0.8-0.6,1.2-1.4,1.2-2.4c0-0.8-0.4-1.4-1.1-1.8
			c-0.7-0.4-1.9-0.8-3.6-1.2c-1.6-0.3-2.9-0.7-3.9-1.1c-1-0.4-1.8-1-2.4-1.8s-0.9-1.7-0.9-2.8s0.3-2.2,0.9-3
			c0.6-0.9,1.5-1.6,2.6-2.1c1.1-0.5,2.4-0.7,3.8-0.7c1.3,0,2.5,0.2,3.7,0.6c1.1,0.4,2.1,0.9,2.9,1.7c0.4,0.3,0.6,0.7,0.6,1.1
			c0,0.3-0.1,0.6-0.3,0.8c-0.2,0.2-0.4,0.4-0.7,0.4c-0.2,0-0.6-0.1-0.9-0.4c-0.9-0.7-1.7-1.1-2.4-1.4c-0.8-0.3-1.7-0.4-2.7-0.4
			c-1.4,0-2.6,0.3-3.4,0.9s-1.2,1.4-1.2,2.5c0,0.9,0.4,1.6,1.1,2c0.7,0.5,1.8,0.9,3.4,1.2c1.6,0.4,3,0.8,4,1.2c1,0.4,1.8,1,2.4,1.7
			c0.6,0.7,0.9,1.6,0.9,2.7c0,1.1-0.3,2.1-0.9,3c-0.6,0.9-1.5,1.5-2.6,2c-1.1,0.5-2.4,0.7-3.9,0.7C180,94.3,178.7,94.1,177.4,93.8z"
			/>
		<path d="M192.9,93.9c-0.3-0.3-0.4-0.6-0.4-1.1v-17c0-0.4,0.1-0.8,0.4-1s0.6-0.4,1-0.4h6.7c2.1,0,3.7,0.5,4.9,1.5
			c1.2,1,1.7,2.5,1.7,4.4c0,1.9-0.6,3.3-1.7,4.4s-2.8,1.6-4.9,1.6h-5.3v6.6c0,0.4-0.1,0.8-0.4,1.1s-0.6,0.4-1.1,0.4
			C193.5,94.3,193.1,94.1,192.9,93.9z M204.5,80.3c0-2.4-1.4-3.6-4.1-3.6h-5v7.2h5C203.1,83.9,204.5,82.7,204.5,80.3z"/>
		<path d="M211.1,93.9c-0.3-0.3-0.4-0.6-0.4-1.1V75.7c0-0.4,0.1-0.8,0.4-1.1c0.3-0.3,0.6-0.4,1-0.4c0.4,0,0.8,0.1,1.1,0.4
			c0.3,0.3,0.4,0.6,0.4,1.1v17.1c0,0.4-0.1,0.8-0.4,1.1s-0.6,0.4-1.1,0.4C211.7,94.3,211.4,94.1,211.1,93.9z"/>
		<path d="M244.1,74.6c0.3,0.3,0.4,0.6,0.4,1.1v17.2c0,0.4-0.1,0.8-0.3,1c-0.2,0.2-0.6,0.4-1,0.4c-0.4,0-0.7-0.1-0.9-0.4
			c-0.2-0.2-0.3-0.6-0.3-1v-13l-5.5,10.4c-0.4,0.7-0.8,1-1.4,1c-0.6,0-1-0.3-1.4-1L228.2,80v12.9c0,0.4-0.1,0.8-0.3,1
			c-0.2,0.2-0.5,0.4-1,0.4c-0.4,0-0.7-0.1-0.9-0.4c-0.2-0.3-0.3-0.6-0.3-1V75.7c0-0.4,0.1-0.8,0.4-1.1c0.3-0.3,0.6-0.4,1-0.4
			c0.6,0,1,0.3,1.4,1l6.7,12.8l6.6-12.8c0.4-0.7,0.8-1,1.4-1C243.5,74.2,243.9,74.4,244.1,74.6z"/>
		<path d="M248.9,77c-0.3-0.3-0.5-0.7-0.5-1.2c0-0.5,0.2-0.9,0.5-1.2c0.3-0.3,0.7-0.4,1.3-0.4c0.5,0,0.9,0.1,1.3,0.4
			c0.3,0.3,0.5,0.7,0.5,1.2c0,0.5-0.2,0.9-0.5,1.2c-0.3,0.3-0.7,0.4-1.3,0.4S249.3,77.3,248.9,77z M249.2,93.9
			c-0.3-0.2-0.4-0.6-0.4-1V81.5c0-0.4,0.1-0.8,0.4-1c0.3-0.2,0.6-0.3,1-0.3c0.4,0,0.7,0.1,1,0.3c0.3,0.2,0.4,0.6,0.4,1v11.4
			c0,0.4-0.1,0.8-0.4,1c-0.3,0.2-0.6,0.3-1,0.3C249.8,94.3,249.5,94.1,249.2,93.9z"/>
		<path d="M264.1,81.3c0,0.4-0.1,0.7-0.3,0.9c-0.2,0.2-0.6,0.3-1.1,0.4l-0.8,0.1c-1.2,0.1-2,0.5-2.6,1.2s-0.9,1.6-0.9,2.6v6.4
			c0,0.4-0.1,0.8-0.4,1c-0.3,0.2-0.6,0.3-1,0.3c-0.4,0-0.8-0.1-1-0.3c-0.3-0.2-0.4-0.6-0.4-1V81.5c0-0.4,0.1-0.8,0.4-1
			c0.3-0.2,0.6-0.3,1-0.3c0.4,0,0.7,0.1,0.9,0.3c0.3,0.2,0.4,0.6,0.4,1v1.3c0.4-0.8,0.9-1.4,1.6-1.9c0.7-0.4,1.5-0.7,2.4-0.8l0.4,0
			C263.6,80.1,264.1,80.5,264.1,81.3z"/>
		<path d="M266,77c-0.3-0.3-0.5-0.7-0.5-1.2c0-0.5,0.2-0.9,0.5-1.2c0.3-0.3,0.7-0.4,1.3-0.4c0.5,0,0.9,0.1,1.3,0.4
			c0.3,0.3,0.5,0.7,0.5,1.2c0,0.5-0.2,0.9-0.5,1.2c-0.3,0.3-0.7,0.4-1.3,0.4S266.3,77.3,266,77z M266.2,93.9c-0.3-0.2-0.4-0.6-0.4-1
			V81.5c0-0.4,0.1-0.8,0.4-1c0.3-0.2,0.6-0.3,1-0.3c0.4,0,0.7,0.1,1,0.3c0.3,0.2,0.4,0.6,0.4,1v11.4c0,0.4-0.1,0.8-0.4,1
			c-0.3,0.2-0.6,0.3-1,0.3C266.8,94.3,266.5,94.1,266.2,93.9z"/>
		<path d="M280.7,93.7c-0.3-0.3-0.4-0.6-0.4-1V75.8c0-0.4,0.1-0.8,0.4-1s0.6-0.4,1-0.4h5.5c3.2,0,5.7,0.9,7.4,2.6
			c1.8,1.7,2.6,4.1,2.6,7.3c0,3.1-0.9,5.6-2.6,7.3s-4.2,2.6-7.4,2.6h-5.5C281.3,94.1,281,94,280.7,93.7z M294.4,84.2
			c0-5-2.4-7.4-7.3-7.4h-3.9v14.9h3.9C291.9,91.7,294.4,89.2,294.4,84.2z"/>
		<path d="M301,77c-0.3-0.3-0.5-0.7-0.5-1.2c0-0.5,0.2-0.9,0.5-1.2c0.3-0.3,0.7-0.4,1.3-0.4c0.5,0,0.9,0.1,1.3,0.4
			c0.3,0.3,0.5,0.7,0.5,1.2c0,0.5-0.2,0.9-0.5,1.2c-0.3,0.3-0.7,0.4-1.3,0.4S301.3,77.3,301,77z M301.3,93.9c-0.3-0.2-0.4-0.6-0.4-1
			V81.5c0-0.4,0.1-0.8,0.4-1c0.3-0.2,0.6-0.3,1-0.3c0.4,0,0.7,0.1,1,0.3c0.3,0.2,0.4,0.6,0.4,1v11.4c0,0.4-0.1,0.8-0.4,1
			c-0.3,0.2-0.6,0.3-1,0.3C301.9,94.3,301.6,94.1,301.3,93.9z"/>
		<path d="M317.9,80.4c0.2-0.1,0.4-0.2,0.7-0.2c0.4,0,0.7,0.1,0.9,0.4s0.4,0.5,0.4,0.9c0,0.2,0,0.4-0.1,0.5l-5.3,11.3
			c-0.1,0.3-0.3,0.5-0.6,0.7s-0.6,0.2-0.9,0.2c-0.3,0-0.6-0.1-0.9-0.2s-0.5-0.4-0.6-0.7L306.2,82c-0.1-0.1-0.1-0.3-0.1-0.5
			c0-0.3,0.1-0.6,0.4-0.9c0.3-0.2,0.6-0.4,1-0.4c0.5,0,0.9,0.3,1.2,0.8l4.3,9.6l4.3-9.6C317.5,80.7,317.6,80.5,317.9,80.4z"/>
		<path d="M322.8,77c-0.3-0.3-0.5-0.7-0.5-1.2c0-0.5,0.2-0.9,0.5-1.2c0.3-0.3,0.7-0.4,1.3-0.4c0.5,0,0.9,0.1,1.3,0.4
			c0.3,0.3,0.5,0.7,0.5,1.2c0,0.5-0.2,0.9-0.5,1.2c-0.3,0.3-0.7,0.4-1.3,0.4S323.1,77.3,322.8,77z M323,93.9c-0.3-0.2-0.4-0.6-0.4-1
			V81.5c0-0.4,0.1-0.8,0.4-1c0.3-0.2,0.6-0.3,1-0.3c0.4,0,0.7,0.1,1,0.3c0.3,0.2,0.4,0.6,0.4,1v11.4c0,0.4-0.1,0.8-0.4,1
			c-0.3,0.2-0.6,0.3-1,0.3C323.6,94.3,323.3,94.1,323,93.9z"/>
		<path d="M329.5,93.1c-0.3-0.2-0.6-0.4-0.7-0.6s-0.2-0.5-0.2-0.8c0-0.3,0.1-0.6,0.3-0.8c0.2-0.2,0.4-0.3,0.6-0.3
			c0.2,0,0.6,0.1,1.1,0.4c0.6,0.3,1.1,0.5,1.6,0.7c0.5,0.2,1.2,0.3,2,0.3c0.9,0,1.6-0.2,2.1-0.5s0.8-0.8,0.8-1.3
			c0-0.4-0.1-0.7-0.3-0.9c-0.2-0.2-0.5-0.4-1-0.6c-0.5-0.2-1.2-0.4-2.2-0.6c-1.6-0.4-2.8-0.8-3.5-1.4c-0.7-0.6-1.1-1.4-1.1-2.5
			c0-0.8,0.2-1.5,0.7-2.2c0.5-0.6,1.1-1.1,1.9-1.5c0.8-0.4,1.8-0.5,2.8-0.5c0.7,0,1.5,0.1,2.2,0.3c0.7,0.2,1.3,0.5,1.9,0.9
			c0.6,0.4,0.9,0.9,0.9,1.4c0,0.3-0.1,0.6-0.3,0.8c-0.2,0.2-0.4,0.3-0.6,0.3c-0.2,0-0.3,0-0.5-0.1c-0.2-0.1-0.4-0.2-0.7-0.4
			c-0.5-0.3-1-0.5-1.4-0.7s-1-0.3-1.6-0.3c-0.8,0-1.4,0.2-1.9,0.5c-0.5,0.3-0.7,0.8-0.7,1.4c0,0.5,0.2,0.9,0.7,1.2s1.3,0.6,2.5,0.8
			c1.3,0.3,2.2,0.6,2.9,0.9c0.7,0.3,1.2,0.8,1.5,1.2c0.3,0.5,0.5,1.1,0.5,1.9c0,1.2-0.5,2.2-1.5,2.9c-1,0.7-2.4,1.1-4.1,1.1
			C332.3,94.3,330.7,93.9,329.5,93.1z"/>
		<path d="M343,77c-0.3-0.3-0.5-0.7-0.5-1.2c0-0.5,0.2-0.9,0.5-1.2c0.3-0.3,0.7-0.4,1.3-0.4c0.5,0,0.9,0.1,1.3,0.4
			c0.3,0.3,0.5,0.7,0.5,1.2c0,0.5-0.2,0.9-0.5,1.2c-0.3,0.3-0.7,0.4-1.3,0.4S343.4,77.3,343,77z M343.3,93.9c-0.3-0.2-0.4-0.6-0.4-1
			V81.5c0-0.4,0.1-0.8,0.4-1c0.3-0.2,0.6-0.3,1-0.3c0.4,0,0.7,0.1,1,0.3c0.3,0.2,0.4,0.6,0.4,1v11.4c0,0.4-0.1,0.8-0.4,1
			c-0.3,0.2-0.6,0.3-1,0.3C343.9,94.3,343.6,94.1,343.3,93.9z"/>
		<path d="M352.1,93.4c-1-0.6-1.8-1.4-2.4-2.5c-0.6-1.1-0.8-2.3-0.8-3.7c0-1.4,0.3-2.7,0.8-3.8s1.3-1.9,2.4-2.5s2.2-0.9,3.5-0.9
			c1.3,0,2.5,0.3,3.5,0.9c1,0.6,1.8,1.4,2.4,2.5s0.8,2.3,0.8,3.8c0,1.4-0.3,2.7-0.8,3.7c-0.6,1.1-1.3,1.9-2.4,2.5
			c-1,0.6-2.2,0.9-3.5,0.9C354.3,94.3,353.1,94,352.1,93.4z M358.5,90.8c0.7-0.8,1-2,1-3.6c0-1.6-0.3-2.8-1-3.6s-1.6-1.2-2.9-1.2
			c-1.2,0-2.2,0.4-2.9,1.2s-1,2-1,3.6c0,1.6,0.3,2.8,1,3.6c0.7,0.8,1.6,1.2,2.9,1.2C356.9,92.1,357.8,91.7,358.5,90.8z"/>
		<path d="M377.7,85.6v7.3c0,0.4-0.1,0.8-0.4,1c-0.3,0.2-0.6,0.4-1,0.4c-0.4,0-0.8-0.1-1-0.4c-0.3-0.2-0.4-0.6-0.4-1v-7.1
			c0-1.2-0.2-2-0.7-2.5c-0.5-0.5-1.2-0.8-2.1-0.8c-1.1,0-2.1,0.4-2.7,1.1c-0.7,0.7-1,1.7-1,2.9v6.6c0,0.4-0.1,0.7-0.4,1
			c-0.3,0.2-0.6,0.4-1,0.4s-0.8-0.1-1-0.4c-0.3-0.2-0.4-0.6-0.4-1V81.5c0-0.4,0.1-0.7,0.4-1c0.3-0.3,0.6-0.4,1-0.4
			c0.4,0,0.7,0.1,1,0.4c0.2,0.2,0.4,0.6,0.4,1v1.1c0.4-0.8,1.1-1.4,1.9-1.9c0.8-0.4,1.7-0.6,2.7-0.6C376.1,80.1,377.7,82,377.7,85.6
			z"/>
	</g>
	<g>
		<path d="M90.4,111.8c1.5,1.8,2.3,4.4,2.3,7.8c0,2.3-0.4,4.2-1.1,5.9s-1.7,3-3,3.9c-1.3,0.9-2.8,1.4-4.6,1.4
			c-1.1,0-2.3-0.2-3.5-0.6c-1.2-0.4-2.1-0.9-3-1.6c-0.3-0.2-0.5-0.5-0.6-0.7c-0.1-0.2-0.2-0.6-0.2-0.9c0-0.5,0.1-1,0.4-1.3
			c0.3-0.4,0.6-0.6,1.1-0.6c0.3,0,0.5,0,0.7,0.1c0.2,0.1,0.4,0.2,0.8,0.4c0.8,0.5,1.5,0.9,2.1,1.1s1.3,0.4,1.9,0.4
			c1.2,0,2.2-0.6,3-1.7c0.7-1.1,1.1-2.7,1.2-4.8c-0.5,0.8-1.1,1.4-2,1.8s-1.8,0.7-2.8,0.7c-1.2,0-2.3-0.3-3.3-0.9s-1.7-1.4-2.3-2.4
			c-0.6-1-0.8-2.2-0.8-3.5c0-1.4,0.3-2.6,0.9-3.7c0.6-1.1,1.5-1.9,2.6-2.5c1.1-0.6,2.3-0.9,3.7-0.9C86.8,109.1,88.9,110,90.4,111.8z
			 M86.6,118.5c0.6-0.6,0.9-1.4,0.9-2.4s-0.3-1.8-0.9-2.4c-0.6-0.6-1.3-0.9-2.3-0.9s-1.7,0.3-2.3,0.9c-0.6,0.6-0.9,1.4-0.9,2.5
			c0,1,0.3,1.8,0.9,2.4c0.6,0.6,1.3,0.9,2.3,0.9S86,119.2,86.6,118.5z"/>
		<path d="M110.3,109.9c0.3,0.4,0.5,0.8,0.5,1.4c0,0.6-0.2,1.2-0.5,1.7l-9.4,16.6c-0.2,0.4-0.5,0.7-0.9,0.9
			c-0.4,0.2-0.7,0.3-1.1,0.3c-0.6,0-1.1-0.2-1.6-0.6c-0.5-0.4-0.7-0.9-0.7-1.5c0-0.4,0.1-0.8,0.3-1.2l8.2-14.3h-8.3
			c-1.5,0-2.2-0.6-2.2-1.9c0-1.3,0.7-1.9,2.2-1.9h11.9C109.4,109.4,109.9,109.5,110.3,109.9z"/>
		<path d="M113.8,130c-0.5-0.5-0.7-1.1-0.7-1.8c0-0.7,0.2-1.4,0.7-1.8c0.5-0.5,1.1-0.7,1.8-0.7c0.7,0,1.4,0.2,1.8,0.7
			c0.5,0.5,0.7,1.1,0.7,1.8c0,0.7-0.2,1.4-0.7,1.8c-0.5,0.5-1.1,0.7-1.8,0.7C114.9,130.7,114.3,130.4,113.8,130z"/>
		<path d="M134.2,111.8c1.5,1.8,2.2,4.4,2.2,7.8c0,2.3-0.3,4.2-1,5.9s-1.7,3-3,3.9c-1.3,0.9-2.8,1.4-4.6,1.4c-1.1,0-2.3-0.2-3.5-0.6
			c-1.2-0.4-2.1-0.9-3-1.6c-0.3-0.2-0.5-0.5-0.6-0.7c-0.1-0.2-0.2-0.6-0.2-0.9c0-0.5,0.1-1,0.4-1.3c0.3-0.4,0.6-0.6,1.1-0.6
			c0.3,0,0.5,0,0.7,0.1c0.2,0.1,0.4,0.2,0.8,0.4c0.8,0.5,1.5,0.9,2.1,1.1s1.3,0.4,1.9,0.4c1.2,0,2.2-0.6,3-1.7
			c0.7-1.1,1.1-2.7,1.2-4.8c-0.5,0.8-1.1,1.4-2,1.8s-1.8,0.7-2.8,0.7c-1.2,0-2.3-0.3-3.3-0.9s-1.7-1.4-2.3-2.4
			c-0.6-1-0.8-2.2-0.8-3.5c0-1.4,0.3-2.6,0.9-3.7c0.6-1.1,1.5-1.9,2.6-2.5c1.1-0.6,2.3-0.9,3.7-0.9
			C130.6,109.1,132.7,110,134.2,111.8z M130.4,118.5c0.6-0.6,0.9-1.4,0.9-2.4s-0.3-1.8-0.9-2.4c-0.6-0.6-1.3-0.9-2.3-0.9
			s-1.7,0.3-2.3,0.9c-0.6,0.6-0.9,1.4-0.9,2.5c0,1,0.3,1.8,0.9,2.4c0.6,0.6,1.3,0.9,2.3,0.9S129.8,119.2,130.4,118.5z"/>
		<path d="M140.7,128c-1.3-1.9-2-4.5-2-8.1c0-3.5,0.7-6.2,2-8c1.4-1.9,3.3-2.8,5.9-2.8c2.6,0,4.5,0.9,5.9,2.8c1.3,1.9,2,4.5,2,8
			c0,3.5-0.7,6.2-2,8.1c-1.4,1.9-3.3,2.8-5.9,2.8C144,130.8,142,129.9,140.7,128z M149.1,125.5c0.5-1.2,0.8-3,0.8-5.5
			c0-2.6-0.3-4.4-0.8-5.6c-0.5-1.1-1.4-1.7-2.5-1.7s-2,0.6-2.5,1.7c-0.5,1.2-0.8,3-0.8,5.5s0.3,4.4,0.8,5.5c0.5,1.2,1.4,1.7,2.5,1.7
			S148.6,126.6,149.1,125.5z"/>
	</g>
	<g>
		<path d="M159.7,133.6c-0.7-0.2-1.3-0.5-1.8-0.9c-0.2-0.2-0.4-0.4-0.4-0.8c0-0.2,0.1-0.4,0.2-0.6s0.3-0.2,0.5-0.2
			c0.2,0,0.4,0.1,0.7,0.2c0.5,0.3,0.9,0.6,1.4,0.7c0.5,0.1,1.1,0.2,1.7,0.2c0.8,0,1.4-0.1,1.8-0.4s0.6-0.7,0.6-1.2
			c0-0.4-0.2-0.7-0.6-0.9c-0.4-0.2-1-0.4-1.9-0.6c-0.9-0.2-1.7-0.4-2.3-0.7s-1-0.6-1.3-1s-0.4-0.9-0.4-1.6c0-0.7,0.2-1.3,0.6-1.8
			c0.4-0.5,0.9-0.9,1.6-1.2c0.7-0.3,1.4-0.4,2.2-0.4c1.5,0,2.8,0.4,3.7,1.2c0.1,0.1,0.2,0.2,0.3,0.3c0.1,0.1,0.1,0.3,0.1,0.4
			c0,0.2-0.1,0.4-0.2,0.6c-0.1,0.2-0.3,0.2-0.5,0.2c-0.1,0-0.2,0-0.3,0c-0.1,0-0.2-0.1-0.4-0.2c-0.4-0.3-0.9-0.6-1.3-0.7
			c-0.4-0.2-0.9-0.2-1.5-0.2c-0.7,0-1.3,0.1-1.7,0.4c-0.4,0.3-0.6,0.7-0.6,1.2c0,0.4,0.2,0.8,0.6,1c0.4,0.2,1,0.5,1.9,0.7
			c0.9,0.2,1.7,0.5,2.3,0.7c0.6,0.3,1,0.6,1.4,1s0.5,0.9,0.5,1.5c0,0.7-0.2,1.2-0.6,1.8s-0.9,0.9-1.6,1.2c-0.7,0.3-1.4,0.4-2.3,0.4
			C161.2,134,160.5,133.8,159.7,133.6z"/>
		<path d="M169.8,133.6c-0.2-0.2-0.3-0.4-0.3-0.8v-9.4c0-0.3,0.1-0.5,0.3-0.7c0.2-0.2,0.4-0.3,0.7-0.3h3.9c1.2,0,2.1,0.3,2.8,0.9
			s1,1.4,1,2.5c0,1.1-0.3,1.9-1,2.5s-1.6,0.9-2.8,0.9h-2.9v3.4c0,0.3-0.1,0.6-0.3,0.8s-0.4,0.3-0.8,0.3
			C170.3,133.9,170,133.8,169.8,133.6z M176.4,126c0-1.2-0.7-1.9-2.1-1.9h-2.6v3.7h2.6C175.6,127.8,176.4,127.2,176.4,126z"/>
		<path d="M181.6,133.6c-0.2-0.2-0.3-0.4-0.3-0.8v-9.4c0-0.3,0.1-0.6,0.3-0.7c0.2-0.2,0.4-0.3,0.7-0.3c0.3,0,0.6,0.1,0.8,0.3
			c0.2,0.2,0.3,0.4,0.3,0.7v9.4c0,0.3-0.1,0.6-0.3,0.8s-0.4,0.3-0.8,0.3C182,133.9,181.8,133.8,181.6,133.6z"/>
	</g>
</g>
</svg>
