<?xml version="1.0" encoding="utf-8"?>
<!-- Generator: Adobe Illustrator 23.0.5, SVG Export Plug-In . SVG Version: 6.00 Build 0)  -->
<svg version="1.1" id="Layer_1" xmlns="http://www.w3.org/2000/svg" xmlns:xlink="http://www.w3.org/1999/xlink" x="0px" y="0px"
	 viewBox="0 0 1271 760" style="enable-background:new 0 0 1271 760;" xml:space="preserve">
<style type="text/css">
	.st0{fill:#FDFDFD;stroke:#FDFDFD;stroke-width:9.375000e-02;}
	.st1{fill:#595959;}
	.st2{fill:none;stroke:#D8D8D8;}
	.st3{fill:#C00000;}
	.st4{fill:#00AF50;}
	.st5{fill:#FFC000;}
	.st6{fill:#FE0000;}
</style>
<path class="st0" d="M151.7,171.9c0.7,0.3,2,0.9,2.6,1.3c0,2-0.4,4.1-2.4,5.2C150.9,176.3,150.9,174,151.7,171.9z"/>
<g>
	<path d="M368.7,57c-1.6-0.9-2.9-2.3-3.7-4c-0.9-1.7-1.3-3.8-1.3-6.1s0.4-4.4,1.3-6.1c0.9-1.7,2.1-3.1,3.7-4
		c1.6-0.9,3.5-1.4,5.7-1.4c2.2,0,4.1,0.5,5.7,1.4c1.6,0.9,2.8,2.3,3.7,4c0.9,1.7,1.3,3.8,1.3,6.1s-0.4,4.4-1.3,6.1
		c-0.9,1.7-2.1,3.1-3.7,4c-1.6,0.9-3.5,1.4-5.7,1.4C372.2,58.4,370.3,57.9,368.7,57z M379.3,52.9c1.2-1.4,1.7-3.5,1.7-6.1
		c0-2.7-0.6-4.7-1.7-6.1c-1.2-1.4-2.8-2.1-4.8-2.1c-2.1,0-3.7,0.7-4.9,2.1c-1.2,1.4-1.7,3.5-1.7,6.1c0,2.7,0.6,4.7,1.7,6.1
		c1.2,1.4,2.8,2.1,4.9,2.1C376.5,55.1,378.1,54.4,379.3,52.9z"/>
	<path d="M400.6,42.4c0.3-0.2,0.6-0.3,0.9-0.3c0.5,0,0.9,0.2,1.3,0.5c0.4,0.3,0.6,0.7,0.6,1.2c0,0.3-0.1,0.5-0.2,0.8L397.3,57
		c-0.2,0.4-0.5,0.7-0.8,0.9c-0.4,0.2-0.7,0.3-1.2,0.3c-0.4,0-0.8-0.1-1.2-0.3c-0.4-0.2-0.7-0.5-0.8-0.9l-6-12.4
		c-0.1-0.2-0.2-0.5-0.2-0.7c0-0.5,0.2-0.9,0.6-1.2c0.4-0.3,0.9-0.5,1.4-0.5c0.8,0,1.3,0.4,1.7,1.1l4.5,9.9l4.4-9.9
		C400,42.9,400.3,42.6,400.6,42.4z"/>
	<path d="M418.8,54.2c0.2,0.3,0.3,0.7,0.3,1.1c0,0.7-0.4,1.2-1.2,1.7c-0.7,0.4-1.5,0.7-2.5,1c-0.9,0.2-1.8,0.4-2.6,0.4
		c-2.5,0-4.5-0.7-6-2.2c-1.5-1.5-2.2-3.4-2.2-6c0-1.6,0.3-3,1-4.3c0.6-1.2,1.5-2.2,2.7-2.9c1.2-0.7,2.5-1,4-1c1.4,0,2.6,0.3,3.7,0.9
		c1,0.6,1.9,1.5,2.4,2.6c0.6,1.1,0.9,2.5,0.9,4c0,0.9-0.4,1.4-1.2,1.4h-9.4c0.1,1.5,0.5,2.6,1.2,3.2c0.7,0.7,1.7,1,3.1,1
		c0.7,0,1.3-0.1,1.8-0.3s1.1-0.4,1.8-0.7c0.6-0.3,1.1-0.5,1.4-0.5C418.3,53.8,418.6,53.9,418.8,54.2z M409.8,45.9
		c-0.7,0.7-1,1.7-1.2,2.9h7.2c0-1.3-0.4-2.3-1-3s-1.4-1-2.5-1C411.3,44.9,410.4,45.2,409.8,45.9z"/>
	<path d="M432.6,42.5c0.3,0.3,0.5,0.7,0.5,1.2c0,0.6-0.1,1-0.4,1.3s-0.8,0.5-1.5,0.5l-1,0.1c-1.3,0.1-2.2,0.6-2.8,1.3
		c-0.6,0.7-0.9,1.6-0.9,2.7v6.7c0,0.6-0.2,1.1-0.6,1.4c-0.4,0.3-0.9,0.5-1.4,0.5s-1.1-0.2-1.4-0.5c-0.4-0.3-0.6-0.8-0.6-1.4V44
		c0-0.6,0.2-1.1,0.6-1.4c0.4-0.3,0.8-0.5,1.4-0.5c0.6,0,1,0.2,1.3,0.5c0.3,0.3,0.5,0.8,0.5,1.3v1.3c0.4-0.9,1-1.7,1.8-2.2
		c0.8-0.5,1.7-0.8,2.7-0.9l0.4,0C431.8,42.1,432.3,42.2,432.6,42.5z"/>
	<path d="M446.4,43.7c1.1,1.1,1.6,2.7,1.6,4.9v7.8c0,0.6-0.2,1-0.5,1.4c-0.3,0.3-0.8,0.5-1.4,0.5c-0.6,0-1-0.2-1.4-0.5
		c-0.4-0.3-0.5-0.8-0.5-1.3v-0.7c-0.4,0.8-0.9,1.5-1.7,2c-0.8,0.5-1.7,0.7-2.7,0.7c-1,0-2-0.2-2.8-0.6c-0.9-0.4-1.5-1-2-1.8
		c-0.5-0.7-0.7-1.6-0.7-2.5c0-1.2,0.3-2.1,0.9-2.7c0.6-0.7,1.5-1.1,2.9-1.4s3.1-0.4,5.5-0.4h0.8v-0.7c0-1-0.2-1.8-0.7-2.3
		c-0.4-0.5-1.2-0.7-2.2-0.7c-0.6,0-1.2,0.1-1.9,0.3c-0.6,0.2-1.4,0.4-2.3,0.8c-0.6,0.3-1,0.4-1.2,0.4c-0.4,0-0.7-0.1-0.9-0.4
		c-0.2-0.3-0.4-0.6-0.4-1.1c0-0.4,0.1-0.7,0.3-0.9c0.2-0.3,0.5-0.5,0.9-0.8c0.7-0.4,1.6-0.7,2.7-1c1-0.2,2.1-0.4,3.1-0.4
		C443.7,42.1,445.3,42.6,446.4,43.7z M443.1,54.4c0.7-0.7,1-1.6,1-2.8V51h-0.6c-1.4,0-2.5,0.1-3.3,0.2c-0.8,0.1-1.4,0.4-1.7,0.7
		c-0.3,0.3-0.5,0.8-0.5,1.3c0,0.7,0.2,1.2,0.7,1.7c0.5,0.4,1.1,0.7,1.8,0.7C441.6,55.5,442.5,55.1,443.1,54.4z"/>
	<path d="M452.6,57.8c-0.4-0.3-0.6-0.8-0.6-1.4V37.3c0-0.6,0.2-1.1,0.6-1.4c0.4-0.3,0.8-0.5,1.4-0.5s1.1,0.2,1.4,0.5
		c0.4,0.3,0.6,0.8,0.6,1.4v19.1c0,0.6-0.2,1.1-0.6,1.4c-0.4,0.3-0.9,0.5-1.4,0.5S452.9,58.1,452.6,57.8z"/>
	<path d="M460.7,57.8c-0.4-0.3-0.6-0.8-0.6-1.4V37.3c0-0.6,0.2-1.1,0.6-1.4c0.4-0.3,0.8-0.5,1.4-0.5s1.1,0.2,1.4,0.5
		c0.4,0.3,0.6,0.8,0.6,1.4v19.1c0,0.6-0.2,1.1-0.6,1.4c-0.4,0.3-0.9,0.5-1.4,0.5S461.1,58.1,460.7,57.8z"/>
	<path d="M477.8,57.7c-0.4-0.4-0.6-0.9-0.6-1.5V37.4c0-0.6,0.2-1.1,0.6-1.5c0.4-0.4,0.9-0.6,1.5-0.6c0.6,0,1.1,0.2,1.5,0.6
		c0.4,0.4,0.6,0.9,0.6,1.5v18.8c0,0.6-0.2,1.1-0.6,1.5c-0.4,0.4-0.9,0.6-1.5,0.6C478.7,58.3,478.2,58.1,477.8,57.7z"/>
	<path d="M504.7,56.6c0,0.5-0.2,0.9-0.6,1.2c-0.4,0.3-0.9,0.5-1.4,0.5c-0.3,0-0.7-0.1-1-0.2c-0.3-0.2-0.6-0.4-0.8-0.7l-4.3-6.5
		c-0.4-0.7-0.9-1.2-1.4-1.4c-0.5-0.3-1.1-0.4-1.9-0.4h-3.1v7.2c0,0.6-0.2,1.1-0.5,1.5c-0.4,0.4-0.9,0.6-1.5,0.6
		c-0.6,0-1.1-0.2-1.5-0.6c-0.4-0.4-0.6-0.9-0.6-1.5V37.5c0-0.6,0.2-1.1,0.5-1.4s0.8-0.5,1.5-0.5h8c2.6,0,4.5,0.6,5.8,1.7
		c1.3,1.1,2,2.8,2,4.9c0,1.7-0.5,3.2-1.5,4.3c-1,1.1-2.4,1.8-4.2,2.2c0.6,0.1,1.2,0.4,1.6,0.8c0.5,0.4,0.9,0.9,1.4,1.6l2.9,4.4
		C504.6,55.9,504.7,56.3,504.7,56.6z M499.1,45c0.7-0.6,1.1-1.5,1.1-2.7c0-1.2-0.4-2.1-1.1-2.7c-0.7-0.6-1.9-0.8-3.4-0.8h-5.4v7.1
		h5.4C497.2,45.9,498.4,45.6,499.1,45z"/>
	<path d="M509.1,57.7c-0.4-0.4-0.6-0.9-0.6-1.5V37.4c0-0.6,0.2-1.1,0.6-1.5c0.4-0.4,0.9-0.6,1.5-0.6c0.6,0,1.1,0.2,1.5,0.6
		c0.4,0.4,0.6,0.9,0.6,1.5v18.8c0,0.6-0.2,1.1-0.6,1.5c-0.4,0.4-0.9,0.6-1.5,0.6C509.9,58.3,509.4,58.1,509.1,57.7z"/>
	<path d="M537.5,43.7c1.1,1.1,1.6,2.7,1.6,4.9v7.8c0,0.6-0.2,1-0.5,1.4c-0.3,0.3-0.8,0.5-1.4,0.5c-0.6,0-1-0.2-1.4-0.5
		c-0.4-0.3-0.5-0.8-0.5-1.3v-0.7c-0.4,0.8-0.9,1.5-1.7,2c-0.8,0.5-1.7,0.7-2.7,0.7c-1,0-2-0.2-2.8-0.6c-0.9-0.4-1.5-1-2-1.8
		c-0.5-0.7-0.7-1.6-0.7-2.5c0-1.2,0.3-2.1,0.9-2.7c0.6-0.7,1.5-1.1,2.9-1.4s3.1-0.4,5.5-0.4h0.8v-0.7c0-1-0.2-1.8-0.7-2.3
		c-0.4-0.5-1.2-0.7-2.2-0.7c-0.6,0-1.2,0.1-1.9,0.3c-0.6,0.2-1.4,0.4-2.3,0.8c-0.6,0.3-1,0.4-1.2,0.4c-0.4,0-0.7-0.1-0.9-0.4
		c-0.2-0.3-0.4-0.6-0.4-1.1c0-0.4,0.1-0.7,0.3-0.9c0.2-0.3,0.5-0.5,0.9-0.8c0.7-0.4,1.6-0.7,2.7-1c1-0.2,2.1-0.4,3.1-0.4
		C534.8,42.1,536.4,42.6,537.5,43.7z M534.2,54.4c0.7-0.7,1-1.6,1-2.8V51h-0.6c-1.4,0-2.5,0.1-3.3,0.2c-0.8,0.1-1.4,0.4-1.7,0.7
		c-0.3,0.3-0.5,0.8-0.5,1.3c0,0.7,0.2,1.2,0.7,1.7c0.5,0.4,1.1,0.7,1.8,0.7C532.7,55.5,533.6,55.1,534.2,54.4z"/>
	<path d="M556.4,43.7c0.9,1.1,1.4,2.7,1.4,4.8v7.9c0,0.6-0.2,1.1-0.5,1.4c-0.4,0.3-0.8,0.5-1.5,0.5c-0.6,0-1.1-0.2-1.5-0.5
		c-0.4-0.3-0.5-0.8-0.5-1.4v-7.6c0-1.2-0.2-2.1-0.7-2.7c-0.5-0.6-1.2-0.8-2.2-0.8c-1.2,0-2.1,0.4-2.8,1.1c-0.7,0.7-1,1.7-1,2.9v7.1
		c0,0.6-0.2,1.1-0.5,1.4c-0.4,0.3-0.9,0.5-1.5,0.5c-0.6,0-1.1-0.2-1.5-0.5c-0.4-0.3-0.5-0.8-0.5-1.4V44c0-0.6,0.2-1,0.5-1.3
		c0.4-0.3,0.9-0.5,1.5-0.5c0.6,0,1,0.2,1.4,0.5c0.4,0.3,0.5,0.8,0.5,1.3v0.9c0.5-0.9,1.2-1.5,2.1-2c0.9-0.5,1.9-0.7,3-0.7
		C554.1,42.1,555.5,42.6,556.4,43.7z"/>
	<path d="M576.4,35.9c0.4,0.3,0.6,0.8,0.6,1.3v19.1c0,0.6-0.2,1-0.5,1.4c-0.4,0.3-0.8,0.5-1.4,0.5c-0.6,0-1.1-0.2-1.4-0.5
		c-0.4-0.3-0.5-0.8-0.5-1.4v-0.8c-0.5,0.9-1.1,1.6-2,2c-0.9,0.5-1.9,0.7-3,0.7c-1.3,0-2.5-0.3-3.6-1c-1.1-0.7-1.9-1.6-2.5-2.9
		c-0.6-1.2-0.9-2.7-0.9-4.3s0.3-3,0.9-4.3c0.6-1.2,1.4-2.2,2.4-2.8c1-0.7,2.3-1,3.6-1c1.1,0,2.1,0.2,3,0.7c0.9,0.5,1.5,1.1,2,2v-7.6
		c0-0.5,0.2-1,0.5-1.3c0.4-0.3,0.8-0.5,1.4-0.5C575.5,35.4,576,35.5,576.4,35.9z M571.9,53.9c0.7-0.9,1-2.1,1-3.7s-0.3-2.9-1-3.7
		c-0.7-0.9-1.7-1.3-2.9-1.3c-1.3,0-2.3,0.4-3,1.3c-0.7,0.9-1.1,2.1-1.1,3.7c0,1.6,0.4,2.9,1.1,3.8s1.7,1.3,2.9,1.3
		C570.2,55.2,571.2,54.8,571.9,53.9z"/>
	<path d="M608.5,56.6c0,0.5-0.2,0.9-0.6,1.2c-0.4,0.3-0.9,0.5-1.4,0.5c-0.3,0-0.7-0.1-1-0.2c-0.3-0.2-0.6-0.4-0.8-0.7l-4.3-6.5
		c-0.4-0.7-0.9-1.2-1.4-1.4c-0.5-0.3-1.1-0.4-1.9-0.4h-3.1v7.2c0,0.6-0.2,1.1-0.5,1.5c-0.4,0.4-0.9,0.6-1.5,0.6
		c-0.6,0-1.1-0.2-1.5-0.6c-0.4-0.4-0.6-0.9-0.6-1.5V37.5c0-0.6,0.2-1.1,0.5-1.4s0.8-0.5,1.5-0.5h8c2.6,0,4.5,0.6,5.8,1.7
		c1.3,1.1,2,2.8,2,4.9c0,1.7-0.5,3.2-1.5,4.3c-1,1.1-2.4,1.8-4.2,2.2c0.6,0.1,1.2,0.4,1.6,0.8c0.5,0.4,0.9,0.9,1.4,1.6l2.9,4.4
		C608.4,55.9,608.5,56.3,608.5,56.6z M602.9,45c0.7-0.6,1.1-1.5,1.1-2.7c0-1.2-0.4-2.1-1.1-2.7c-0.7-0.6-1.9-0.8-3.4-0.8h-5.4v7.1
		h5.4C601,45.9,602.2,45.6,602.9,45z"/>
	<path d="M633.8,35.9c0.4,0.4,0.5,0.9,0.5,1.5v18.9c0,0.6-0.2,1.1-0.5,1.4c-0.3,0.3-0.8,0.5-1.3,0.5s-1-0.2-1.3-0.5
		c-0.3-0.3-0.5-0.8-0.5-1.4V43.2l-5.4,10.3c-0.3,0.5-0.5,0.8-0.8,1c-0.3,0.2-0.7,0.3-1.1,0.3c-0.4,0-0.8-0.1-1.1-0.3
		c-0.3-0.2-0.6-0.6-0.8-1.1L616,43.3v13c0,0.6-0.2,1-0.5,1.4c-0.3,0.4-0.8,0.5-1.3,0.5c-0.6,0-1-0.2-1.3-0.5
		c-0.3-0.3-0.5-0.8-0.5-1.4V37.4c0-0.6,0.2-1.1,0.5-1.5c0.4-0.4,0.8-0.6,1.4-0.6c0.8,0,1.5,0.5,2,1.4l7.1,13.5l7.1-13.5
		c0.5-0.9,1.1-1.4,1.9-1.4C633,35.4,633.4,35.6,633.8,35.9z"/>
	<path d="M639.8,57.7c-0.4-0.4-0.6-0.9-0.6-1.5V37.4c0-0.6,0.2-1.1,0.6-1.5c0.4-0.4,0.9-0.6,1.5-0.6c0.6,0,1.1,0.2,1.5,0.6
		c0.4,0.4,0.6,0.9,0.6,1.5v18.8c0,0.6-0.2,1.1-0.6,1.5c-0.4,0.4-0.9,0.6-1.5,0.6C640.7,58.3,640.2,58.1,639.8,57.7z"/>
	<path d="M661.3,57c-1.6-0.9-2.9-2.3-3.8-4c-0.9-1.7-1.3-3.8-1.3-6.1s0.4-4.4,1.3-6.1s2.1-3.1,3.8-4c1.6-0.9,3.5-1.4,5.7-1.4
		c1.4,0,2.7,0.2,4,0.6c1.2,0.4,2.3,1,3.3,1.8c0.3,0.2,0.5,0.4,0.6,0.7c0.1,0.2,0.2,0.5,0.2,0.9c0,0.5-0.1,0.9-0.4,1.2
		c-0.3,0.3-0.6,0.5-0.9,0.5c-0.4,0-0.9-0.1-1.3-0.4c-0.9-0.7-1.8-1.2-2.6-1.4c-0.8-0.3-1.7-0.4-2.6-0.4c-2.2,0-3.9,0.7-5,2.1
		c-1.1,1.4-1.7,3.4-1.7,6.1c0,2.7,0.6,4.8,1.7,6.1s2.8,2.1,5,2.1c0.9,0,1.8-0.1,2.5-0.4s1.7-0.7,2.6-1.4c0.2-0.1,0.4-0.2,0.6-0.3
		c0.2-0.1,0.4-0.1,0.7-0.1c0.4,0,0.7,0.2,0.9,0.5c0.3,0.3,0.4,0.7,0.4,1.2c0,0.3-0.1,0.6-0.2,0.8c-0.1,0.2-0.3,0.5-0.6,0.7
		c-1,0.8-2.1,1.4-3.3,1.8c-1.2,0.4-2.6,0.6-4,0.6C664.8,58.4,662.9,57.9,661.3,57z"/>
	<path d="M680.8,57.4c-1.2-0.7-2.1-1.6-2.8-2.8c-0.7-1.2-1-2.7-1-4.3s0.3-3.1,1-4.3c0.7-1.2,1.6-2.2,2.8-2.8c1.2-0.7,2.6-1,4.2-1
		c1.6,0,3,0.3,4.2,1c1.2,0.7,2.1,1.6,2.8,2.8c0.7,1.2,1,2.7,1,4.3s-0.3,3.1-1,4.3c-0.7,1.2-1.6,2.2-2.8,2.8s-2.6,1-4.2,1
		C683.5,58.3,682.1,58,680.8,57.4z M688,54c0.7-0.9,1-2.1,1-3.8c0-1.6-0.3-2.9-1-3.8c-0.7-0.9-1.7-1.3-2.9-1.3c-1.3,0-2.3,0.4-3,1.3
		c-0.7,0.9-1,2.1-1,3.8c0,1.7,0.3,2.9,1,3.8c0.7,0.9,1.7,1.3,2.9,1.3C686.3,55.2,687.3,54.8,688,54z"/>
	<path d="M709.6,43.7c0.9,1.1,1.4,2.7,1.4,4.8v7.9c0,0.6-0.2,1.1-0.5,1.4c-0.4,0.3-0.8,0.5-1.5,0.5c-0.6,0-1.1-0.2-1.5-0.5
		c-0.4-0.3-0.5-0.8-0.5-1.4v-7.6c0-1.2-0.2-2.1-0.7-2.7c-0.5-0.6-1.2-0.8-2.2-0.8c-1.2,0-2.1,0.4-2.8,1.1c-0.7,0.7-1,1.7-1,2.9v7.1
		c0,0.6-0.2,1.1-0.5,1.4c-0.4,0.3-0.9,0.5-1.5,0.5s-1.1-0.2-1.5-0.5c-0.4-0.3-0.5-0.8-0.5-1.4V44c0-0.6,0.2-1,0.5-1.3
		c0.4-0.3,0.9-0.5,1.5-0.5c0.6,0,1,0.2,1.4,0.5c0.4,0.3,0.5,0.8,0.5,1.3v0.9c0.5-0.9,1.2-1.5,2.1-2c0.9-0.5,1.9-0.7,3-0.7
		C707.3,42.1,708.7,42.6,709.6,43.7z"/>
	<path d="M729.6,35.9c0.4,0.3,0.6,0.8,0.6,1.3v19.1c0,0.6-0.2,1-0.5,1.4c-0.4,0.3-0.8,0.5-1.4,0.5c-0.6,0-1.1-0.2-1.4-0.5
		c-0.4-0.3-0.5-0.8-0.5-1.4v-0.8c-0.5,0.9-1.1,1.6-2,2c-0.9,0.5-1.9,0.7-3,0.7c-1.3,0-2.5-0.3-3.6-1c-1.1-0.7-1.9-1.6-2.5-2.9
		s-0.9-2.7-0.9-4.3s0.3-3,0.9-4.3c0.6-1.2,1.4-2.2,2.4-2.8c1-0.7,2.3-1,3.6-1c1.1,0,2.1,0.2,3,0.7c0.9,0.5,1.5,1.1,2,2v-7.6
		c0-0.5,0.2-1,0.5-1.3c0.4-0.3,0.8-0.5,1.4-0.5C728.7,35.4,729.2,35.5,729.6,35.9z M725.1,53.9c0.7-0.9,1-2.1,1-3.7s-0.3-2.9-1-3.7
		c-0.7-0.9-1.7-1.3-2.9-1.3c-1.3,0-2.3,0.4-3,1.3c-0.7,0.9-1.1,2.1-1.1,3.7c0,1.6,0.4,2.9,1.1,3.8s1.7,1.3,2.9,1.3
		C723.5,55.2,724.4,54.8,725.1,53.9z"/>
	<path d="M734.5,38.7c-0.4-0.4-0.6-0.9-0.6-1.6s0.2-1.2,0.6-1.5c0.4-0.4,1-0.6,1.7-0.6c0.7,0,1.3,0.2,1.7,0.6
		c0.4,0.4,0.7,0.9,0.7,1.5s-0.2,1.2-0.6,1.6c-0.4,0.4-1,0.6-1.7,0.6C735.5,39.3,735,39.1,734.5,38.7z M734.8,57.8
		c-0.4-0.3-0.6-0.8-0.6-1.4V44c0-0.6,0.2-1.1,0.6-1.4c0.4-0.3,0.8-0.5,1.4-0.5s1.1,0.2,1.4,0.5c0.4,0.3,0.6,0.8,0.6,1.4v12.4
		c0,0.6-0.2,1.1-0.6,1.4c-0.4,0.3-0.9,0.5-1.4,0.5S735.2,58.1,734.8,57.8z"/>
	<path d="M752.8,56.7c0,0.5-0.2,0.9-0.6,1.2c-0.4,0.3-1,0.4-1.8,0.3l-0.9-0.1c-3.6-0.3-5.4-2.2-5.4-5.8v-7h-1.6
		c-0.6,0-1-0.1-1.3-0.4s-0.5-0.6-0.5-1.1c0-0.5,0.2-0.9,0.5-1.1c0.3-0.3,0.8-0.4,1.3-0.4h1.6v-2.9c0-0.6,0.2-1,0.5-1.4
		c0.4-0.3,0.9-0.5,1.5-0.5c0.6,0,1.1,0.2,1.4,0.5s0.5,0.8,0.5,1.4v2.9h2.7c0.6,0,1,0.1,1.3,0.4c0.3,0.3,0.5,0.6,0.5,1.1
		c0,0.5-0.2,0.9-0.5,1.1c-0.3,0.3-0.8,0.4-1.3,0.4h-2.7v7.3c0,1.6,0.7,2.4,2.2,2.5l0.9,0.1C752.3,55.4,752.8,55.8,752.8,56.7z"/>
	<path d="M755.1,38.7c-0.4-0.4-0.6-0.9-0.6-1.6s0.2-1.2,0.6-1.5c0.4-0.4,1-0.6,1.7-0.6c0.7,0,1.3,0.2,1.7,0.6
		c0.4,0.4,0.7,0.9,0.7,1.5s-0.2,1.2-0.6,1.6c-0.4,0.4-1,0.6-1.7,0.6C756.1,39.3,755.6,39.1,755.1,38.7z M755.4,57.8
		c-0.4-0.3-0.6-0.8-0.6-1.4V44c0-0.6,0.2-1.1,0.6-1.4c0.4-0.3,0.8-0.5,1.4-0.5s1.1,0.2,1.4,0.5c0.4,0.3,0.6,0.8,0.6,1.4v12.4
		c0,0.6-0.2,1.1-0.6,1.4c-0.4,0.3-0.9,0.5-1.4,0.5S755.8,58.1,755.4,57.8z"/>
	<path d="M765.9,57.4c-1.2-0.7-2.1-1.6-2.8-2.8c-0.7-1.2-1-2.7-1-4.3s0.3-3.1,1-4.3c0.7-1.2,1.6-2.2,2.8-2.8c1.2-0.7,2.6-1,4.2-1
		c1.6,0,3,0.3,4.2,1c1.2,0.7,2.1,1.6,2.8,2.8c0.7,1.2,1,2.7,1,4.3s-0.3,3.1-1,4.3c-0.7,1.2-1.6,2.2-2.8,2.8s-2.6,1-4.2,1
		C768.5,58.3,767.1,58,765.9,57.4z M773.1,54c0.7-0.9,1-2.1,1-3.8c0-1.6-0.3-2.9-1-3.8c-0.7-0.9-1.7-1.3-2.9-1.3
		c-1.3,0-2.3,0.4-3,1.3c-0.7,0.9-1,2.1-1,3.8c0,1.7,0.3,2.9,1,3.8c0.7,0.9,1.7,1.3,2.9,1.3C771.4,55.2,772.4,54.8,773.1,54z"/>
	<path d="M794.7,43.7c0.9,1.1,1.4,2.7,1.4,4.8v7.9c0,0.6-0.2,1.1-0.5,1.4c-0.4,0.3-0.8,0.5-1.5,0.5s-1.1-0.2-1.5-0.5
		c-0.4-0.3-0.5-0.8-0.5-1.4v-7.6c0-1.2-0.2-2.1-0.7-2.7c-0.5-0.6-1.2-0.8-2.2-0.8c-1.2,0-2.1,0.4-2.8,1.1c-0.7,0.7-1,1.7-1,2.9v7.1
		c0,0.6-0.2,1.1-0.5,1.4c-0.4,0.3-0.9,0.5-1.5,0.5s-1.1-0.2-1.5-0.5c-0.4-0.3-0.5-0.8-0.5-1.4V44c0-0.6,0.2-1,0.5-1.3
		c0.4-0.3,0.9-0.5,1.5-0.5c0.6,0,1,0.2,1.4,0.5c0.4,0.3,0.5,0.8,0.5,1.3v0.9c0.5-0.9,1.2-1.5,2.1-2c0.9-0.5,1.9-0.7,3-0.7
		C792.4,42.1,793.8,42.6,794.7,43.7z"/>
	<path d="M827.6,56.6c0,0.5-0.2,0.9-0.6,1.2c-0.4,0.3-0.9,0.5-1.4,0.5c-0.3,0-0.7-0.1-1-0.2c-0.3-0.2-0.6-0.4-0.8-0.7l-4.3-6.5
		c-0.4-0.7-0.9-1.2-1.4-1.4c-0.5-0.3-1.1-0.4-1.9-0.4h-3.1v7.2c0,0.6-0.2,1.1-0.5,1.5c-0.4,0.4-0.9,0.6-1.5,0.6
		c-0.6,0-1.1-0.2-1.5-0.6c-0.4-0.4-0.6-0.9-0.6-1.5V37.5c0-0.6,0.2-1.1,0.5-1.4s0.8-0.5,1.5-0.5h8c2.6,0,4.5,0.6,5.8,1.7
		c1.3,1.1,2,2.8,2,4.9c0,1.7-0.5,3.2-1.5,4.3c-1,1.1-2.4,1.8-4.2,2.2c0.6,0.1,1.2,0.4,1.6,0.8c0.5,0.4,0.9,0.9,1.4,1.6l2.9,4.4
		C827.5,55.9,827.6,56.3,827.6,56.6z M822,45c0.7-0.6,1.1-1.5,1.1-2.7c0-1.2-0.4-2.1-1.1-2.7c-0.7-0.6-1.9-0.8-3.4-0.8h-5.4v7.1h5.4
		C820.1,45.9,821.3,45.6,822,45z"/>
	<path d="M842.6,43.7c1.1,1.1,1.6,2.7,1.6,4.9v7.8c0,0.6-0.2,1-0.5,1.4c-0.3,0.3-0.8,0.5-1.4,0.5c-0.6,0-1-0.2-1.4-0.5
		c-0.4-0.3-0.5-0.8-0.5-1.3v-0.7c-0.4,0.8-0.9,1.5-1.7,2c-0.8,0.5-1.7,0.7-2.7,0.7c-1,0-2-0.2-2.8-0.6c-0.9-0.4-1.5-1-2-1.8
		c-0.5-0.7-0.7-1.6-0.7-2.5c0-1.2,0.3-2.1,0.9-2.7s1.5-1.1,2.9-1.4c1.3-0.3,3.1-0.4,5.5-0.4h0.8v-0.7c0-1-0.2-1.8-0.7-2.3
		c-0.4-0.5-1.2-0.7-2.2-0.7c-0.6,0-1.2,0.1-1.9,0.3c-0.6,0.2-1.4,0.4-2.3,0.8c-0.6,0.3-1,0.4-1.2,0.4c-0.4,0-0.7-0.1-0.9-0.4
		c-0.2-0.3-0.4-0.6-0.4-1.1c0-0.4,0.1-0.7,0.3-0.9c0.2-0.3,0.5-0.5,0.9-0.8c0.7-0.4,1.6-0.7,2.7-1c1-0.2,2.1-0.4,3.1-0.4
		C839.9,42.1,841.5,42.6,842.6,43.7z M839.3,54.4c0.7-0.7,1-1.6,1-2.8V51h-0.6c-1.4,0-2.5,0.1-3.3,0.2s-1.4,0.4-1.7,0.7
		s-0.5,0.8-0.5,1.3c0,0.7,0.2,1.2,0.7,1.7c0.5,0.4,1.1,0.7,1.8,0.7C837.8,55.5,838.7,55.1,839.3,54.4z"/>
	<path d="M858,56.7c0,0.5-0.2,0.9-0.6,1.2c-0.4,0.3-1,0.4-1.8,0.3l-0.9-0.1c-3.6-0.3-5.4-2.2-5.4-5.8v-7h-1.6c-0.6,0-1-0.1-1.3-0.4
		c-0.3-0.3-0.5-0.6-0.5-1.1c0-0.5,0.2-0.9,0.5-1.1c0.3-0.3,0.8-0.4,1.3-0.4h1.6v-2.9c0-0.6,0.2-1,0.5-1.4c0.4-0.3,0.9-0.5,1.5-0.5
		c0.6,0,1.1,0.2,1.4,0.5c0.4,0.3,0.5,0.8,0.5,1.4v2.9h2.7c0.6,0,1,0.1,1.3,0.4c0.3,0.3,0.5,0.6,0.5,1.1c0,0.5-0.2,0.9-0.5,1.1
		s-0.8,0.4-1.3,0.4h-2.7v7.3c0,1.6,0.7,2.4,2.2,2.5l0.9,0.1C857.4,55.4,858,55.8,858,56.7z"/>
	<path d="M860.3,38.7c-0.4-0.4-0.6-0.9-0.6-1.6s0.2-1.2,0.6-1.5c0.4-0.4,1-0.6,1.7-0.6c0.7,0,1.3,0.2,1.7,0.6
		c0.4,0.4,0.7,0.9,0.7,1.5s-0.2,1.2-0.6,1.6c-0.4,0.4-1,0.6-1.7,0.6C861.3,39.3,860.7,39.1,860.3,38.7z M860.6,57.8
		c-0.4-0.3-0.6-0.8-0.6-1.4V44c0-0.6,0.2-1.1,0.6-1.4c0.4-0.3,0.8-0.5,1.4-0.5c0.6,0,1.1,0.2,1.4,0.5c0.4,0.3,0.6,0.8,0.6,1.4v12.4
		c0,0.6-0.2,1.1-0.6,1.4c-0.4,0.3-0.9,0.5-1.4,0.5C861.4,58.3,861,58.1,860.6,57.8z"/>
	<path d="M881.4,43.7c0.9,1.1,1.4,2.7,1.4,4.8v7.9c0,0.6-0.2,1.1-0.5,1.4c-0.4,0.3-0.8,0.5-1.5,0.5c-0.6,0-1.1-0.2-1.5-0.5
		c-0.4-0.3-0.5-0.8-0.5-1.4v-7.6c0-1.2-0.2-2.1-0.7-2.7c-0.5-0.6-1.2-0.8-2.2-0.8c-1.2,0-2.1,0.4-2.8,1.1c-0.7,0.7-1,1.7-1,2.9v7.1
		c0,0.6-0.2,1.1-0.5,1.4c-0.4,0.3-0.9,0.5-1.5,0.5c-0.6,0-1.1-0.2-1.5-0.5c-0.4-0.3-0.5-0.8-0.5-1.4V44c0-0.6,0.2-1,0.5-1.3
		c0.4-0.3,0.9-0.5,1.5-0.5c0.6,0,1,0.2,1.4,0.5c0.4,0.3,0.5,0.8,0.5,1.3v0.9c0.5-0.9,1.2-1.5,2.1-2c0.9-0.5,1.9-0.7,3-0.7
		C879.1,42.1,880.5,42.6,881.4,43.7z"/>
	<path d="M901.6,42.6c0.4,0.3,0.5,0.8,0.5,1.4v12.6c0,2.5-0.7,4.3-2,5.6s-3.4,1.9-6,1.9c-2.3,0-4.3-0.4-5.8-1.3
		c-0.8-0.5-1.2-1-1.2-1.7c0-0.5,0.1-0.8,0.3-1.1c0.2-0.3,0.5-0.4,0.9-0.4c0.2,0,0.4,0,0.7,0.1c0.3,0.1,0.6,0.2,0.9,0.3
		c0.8,0.3,1.5,0.6,2.1,0.7c0.6,0.2,1.3,0.3,2.1,0.3c2.8,0,4.2-1.4,4.2-4.1v-2c-0.5,0.9-1.2,1.6-2,2c-0.9,0.5-1.9,0.7-3.1,0.7
		c-1.4,0-2.6-0.3-3.6-1c-1.1-0.7-1.9-1.6-2.5-2.7c-0.6-1.2-0.9-2.5-0.9-4.1c0-1.5,0.3-2.9,0.9-4.1c0.6-1.2,1.4-2.1,2.5-2.8
		c1.1-0.7,2.3-1,3.6-1c1.2,0,2.2,0.2,3.1,0.7c0.9,0.5,1.6,1.2,2,2V44c0-0.6,0.2-1,0.5-1.3c0.4-0.3,0.8-0.5,1.4-0.5
		C900.7,42.1,901.2,42.3,901.6,42.6z M897.1,53.3c0.7-0.8,1.1-2,1.1-3.4c0-1.5-0.4-2.6-1.1-3.5c-0.7-0.8-1.7-1.2-3-1.2
		c-1.3,0-2.3,0.4-3,1.2s-1.1,2-1.1,3.5c0,1.5,0.4,2.6,1.1,3.4s1.7,1.2,3,1.2C895.4,54.5,896.4,54.1,897.1,53.3z"/>
</g>
<g>
	<path class="st1" d="M93.9,544c0,0.8-0.4,1.2-1.3,1.2h-8.4c-0.4,0-0.7-0.1-0.9-0.3c-0.2-0.2-0.3-0.5-0.3-0.8c0-0.4,0.2-0.8,0.5-1.2
		l5-5.4c0.6-0.7,1.1-1.3,1.4-1.9c0.3-0.6,0.4-1.1,0.4-1.7c0-0.7-0.2-1.2-0.6-1.6c-0.4-0.4-1-0.6-1.7-0.6c-0.6,0-1.2,0.1-1.7,0.3
		s-1.1,0.5-1.7,0.9c-0.1,0.1-0.3,0.2-0.4,0.3c-0.1,0.1-0.3,0.1-0.4,0.1c-0.2,0-0.5-0.1-0.6-0.4c-0.2-0.2-0.3-0.5-0.3-0.8
		c0-0.2,0-0.4,0.1-0.6c0.1-0.2,0.2-0.3,0.4-0.5c0.6-0.5,1.4-0.9,2.3-1.2c0.9-0.3,1.7-0.5,2.6-0.5c1.5,0,2.7,0.4,3.6,1.1
		c0.9,0.8,1.4,1.8,1.4,3.1c0,0.9-0.2,1.7-0.6,2.5c-0.4,0.8-1,1.7-1.9,2.6l-3.8,4h5.8C93.5,542.9,93.9,543.3,93.9,544z"/>
	<path class="st1" d="M97.3,543.4c-1-1.4-1.5-3.3-1.5-5.9c0-2.6,0.5-4.6,1.5-5.9c1-1.4,2.4-2,4.2-2c1.8,0,3.2,0.7,4.2,2
		c1,1.4,1.5,3.3,1.5,5.9c0,2.6-0.5,4.6-1.5,5.9c-1,1.4-2.4,2-4.2,2C99.6,545.4,98.2,544.7,97.3,543.4z M103.6,541.8
		c0.5-0.9,0.7-2.4,0.7-4.4c0-2-0.2-3.5-0.7-4.4c-0.5-0.9-1.2-1.4-2.2-1.4c-1,0-1.7,0.5-2.2,1.4s-0.7,2.4-0.7,4.4
		c0,2,0.2,3.5,0.7,4.4c0.5,0.9,1.2,1.4,2.2,1.4C102.4,543.2,103.2,542.7,103.6,541.8z"/>
	<path class="st1" d="M109.6,544.9c-0.3-0.3-0.5-0.7-0.5-1.2c0-0.5,0.2-0.9,0.5-1.2c0.3-0.3,0.7-0.5,1.2-0.5c0.5,0,0.9,0.2,1.2,0.5
		c0.3,0.3,0.5,0.7,0.5,1.2c0,0.5-0.2,0.9-0.5,1.2s-0.7,0.5-1.2,0.5C110.3,545.3,109.9,545.2,109.6,544.9z"/>
	<path class="st1" d="M115.9,543.4c-1-1.4-1.5-3.3-1.5-5.9c0-2.6,0.5-4.6,1.5-5.9c1-1.4,2.4-2,4.2-2c1.8,0,3.2,0.7,4.2,2
		c1,1.4,1.5,3.3,1.5,5.9c0,2.6-0.5,4.6-1.5,5.9c-1,1.4-2.4,2-4.2,2C118.3,545.4,116.9,544.7,115.9,543.4z M122.3,541.8
		c0.5-0.9,0.7-2.4,0.7-4.4c0-2-0.2-3.5-0.7-4.4c-0.5-0.9-1.2-1.4-2.2-1.4c-1,0-1.7,0.5-2.2,1.4s-0.7,2.4-0.7,4.4
		c0,2,0.2,3.5,0.7,4.4c0.5,0.9,1.2,1.4,2.2,1.4C121.1,543.2,121.8,542.7,122.3,541.8z"/>
	<path class="st1" d="M129.1,543.4c-1-1.4-1.5-3.3-1.5-5.9c0-2.6,0.5-4.6,1.5-5.9c1-1.4,2.4-2,4.2-2c1.8,0,3.2,0.7,4.2,2
		c1,1.4,1.5,3.3,1.5,5.9c0,2.6-0.5,4.6-1.5,5.9c-1,1.4-2.4,2-4.2,2C131.5,545.4,130.1,544.7,129.1,543.4z M135.5,541.8
		c0.5-0.9,0.7-2.4,0.7-4.4c0-2-0.2-3.5-0.7-4.4c-0.5-0.9-1.2-1.4-2.2-1.4c-1,0-1.7,0.5-2.2,1.4s-0.7,2.4-0.7,4.4
		c0,2,0.2,3.5,0.7,4.4c0.5,0.9,1.2,1.4,2.2,1.4C134.3,543.2,135,542.7,135.5,541.8z"/>
	<path class="st1" d="M141.9,537.7c-0.7-0.8-1-2-1-3.5c0-1.5,0.3-2.7,1-3.5s1.6-1.2,2.9-1.2c1.2,0,2.2,0.4,2.9,1.2s1,2,1,3.5
		c0,1.6-0.3,2.7-1,3.5s-1.7,1.2-2.9,1.2C143.5,539,142.6,538.6,141.9,537.7z M146,536.5c0.3-0.5,0.4-1.2,0.4-2.3
		c0-1-0.1-1.8-0.4-2.2c-0.3-0.5-0.7-0.7-1.2-0.7s-0.9,0.2-1.2,0.7c-0.3,0.5-0.4,1.2-0.4,2.3c0,1.1,0.1,1.8,0.4,2.3
		c0.3,0.5,0.7,0.7,1.2,0.7C145.3,537.2,145.7,536.9,146,536.5z M146.7,545.4c-0.2,0.1-0.4,0.2-0.6,0.2c-0.3,0-0.5-0.1-0.7-0.3
		c-0.2-0.2-0.3-0.4-0.3-0.7c0-0.2,0.1-0.5,0.2-0.7l8-13.8c0.1-0.2,0.3-0.4,0.5-0.5c0.2-0.1,0.4-0.2,0.6-0.2c0.3,0,0.5,0.1,0.7,0.3
		c0.2,0.2,0.3,0.4,0.3,0.7c0,0.2-0.1,0.5-0.2,0.7l-8,13.8C147.1,545.1,146.9,545.3,146.7,545.4z M153,544.2c-0.7-0.8-1-2-1-3.6
		c0-1.5,0.3-2.7,1-3.5c0.7-0.8,1.7-1.2,2.9-1.2c1.2,0,2.2,0.4,2.9,1.2c0.7,0.8,1,2,1,3.5c0,1.6-0.3,2.7-1,3.5
		c-0.7,0.8-1.6,1.2-2.9,1.2C154.6,545.4,153.6,545,153,544.2z M157,542.9c0.3-0.5,0.4-1.2,0.4-2.3c0-1-0.1-1.8-0.4-2.2
		c-0.3-0.5-0.7-0.7-1.2-0.7c-0.5,0-0.9,0.2-1.2,0.7c-0.3,0.5-0.4,1.2-0.4,2.2c0,1.1,0.1,1.8,0.4,2.3c0.3,0.5,0.7,0.7,1.2,0.7
		C156.4,543.6,156.8,543.3,157,542.9z"/>
</g>
<g>
	<path class="st1" d="M92.8,465.6c0.5,0.7,0.7,1.5,0.7,2.4c0,1.3-0.5,2.4-1.5,3.2s-2.3,1.2-4,1.2c-1,0-1.9-0.1-2.8-0.4
		c-0.9-0.3-1.6-0.7-2.2-1.2c-0.3-0.3-0.5-0.6-0.5-1c0-0.3,0.1-0.6,0.3-0.8c0.2-0.2,0.4-0.3,0.6-0.3c0.1,0,0.3,0,0.4,0.1
		c0.1,0.1,0.3,0.1,0.5,0.3c0.6,0.4,1.2,0.7,1.8,0.9c0.6,0.2,1.2,0.3,1.8,0.3c1,0,1.7-0.2,2.2-0.6s0.7-1,0.7-1.8
		c0-0.8-0.2-1.4-0.7-1.7c-0.5-0.4-1.3-0.6-2.3-0.6h-1.3c-0.3,0-0.6-0.1-0.8-0.3c-0.2-0.2-0.3-0.5-0.3-0.8c0-0.3,0.1-0.6,0.3-0.8
		c0.2-0.2,0.4-0.3,0.8-0.3h0.9c2,0,3-0.8,3-2.3c0-0.7-0.2-1.2-0.6-1.6c-0.4-0.4-1-0.6-1.8-0.6c-1.1,0-2.2,0.4-3.4,1.3
		c-0.2,0.1-0.4,0.2-0.5,0.3c-0.1,0.1-0.2,0.1-0.4,0.1c-0.2,0-0.5-0.1-0.6-0.3c-0.2-0.2-0.3-0.5-0.3-0.8c0-0.2,0-0.4,0.1-0.6
		c0.1-0.2,0.2-0.3,0.4-0.5c0.6-0.5,1.4-0.9,2.2-1.2s1.7-0.5,2.6-0.5c1.5,0,2.7,0.4,3.6,1.1c0.9,0.7,1.4,1.7,1.4,3
		c0,0.9-0.2,1.6-0.7,2.2c-0.4,0.6-1,1.1-1.8,1.4C91.6,464.5,92.3,464.9,92.8,465.6z"/>
	<path class="st1" d="M97.3,470.4c-1-1.4-1.5-3.3-1.5-5.9c0-2.6,0.5-4.6,1.5-5.9c1-1.4,2.4-2,4.2-2c1.8,0,3.2,0.7,4.2,2
		c1,1.4,1.5,3.3,1.5,5.9c0,2.6-0.5,4.6-1.5,5.9c-1,1.4-2.4,2-4.2,2C99.6,472.4,98.2,471.7,97.3,470.4z M103.6,468.8
		c0.5-0.9,0.7-2.4,0.7-4.4c0-2-0.2-3.5-0.7-4.4c-0.5-0.9-1.2-1.4-2.2-1.4c-1,0-1.7,0.5-2.2,1.4s-0.7,2.4-0.7,4.4
		c0,2,0.2,3.5,0.7,4.4c0.5,0.9,1.2,1.4,2.2,1.4C102.4,470.2,103.2,469.7,103.6,468.8z"/>
	<path class="st1" d="M109.6,471.9c-0.3-0.3-0.5-0.7-0.5-1.2c0-0.5,0.2-0.9,0.5-1.2c0.3-0.3,0.7-0.5,1.2-0.5c0.5,0,0.9,0.2,1.2,0.5
		c0.3,0.3,0.5,0.7,0.5,1.2c0,0.5-0.2,0.9-0.5,1.2s-0.7,0.5-1.2,0.5C110.3,472.3,109.9,472.2,109.6,471.9z"/>
	<path class="st1" d="M115.9,470.4c-1-1.4-1.5-3.3-1.5-5.9c0-2.6,0.5-4.6,1.5-5.9c1-1.4,2.4-2,4.2-2c1.8,0,3.2,0.7,4.2,2
		c1,1.4,1.5,3.3,1.5,5.9c0,2.6-0.5,4.6-1.5,5.9c-1,1.4-2.4,2-4.2,2C118.3,472.4,116.9,471.7,115.9,470.4z M122.3,468.8
		c0.5-0.9,0.7-2.4,0.7-4.4c0-2-0.2-3.5-0.7-4.4c-0.5-0.9-1.2-1.4-2.2-1.4c-1,0-1.7,0.5-2.2,1.4s-0.7,2.4-0.7,4.4
		c0,2,0.2,3.5,0.7,4.4c0.5,0.9,1.2,1.4,2.2,1.4C121.1,470.2,121.8,469.7,122.3,468.8z"/>
	<path class="st1" d="M129.1,470.4c-1-1.4-1.5-3.3-1.5-5.9c0-2.6,0.5-4.6,1.5-5.9c1-1.4,2.4-2,4.2-2c1.8,0,3.2,0.7,4.2,2
		c1,1.4,1.5,3.3,1.5,5.9c0,2.6-0.5,4.6-1.5,5.9c-1,1.4-2.4,2-4.2,2C131.5,472.4,130.1,471.7,129.1,470.4z M135.5,468.8
		c0.5-0.9,0.7-2.4,0.7-4.4c0-2-0.2-3.5-0.7-4.4c-0.5-0.9-1.2-1.4-2.2-1.4c-1,0-1.7,0.5-2.2,1.4s-0.7,2.4-0.7,4.4
		c0,2,0.2,3.5,0.7,4.4c0.5,0.9,1.2,1.4,2.2,1.4C134.3,470.2,135,469.7,135.5,468.8z"/>
	<path class="st1" d="M141.9,464.7c-0.7-0.8-1-2-1-3.5c0-1.5,0.3-2.7,1-3.5s1.6-1.2,2.9-1.2c1.2,0,2.2,0.4,2.9,1.2s1,2,1,3.5
		c0,1.6-0.3,2.7-1,3.5s-1.7,1.2-2.9,1.2C143.5,466,142.6,465.6,141.9,464.7z M146,463.5c0.3-0.5,0.4-1.2,0.4-2.3
		c0-1-0.1-1.8-0.4-2.2c-0.3-0.5-0.7-0.7-1.2-0.7s-0.9,0.2-1.2,0.7c-0.3,0.5-0.4,1.2-0.4,2.3c0,1.1,0.1,1.8,0.4,2.3
		c0.3,0.5,0.7,0.7,1.2,0.7C145.3,464.2,145.7,463.9,146,463.5z M146.7,472.4c-0.2,0.1-0.4,0.2-0.6,0.2c-0.3,0-0.5-0.1-0.7-0.3
		c-0.2-0.2-0.3-0.4-0.3-0.7c0-0.2,0.1-0.5,0.2-0.7l8-13.8c0.1-0.2,0.3-0.4,0.5-0.5c0.2-0.1,0.4-0.2,0.6-0.2c0.3,0,0.5,0.1,0.7,0.3
		c0.2,0.2,0.3,0.4,0.3,0.7c0,0.2-0.1,0.5-0.2,0.7l-8,13.8C147.1,472.1,146.9,472.3,146.7,472.4z M153,471.2c-0.7-0.8-1-2-1-3.6
		c0-1.5,0.3-2.7,1-3.5c0.7-0.8,1.7-1.2,2.9-1.2c1.2,0,2.2,0.4,2.9,1.2c0.7,0.8,1,2,1,3.5c0,1.6-0.3,2.7-1,3.5
		c-0.7,0.8-1.6,1.2-2.9,1.2C154.6,472.4,153.6,472,153,471.2z M157,469.9c0.3-0.5,0.4-1.2,0.4-2.3c0-1-0.1-1.8-0.4-2.2
		c-0.3-0.5-0.7-0.7-1.2-0.7c-0.5,0-0.9,0.2-1.2,0.7c-0.3,0.5-0.4,1.2-0.4,2.2c0,1.1,0.1,1.8,0.4,2.3c0.3,0.5,0.7,0.7,1.2,0.7
		C156.4,470.6,156.8,470.3,157,469.9z"/>
</g>
<g>
	<path class="st1" d="M94.2,394.3c0.2,0.2,0.3,0.5,0.3,0.8c0,0.7-0.4,1.1-1.3,1.1h-1.1v1.7c0,0.5-0.1,0.8-0.4,1.1
		c-0.3,0.2-0.6,0.4-1,0.4s-0.7-0.1-1-0.4c-0.3-0.2-0.4-0.6-0.4-1.1v-1.7h-5.8c-0.4,0-0.7-0.1-0.9-0.3c-0.2-0.2-0.3-0.5-0.3-0.8
		c0-0.4,0.1-0.7,0.4-1l6.8-9.8c0.1-0.2,0.3-0.4,0.5-0.5c0.2-0.1,0.4-0.2,0.7-0.2c0.4,0,0.7,0.1,1,0.4c0.3,0.2,0.4,0.6,0.4,1.1v9h1.1
		C93.6,394,94,394.1,94.2,394.3z M85.2,394h4.1v-5.9L85.2,394z"/>
	<path class="st1" d="M97.3,397.4c-1-1.4-1.5-3.3-1.5-5.9c0-2.6,0.5-4.6,1.5-5.9c1-1.4,2.4-2,4.2-2c1.8,0,3.2,0.7,4.2,2
		c1,1.4,1.5,3.3,1.5,5.9c0,2.6-0.5,4.6-1.5,5.9c-1,1.4-2.4,2-4.2,2C99.6,399.4,98.2,398.7,97.3,397.4z M103.6,395.8
		c0.5-0.9,0.7-2.4,0.7-4.4c0-2-0.2-3.5-0.7-4.4c-0.5-0.9-1.2-1.4-2.2-1.4c-1,0-1.7,0.5-2.2,1.4s-0.7,2.4-0.7,4.4
		c0,2,0.2,3.5,0.7,4.4c0.5,0.9,1.2,1.4,2.2,1.4C102.4,397.2,103.2,396.7,103.6,395.8z"/>
	<path class="st1" d="M109.6,398.9c-0.3-0.3-0.5-0.7-0.5-1.2c0-0.5,0.2-0.9,0.5-1.2c0.3-0.3,0.7-0.5,1.2-0.5c0.5,0,0.9,0.2,1.2,0.5
		c0.3,0.3,0.5,0.7,0.5,1.2c0,0.5-0.2,0.9-0.5,1.2s-0.7,0.5-1.2,0.5C110.3,399.3,109.9,399.2,109.6,398.9z"/>
	<path class="st1" d="M115.9,397.4c-1-1.4-1.5-3.3-1.5-5.9c0-2.6,0.5-4.6,1.5-5.9c1-1.4,2.4-2,4.2-2c1.8,0,3.2,0.7,4.2,2
		c1,1.4,1.5,3.3,1.5,5.9c0,2.6-0.5,4.6-1.5,5.9c-1,1.4-2.4,2-4.2,2C118.3,399.4,116.9,398.7,115.9,397.4z M122.3,395.8
		c0.5-0.9,0.7-2.4,0.7-4.4c0-2-0.2-3.5-0.7-4.4c-0.5-0.9-1.2-1.4-2.2-1.4c-1,0-1.7,0.5-2.2,1.4s-0.7,2.4-0.7,4.4
		c0,2,0.2,3.5,0.7,4.4c0.5,0.9,1.2,1.4,2.2,1.4C121.1,397.2,121.8,396.7,122.3,395.8z"/>
	<path class="st1" d="M129.1,397.4c-1-1.4-1.5-3.3-1.5-5.9c0-2.6,0.5-4.6,1.5-5.9c1-1.4,2.4-2,4.2-2c1.8,0,3.2,0.7,4.2,2
		c1,1.4,1.5,3.3,1.5,5.9c0,2.6-0.5,4.6-1.5,5.9c-1,1.4-2.4,2-4.2,2C131.5,399.4,130.1,398.7,129.1,397.4z M135.5,395.8
		c0.5-0.9,0.7-2.4,0.7-4.4c0-2-0.2-3.5-0.7-4.4c-0.5-0.9-1.2-1.4-2.2-1.4c-1,0-1.7,0.5-2.2,1.4s-0.7,2.4-0.7,4.4
		c0,2,0.2,3.5,0.7,4.4c0.5,0.9,1.2,1.4,2.2,1.4C134.3,397.2,135,396.7,135.5,395.8z"/>
	<path class="st1" d="M141.9,391.7c-0.7-0.8-1-2-1-3.5c0-1.5,0.3-2.7,1-3.5s1.6-1.2,2.9-1.2c1.2,0,2.2,0.4,2.9,1.2s1,2,1,3.5
		c0,1.6-0.3,2.7-1,3.5s-1.7,1.2-2.9,1.2C143.5,393,142.6,392.6,141.9,391.7z M146,390.5c0.3-0.5,0.4-1.2,0.4-2.3
		c0-1-0.1-1.8-0.4-2.2c-0.3-0.5-0.7-0.7-1.2-0.7s-0.9,0.2-1.2,0.7c-0.3,0.5-0.4,1.2-0.4,2.3c0,1.1,0.1,1.8,0.4,2.3
		c0.3,0.5,0.7,0.7,1.2,0.7C145.3,391.2,145.7,390.9,146,390.5z M146.7,399.4c-0.2,0.1-0.4,0.2-0.6,0.2c-0.3,0-0.5-0.1-0.7-0.3
		c-0.2-0.2-0.3-0.4-0.3-0.7c0-0.2,0.1-0.5,0.2-0.7l8-13.8c0.1-0.2,0.3-0.4,0.5-0.5c0.2-0.1,0.4-0.2,0.6-0.2c0.3,0,0.5,0.1,0.7,0.3
		c0.2,0.2,0.3,0.4,0.3,0.7c0,0.2-0.1,0.5-0.2,0.7l-8,13.8C147.1,399.1,146.9,399.3,146.7,399.4z M153,398.2c-0.7-0.8-1-2-1-3.6
		c0-1.5,0.3-2.7,1-3.5c0.7-0.8,1.7-1.2,2.9-1.2c1.2,0,2.2,0.4,2.9,1.2c0.7,0.8,1,2,1,3.5c0,1.6-0.3,2.7-1,3.5
		c-0.7,0.8-1.6,1.2-2.9,1.2C154.6,399.4,153.6,399,153,398.2z M157,396.9c0.3-0.5,0.4-1.2,0.4-2.3c0-1-0.1-1.8-0.4-2.2
		c-0.3-0.5-0.7-0.7-1.2-0.7c-0.5,0-0.9,0.2-1.2,0.7c-0.3,0.5-0.4,1.2-0.4,2.2c0,1.1,0.1,1.8,0.4,2.3c0.3,0.5,0.7,0.7,1.2,0.7
		C156.4,397.6,156.8,397.3,157,396.9z"/>
</g>
<g>
	<path class="st1" d="M91.6,316.9c0.7,0.4,1.3,1,1.7,1.7c0.4,0.7,0.6,1.6,0.6,2.6c0,1-0.2,1.9-0.7,2.7s-1.1,1.4-2,1.8
		c-0.8,0.4-1.8,0.6-2.9,0.6c-0.9,0-1.8-0.2-2.7-0.5c-0.9-0.3-1.6-0.7-2.2-1.2c-0.3-0.3-0.5-0.6-0.5-1c0-0.3,0.1-0.6,0.3-0.8
		c0.2-0.2,0.4-0.3,0.6-0.3c0.1,0,0.3,0,0.4,0.1c0.1,0.1,0.3,0.1,0.5,0.3c0.6,0.4,1.2,0.7,1.7,0.9s1.2,0.3,1.8,0.3
		c1,0,1.7-0.2,2.2-0.7c0.5-0.5,0.8-1.2,0.8-2.1c0-0.9-0.3-1.6-0.8-2.1c-0.5-0.5-1.2-0.8-2.1-0.8c-0.6,0-1.1,0.1-1.5,0.2
		c-0.4,0.2-0.9,0.4-1.4,0.8c-0.3,0.2-0.6,0.3-0.9,0.3c-0.3,0-0.5-0.1-0.7-0.3c-0.2-0.2-0.3-0.4-0.3-0.7V312c0-0.4,0.1-0.7,0.4-1
		c0.2-0.2,0.6-0.4,1-0.4h7.3c0.9,0,1.3,0.4,1.3,1.1s-0.4,1.1-1.3,1.1h-5.9v4.2c0.7-0.5,1.7-0.8,2.8-0.8
		C90,316.3,90.9,316.5,91.6,316.9z"/>
	<path class="st1" d="M97.3,324.4c-1-1.4-1.5-3.3-1.5-5.9c0-2.6,0.5-4.6,1.5-5.9c1-1.4,2.4-2,4.2-2c1.8,0,3.2,0.7,4.2,2
		c1,1.4,1.5,3.3,1.5,5.9c0,2.6-0.5,4.6-1.5,5.9c-1,1.4-2.4,2-4.2,2C99.6,326.4,98.2,325.7,97.3,324.4z M103.6,322.8
		c0.5-0.9,0.7-2.4,0.7-4.4c0-2-0.2-3.5-0.7-4.4c-0.5-0.9-1.2-1.4-2.2-1.4c-1,0-1.7,0.5-2.2,1.4s-0.7,2.4-0.7,4.4
		c0,2,0.2,3.5,0.7,4.4c0.5,0.9,1.2,1.4,2.2,1.4C102.4,324.2,103.2,323.7,103.6,322.8z"/>
	<path class="st1" d="M109.6,325.9c-0.3-0.3-0.5-0.7-0.5-1.2c0-0.5,0.2-0.9,0.5-1.2c0.3-0.3,0.7-0.5,1.2-0.5c0.5,0,0.9,0.2,1.2,0.5
		c0.3,0.3,0.5,0.7,0.5,1.2c0,0.5-0.2,0.9-0.5,1.2s-0.7,0.5-1.2,0.5C110.3,326.3,109.9,326.2,109.6,325.9z"/>
	<path class="st1" d="M115.9,324.4c-1-1.4-1.5-3.3-1.5-5.9c0-2.6,0.5-4.6,1.5-5.9c1-1.4,2.4-2,4.2-2c1.8,0,3.2,0.7,4.2,2
		c1,1.4,1.5,3.3,1.5,5.9c0,2.6-0.5,4.6-1.5,5.9c-1,1.4-2.4,2-4.2,2C118.3,326.4,116.9,325.7,115.9,324.4z M122.3,322.8
		c0.5-0.9,0.7-2.4,0.7-4.4c0-2-0.2-3.5-0.7-4.4c-0.5-0.9-1.2-1.4-2.2-1.4c-1,0-1.7,0.5-2.2,1.4s-0.7,2.4-0.7,4.4
		c0,2,0.2,3.5,0.7,4.4c0.5,0.9,1.2,1.4,2.2,1.4C121.1,324.2,121.8,323.7,122.3,322.8z"/>
	<path class="st1" d="M129.1,324.4c-1-1.4-1.5-3.3-1.5-5.9c0-2.6,0.5-4.6,1.5-5.9c1-1.4,2.4-2,4.2-2c1.8,0,3.2,0.7,4.2,2
		c1,1.4,1.5,3.3,1.5,5.9c0,2.6-0.5,4.6-1.5,5.9c-1,1.4-2.4,2-4.2,2C131.5,326.4,130.1,325.7,129.1,324.4z M135.5,322.8
		c0.5-0.9,0.7-2.4,0.7-4.4c0-2-0.2-3.5-0.7-4.4c-0.5-0.9-1.2-1.4-2.2-1.4c-1,0-1.7,0.5-2.2,1.4s-0.7,2.4-0.7,4.4
		c0,2,0.2,3.5,0.7,4.4c0.5,0.9,1.2,1.4,2.2,1.4C134.3,324.2,135,323.7,135.5,322.8z"/>
	<path class="st1" d="M141.9,318.7c-0.7-0.8-1-2-1-3.5c0-1.5,0.3-2.7,1-3.5s1.6-1.2,2.9-1.2c1.2,0,2.2,0.4,2.9,1.2s1,2,1,3.5
		c0,1.6-0.3,2.7-1,3.5s-1.7,1.2-2.9,1.2C143.5,320,142.6,319.6,141.9,318.7z M146,317.5c0.3-0.5,0.4-1.2,0.4-2.3
		c0-1-0.1-1.8-0.4-2.2c-0.3-0.5-0.7-0.7-1.2-0.7s-0.9,0.2-1.2,0.7c-0.3,0.5-0.4,1.2-0.4,2.3c0,1.1,0.1,1.8,0.4,2.3
		c0.3,0.5,0.7,0.7,1.2,0.7C145.3,318.2,145.7,317.9,146,317.5z M146.7,326.4c-0.2,0.1-0.4,0.2-0.6,0.2c-0.3,0-0.5-0.1-0.7-0.3
		c-0.2-0.2-0.3-0.4-0.3-0.7c0-0.2,0.1-0.5,0.2-0.7l8-13.8c0.1-0.2,0.3-0.4,0.5-0.5c0.2-0.1,0.4-0.2,0.6-0.2c0.3,0,0.5,0.1,0.7,0.3
		c0.2,0.2,0.3,0.4,0.3,0.7c0,0.2-0.1,0.5-0.2,0.7l-8,13.8C147.1,326.1,146.9,326.3,146.7,326.4z M153,325.2c-0.7-0.8-1-2-1-3.6
		c0-1.5,0.3-2.7,1-3.5c0.7-0.8,1.7-1.2,2.9-1.2c1.2,0,2.2,0.4,2.9,1.2c0.7,0.8,1,2,1,3.5c0,1.6-0.3,2.7-1,3.5
		c-0.7,0.8-1.6,1.2-2.9,1.2C154.6,326.4,153.6,326,153,325.2z M157,323.9c0.3-0.5,0.4-1.2,0.4-2.3c0-1-0.1-1.8-0.4-2.2
		c-0.3-0.5-0.7-0.7-1.2-0.7c-0.5,0-0.9,0.2-1.2,0.7c-0.3,0.5-0.4,1.2-0.4,2.2c0,1.1,0.1,1.8,0.4,2.3c0.3,0.5,0.7,0.7,1.2,0.7
		C156.4,324.6,156.8,324.3,157,323.9z"/>
</g>
<g>
	<path class="st1" d="M91.7,242.9c0.7,0.4,1.3,1,1.7,1.8c0.4,0.8,0.6,1.6,0.6,2.6c0,1-0.2,1.9-0.7,2.7c-0.4,0.8-1.1,1.4-1.8,1.8
		c-0.8,0.4-1.7,0.7-2.7,0.7c-2,0-3.5-0.7-4.5-2c-1.1-1.3-1.6-3.2-1.6-5.7c0-1.7,0.2-3.1,0.7-4.4s1.2-2.2,2.1-2.8c0.9-0.7,2-1,3.3-1
		c0.8,0,1.7,0.2,2.5,0.5c0.8,0.3,1.6,0.7,2.1,1.2c0.2,0.2,0.3,0.3,0.4,0.5c0.1,0.2,0.1,0.3,0.1,0.6c0,0.3-0.1,0.6-0.3,0.8
		c-0.2,0.2-0.4,0.3-0.6,0.3c-0.1,0-0.3,0-0.4-0.1c-0.1-0.1-0.3-0.1-0.5-0.3c-1.2-0.9-2.3-1.3-3.3-1.3c-1.1,0-1.9,0.5-2.5,1.5
		s-0.9,2.4-1,4.2c0.3-0.7,0.8-1.2,1.5-1.6c0.7-0.4,1.4-0.6,2.3-0.6C90.1,242.3,90.9,242.5,91.7,242.9z M90.5,249.4
		c0.5-0.5,0.7-1.2,0.7-2.1s-0.2-1.5-0.7-2c-0.5-0.5-1.1-0.8-1.9-0.8c-0.8,0-1.5,0.3-2,0.8s-0.8,1.2-0.8,2c0,0.9,0.3,1.5,0.8,2.1
		s1.2,0.8,2,0.8C89.4,250.2,90.1,249.9,90.5,249.4z"/>
	<path class="st1" d="M97.3,250.4c-1-1.4-1.5-3.3-1.5-5.9c0-2.6,0.5-4.6,1.5-5.9c1-1.4,2.4-2,4.2-2c1.8,0,3.2,0.7,4.2,2
		c1,1.4,1.5,3.3,1.5,5.9c0,2.6-0.5,4.6-1.5,5.9c-1,1.4-2.4,2-4.2,2C99.6,252.4,98.2,251.7,97.3,250.4z M103.6,248.8
		c0.5-0.9,0.7-2.4,0.7-4.4c0-2-0.2-3.5-0.7-4.4c-0.5-0.9-1.2-1.4-2.2-1.4c-1,0-1.7,0.5-2.2,1.4s-0.7,2.4-0.7,4.4
		c0,2,0.2,3.5,0.7,4.4c0.5,0.9,1.2,1.4,2.2,1.4C102.4,250.2,103.2,249.7,103.6,248.8z"/>
	<path class="st1" d="M109.6,251.9c-0.3-0.3-0.5-0.7-0.5-1.2c0-0.5,0.2-0.9,0.5-1.2c0.3-0.3,0.7-0.5,1.2-0.5c0.5,0,0.9,0.2,1.2,0.5
		c0.3,0.3,0.5,0.7,0.5,1.2c0,0.5-0.2,0.9-0.5,1.2s-0.7,0.5-1.2,0.5C110.3,252.3,109.9,252.2,109.6,251.9z"/>
	<path class="st1" d="M115.9,250.4c-1-1.4-1.5-3.3-1.5-5.9c0-2.6,0.5-4.6,1.5-5.9c1-1.4,2.4-2,4.2-2c1.8,0,3.2,0.7,4.2,2
		c1,1.4,1.5,3.3,1.5,5.9c0,2.6-0.5,4.6-1.5,5.9c-1,1.4-2.4,2-4.2,2C118.3,252.4,116.9,251.7,115.9,250.4z M122.3,248.8
		c0.5-0.9,0.7-2.4,0.7-4.4c0-2-0.2-3.5-0.7-4.4c-0.5-0.9-1.2-1.4-2.2-1.4c-1,0-1.7,0.5-2.2,1.4s-0.7,2.4-0.7,4.4
		c0,2,0.2,3.5,0.7,4.4c0.5,0.9,1.2,1.4,2.2,1.4C121.1,250.2,121.8,249.7,122.3,248.8z"/>
	<path class="st1" d="M129.1,250.4c-1-1.4-1.5-3.3-1.5-5.9c0-2.6,0.5-4.6,1.5-5.9c1-1.4,2.4-2,4.2-2c1.8,0,3.2,0.7,4.2,2
		c1,1.4,1.5,3.3,1.5,5.9c0,2.6-0.5,4.6-1.5,5.9c-1,1.4-2.4,2-4.2,2C131.5,252.4,130.1,251.7,129.1,250.4z M135.5,248.8
		c0.5-0.9,0.7-2.4,0.7-4.4c0-2-0.2-3.5-0.7-4.4c-0.5-0.9-1.2-1.4-2.2-1.4c-1,0-1.7,0.5-2.2,1.4s-0.7,2.4-0.7,4.4
		c0,2,0.2,3.5,0.7,4.4c0.5,0.9,1.2,1.4,2.2,1.4C134.3,250.2,135,249.7,135.5,248.8z"/>
	<path class="st1" d="M141.9,244.7c-0.7-0.8-1-2-1-3.5c0-1.5,0.3-2.7,1-3.5s1.6-1.2,2.9-1.2c1.2,0,2.2,0.4,2.9,1.2s1,2,1,3.5
		c0,1.6-0.3,2.7-1,3.5s-1.7,1.2-2.9,1.2C143.5,246,142.6,245.6,141.9,244.7z M146,243.5c0.3-0.5,0.4-1.2,0.4-2.3
		c0-1-0.1-1.8-0.4-2.2c-0.3-0.5-0.7-0.7-1.2-0.7s-0.9,0.2-1.2,0.7c-0.3,0.5-0.4,1.2-0.4,2.3c0,1.1,0.1,1.8,0.4,2.3
		c0.3,0.5,0.7,0.7,1.2,0.7C145.3,244.2,145.7,243.9,146,243.5z M146.7,252.4c-0.2,0.1-0.4,0.2-0.6,0.2c-0.3,0-0.5-0.1-0.7-0.3
		c-0.2-0.2-0.3-0.4-0.3-0.7c0-0.2,0.1-0.5,0.2-0.7l8-13.8c0.1-0.2,0.3-0.4,0.5-0.5c0.2-0.1,0.4-0.2,0.6-0.2c0.3,0,0.5,0.1,0.7,0.3
		c0.2,0.2,0.3,0.4,0.3,0.7c0,0.2-0.1,0.5-0.2,0.7l-8,13.8C147.1,252.1,146.9,252.3,146.7,252.4z M153,251.2c-0.7-0.8-1-2-1-3.6
		c0-1.5,0.3-2.7,1-3.5c0.7-0.8,1.7-1.2,2.9-1.2c1.2,0,2.2,0.4,2.9,1.2c0.7,0.8,1,2,1,3.5c0,1.6-0.3,2.7-1,3.5
		c-0.7,0.8-1.6,1.2-2.9,1.2C154.6,252.4,153.6,252,153,251.2z M157,249.9c0.3-0.5,0.4-1.2,0.4-2.3c0-1-0.1-1.8-0.4-2.2
		c-0.3-0.5-0.7-0.7-1.2-0.7c-0.5,0-0.9,0.2-1.2,0.7c-0.3,0.5-0.4,1.2-0.4,2.2c0,1.1,0.1,1.8,0.4,2.3c0.3,0.5,0.7,0.7,1.2,0.7
		C156.4,250.6,156.8,250.3,157,249.9z"/>
</g>
<g>
	<path class="st1" d="M93.6,164c0.2,0.2,0.3,0.5,0.3,0.8c0,0.3-0.1,0.7-0.3,1.1l-7,12.7c-0.3,0.5-0.7,0.7-1.2,0.7
		c-0.4,0-0.7-0.1-0.9-0.4c-0.3-0.2-0.4-0.5-0.4-0.9c0-0.2,0.1-0.5,0.2-0.7l6.3-11.4h-6.6c-0.9,0-1.3-0.4-1.3-1.1
		c0-0.8,0.4-1.2,1.3-1.2h8.8C93.1,163.7,93.4,163.8,93.6,164z"/>
	<path class="st1" d="M97.3,177.4c-1-1.4-1.5-3.3-1.5-5.9c0-2.6,0.5-4.6,1.5-5.9c1-1.4,2.4-2,4.2-2c1.8,0,3.2,0.7,4.2,2
		c1,1.4,1.5,3.3,1.5,5.9c0,2.6-0.5,4.6-1.5,5.9c-1,1.4-2.4,2-4.2,2C99.6,179.4,98.2,178.7,97.3,177.4z M103.6,175.8
		c0.5-0.9,0.7-2.4,0.7-4.4c0-2-0.2-3.5-0.7-4.4c-0.5-0.9-1.2-1.4-2.2-1.4c-1,0-1.7,0.5-2.2,1.4s-0.7,2.4-0.7,4.4
		c0,2,0.2,3.5,0.7,4.4c0.5,0.9,1.2,1.4,2.2,1.4C102.4,177.2,103.2,176.7,103.6,175.8z"/>
	<path class="st1" d="M109.6,178.9c-0.3-0.3-0.5-0.7-0.5-1.2c0-0.5,0.2-0.9,0.5-1.2c0.3-0.3,0.7-0.5,1.2-0.5c0.5,0,0.9,0.2,1.2,0.5
		c0.3,0.3,0.5,0.7,0.5,1.2c0,0.5-0.2,0.9-0.5,1.2s-0.7,0.5-1.2,0.5C110.3,179.3,109.9,179.2,109.6,178.9z"/>
	<path class="st1" d="M115.9,177.4c-1-1.4-1.5-3.3-1.5-5.9c0-2.6,0.5-4.6,1.5-5.9c1-1.4,2.4-2,4.2-2c1.8,0,3.2,0.7,4.2,2
		c1,1.4,1.5,3.3,1.5,5.9c0,2.6-0.5,4.6-1.5,5.9c-1,1.4-2.4,2-4.2,2C118.3,179.4,116.9,178.7,115.9,177.4z M122.3,175.8
		c0.5-0.9,0.7-2.4,0.7-4.4c0-2-0.2-3.5-0.7-4.4c-0.5-0.9-1.2-1.4-2.2-1.4c-1,0-1.7,0.5-2.2,1.4s-0.7,2.4-0.7,4.4
		c0,2,0.2,3.5,0.7,4.4c0.5,0.9,1.2,1.4,2.2,1.4C121.1,177.2,121.8,176.7,122.3,175.8z"/>
	<path class="st1" d="M129.1,177.4c-1-1.4-1.5-3.3-1.5-5.9c0-2.6,0.5-4.6,1.5-5.9c1-1.4,2.4-2,4.2-2c1.8,0,3.2,0.7,4.2,2
		c1,1.4,1.5,3.3,1.5,5.9c0,2.6-0.5,4.6-1.5,5.9c-1,1.4-2.4,2-4.2,2C131.5,179.4,130.1,178.7,129.1,177.4z M135.5,175.8
		c0.5-0.9,0.7-2.4,0.7-4.4c0-2-0.2-3.5-0.7-4.4c-0.5-0.9-1.2-1.4-2.2-1.4c-1,0-1.7,0.5-2.2,1.4s-0.7,2.4-0.7,4.4
		c0,2,0.2,3.5,0.7,4.4c0.5,0.9,1.2,1.4,2.2,1.4C134.3,177.2,135,176.7,135.5,175.8z"/>
	<path class="st1" d="M141.9,171.7c-0.7-0.8-1-2-1-3.5c0-1.5,0.3-2.7,1-3.5s1.6-1.2,2.9-1.2c1.2,0,2.2,0.4,2.9,1.2s1,2,1,3.5
		c0,1.6-0.3,2.7-1,3.5s-1.7,1.2-2.9,1.2C143.5,173,142.6,172.6,141.9,171.7z M146,170.5c0.3-0.5,0.4-1.2,0.4-2.3
		c0-1-0.1-1.8-0.4-2.2c-0.3-0.5-0.7-0.7-1.2-0.7s-0.9,0.2-1.2,0.7c-0.3,0.5-0.4,1.2-0.4,2.3c0,1.1,0.1,1.8,0.4,2.3
		c0.3,0.5,0.7,0.7,1.2,0.7C145.3,171.2,145.7,170.9,146,170.5z M146.7,179.4c-0.2,0.1-0.4,0.2-0.6,0.2c-0.3,0-0.5-0.1-0.7-0.3
		c-0.2-0.2-0.3-0.4-0.3-0.7c0-0.2,0.1-0.5,0.2-0.7l8-13.8c0.1-0.2,0.3-0.4,0.5-0.5c0.2-0.1,0.4-0.2,0.6-0.2c0.3,0,0.5,0.1,0.7,0.3
		c0.2,0.2,0.3,0.4,0.3,0.7c0,0.2-0.1,0.5-0.2,0.7l-8,13.8C147.1,179.1,146.9,179.3,146.7,179.4z M153,178.2c-0.7-0.8-1-2-1-3.6
		c0-1.5,0.3-2.7,1-3.5c0.7-0.8,1.7-1.2,2.9-1.2c1.2,0,2.2,0.4,2.9,1.2c0.7,0.8,1,2,1,3.5c0,1.6-0.3,2.7-1,3.5
		c-0.7,0.8-1.6,1.2-2.9,1.2C154.6,179.4,153.6,179,153,178.2z M157,176.9c0.3-0.5,0.4-1.2,0.4-2.3c0-1-0.1-1.8-0.4-2.2
		c-0.3-0.5-0.7-0.7-1.2-0.7c-0.5,0-0.9,0.2-1.2,0.7c-0.3,0.5-0.4,1.2-0.4,2.2c0,1.1,0.1,1.8,0.4,2.3c0.3,0.5,0.7,0.7,1.2,0.7
		C156.4,177.6,156.8,177.3,157,176.9z"/>
</g>
<g>
	<path class="st1" d="M93.3,99.6c0.5,0.7,0.7,1.5,0.7,2.4c0,1.4-0.5,2.4-1.5,3.2c-1,0.8-2.4,1.2-4.3,1.2c-1.8,0-3.2-0.4-4.3-1.2
		c-1-0.8-1.5-1.8-1.5-3.2c0-1,0.2-1.8,0.7-2.4c0.5-0.7,1.2-1.1,2.1-1.4c-0.8-0.3-1.4-0.8-1.8-1.4s-0.7-1.4-0.7-2.2
		c0-1.3,0.5-2.3,1.5-3.1c1-0.7,2.3-1.1,4-1.1c1.7,0,3,0.4,4,1.1c1,0.7,1.5,1.8,1.5,3.1c0,0.9-0.2,1.6-0.7,2.2s-1,1.1-1.8,1.3
		C92.1,98.5,92.8,98.9,93.3,99.6z M91.4,101.8c0-1.6-1-2.4-3.1-2.4c-2.1,0-3.1,0.8-3.1,2.4c0,1.6,1,2.4,3.1,2.4
		C90.3,104.2,91.4,103.4,91.4,101.8z M85.5,95c0,0.7,0.2,1.3,0.7,1.7s1.1,0.6,2.1,0.6c0.9,0,1.6-0.2,2.1-0.6c0.5-0.4,0.7-1,0.7-1.7
		c0-1.5-0.9-2.2-2.8-2.2C86.4,92.7,85.5,93.5,85.5,95z"/>
	<path class="st1" d="M97.3,104.4c-1-1.4-1.5-3.3-1.5-5.9c0-2.6,0.5-4.6,1.5-5.9c1-1.4,2.4-2,4.2-2c1.8,0,3.2,0.7,4.2,2
		c1,1.4,1.5,3.3,1.5,5.9c0,2.6-0.5,4.6-1.5,5.9c-1,1.4-2.4,2-4.2,2C99.6,106.4,98.2,105.7,97.3,104.4z M103.6,102.8
		c0.5-0.9,0.7-2.4,0.7-4.4c0-2-0.2-3.5-0.7-4.4c-0.5-0.9-1.2-1.4-2.2-1.4c-1,0-1.7,0.5-2.2,1.4s-0.7,2.4-0.7,4.4
		c0,2,0.2,3.5,0.7,4.4c0.5,0.9,1.2,1.4,2.2,1.4C102.4,104.2,103.2,103.7,103.6,102.8z"/>
	<path class="st1" d="M109.6,105.9c-0.3-0.3-0.5-0.7-0.5-1.2c0-0.5,0.2-0.9,0.5-1.2c0.3-0.3,0.7-0.5,1.2-0.5c0.5,0,0.9,0.2,1.2,0.5
		c0.3,0.3,0.5,0.7,0.5,1.2c0,0.5-0.2,0.9-0.5,1.2s-0.7,0.5-1.2,0.5C110.3,106.3,109.9,106.2,109.6,105.9z"/>
	<path class="st1" d="M115.9,104.4c-1-1.4-1.5-3.3-1.5-5.9c0-2.6,0.5-4.6,1.5-5.9c1-1.4,2.4-2,4.2-2c1.8,0,3.2,0.7,4.2,2
		c1,1.4,1.5,3.3,1.5,5.9c0,2.6-0.5,4.6-1.5,5.9c-1,1.4-2.4,2-4.2,2C118.3,106.4,116.9,105.7,115.9,104.4z M122.3,102.8
		c0.5-0.9,0.7-2.4,0.7-4.4c0-2-0.2-3.5-0.7-4.4c-0.5-0.9-1.2-1.4-2.2-1.4c-1,0-1.7,0.5-2.2,1.4s-0.7,2.4-0.7,4.4
		c0,2,0.2,3.5,0.7,4.4c0.5,0.9,1.2,1.4,2.2,1.4C121.1,104.2,121.8,103.7,122.3,102.8z"/>
	<path class="st1" d="M129.1,104.4c-1-1.4-1.5-3.3-1.5-5.9c0-2.6,0.5-4.6,1.5-5.9c1-1.4,2.4-2,4.2-2c1.8,0,3.2,0.7,4.2,2
		c1,1.4,1.5,3.3,1.5,5.9c0,2.6-0.5,4.6-1.5,5.9c-1,1.4-2.4,2-4.2,2C131.5,106.4,130.1,105.7,129.1,104.4z M135.5,102.8
		c0.5-0.9,0.7-2.4,0.7-4.4c0-2-0.2-3.5-0.7-4.4c-0.5-0.9-1.2-1.4-2.2-1.4c-1,0-1.7,0.5-2.2,1.4s-0.7,2.4-0.7,4.4
		c0,2,0.2,3.5,0.7,4.4c0.5,0.9,1.2,1.4,2.2,1.4C134.3,104.2,135,103.7,135.5,102.8z"/>
	<path class="st1" d="M141.9,98.7c-0.7-0.8-1-2-1-3.5c0-1.5,0.3-2.7,1-3.5s1.6-1.2,2.9-1.2c1.2,0,2.2,0.4,2.9,1.2s1,2,1,3.5
		c0,1.6-0.3,2.7-1,3.5s-1.7,1.2-2.9,1.2C143.5,100,142.6,99.6,141.9,98.7z M146,97.5c0.3-0.5,0.4-1.2,0.4-2.3c0-1-0.1-1.8-0.4-2.2
		c-0.3-0.5-0.7-0.7-1.2-0.7s-0.9,0.2-1.2,0.7c-0.3,0.5-0.4,1.2-0.4,2.3c0,1.1,0.1,1.8,0.4,2.3c0.3,0.5,0.7,0.7,1.2,0.7
		C145.3,98.2,145.7,97.9,146,97.5z M146.7,106.4c-0.2,0.1-0.4,0.2-0.6,0.2c-0.3,0-0.5-0.1-0.7-0.3c-0.2-0.2-0.3-0.4-0.3-0.7
		c0-0.2,0.1-0.5,0.2-0.7l8-13.8c0.1-0.2,0.3-0.4,0.5-0.5c0.2-0.1,0.4-0.2,0.6-0.2c0.3,0,0.5,0.1,0.7,0.3c0.2,0.2,0.3,0.4,0.3,0.7
		c0,0.2-0.1,0.5-0.2,0.7l-8,13.8C147.1,106.1,146.9,106.3,146.7,106.4z M153,105.2c-0.7-0.8-1-2-1-3.6c0-1.5,0.3-2.7,1-3.5
		c0.7-0.8,1.7-1.2,2.9-1.2c1.2,0,2.2,0.4,2.9,1.2c0.7,0.8,1,2,1,3.5c0,1.6-0.3,2.7-1,3.5c-0.7,0.8-1.6,1.2-2.9,1.2
		C154.6,106.4,153.6,106,153,105.2z M157,103.9c0.3-0.5,0.4-1.2,0.4-2.3c0-1-0.1-1.8-0.4-2.2c-0.3-0.5-0.7-0.7-1.2-0.7
		c-0.5,0-0.9,0.2-1.2,0.7c-0.3,0.5-0.4,1.2-0.4,2.2c0,1.1,0.1,1.8,0.4,2.3c0.3,0.5,0.7,0.7,1.2,0.7
		C156.4,104.6,156.8,104.3,157,103.9z"/>
</g>
<g>
	<path class="st1" d="M97.3,690.3c-1-1.4-1.5-3.3-1.5-5.9c0-2.6,0.5-4.6,1.5-5.9c1-1.4,2.4-2,4.2-2c1.8,0,3.2,0.7,4.2,2
		c1,1.4,1.5,3.3,1.5,5.9c0,2.6-0.5,4.6-1.5,5.9c-1,1.4-2.4,2-4.2,2C99.6,692.4,98.2,691.7,97.3,690.3z M103.6,688.8
		c0.5-0.9,0.7-2.4,0.7-4.4c0-2-0.2-3.5-0.7-4.4c-0.5-0.9-1.2-1.4-2.2-1.4c-1,0-1.7,0.5-2.2,1.4s-0.7,2.4-0.7,4.4
		c0,2,0.2,3.5,0.7,4.4c0.5,0.9,1.2,1.4,2.2,1.4C102.4,690.1,103.2,689.7,103.6,688.8z"/>
	<path class="st1" d="M109.6,691.8c-0.3-0.3-0.5-0.7-0.5-1.2c0-0.5,0.2-0.9,0.5-1.2c0.3-0.3,0.7-0.5,1.2-0.5c0.5,0,0.9,0.2,1.2,0.5
		c0.3,0.3,0.5,0.7,0.5,1.2c0,0.5-0.2,0.9-0.5,1.2s-0.7,0.5-1.2,0.5C110.3,692.3,109.9,692.1,109.6,691.8z"/>
	<path class="st1" d="M115.9,690.3c-1-1.4-1.5-3.3-1.5-5.9c0-2.6,0.5-4.6,1.5-5.9c1-1.4,2.4-2,4.2-2c1.8,0,3.2,0.7,4.2,2
		c1,1.4,1.5,3.3,1.5,5.9c0,2.6-0.5,4.6-1.5,5.9c-1,1.4-2.4,2-4.2,2C118.3,692.4,116.9,691.7,115.9,690.3z M122.3,688.8
		c0.5-0.9,0.7-2.4,0.7-4.4c0-2-0.2-3.5-0.7-4.4c-0.5-0.9-1.2-1.4-2.2-1.4c-1,0-1.7,0.5-2.2,1.4s-0.7,2.4-0.7,4.4
		c0,2,0.2,3.5,0.7,4.4c0.5,0.9,1.2,1.4,2.2,1.4C121.1,690.1,121.8,689.7,122.3,688.8z"/>
	<path class="st1" d="M129.1,690.3c-1-1.4-1.5-3.3-1.5-5.9c0-2.6,0.5-4.6,1.5-5.9c1-1.4,2.4-2,4.2-2c1.8,0,3.2,0.7,4.2,2
		c1,1.4,1.5,3.3,1.5,5.9c0,2.6-0.5,4.6-1.5,5.9c-1,1.4-2.4,2-4.2,2C131.5,692.4,130.1,691.7,129.1,690.3z M135.5,688.8
		c0.5-0.9,0.7-2.4,0.7-4.4c0-2-0.2-3.5-0.7-4.4c-0.5-0.9-1.2-1.4-2.2-1.4c-1,0-1.7,0.5-2.2,1.4s-0.7,2.4-0.7,4.4
		c0,2,0.2,3.5,0.7,4.4c0.5,0.9,1.2,1.4,2.2,1.4C134.3,690.1,135,689.7,135.5,688.8z"/>
	<path class="st1" d="M141.9,684.7c-0.7-0.8-1-2-1-3.5c0-1.5,0.3-2.7,1-3.5s1.6-1.2,2.9-1.2c1.2,0,2.2,0.4,2.9,1.2s1,2,1,3.5
		c0,1.6-0.3,2.7-1,3.5s-1.7,1.2-2.9,1.2C143.5,685.9,142.6,685.5,141.9,684.7z M146,683.5c0.3-0.5,0.4-1.2,0.4-2.3
		c0-1-0.1-1.8-0.4-2.2c-0.3-0.5-0.7-0.7-1.2-0.7s-0.9,0.2-1.2,0.7c-0.3,0.5-0.4,1.2-0.4,2.3c0,1.1,0.1,1.8,0.4,2.3
		c0.3,0.5,0.7,0.7,1.2,0.7C145.3,684.1,145.7,683.9,146,683.5z M146.7,692.4c-0.2,0.1-0.4,0.2-0.6,0.2c-0.3,0-0.5-0.1-0.7-0.3
		c-0.2-0.2-0.3-0.4-0.3-0.7c0-0.2,0.1-0.5,0.2-0.7l8-13.8c0.1-0.2,0.3-0.4,0.5-0.5c0.2-0.1,0.4-0.2,0.6-0.2c0.3,0,0.5,0.1,0.7,0.3
		c0.2,0.2,0.3,0.4,0.3,0.7c0,0.2-0.1,0.5-0.2,0.7l-8,13.8C147.1,692.1,146.9,692.3,146.7,692.4z M153,691.1c-0.7-0.8-1-2-1-3.6
		c0-1.5,0.3-2.7,1-3.5c0.7-0.8,1.7-1.2,2.9-1.2c1.2,0,2.2,0.4,2.9,1.2c0.7,0.8,1,2,1,3.5c0,1.6-0.3,2.7-1,3.5
		c-0.7,0.8-1.6,1.2-2.9,1.2C154.6,692.3,153.6,691.9,153,691.1z M157,689.9c0.3-0.5,0.4-1.2,0.4-2.3c0-1-0.1-1.8-0.4-2.2
		c-0.3-0.5-0.7-0.7-1.2-0.7c-0.5,0-0.9,0.2-1.2,0.7c-0.3,0.5-0.4,1.2-0.4,2.2c0,1.1,0.1,1.8,0.4,2.3c0.3,0.5,0.7,0.7,1.2,0.7
		C156.4,690.5,156.8,690.3,157,689.9z"/>
</g>
<g>
	<path class="st1" d="M94,618c0,0.8-0.4,1.2-1.3,1.2h-7.4c-0.9,0-1.3-0.4-1.3-1.2c0-0.7,0.4-1.1,1.3-1.1h2.3v-10l-2.1,1.3
		c-0.2,0.1-0.4,0.2-0.6,0.2c-0.3,0-0.6-0.1-0.8-0.4c-0.2-0.3-0.3-0.6-0.3-0.9c0-0.4,0.2-0.8,0.6-1l3.4-2.1c0.4-0.3,0.9-0.4,1.3-0.4
		c0.4,0,0.7,0.1,1,0.4c0.2,0.3,0.4,0.6,0.4,1v11.9h2.3C93.6,616.9,94,617.3,94,618z"/>
	<path class="st1" d="M97.3,617.3c-1-1.4-1.5-3.3-1.5-5.9c0-2.6,0.5-4.6,1.5-5.9c1-1.4,2.4-2,4.2-2c1.8,0,3.2,0.7,4.2,2
		c1,1.4,1.5,3.3,1.5,5.9c0,2.6-0.5,4.6-1.5,5.9c-1,1.4-2.4,2-4.2,2C99.6,619.4,98.2,618.7,97.3,617.3z M103.6,615.8
		c0.5-0.9,0.7-2.4,0.7-4.4c0-2-0.2-3.5-0.7-4.4c-0.5-0.9-1.2-1.4-2.2-1.4c-1,0-1.7,0.5-2.2,1.4s-0.7,2.4-0.7,4.4
		c0,2,0.2,3.5,0.7,4.4c0.5,0.9,1.2,1.4,2.2,1.4C102.4,617.1,103.2,616.7,103.6,615.8z"/>
	<path class="st1" d="M109.6,618.8c-0.3-0.3-0.5-0.7-0.5-1.2c0-0.5,0.2-0.9,0.5-1.2c0.3-0.3,0.7-0.5,1.2-0.5c0.5,0,0.9,0.2,1.2,0.5
		c0.3,0.3,0.5,0.7,0.5,1.2c0,0.5-0.2,0.9-0.5,1.2s-0.7,0.5-1.2,0.5C110.3,619.3,109.9,619.1,109.6,618.8z"/>
	<path class="st1" d="M115.9,617.3c-1-1.4-1.5-3.3-1.5-5.9c0-2.6,0.5-4.6,1.5-5.9c1-1.4,2.4-2,4.2-2c1.8,0,3.2,0.7,4.2,2
		c1,1.4,1.5,3.3,1.5,5.9c0,2.6-0.5,4.6-1.5,5.9c-1,1.4-2.4,2-4.2,2C118.3,619.4,116.9,618.7,115.9,617.3z M122.3,615.8
		c0.5-0.9,0.7-2.4,0.7-4.4c0-2-0.2-3.5-0.7-4.4c-0.5-0.9-1.2-1.4-2.2-1.4c-1,0-1.7,0.5-2.2,1.4s-0.7,2.4-0.7,4.4
		c0,2,0.2,3.5,0.7,4.4c0.5,0.9,1.2,1.4,2.2,1.4C121.1,617.1,121.8,616.7,122.3,615.8z"/>
	<path class="st1" d="M129.1,617.3c-1-1.4-1.5-3.3-1.5-5.9c0-2.6,0.5-4.6,1.5-5.9c1-1.4,2.4-2,4.2-2c1.8,0,3.2,0.7,4.2,2
		c1,1.4,1.5,3.3,1.5,5.9c0,2.6-0.5,4.6-1.5,5.9c-1,1.4-2.4,2-4.2,2C131.5,619.4,130.1,618.7,129.1,617.3z M135.5,615.8
		c0.5-0.9,0.7-2.4,0.7-4.4c0-2-0.2-3.5-0.7-4.4c-0.5-0.9-1.2-1.4-2.2-1.4c-1,0-1.7,0.5-2.2,1.4s-0.7,2.4-0.7,4.4
		c0,2,0.2,3.5,0.7,4.4c0.5,0.9,1.2,1.4,2.2,1.4C134.3,617.1,135,616.7,135.5,615.8z"/>
	<path class="st1" d="M141.9,611.7c-0.7-0.8-1-2-1-3.5c0-1.5,0.3-2.7,1-3.5s1.6-1.2,2.9-1.2c1.2,0,2.2,0.4,2.9,1.2s1,2,1,3.5
		c0,1.6-0.3,2.7-1,3.5s-1.7,1.2-2.9,1.2C143.5,612.9,142.6,612.5,141.9,611.7z M146,610.5c0.3-0.5,0.4-1.2,0.4-2.3
		c0-1-0.1-1.8-0.4-2.2c-0.3-0.5-0.7-0.7-1.2-0.7s-0.9,0.2-1.2,0.7c-0.3,0.5-0.4,1.2-0.4,2.3c0,1.1,0.1,1.8,0.4,2.3
		c0.3,0.5,0.7,0.7,1.2,0.7C145.3,611.1,145.7,610.9,146,610.5z M146.7,619.4c-0.2,0.1-0.4,0.2-0.6,0.2c-0.3,0-0.5-0.1-0.7-0.3
		c-0.2-0.2-0.3-0.4-0.3-0.7c0-0.2,0.1-0.5,0.2-0.7l8-13.8c0.1-0.2,0.3-0.4,0.5-0.5c0.2-0.1,0.4-0.2,0.6-0.2c0.3,0,0.5,0.1,0.7,0.3
		c0.2,0.2,0.3,0.4,0.3,0.7c0,0.2-0.1,0.5-0.2,0.7l-8,13.8C147.1,619.1,146.9,619.3,146.7,619.4z M153,618.1c-0.7-0.8-1-2-1-3.6
		c0-1.5,0.3-2.7,1-3.5c0.7-0.8,1.7-1.2,2.9-1.2c1.2,0,2.2,0.4,2.9,1.2c0.7,0.8,1,2,1,3.5c0,1.6-0.3,2.7-1,3.5
		c-0.7,0.8-1.6,1.2-2.9,1.2C154.6,619.3,153.6,618.9,153,618.1z M157,616.9c0.3-0.5,0.4-1.2,0.4-2.3c0-1-0.1-1.8-0.4-2.2
		c-0.3-0.5-0.7-0.7-1.2-0.7c-0.5,0-0.9,0.2-1.2,0.7c-0.3,0.5-0.4,1.2-0.4,2.2c0,1.1,0.1,1.8,0.4,2.3c0.3,0.5,0.7,0.7,1.2,0.7
		C156.4,617.5,156.8,617.3,157,616.9z"/>
</g>
<line class="st2" x1="180.1" y1="99.5" x2="1184" y2="99.5"/>
<line class="st2" x1="180.1" y1="538.4" x2="1184" y2="538.4"/>
<line class="st2" x1="180.1" y1="465.2" x2="1184" y2="465.2"/>
<line class="st2" x1="180.1" y1="392.1" x2="1184" y2="392.1"/>
<line class="st2" x1="180.1" y1="318.9" x2="1184" y2="318.9"/>
<line class="st2" x1="180.1" y1="245.8" x2="1184" y2="245.8"/>
<line class="st2" x1="179" y1="611.5" x2="1182.9" y2="611.5"/>
<line class="st2" x1="180.1" y1="172.6" x2="1184" y2="172.6"/>
<path class="st3" d="M265,179c26.7,0,53.3,0,80,0c0,46.3,0,92.7,0,139v1c0,24.3,0,48.7,0,73v1c0,24,0,48,0,72v1c0,24,0,48,0,72v1
	c0,24,0,48,0,72v1c0,24.3,0,48.7,0,73c-26.7,0.1-53.3,0-80,0C265,516.3,265,347.7,265,179z"/>
<path class="st4" d="M516,250c26.7,0,53.3,0,80,0c0,120.3,0,240.7,0,361v1c0,24.3,0,48.7,0,73c-26.7,0.1-53.3,0.1-80,0
	c0-24.3,0-48.7,0-73v-1c0-24,0-48,0-72v-1c0-24,0-48,0-72v-1c0-24,0-48,0-72v-1c0-24.3,0-48.7,0-73v-1C516,295.3,516,272.7,516,250z
	"/>
<path class="st5" d="M768,541c26.3,0,52.7,0,79,0c0,48,0,96,0,144c-26.3,0-52.7,0-79,0c0-24.3,0-48.7,0-73v-1
	C768,587.7,768,564.3,768,541z"/>
<path class="st6" d="M1019,643c26.7,0,53.3,0,80,0c0,14,0,28,0,42c-26.7,0.1-53.3,0.1-80,0C1019,671,1019,657,1019,643z"/>
<line class="st2" x1="179" y1="685.5" x2="1182.9" y2="685.5"/>
<g>
	<path class="st1" d="M528.3,226.8c0.7,0.4,1.3,1,1.7,1.7c0.4,0.7,0.6,1.6,0.6,2.6c0,1-0.2,1.9-0.7,2.7s-1.1,1.4-2,1.8
		c-0.8,0.4-1.8,0.6-2.9,0.6c-0.9,0-1.8-0.2-2.7-0.5c-0.9-0.3-1.6-0.7-2.2-1.2c-0.3-0.3-0.5-0.6-0.5-1c0-0.3,0.1-0.6,0.3-0.8
		c0.2-0.2,0.4-0.3,0.6-0.3c0.1,0,0.3,0,0.4,0.1c0.1,0.1,0.3,0.1,0.5,0.3c0.6,0.4,1.2,0.7,1.7,0.9s1.2,0.3,1.8,0.3
		c1,0,1.7-0.2,2.2-0.7c0.5-0.5,0.8-1.2,0.8-2.1c0-0.9-0.3-1.6-0.8-2.1c-0.5-0.5-1.2-0.8-2.1-0.8c-0.6,0-1.1,0.1-1.5,0.2
		c-0.4,0.2-0.9,0.4-1.4,0.8c-0.3,0.2-0.6,0.3-0.9,0.3c-0.3,0-0.5-0.1-0.7-0.3c-0.2-0.2-0.3-0.4-0.3-0.7v-6.9c0-0.4,0.1-0.7,0.4-1
		c0.2-0.2,0.6-0.4,1-0.4h7.3c0.9,0,1.3,0.4,1.3,1.1s-0.4,1.1-1.3,1.1H523v4.2c0.7-0.5,1.7-0.8,2.8-0.8
		C526.7,226.2,527.6,226.4,528.3,226.8z"/>
	<path class="st1" d="M542.2,222.4c1.1,1.3,1.6,3.2,1.6,5.7c0,1.7-0.2,3.2-0.7,4.4s-1.2,2.2-2.1,2.8c-0.9,0.7-2,1-3.3,1
		c-0.8,0-1.7-0.2-2.5-0.5s-1.6-0.7-2.1-1.2c-0.2-0.2-0.3-0.3-0.4-0.5c-0.1-0.2-0.1-0.3-0.1-0.6c0-0.3,0.1-0.6,0.3-0.8
		s0.4-0.3,0.6-0.3c0.1,0,0.3,0,0.4,0.1c0.1,0.1,0.3,0.1,0.5,0.3c1.2,0.9,2.3,1.3,3.3,1.3c1.1,0,1.9-0.5,2.5-1.5c0.6-1,0.9-2.4,1-4.2
		c-0.3,0.7-0.8,1.2-1.5,1.6c-0.7,0.4-1.4,0.6-2.3,0.6c-0.9,0-1.7-0.2-2.5-0.6c-0.7-0.4-1.3-1-1.7-1.8c-0.4-0.8-0.6-1.6-0.6-2.6
		c0-1,0.2-1.9,0.7-2.7c0.4-0.8,1.1-1.4,1.8-1.8c0.8-0.4,1.7-0.7,2.7-0.7C539.6,220.4,541.1,221.1,542.2,222.4z M539.8,227.5
		c0.5-0.5,0.8-1.2,0.8-2c0-0.9-0.3-1.5-0.8-2.1c-0.5-0.5-1.2-0.8-2-0.8c-0.8,0-1.5,0.3-1.9,0.8s-0.7,1.2-0.7,2.1s0.2,1.5,0.7,2
		c0.5,0.5,1.1,0.8,1.9,0.8C538.6,228.3,539.3,228,539.8,227.5z"/>
	<path class="st1" d="M546.3,235.8c-0.3-0.3-0.5-0.7-0.5-1.2c0-0.5,0.2-0.9,0.5-1.2c0.3-0.3,0.7-0.5,1.2-0.5c0.5,0,0.9,0.2,1.2,0.5
		c0.3,0.3,0.5,0.7,0.5,1.2c0,0.5-0.2,0.9-0.5,1.2s-0.7,0.5-1.2,0.5C547,236.2,546.6,236.1,546.3,235.8z"/>
	<path class="st1" d="M561.3,229.5c0.5,0.7,0.7,1.5,0.7,2.4c0,1.3-0.5,2.4-1.5,3.2s-2.3,1.2-4,1.2c-1,0-1.9-0.1-2.8-0.4
		c-0.9-0.3-1.6-0.7-2.2-1.2c-0.3-0.3-0.5-0.6-0.5-1c0-0.3,0.1-0.6,0.3-0.8c0.2-0.2,0.4-0.3,0.6-0.3c0.1,0,0.3,0,0.4,0.1
		c0.1,0.1,0.3,0.1,0.5,0.3c0.6,0.4,1.2,0.7,1.8,0.9c0.6,0.2,1.2,0.3,1.8,0.3c1,0,1.7-0.2,2.2-0.6s0.7-1,0.7-1.8
		c0-0.8-0.2-1.4-0.7-1.7c-0.5-0.4-1.3-0.6-2.3-0.6h-1.3c-0.3,0-0.6-0.1-0.8-0.3c-0.2-0.2-0.3-0.5-0.3-0.8c0-0.3,0.1-0.6,0.3-0.8
		c0.2-0.2,0.4-0.3,0.8-0.3h0.9c2,0,3-0.8,3-2.3c0-0.7-0.2-1.2-0.6-1.6c-0.4-0.4-1-0.6-1.8-0.6c-1.1,0-2.2,0.4-3.4,1.3
		c-0.2,0.1-0.4,0.2-0.5,0.3c-0.1,0.1-0.2,0.1-0.4,0.1c-0.2,0-0.5-0.1-0.6-0.3c-0.2-0.2-0.3-0.5-0.3-0.8c0-0.2,0-0.4,0.1-0.6
		c0.1-0.2,0.2-0.3,0.4-0.5c0.6-0.5,1.4-0.9,2.2-1.2s1.7-0.5,2.6-0.5c1.5,0,2.7,0.4,3.6,1.1c0.9,0.7,1.4,1.7,1.4,3
		c0,0.9-0.2,1.6-0.7,2.2c-0.4,0.6-1,1.1-1.8,1.4C560.1,228.4,560.8,228.8,561.3,229.5z"/>
	<path class="st1" d="M565.8,234.3c-1-1.4-1.5-3.3-1.5-5.9c0-2.6,0.5-4.6,1.5-5.9c1-1.4,2.4-2,4.2-2c1.8,0,3.2,0.7,4.2,2
		c1,1.4,1.5,3.3,1.5,5.9c0,2.6-0.5,4.6-1.5,5.9c-1,1.4-2.4,2-4.2,2C568.2,236.3,566.8,235.6,565.8,234.3z M572.2,232.7
		c0.5-0.9,0.7-2.4,0.7-4.4c0-2-0.2-3.5-0.7-4.4c-0.5-0.9-1.2-1.4-2.2-1.4c-1,0-1.7,0.5-2.2,1.4s-0.7,2.4-0.7,4.4
		c0,2,0.2,3.5,0.7,4.4c0.5,0.9,1.2,1.4,2.2,1.4C571,234.1,571.7,233.6,572.2,232.7z"/>
	<path class="st1" d="M578.6,228.6c-0.7-0.8-1-2-1-3.5c0-1.5,0.3-2.7,1-3.5s1.6-1.2,2.9-1.2c1.2,0,2.2,0.4,2.9,1.2s1,2,1,3.5
		c0,1.6-0.3,2.7-1,3.5s-1.7,1.2-2.9,1.2C580.2,229.9,579.3,229.4,578.6,228.6z M582.7,227.4c0.3-0.5,0.4-1.2,0.4-2.3
		c0-1-0.1-1.8-0.4-2.2c-0.3-0.5-0.7-0.7-1.2-0.7s-0.9,0.2-1.2,0.7c-0.3,0.5-0.4,1.2-0.4,2.3c0,1.1,0.1,1.8,0.4,2.3
		c0.3,0.5,0.7,0.7,1.2,0.7C582,228.1,582.4,227.8,582.7,227.4z M583.4,236.3c-0.2,0.1-0.4,0.2-0.6,0.2c-0.3,0-0.5-0.1-0.7-0.3
		c-0.2-0.2-0.3-0.4-0.3-0.7c0-0.2,0.1-0.5,0.2-0.7l8-13.8c0.1-0.2,0.3-0.4,0.5-0.5c0.2-0.1,0.4-0.2,0.6-0.2c0.3,0,0.5,0.1,0.7,0.3
		c0.2,0.2,0.3,0.4,0.3,0.7c0,0.2-0.1,0.5-0.2,0.7l-8,13.8C583.8,236,583.6,236.2,583.4,236.3z M589.7,235c-0.7-0.8-1-2-1-3.6
		c0-1.5,0.3-2.7,1-3.5c0.7-0.8,1.7-1.2,2.9-1.2c1.2,0,2.2,0.4,2.9,1.2c0.7,0.8,1,2,1,3.5c0,1.6-0.3,2.7-1,3.5
		c-0.7,0.8-1.6,1.2-2.9,1.2C591.3,236.3,590.4,235.9,589.7,235z M593.8,233.8c0.3-0.5,0.4-1.2,0.4-2.3c0-1-0.1-1.8-0.4-2.2
		c-0.3-0.5-0.7-0.7-1.2-0.7c-0.5,0-0.9,0.2-1.2,0.7c-0.3,0.5-0.4,1.2-0.4,2.2c0,1.1,0.1,1.8,0.4,2.3c0.3,0.5,0.7,0.7,1.2,0.7
		C593.1,234.5,593.5,234.2,593.8,233.8z"/>
</g>
<g>
	<path class="st1" d="M781.4,528.8c0,0.8-0.4,1.2-1.3,1.2h-7.4c-0.9,0-1.3-0.4-1.3-1.2c0-0.7,0.4-1.1,1.3-1.1h2.3v-10l-2.1,1.3
		c-0.2,0.1-0.4,0.2-0.6,0.2c-0.3,0-0.6-0.1-0.8-0.4c-0.2-0.3-0.3-0.6-0.3-0.9c0-0.4,0.2-0.8,0.6-1l3.4-2.1c0.4-0.3,0.9-0.4,1.3-0.4
		c0.4,0,0.7,0.1,1,0.4c0.3,0.3,0.4,0.6,0.4,1v11.9h2.3C780.9,527.7,781.4,528.1,781.4,528.8z"/>
	<path class="st1" d="M792.9,516.3c1.1,1.3,1.6,3.2,1.6,5.7c0,1.7-0.2,3.2-0.7,4.4c-0.5,1.2-1.2,2.2-2.1,2.8c-0.9,0.7-2,1-3.3,1
		c-0.8,0-1.7-0.2-2.5-0.5c-0.8-0.3-1.6-0.7-2.1-1.2c-0.2-0.2-0.3-0.3-0.4-0.5c-0.1-0.2-0.1-0.3-0.1-0.6c0-0.3,0.1-0.6,0.3-0.8
		s0.4-0.3,0.6-0.3c0.1,0,0.3,0,0.4,0.1c0.1,0.1,0.3,0.1,0.5,0.3c1.2,0.9,2.3,1.3,3.3,1.3c1.1,0,1.9-0.5,2.5-1.5c0.6-1,0.9-2.4,1-4.2
		c-0.3,0.7-0.8,1.2-1.5,1.6c-0.7,0.4-1.4,0.6-2.3,0.6c-0.9,0-1.7-0.2-2.5-0.6s-1.3-1-1.7-1.8c-0.4-0.8-0.6-1.6-0.6-2.6
		c0-1,0.2-1.9,0.7-2.7c0.4-0.8,1.1-1.4,1.8-1.8c0.8-0.4,1.7-0.7,2.7-0.7C790.3,514.3,791.8,514.9,792.9,516.3z M790.5,521.4
		c0.5-0.5,0.8-1.2,0.8-2c0-0.9-0.3-1.5-0.8-2.1c-0.5-0.5-1.2-0.8-2-0.8c-0.8,0-1.5,0.3-1.9,0.8c-0.5,0.5-0.7,1.2-0.7,2.1
		s0.2,1.5,0.7,2c0.5,0.5,1.1,0.8,1.9,0.8C789.3,522.2,790,521.9,790.5,521.4z"/>
	<path class="st1" d="M797,529.6c-0.3-0.3-0.5-0.7-0.5-1.2c0-0.5,0.2-0.9,0.5-1.2c0.3-0.3,0.7-0.5,1.2-0.5c0.5,0,0.9,0.2,1.2,0.5
		c0.3,0.3,0.5,0.7,0.5,1.2c0,0.5-0.2,0.9-0.5,1.2c-0.3,0.3-0.7,0.5-1.2,0.5C797.7,530.1,797.3,530,797,529.6z"/>
	<path class="st1" d="M810.9,520.7c0.7,0.4,1.3,1,1.7,1.7s0.6,1.6,0.6,2.6c0,1-0.2,1.9-0.7,2.7s-1.1,1.4-2,1.8s-1.8,0.6-2.9,0.6
		c-0.9,0-1.8-0.2-2.7-0.5c-0.9-0.3-1.6-0.7-2.2-1.2c-0.3-0.3-0.5-0.6-0.5-1c0-0.3,0.1-0.6,0.3-0.8c0.2-0.2,0.4-0.3,0.6-0.3
		c0.1,0,0.3,0,0.4,0.1c0.1,0.1,0.3,0.1,0.5,0.3c0.6,0.4,1.2,0.7,1.7,0.9s1.2,0.3,1.8,0.3c1,0,1.7-0.2,2.2-0.7
		c0.5-0.5,0.8-1.2,0.8-2.1c0-0.9-0.3-1.6-0.8-2.1c-0.5-0.5-1.2-0.8-2.1-0.8c-0.6,0-1.1,0.1-1.5,0.2c-0.4,0.2-0.9,0.4-1.4,0.8
		c-0.3,0.2-0.6,0.3-0.9,0.3c-0.3,0-0.5-0.1-0.7-0.3s-0.3-0.4-0.3-0.7v-6.9c0-0.4,0.1-0.7,0.4-1c0.2-0.2,0.6-0.4,1-0.4h7.3
		c0.9,0,1.3,0.4,1.3,1.1s-0.4,1.1-1.3,1.1h-5.9v4.2c0.7-0.5,1.7-0.8,2.8-0.8C809.3,520.1,810.1,520.3,810.9,520.7z"/>
	<path class="st1" d="M824.1,520.7c0.7,0.4,1.3,1,1.7,1.8c0.4,0.8,0.6,1.6,0.6,2.6c0,1-0.2,1.9-0.7,2.7c-0.4,0.8-1.1,1.4-1.8,1.8
		c-0.8,0.4-1.7,0.7-2.7,0.7c-2,0-3.5-0.7-4.5-2s-1.6-3.2-1.6-5.7c0-1.7,0.2-3.1,0.7-4.4c0.5-1.2,1.2-2.2,2.1-2.8s2-1,3.3-1
		c0.8,0,1.7,0.2,2.5,0.5c0.8,0.3,1.6,0.7,2.1,1.2c0.2,0.2,0.3,0.3,0.4,0.5c0.1,0.2,0.1,0.3,0.1,0.6c0,0.3-0.1,0.6-0.3,0.8
		s-0.4,0.3-0.6,0.3c-0.1,0-0.3,0-0.4-0.1c-0.1-0.1-0.3-0.1-0.5-0.3c-1.2-0.9-2.3-1.3-3.3-1.3c-1.1,0-1.9,0.5-2.5,1.5s-0.9,2.4-1,4.2
		c0.3-0.7,0.8-1.2,1.5-1.6c0.7-0.4,1.4-0.6,2.3-0.6C822.6,520,823.4,520.3,824.1,520.7z M823,527.2c0.5-0.5,0.7-1.2,0.7-2.1
		s-0.2-1.5-0.7-2s-1.1-0.8-1.9-0.8c-0.8,0-1.5,0.3-2,0.8s-0.8,1.2-0.8,2c0,0.9,0.3,1.5,0.8,2.1s1.2,0.8,2,0.8
		C821.8,527.9,822.5,527.7,823,527.2z"/>
	<path class="st1" d="M829.3,522.5c-0.7-0.8-1-2-1-3.5c0-1.5,0.3-2.7,1-3.5s1.6-1.2,2.9-1.2s2.2,0.4,2.9,1.2c0.7,0.8,1,2,1,3.5
		c0,1.6-0.3,2.7-1,3.5c-0.7,0.8-1.7,1.2-2.9,1.2S830,523.3,829.3,522.5z M833.4,521.3c0.3-0.5,0.4-1.2,0.4-2.3c0-1-0.1-1.8-0.4-2.2
		c-0.3-0.5-0.7-0.7-1.2-0.7c-0.5,0-0.9,0.2-1.2,0.7s-0.4,1.2-0.4,2.3c0,1.1,0.1,1.8,0.4,2.3s0.7,0.7,1.2,0.7
		C832.7,522,833.1,521.7,833.4,521.3z M834.1,530.2c-0.2,0.1-0.4,0.2-0.6,0.2c-0.3,0-0.5-0.1-0.7-0.3c-0.2-0.2-0.3-0.4-0.3-0.7
		c0-0.2,0.1-0.5,0.2-0.7l8-13.8c0.1-0.2,0.3-0.4,0.5-0.5c0.2-0.1,0.4-0.2,0.6-0.2c0.3,0,0.5,0.1,0.7,0.3s0.3,0.4,0.3,0.7
		c0,0.2-0.1,0.5-0.2,0.7l-8,13.8C834.5,529.9,834.3,530.1,834.1,530.2z M840.3,528.9c-0.7-0.8-1-2-1-3.6c0-1.5,0.3-2.7,1-3.5
		c0.7-0.8,1.7-1.2,2.9-1.2c1.2,0,2.2,0.4,2.9,1.2c0.7,0.8,1,2,1,3.5c0,1.6-0.3,2.7-1,3.5c-0.7,0.8-1.7,1.2-2.9,1.2
		C842,530.1,841,529.7,840.3,528.9z M844.4,527.7c0.3-0.5,0.4-1.2,0.4-2.3c0-1-0.1-1.8-0.4-2.2c-0.3-0.5-0.7-0.7-1.2-0.7
		c-0.5,0-0.9,0.2-1.2,0.7c-0.3,0.5-0.4,1.2-0.4,2.2c0,1.1,0.1,1.8,0.4,2.3c0.3,0.5,0.7,0.7,1.2,0.7
		C843.8,528.4,844.2,528.1,844.4,527.7z"/>
</g>
<g>
	<path class="st1" d="M1039,626.7c0.7,0.4,1.3,1,1.7,1.7s0.6,1.6,0.6,2.6c0,1-0.2,1.9-0.7,2.7s-1.1,1.4-2,1.8s-1.8,0.6-2.9,0.6
		c-0.9,0-1.8-0.2-2.7-0.5c-0.9-0.3-1.6-0.7-2.2-1.2c-0.3-0.3-0.5-0.6-0.5-1c0-0.3,0.1-0.6,0.3-0.8c0.2-0.2,0.4-0.3,0.6-0.3
		c0.1,0,0.3,0,0.4,0.1c0.1,0.1,0.3,0.1,0.5,0.3c0.6,0.4,1.2,0.7,1.7,0.9s1.2,0.3,1.8,0.3c1,0,1.7-0.2,2.2-0.7
		c0.5-0.5,0.8-1.2,0.8-2.1c0-0.9-0.3-1.6-0.8-2.1c-0.5-0.5-1.2-0.8-2.1-0.8c-0.6,0-1.1,0.1-1.5,0.2c-0.4,0.2-0.9,0.4-1.4,0.8
		c-0.3,0.2-0.6,0.3-0.9,0.3c-0.3,0-0.5-0.1-0.7-0.3s-0.3-0.4-0.3-0.7v-6.9c0-0.4,0.1-0.7,0.4-1c0.2-0.2,0.6-0.4,1-0.4h7.3
		c0.9,0,1.3,0.4,1.3,1.1s-0.4,1.1-1.3,1.1h-5.9v4.2c0.7-0.5,1.7-0.8,2.8-0.8C1037.4,626.1,1038.3,626.3,1039,626.7z"/>
	<path class="st1" d="M1043.8,635.6c-0.3-0.3-0.5-0.7-0.5-1.2c0-0.5,0.2-0.9,0.5-1.2c0.3-0.3,0.7-0.5,1.2-0.5s0.9,0.2,1.2,0.5
		c0.3,0.3,0.5,0.7,0.5,1.2c0,0.5-0.2,0.9-0.5,1.2c-0.3,0.3-0.7,0.5-1.2,0.5S1044.1,636,1043.8,635.6z"/>
	<path class="st1" d="M1059.6,620.8c0.2,0.2,0.3,0.5,0.3,0.8c0,0.3-0.1,0.7-0.3,1.1l-7,12.7c-0.3,0.5-0.7,0.7-1.2,0.7
		c-0.4,0-0.7-0.1-0.9-0.4c-0.3-0.2-0.4-0.5-0.4-0.9c0-0.2,0.1-0.5,0.2-0.7l6.3-11.4h-6.6c-0.9,0-1.3-0.4-1.3-1.1
		c0-0.8,0.4-1.2,1.3-1.2h8.8C1059.1,620.5,1059.4,620.6,1059.6,620.8z"/>
	<path class="st1" d="M1073.4,631c0.2,0.2,0.3,0.5,0.3,0.8c0,0.7-0.4,1.1-1.3,1.1h-1.1v1.7c0,0.5-0.1,0.8-0.4,1.1s-0.6,0.4-1,0.4
		c-0.4,0-0.7-0.1-1-0.4s-0.4-0.6-0.4-1.1V633h-5.8c-0.4,0-0.7-0.1-0.9-0.3c-0.2-0.2-0.3-0.5-0.3-0.8c0-0.4,0.1-0.7,0.4-1l6.8-9.8
		c0.1-0.2,0.3-0.4,0.5-0.5c0.2-0.1,0.4-0.2,0.7-0.2c0.4,0,0.7,0.1,1,0.4c0.3,0.2,0.4,0.6,0.4,1.1v9h1.1
		C1072.9,630.8,1073.2,630.8,1073.4,631z M1064.4,630.8h4.1v-5.9L1064.4,630.8z"/>
	<path class="st1" d="M1076.1,628.5c-0.7-0.8-1-2-1-3.5c0-1.5,0.3-2.7,1-3.5s1.7-1.2,2.9-1.2c1.2,0,2.2,0.4,2.9,1.2
		c0.7,0.8,1,2,1,3.5c0,1.6-0.3,2.7-1,3.5c-0.7,0.8-1.7,1.2-2.9,1.2C1077.7,629.7,1076.8,629.3,1076.1,628.5z M1080.2,627.3
		c0.3-0.5,0.4-1.2,0.4-2.3c0-1-0.1-1.8-0.4-2.2c-0.3-0.5-0.7-0.7-1.2-0.7c-0.5,0-0.9,0.2-1.2,0.7c-0.3,0.5-0.4,1.2-0.4,2.3
		c0,1.1,0.1,1.8,0.4,2.3c0.3,0.5,0.7,0.7,1.2,0.7C1079.5,628,1079.9,627.7,1080.2,627.3z M1080.9,636.2c-0.2,0.1-0.4,0.2-0.6,0.2
		c-0.3,0-0.5-0.1-0.7-0.3s-0.3-0.4-0.3-0.7c0-0.2,0.1-0.5,0.2-0.7l8-13.8c0.1-0.2,0.3-0.4,0.5-0.5c0.2-0.1,0.4-0.2,0.6-0.2
		c0.3,0,0.5,0.1,0.7,0.3c0.2,0.2,0.3,0.4,0.3,0.7c0,0.2-0.1,0.5-0.2,0.7l-8,13.8C1081.3,635.9,1081.1,636.1,1080.9,636.2z
		 M1087.1,634.9c-0.7-0.8-1-2-1-3.6c0-1.5,0.3-2.7,1-3.5c0.7-0.8,1.7-1.2,2.9-1.2c1.2,0,2.2,0.4,2.9,1.2s1,2,1,3.5
		c0,1.6-0.3,2.7-1,3.5s-1.6,1.2-2.9,1.2S1087.8,635.7,1087.1,634.9z M1091.2,633.7c0.3-0.5,0.4-1.2,0.4-2.3c0-1-0.1-1.8-0.4-2.2
		s-0.7-0.7-1.2-0.7c-0.5,0-0.9,0.2-1.2,0.7s-0.4,1.2-0.4,2.2c0,1.1,0.1,1.8,0.4,2.3s0.7,0.7,1.2,0.7
		C1090.6,634.4,1091,634.1,1091.2,633.7z"/>
</g>
<g>
	<path class="st1" d="M275.4,157.1c0.7,0.4,1.3,1,1.7,1.8c0.4,0.8,0.6,1.6,0.6,2.6c0,1-0.2,1.9-0.7,2.7c-0.4,0.8-1.1,1.4-1.8,1.8
		c-0.8,0.4-1.7,0.7-2.7,0.7c-2,0-3.5-0.7-4.5-2c-1.1-1.3-1.6-3.2-1.6-5.7c0-1.7,0.2-3.1,0.7-4.4s1.2-2.2,2.1-2.8c0.9-0.7,2-1,3.3-1
		c0.8,0,1.7,0.2,2.5,0.5c0.8,0.3,1.6,0.7,2.1,1.2c0.2,0.2,0.3,0.3,0.4,0.5c0.1,0.2,0.1,0.3,0.1,0.6c0,0.3-0.1,0.6-0.3,0.8
		c-0.2,0.2-0.4,0.3-0.6,0.3c-0.1,0-0.3,0-0.4-0.1c-0.1-0.1-0.3-0.1-0.5-0.3c-1.2-0.9-2.3-1.3-3.3-1.3c-1.1,0-1.9,0.5-2.5,1.5
		s-0.9,2.4-1,4.2c0.3-0.7,0.8-1.2,1.5-1.6c0.7-0.4,1.4-0.6,2.3-0.6C273.9,156.4,274.7,156.6,275.4,157.1z M274.3,163.5
		c0.5-0.5,0.7-1.2,0.7-2.1s-0.2-1.5-0.7-2c-0.5-0.5-1.1-0.8-1.9-0.8c-0.8,0-1.5,0.3-2,0.8s-0.8,1.2-0.8,2c0,0.9,0.3,1.5,0.8,2.1
		s1.2,0.8,2,0.8C273.2,164.3,273.8,164.1,274.3,163.5z"/>
	<path class="st1" d="M289.3,152.7c1.1,1.3,1.6,3.2,1.6,5.7c0,1.7-0.2,3.2-0.7,4.4s-1.2,2.2-2.1,2.8c-0.9,0.7-2,1-3.3,1
		c-0.8,0-1.7-0.2-2.5-0.5s-1.6-0.7-2.1-1.2c-0.2-0.2-0.3-0.3-0.4-0.5c-0.1-0.2-0.1-0.3-0.1-0.6c0-0.3,0.1-0.6,0.3-0.8
		s0.4-0.3,0.6-0.3c0.1,0,0.3,0,0.4,0.1c0.1,0.1,0.3,0.1,0.5,0.3c1.2,0.9,2.3,1.3,3.3,1.3c1.1,0,1.9-0.5,2.5-1.5c0.6-1,0.9-2.4,1-4.2
		c-0.3,0.7-0.8,1.2-1.5,1.6c-0.7,0.4-1.4,0.6-2.3,0.6c-0.9,0-1.7-0.2-2.5-0.6c-0.7-0.4-1.3-1-1.7-1.8c-0.4-0.8-0.6-1.6-0.6-2.6
		c0-1,0.2-1.9,0.7-2.7c0.4-0.8,1.1-1.4,1.8-1.8c0.8-0.4,1.7-0.7,2.7-0.7C286.7,150.7,288.2,151.3,289.3,152.7z M286.9,157.8
		c0.5-0.5,0.8-1.2,0.8-2c0-0.9-0.3-1.5-0.8-2.1c-0.5-0.5-1.2-0.8-2-0.8c-0.8,0-1.5,0.3-1.9,0.8s-0.7,1.2-0.7,2.1s0.2,1.5,0.7,2
		c0.5,0.5,1.1,0.8,1.9,0.8C285.7,158.6,286.4,158.3,286.9,157.8z"/>
	<path class="st1" d="M293.4,166c-0.3-0.3-0.5-0.7-0.5-1.2c0-0.5,0.2-0.9,0.5-1.2c0.3-0.3,0.7-0.5,1.2-0.5c0.5,0,0.9,0.2,1.2,0.5
		c0.3,0.3,0.5,0.7,0.5,1.2c0,0.5-0.2,0.9-0.5,1.2s-0.7,0.5-1.2,0.5C294.1,166.5,293.7,166.4,293.4,166z"/>
	<path class="st1" d="M299.7,164.5c-1-1.4-1.5-3.3-1.5-5.9c0-2.6,0.5-4.6,1.5-5.9c1-1.4,2.4-2,4.2-2c1.8,0,3.2,0.7,4.2,2
		c1,1.4,1.5,3.3,1.5,5.9c0,2.6-0.5,4.6-1.5,5.9c-1,1.4-2.4,2-4.2,2C302,166.6,300.6,165.9,299.7,164.5z M306.1,163
		c0.5-0.9,0.7-2.4,0.7-4.4c0-2-0.2-3.5-0.7-4.4c-0.5-0.9-1.2-1.4-2.2-1.4c-1,0-1.7,0.5-2.2,1.4s-0.7,2.4-0.7,4.4
		c0,2,0.2,3.5,0.7,4.4c0.5,0.9,1.2,1.4,2.2,1.4C304.9,164.4,305.6,163.9,306.1,163z"/>
	<path class="st1" d="M322.1,159.8c0.5,0.7,0.7,1.5,0.7,2.4c0,1.4-0.5,2.4-1.5,3.2c-1,0.8-2.4,1.2-4.3,1.2c-1.8,0-3.2-0.4-4.3-1.2
		c-1-0.8-1.5-1.8-1.5-3.2c0-1,0.2-1.8,0.7-2.4c0.5-0.7,1.2-1.1,2.1-1.4c-0.8-0.3-1.4-0.8-1.8-1.4s-0.7-1.4-0.7-2.2
		c0-1.3,0.5-2.3,1.5-3.1c1-0.7,2.3-1.1,4-1.1c1.7,0,3,0.4,4,1.1c1,0.7,1.5,1.8,1.5,3.1c0,0.9-0.2,1.6-0.7,2.2s-1,1.1-1.8,1.3
		C321,158.7,321.7,159.1,322.1,159.8z M320.2,162c0-1.6-1-2.4-3.1-2.4c-2.1,0-3.1,0.8-3.1,2.4c0,1.6,1,2.4,3.1,2.4
		C319.2,164.3,320.2,163.5,320.2,162z M314.3,155.1c0,0.7,0.2,1.3,0.7,1.7s1.1,0.6,2.1,0.6c0.9,0,1.6-0.2,2.1-0.6
		c0.5-0.4,0.7-1,0.7-1.7c0-1.5-0.9-2.2-2.8-2.2C315.2,152.9,314.3,153.6,314.3,155.1z"/>
	<path class="st1" d="M325.7,158.9c-0.7-0.8-1-2-1-3.5c0-1.5,0.3-2.7,1-3.5s1.6-1.2,2.9-1.2c1.2,0,2.2,0.4,2.9,1.2s1,2,1,3.5
		c0,1.6-0.3,2.7-1,3.5s-1.7,1.2-2.9,1.2C327.3,160.1,326.3,159.7,325.7,158.9z M329.8,157.7c0.3-0.5,0.4-1.2,0.4-2.3
		c0-1-0.1-1.8-0.4-2.2c-0.3-0.5-0.7-0.7-1.2-0.7s-0.9,0.2-1.2,0.7c-0.3,0.5-0.4,1.2-0.4,2.3c0,1.1,0.1,1.8,0.4,2.3
		c0.3,0.5,0.7,0.7,1.2,0.7C329.1,158.3,329.5,158.1,329.8,157.7z M330.5,166.6c-0.2,0.1-0.4,0.2-0.6,0.2c-0.3,0-0.5-0.1-0.7-0.3
		c-0.2-0.2-0.3-0.4-0.3-0.7c0-0.2,0.1-0.5,0.2-0.7l8-13.8c0.1-0.2,0.3-0.4,0.5-0.5c0.2-0.1,0.4-0.2,0.6-0.2c0.3,0,0.5,0.1,0.7,0.3
		c0.2,0.2,0.3,0.4,0.3,0.7c0,0.2-0.1,0.5-0.2,0.7l-8,13.8C330.8,166.3,330.7,166.5,330.5,166.6z M336.7,165.3c-0.7-0.8-1-2-1-3.6
		c0-1.5,0.3-2.7,1-3.5c0.7-0.8,1.7-1.2,2.9-1.2c1.2,0,2.2,0.4,2.9,1.2c0.7,0.8,1,2,1,3.5c0,1.6-0.3,2.7-1,3.5
		c-0.7,0.8-1.6,1.2-2.9,1.2C338.4,166.5,337.4,166.1,336.7,165.3z M340.8,164.1c0.3-0.5,0.4-1.2,0.4-2.3c0-1-0.1-1.8-0.4-2.2
		c-0.3-0.5-0.7-0.7-1.2-0.7c-0.5,0-0.9,0.2-1.2,0.7c-0.3,0.5-0.4,1.2-0.4,2.2c0,1.1,0.1,1.8,0.4,2.3c0.3,0.5,0.7,0.7,1.2,0.7
		C340.1,164.7,340.5,164.5,340.8,164.1z"/>
</g>
<g>
	<path class="st1" d="M279.3,722.4c0,0.3-0.1,0.6-0.4,0.8c-0.3,0.2-0.6,0.3-1,0.3c-0.2,0-0.5-0.1-0.7-0.2c-0.2-0.1-0.4-0.3-0.5-0.5
		l-2.9-4.4c-0.3-0.5-0.6-0.8-0.9-1c-0.3-0.2-0.8-0.3-1.3-0.3h-2.2v4.9c0,0.4-0.1,0.8-0.4,1s-0.6,0.4-1,0.4c-0.4,0-0.8-0.1-1-0.4
		c-0.3-0.3-0.4-0.6-0.4-1v-12.9c0-0.4,0.1-0.8,0.4-1c0.2-0.2,0.6-0.4,1-0.4h5.5c1.8,0,3.1,0.4,4,1.2c0.9,0.8,1.4,1.9,1.4,3.4
		c0,1.2-0.3,2.2-1,3c-0.7,0.8-1.6,1.3-2.9,1.5c0.4,0.1,0.8,0.3,1.1,0.5c0.3,0.3,0.6,0.6,0.9,1.1l2,3.1
		C279.2,721.9,279.3,722.2,279.3,722.4z M275.5,714.4c0.5-0.4,0.7-1,0.7-1.9c0-0.9-0.2-1.5-0.7-1.9c-0.5-0.4-1.3-0.6-2.4-0.6h-3.7
		v4.9h3.7C274.2,715,275,714.8,275.5,714.4z"/>
	<path class="st1" d="M296.7,708.2c0.2,0.3,0.4,0.6,0.4,1v13c0,0.4-0.1,0.7-0.4,1c-0.2,0.2-0.5,0.4-0.9,0.4c-0.4,0-0.7-0.1-0.9-0.4
		c-0.2-0.2-0.3-0.6-0.3-1v-9.1l-3.7,7.1c-0.2,0.3-0.4,0.6-0.6,0.7s-0.4,0.2-0.7,0.2c-0.3,0-0.5-0.1-0.7-0.2
		c-0.2-0.1-0.4-0.4-0.6-0.7l-3.8-7v9c0,0.4-0.1,0.7-0.3,1c-0.2,0.2-0.5,0.4-0.9,0.4c-0.4,0-0.7-0.1-0.9-0.4c-0.2-0.2-0.3-0.6-0.3-1
		v-13c0-0.4,0.1-0.8,0.4-1c0.2-0.3,0.6-0.4,1-0.4c0.6,0,1,0.3,1.3,0.9l4.9,9.3l4.9-9.3c0.3-0.6,0.8-0.9,1.3-0.9
		C296.1,707.8,296.4,707.9,296.7,708.2z"/>
	<path class="st1" d="M300.8,723.2c-0.3-0.3-0.4-0.6-0.4-1v-12.9c0-0.4,0.1-0.8,0.4-1c0.3-0.3,0.6-0.4,1-0.4c0.4,0,0.8,0.1,1,0.4
		c0.3,0.3,0.4,0.6,0.4,1v12.9c0,0.4-0.1,0.8-0.4,1c-0.3,0.3-0.6,0.4-1,0.4C301.4,723.6,301.1,723.4,300.8,723.2z"/>
	<path class="st1" d="M313.1,717.6c0-3.3,0.8-6.3,2.4-9c0.2-0.3,0.4-0.5,0.6-0.6c0.2-0.1,0.5-0.2,0.7-0.2c0.2,0,0.5,0.1,0.6,0.2
		c0.2,0.2,0.3,0.4,0.3,0.6c0,0.2,0,0.4-0.1,0.5c-1.1,2.7-1.6,5.5-1.6,8.4c0,1.5,0.1,2.9,0.4,4.3s0.7,2.7,1.2,4.1
		c0.1,0.2,0.1,0.3,0.1,0.5c0,0.3-0.1,0.5-0.3,0.6c-0.2,0.2-0.4,0.2-0.6,0.2c-0.2,0-0.5-0.1-0.7-0.2c-0.2-0.1-0.4-0.3-0.6-0.6
		C313.9,723.9,313.1,720.9,313.1,717.6z"/>
	<path class="st1" d="M320.6,716c-0.7-0.8-1-2-1-3.5c0-1.5,0.3-2.7,1-3.5s1.6-1.2,2.9-1.2c1.2,0,2.2,0.4,2.9,1.2s1,2,1,3.5
		c0,1.6-0.3,2.7-1,3.5s-1.7,1.2-2.9,1.2C322.3,717.2,321.3,716.8,320.6,716z M324.7,714.7c0.3-0.5,0.4-1.2,0.4-2.3
		c0-1-0.1-1.8-0.4-2.2c-0.3-0.5-0.7-0.7-1.2-0.7s-0.9,0.2-1.2,0.7c-0.3,0.5-0.4,1.2-0.4,2.3c0,1.1,0.1,1.8,0.4,2.3
		c0.3,0.5,0.7,0.7,1.2,0.7C324.1,715.4,324.5,715.2,324.7,714.7z M325.5,723.7c-0.2,0.1-0.4,0.2-0.6,0.2c-0.3,0-0.5-0.1-0.7-0.3
		c-0.2-0.2-0.3-0.4-0.3-0.7c0-0.2,0.1-0.5,0.2-0.7l8-13.8c0.1-0.2,0.3-0.4,0.5-0.5c0.2-0.1,0.4-0.2,0.6-0.2c0.3,0,0.5,0.1,0.7,0.3
		c0.2,0.2,0.3,0.4,0.3,0.7c0,0.2-0.1,0.5-0.2,0.7l-8,13.8C325.8,723.4,325.6,723.5,325.5,723.7z M331.7,722.4c-0.7-0.8-1-2-1-3.6
		c0-1.5,0.3-2.7,1-3.5c0.7-0.8,1.7-1.2,2.9-1.2c1.2,0,2.2,0.4,2.9,1.2c0.7,0.8,1,2,1,3.5c0,1.6-0.3,2.7-1,3.5
		c-0.7,0.8-1.6,1.2-2.9,1.2C333.3,723.6,332.4,723.2,331.7,722.4z M335.8,721.1c0.3-0.5,0.4-1.2,0.4-2.3c0-1-0.1-1.8-0.4-2.2
		c-0.3-0.5-0.7-0.7-1.2-0.7c-0.5,0-0.9,0.2-1.2,0.7c-0.3,0.5-0.4,1.2-0.4,2.2c0,1.1,0.1,1.8,0.4,2.3c0.3,0.5,0.7,0.7,1.2,0.7
		C335.1,721.8,335.5,721.6,335.8,721.1z"/>
	<path class="st1" d="M342,727.3c-0.2,0.1-0.5,0.2-0.7,0.2c-0.2,0-0.5-0.1-0.6-0.2c-0.2-0.2-0.3-0.4-0.3-0.6c0-0.2,0-0.4,0.1-0.5
		c0.6-1.4,1-2.8,1.2-4.1s0.4-2.8,0.4-4.3c0-3-0.5-5.8-1.6-8.4c-0.1-0.2-0.1-0.3-0.1-0.5c0-0.3,0.1-0.5,0.3-0.6
		c0.2-0.2,0.4-0.2,0.6-0.2c0.2,0,0.5,0.1,0.7,0.2c0.2,0.1,0.4,0.3,0.6,0.6c1.6,2.7,2.4,5.7,2.4,9c0,3.2-0.8,6.2-2.4,9
		C342.4,726.9,342.2,727.1,342,727.3z"/>
</g>
<g>
	<path class="st1" d="M524.6,722.7c-1.1-0.6-2-1.6-2.6-2.8c-0.6-1.2-0.9-2.6-0.9-4.2s0.3-3,0.9-4.2s1.5-2.1,2.6-2.8
		c1.1-0.6,2.4-1,3.9-1c1,0,1.9,0.1,2.7,0.4c0.9,0.3,1.6,0.7,2.3,1.2c0.2,0.1,0.3,0.3,0.4,0.5c0.1,0.2,0.1,0.4,0.1,0.6
		c0,0.3-0.1,0.6-0.3,0.8c-0.2,0.2-0.4,0.3-0.6,0.3c-0.3,0-0.6-0.1-0.9-0.3c-0.6-0.5-1.2-0.8-1.8-1c-0.5-0.2-1.1-0.3-1.8-0.3
		c-1.5,0-2.7,0.5-3.5,1.4c-0.8,1-1.2,2.4-1.2,4.2c0,1.9,0.4,3.3,1.2,4.2c0.8,1,1.9,1.4,3.5,1.4c0.6,0,1.2-0.1,1.7-0.3
		c0.5-0.2,1.1-0.5,1.8-1c0.1-0.1,0.3-0.2,0.4-0.2s0.3-0.1,0.5-0.1c0.2,0,0.5,0.1,0.6,0.3c0.2,0.2,0.3,0.5,0.3,0.8
		c0,0.2,0,0.4-0.1,0.6c-0.1,0.2-0.2,0.3-0.4,0.5c-0.7,0.5-1.4,1-2.3,1.2c-0.9,0.3-1.8,0.4-2.7,0.4
		C527.1,723.6,525.8,723.3,524.6,722.7z"/>
	<path class="st1" d="M538.1,722.9c-0.8-0.5-1.5-1.1-1.9-2c-0.5-0.9-0.7-1.8-0.7-3c0-1.1,0.2-2.1,0.7-3c0.5-0.8,1.1-1.5,1.9-1.9
		s1.8-0.7,2.9-0.7s2.1,0.2,2.9,0.7s1.5,1.1,1.9,1.9c0.4,0.8,0.7,1.8,0.7,3c0,1.1-0.2,2.1-0.7,3c-0.4,0.9-1.1,1.5-1.9,2
		c-0.8,0.5-1.8,0.7-2.9,0.7S538.9,723.4,538.1,722.9z M543,720.6c0.5-0.6,0.7-1.5,0.7-2.6c0-1.1-0.2-2-0.7-2.6
		c-0.5-0.6-1.1-0.9-2-0.9s-1.6,0.3-2,0.9c-0.5,0.6-0.7,1.5-0.7,2.6c0,1.1,0.2,2,0.7,2.6c0.5,0.6,1.1,0.9,2,0.9
		C541.9,721.5,542.5,721.2,543,720.6z"/>
	<path class="st1" d="M557.9,713.5c0.6,0.7,0.9,1.8,0.9,3.3v5.4c0,0.4-0.1,0.7-0.4,1c-0.2,0.2-0.6,0.4-1,0.4c-0.4,0-0.8-0.1-1-0.4
		s-0.4-0.6-0.4-1V717c0-0.8-0.2-1.4-0.5-1.8c-0.3-0.4-0.8-0.6-1.5-0.6c-0.8,0-1.4,0.2-1.9,0.7c-0.5,0.5-0.7,1.2-0.7,2v4.9
		c0,0.4-0.1,0.7-0.4,1c-0.2,0.2-0.6,0.4-1,0.4s-0.8-0.1-1-0.4s-0.4-0.6-0.4-1v-8.5c0-0.4,0.1-0.7,0.4-0.9c0.2-0.2,0.6-0.4,1-0.4
		c0.4,0,0.7,0.1,0.9,0.3s0.4,0.5,0.4,0.9v0.6c0.4-0.6,0.9-1.1,1.5-1.4c0.6-0.3,1.3-0.5,2.1-0.5C556.3,712.4,557.2,712.8,557.9,713.5
		z"/>
	<path class="st1" d="M571.6,708.2c0.3,0.2,0.4,0.5,0.4,0.9v13.2c0,0.4-0.1,0.7-0.4,0.9c-0.2,0.2-0.6,0.4-1,0.4
		c-0.4,0-0.7-0.1-1-0.4c-0.2-0.2-0.4-0.5-0.4-0.9v-0.5c-0.3,0.6-0.8,1.1-1.4,1.4c-0.6,0.3-1.3,0.5-2.1,0.5c-0.9,0-1.7-0.2-2.5-0.7
		c-0.7-0.5-1.3-1.1-1.7-2c-0.4-0.9-0.6-1.8-0.6-3c0-1.1,0.2-2.1,0.6-2.9s1-1.5,1.7-1.9c0.7-0.5,1.5-0.7,2.5-0.7
		c0.8,0,1.5,0.2,2.1,0.5c0.6,0.3,1.1,0.8,1.4,1.4V709c0-0.4,0.1-0.7,0.4-0.9c0.2-0.2,0.6-0.3,1-0.3S571.3,707.9,571.6,708.2z
		 M568.5,720.6c0.5-0.6,0.7-1.5,0.7-2.6c0-1.1-0.2-2-0.7-2.6c-0.5-0.6-1.1-0.9-2-0.9c-0.9,0-1.6,0.3-2,0.9s-0.7,1.4-0.7,2.5
		c0,1.1,0.2,2,0.7,2.6s1.2,0.9,2,0.9C567.4,721.5,568.1,721.2,568.5,720.6z"/>
	<path class="st1" d="M575,723.1c-0.3-0.3-0.5-0.7-0.5-1.2c0-0.5,0.2-0.9,0.5-1.2c0.3-0.3,0.7-0.5,1.2-0.5c0.5,0,0.9,0.2,1.2,0.5
		c0.3,0.3,0.5,0.7,0.5,1.2c0,0.5-0.2,0.9-0.5,1.2s-0.7,0.5-1.2,0.5C575.7,723.6,575.3,723.4,575,723.1z"/>
	<path class="st1" d="M591.2,722.3c0,0.8-0.4,1.2-1.3,1.2h-7.4c-0.9,0-1.3-0.4-1.3-1.2c0-0.7,0.4-1.1,1.3-1.1h2.3v-10l-2.1,1.3
		c-0.2,0.1-0.4,0.2-0.6,0.2c-0.3,0-0.6-0.1-0.8-0.4c-0.2-0.3-0.3-0.6-0.3-0.9c0-0.4,0.2-0.8,0.6-1l3.4-2.1c0.4-0.3,0.9-0.4,1.3-0.4
		c0.4,0,0.7,0.1,1,0.4c0.2,0.3,0.4,0.6,0.4,1v11.9h2.3C590.8,721.1,591.2,721.5,591.2,722.3z"/>
</g>
<g>
	<path class="st1" d="M777.6,722.7c-1.1-0.6-2-1.6-2.6-2.8c-0.6-1.2-0.9-2.6-0.9-4.2s0.3-3,0.9-4.2s1.5-2.1,2.6-2.8
		c1.1-0.6,2.4-1,3.9-1c1,0,1.9,0.1,2.7,0.4c0.8,0.3,1.6,0.7,2.3,1.2c0.2,0.1,0.3,0.3,0.4,0.5c0.1,0.2,0.1,0.4,0.1,0.6
		c0,0.3-0.1,0.6-0.3,0.8s-0.4,0.3-0.6,0.3c-0.3,0-0.6-0.1-0.9-0.3c-0.6-0.5-1.2-0.8-1.8-1s-1.1-0.3-1.8-0.3c-1.5,0-2.7,0.5-3.5,1.4
		s-1.2,2.4-1.2,4.2c0,1.9,0.4,3.3,1.2,4.2s1.9,1.4,3.5,1.4c0.6,0,1.2-0.1,1.7-0.3c0.5-0.2,1.1-0.5,1.8-1c0.1-0.1,0.3-0.2,0.4-0.2
		s0.3-0.1,0.5-0.1c0.3,0,0.5,0.1,0.6,0.3c0.2,0.2,0.3,0.5,0.3,0.8c0,0.2,0,0.4-0.1,0.6c-0.1,0.2-0.2,0.3-0.4,0.5
		c-0.7,0.5-1.4,1-2.3,1.2c-0.9,0.3-1.8,0.4-2.7,0.4C780.1,723.6,778.8,723.3,777.6,722.7z"/>
	<path class="st1" d="M791.1,722.9c-0.8-0.5-1.5-1.1-1.9-2s-0.7-1.8-0.7-3c0-1.1,0.2-2.1,0.7-3c0.5-0.8,1.1-1.5,1.9-1.9
		c0.8-0.5,1.8-0.7,2.9-0.7s2.1,0.2,2.9,0.7c0.8,0.5,1.5,1.1,1.9,1.9c0.4,0.8,0.7,1.8,0.7,3c0,1.1-0.2,2.1-0.7,3s-1.1,1.5-1.9,2
		c-0.8,0.5-1.8,0.7-2.9,0.7S791.9,723.4,791.1,722.9z M796,720.6c0.5-0.6,0.7-1.5,0.7-2.6c0-1.1-0.2-2-0.7-2.6
		c-0.5-0.6-1.1-0.9-2-0.9s-1.6,0.3-2,0.9c-0.5,0.6-0.7,1.5-0.7,2.6c0,1.1,0.2,2,0.7,2.6s1.1,0.9,2,0.9
		C794.9,721.5,795.5,721.2,796,720.6z"/>
	<path class="st1" d="M810.9,713.5c0.6,0.7,0.9,1.8,0.9,3.3v5.4c0,0.4-0.1,0.7-0.4,1s-0.6,0.4-1,0.4c-0.4,0-0.8-0.1-1-0.4
		c-0.2-0.2-0.4-0.6-0.4-1V717c0-0.8-0.2-1.4-0.5-1.8c-0.3-0.4-0.8-0.6-1.5-0.6c-0.8,0-1.4,0.2-1.9,0.7c-0.5,0.5-0.7,1.2-0.7,2v4.9
		c0,0.4-0.1,0.7-0.4,1s-0.6,0.4-1,0.4c-0.4,0-0.8-0.1-1-0.4s-0.4-0.6-0.4-1v-8.5c0-0.4,0.1-0.7,0.4-0.9c0.2-0.2,0.6-0.4,1-0.4
		c0.4,0,0.7,0.1,0.9,0.3s0.4,0.5,0.4,0.9v0.6c0.4-0.6,0.9-1.1,1.5-1.4c0.6-0.3,1.3-0.5,2.1-0.5C809.3,712.4,810.2,712.8,810.9,713.5
		z"/>
	<path class="st1" d="M824.6,708.2c0.3,0.2,0.4,0.5,0.4,0.9v13.2c0,0.4-0.1,0.7-0.4,0.9c-0.2,0.2-0.6,0.4-1,0.4
		c-0.4,0-0.7-0.1-1-0.4c-0.3-0.2-0.4-0.5-0.4-0.9v-0.5c-0.3,0.6-0.8,1.1-1.4,1.4c-0.6,0.3-1.3,0.5-2.1,0.5c-0.9,0-1.7-0.2-2.5-0.7
		c-0.7-0.5-1.3-1.1-1.7-2c-0.4-0.9-0.6-1.8-0.6-3c0-1.1,0.2-2.1,0.6-2.9s1-1.5,1.7-1.9c0.7-0.5,1.5-0.7,2.5-0.7
		c0.8,0,1.5,0.2,2.1,0.5c0.6,0.3,1.1,0.8,1.4,1.4V709c0-0.4,0.1-0.7,0.4-0.9c0.2-0.2,0.6-0.3,1-0.3S824.3,707.9,824.6,708.2z
		 M821.5,720.6c0.5-0.6,0.7-1.5,0.7-2.6c0-1.1-0.2-2-0.7-2.6s-1.1-0.9-2-0.9c-0.9,0-1.6,0.3-2,0.9s-0.7,1.4-0.7,2.5
		c0,1.1,0.2,2,0.7,2.6s1.2,0.9,2,0.9C820.4,721.5,821.1,721.2,821.5,720.6z"/>
	<path class="st1" d="M828,723.1c-0.3-0.3-0.5-0.7-0.5-1.2c0-0.5,0.2-0.9,0.5-1.2c0.3-0.3,0.7-0.5,1.2-0.5s0.9,0.2,1.2,0.5
		c0.3,0.3,0.5,0.7,0.5,1.2c0,0.5-0.2,0.9-0.5,1.2s-0.7,0.5-1.2,0.5S828.3,723.4,828,723.1z"/>
	<path class="st1" d="M844.1,722.3c0,0.8-0.4,1.2-1.3,1.2h-8.4c-0.4,0-0.7-0.1-0.9-0.3s-0.3-0.5-0.3-0.8c0-0.4,0.2-0.8,0.5-1.2
		l5-5.4c0.6-0.7,1.1-1.3,1.4-1.9s0.4-1.1,0.4-1.7c0-0.7-0.2-1.2-0.6-1.6c-0.4-0.4-1-0.6-1.7-0.6c-0.6,0-1.2,0.1-1.8,0.3
		s-1.1,0.5-1.7,0.9c-0.1,0.1-0.3,0.2-0.4,0.3c-0.1,0.1-0.3,0.1-0.4,0.1c-0.3,0-0.5-0.1-0.6-0.4c-0.2-0.2-0.3-0.5-0.3-0.8
		c0-0.2,0-0.4,0.1-0.6c0.1-0.2,0.2-0.3,0.4-0.5c0.6-0.5,1.4-0.9,2.3-1.2s1.7-0.5,2.6-0.5c1.5,0,2.7,0.4,3.6,1.1
		c0.9,0.8,1.4,1.8,1.4,3.1c0,0.9-0.2,1.7-0.6,2.5c-0.4,0.8-1,1.7-1.9,2.6l-3.8,4h5.8C843.7,721.1,844.1,721.5,844.1,722.3z"/>
</g>
<g>
	<path class="st1" d="M1027.6,722.7c-1.1-0.6-2-1.6-2.6-2.8c-0.6-1.2-0.9-2.6-0.9-4.2s0.3-3,0.9-4.2s1.5-2.1,2.6-2.8
		c1.1-0.6,2.4-1,3.9-1c1,0,1.9,0.1,2.7,0.4c0.8,0.3,1.6,0.7,2.3,1.2c0.2,0.1,0.3,0.3,0.4,0.5c0.1,0.2,0.1,0.4,0.1,0.6
		c0,0.3-0.1,0.6-0.3,0.8s-0.4,0.3-0.6,0.3c-0.3,0-0.6-0.1-0.9-0.3c-0.6-0.5-1.2-0.8-1.8-1s-1.1-0.3-1.8-0.3c-1.5,0-2.7,0.5-3.5,1.4
		s-1.2,2.4-1.2,4.2c0,1.9,0.4,3.3,1.2,4.2s1.9,1.4,3.5,1.4c0.6,0,1.2-0.1,1.7-0.3c0.5-0.2,1.1-0.5,1.8-1c0.1-0.1,0.3-0.2,0.4-0.2
		s0.3-0.1,0.5-0.1c0.3,0,0.5,0.1,0.6,0.3c0.2,0.2,0.3,0.5,0.3,0.8c0,0.2,0,0.4-0.1,0.6c-0.1,0.2-0.2,0.3-0.4,0.5
		c-0.7,0.5-1.4,1-2.3,1.2c-0.9,0.3-1.8,0.4-2.7,0.4C1030.1,723.6,1028.8,723.3,1027.6,722.7z"/>
	<path class="st1" d="M1041.1,722.9c-0.8-0.5-1.5-1.1-1.9-2s-0.7-1.8-0.7-3c0-1.1,0.2-2.1,0.7-3c0.5-0.8,1.1-1.5,1.9-1.9
		c0.8-0.5,1.8-0.7,2.9-0.7s2.1,0.2,2.9,0.7c0.8,0.5,1.5,1.1,1.9,1.9c0.4,0.8,0.7,1.8,0.7,3c0,1.1-0.2,2.1-0.7,3s-1.1,1.5-1.9,2
		c-0.8,0.5-1.8,0.7-2.9,0.7S1041.9,723.4,1041.1,722.9z M1046,720.6c0.5-0.6,0.7-1.5,0.7-2.6c0-1.1-0.2-2-0.7-2.6
		c-0.5-0.6-1.1-0.9-2-0.9s-1.6,0.3-2,0.9c-0.5,0.6-0.7,1.5-0.7,2.6c0,1.1,0.2,2,0.7,2.6s1.1,0.9,2,0.9
		C1044.9,721.5,1045.5,721.2,1046,720.6z"/>
	<path class="st1" d="M1060.9,713.5c0.6,0.7,0.9,1.8,0.9,3.3v5.4c0,0.4-0.1,0.7-0.4,1s-0.6,0.4-1,0.4c-0.4,0-0.8-0.1-1-0.4
		c-0.2-0.2-0.4-0.6-0.4-1V717c0-0.8-0.2-1.4-0.5-1.8c-0.3-0.4-0.8-0.6-1.5-0.6c-0.8,0-1.4,0.2-1.9,0.7c-0.5,0.5-0.7,1.2-0.7,2v4.9
		c0,0.4-0.1,0.7-0.4,1s-0.6,0.4-1,0.4c-0.4,0-0.8-0.1-1-0.4s-0.4-0.6-0.4-1v-8.5c0-0.4,0.1-0.7,0.4-0.9c0.2-0.2,0.6-0.4,1-0.4
		c0.4,0,0.7,0.1,0.9,0.3s0.4,0.5,0.4,0.9v0.6c0.4-0.6,0.9-1.1,1.5-1.4c0.6-0.3,1.3-0.5,2.1-0.5
		C1059.3,712.4,1060.2,712.8,1060.9,713.5z"/>
	<path class="st1" d="M1074.6,708.2c0.3,0.2,0.4,0.5,0.4,0.9v13.2c0,0.4-0.1,0.7-0.4,0.9c-0.2,0.2-0.6,0.4-1,0.4
		c-0.4,0-0.7-0.1-1-0.4c-0.3-0.2-0.4-0.5-0.4-0.9v-0.5c-0.3,0.6-0.8,1.1-1.4,1.4c-0.6,0.3-1.3,0.5-2.1,0.5c-0.9,0-1.7-0.2-2.5-0.7
		c-0.7-0.5-1.3-1.1-1.7-2c-0.4-0.9-0.6-1.8-0.6-3c0-1.1,0.2-2.1,0.6-2.9s1-1.5,1.7-1.9c0.7-0.5,1.5-0.7,2.5-0.7
		c0.8,0,1.5,0.2,2.1,0.5c0.6,0.3,1.1,0.8,1.4,1.4V709c0-0.4,0.1-0.7,0.4-0.9c0.2-0.2,0.6-0.3,1-0.3S1074.3,707.9,1074.6,708.2z
		 M1071.5,720.6c0.5-0.6,0.7-1.5,0.7-2.6c0-1.1-0.2-2-0.7-2.6s-1.1-0.9-2-0.9c-0.9,0-1.6,0.3-2,0.9s-0.7,1.4-0.7,2.5
		c0,1.1,0.2,2,0.7,2.6s1.2,0.9,2,0.9C1070.4,721.5,1071.1,721.2,1071.5,720.6z"/>
	<path class="st1" d="M1078,723.1c-0.3-0.3-0.5-0.7-0.5-1.2c0-0.5,0.2-0.9,0.5-1.2c0.3-0.3,0.7-0.5,1.2-0.5s0.9,0.2,1.2,0.5
		c0.3,0.3,0.5,0.7,0.5,1.2c0,0.5-0.2,0.9-0.5,1.2s-0.7,0.5-1.2,0.5S1078.3,723.4,1078,723.1z"/>
	<path class="st1" d="M1092.9,716.8c0.5,0.7,0.7,1.5,0.7,2.4c0,1.3-0.5,2.4-1.5,3.2s-2.3,1.2-4,1.2c-1,0-1.9-0.1-2.8-0.4
		c-0.9-0.3-1.6-0.7-2.2-1.2c-0.3-0.3-0.5-0.6-0.5-1c0-0.3,0.1-0.6,0.3-0.8c0.2-0.2,0.4-0.3,0.6-0.3c0.1,0,0.3,0,0.4,0.1
		c0.1,0.1,0.3,0.1,0.5,0.3c0.6,0.4,1.2,0.7,1.8,0.9s1.2,0.3,1.8,0.3c1,0,1.7-0.2,2.2-0.6c0.5-0.4,0.7-1,0.7-1.8
		c0-0.8-0.2-1.4-0.7-1.7s-1.3-0.6-2.3-0.6h-1.3c-0.3,0-0.6-0.1-0.8-0.3c-0.2-0.2-0.3-0.5-0.3-0.8c0-0.3,0.1-0.6,0.3-0.8
		c0.2-0.2,0.4-0.3,0.8-0.3h0.9c2,0,3-0.8,3-2.3c0-0.7-0.2-1.2-0.6-1.6c-0.4-0.4-1-0.6-1.8-0.6c-1.1,0-2.2,0.4-3.4,1.3
		c-0.2,0.1-0.4,0.2-0.5,0.3c-0.1,0.1-0.2,0.1-0.4,0.1c-0.3,0-0.5-0.1-0.6-0.3c-0.2-0.2-0.3-0.5-0.3-0.8c0-0.2,0-0.4,0.1-0.6
		c0.1-0.2,0.2-0.3,0.4-0.5c0.6-0.5,1.4-0.9,2.2-1.2c0.9-0.3,1.7-0.5,2.6-0.5c1.5,0,2.7,0.4,3.6,1.1s1.4,1.7,1.4,3
		c0,0.9-0.2,1.6-0.7,2.2c-0.4,0.6-1,1.1-1.8,1.4C1091.8,715.7,1092.5,716.1,1092.9,716.8z"/>
</g>
</svg>
