<?xml version="1.0" encoding="utf-8"?>
<!-- Generator: Adobe Illustrator 25.1.0, SVG Export Plug-In . SVG Version: 6.00 Build 0)  -->
<svg version="1.1" id="Layer_1" xmlns="http://www.w3.org/2000/svg" xmlns:xlink="http://www.w3.org/1999/xlink" x="0px" y="0px"
	 viewBox="0 0 60.9 30.5" style="enable-background:new 0 0 60.9 30.5;" xml:space="preserve">
<style type="text/css">
	.st0{fill:#152E4D;}
</style>
<g>
	<path class="st0" d="M3,4.9h5.4c1.9,0,3.3,0.4,4.1,1.2c0.9,0.8,1.3,2,1.3,3.6V11c0,2.1-0.8,3.5-2.4,4.1V15c0.9,0.2,1.5,0.7,1.9,1.4
		c0.4,0.7,0.5,1.7,0.5,2.9V23c0,0.6,0,1.1,0.1,1.4c0,0.4,0.2,0.7,0.3,1.1h-3.7c-0.1-0.3-0.2-0.6-0.3-0.9c0-0.3-0.1-0.8-0.1-1.6v-3.8
		c0-0.9-0.2-1.6-0.5-2s-0.9-0.6-1.8-0.6H6.7v8.9H3V4.9z M8,13.7c0.7,0,1.3-0.2,1.7-0.5s0.5-0.9,0.5-1.7V9.9c0-0.7-0.1-1.3-0.5-1.6
		C9.4,8,9,7.8,8.3,7.8H6.7v5.9C6.7,13.7,8,13.7,8,13.7z"/>
	<path class="st0" d="M19.3,4.9h5L28,25.5h-3.7l-0.7-4.1v0.1h-4.2l-0.7,4h-3.4L19.3,4.9z M23.3,18.7L21.6,8.5h-0.1L20,18.7H23.3z"/>
	<path class="st0" d="M29.9,4.5h5.3l2.3,14.8h0.1l2.3-14.8h5.2v20.7h-3.5V9.5h-0.1l-2.7,15.6h-3.1L33.2,9.5h-0.1v15.6h-3.2V4.5z"/>
	<path class="st0" d="M48.6,24.1c-0.9-0.9-1.4-2.2-1.4-3.9V19h3.5v1.4c0,1.3,0.6,2,1.9,2c0.6,0,1.1-0.2,1.4-0.5s0.5-0.9,0.5-1.6
		c0-0.9-0.2-1.6-0.7-2.3c-0.4-0.7-1.3-1.5-2.5-2.4c-1.5-1.2-2.6-2.2-3.2-3.2s-0.9-2-0.9-3.2c0-1.6,0.5-2.9,1.4-3.8s2.3-1.3,4.1-1.3
		c1.8,0,3.1,0.4,4,1.3S58,7.6,58,9.3v0.9h-3.5v-1c0-0.7-0.2-1.2-0.5-1.5s-0.8-0.5-1.4-0.5c-1.2,0-1.8,0.7-1.8,2
		c0,0.7,0.2,1.4,0.7,2.1c0.5,0.6,1.3,1.4,2.5,2.4c1.5,1.2,2.6,2.3,3.2,3.2c0.6,1,0.9,2.1,0.9,3.4c0,1.7-0.5,3-1.4,3.9
		s-2.3,1.4-4.1,1.4C50.9,25.4,49.5,25,48.6,24.1z"/>
</g>
</svg>
