<svg id="Planned_work_carried_out" data-name="Planned work carried out" xmlns="http://www.w3.org/2000/svg" width="19" height="19" viewBox="0 0 19 19">
  <path id="Path_33" data-name="Path 33" d="M1.681-2.449A.523.523,0,0,1,1.294-2.6a.537.537,0,0,1-.146-.4V-9.347a.516.516,0,0,1,.141-.381.53.53,0,0,1,.392-.141H4.2A2.649,2.649,0,0,1,6.019-9.3a2.065,2.065,0,0,1,.648,1.631,2.085,2.085,0,0,1-.648,1.631A2.618,2.618,0,0,1,4.2-5.449H2.225v2.456a.548.548,0,0,1-.141.4A.533.533,0,0,1,1.681-2.449Zm2.4-3.867q1.547,0,1.547-1.348T4.085-9H2.225v2.686Z" transform="translate(5.852 15.87)" fill="#212224" stroke="#212224" stroke-width="0.5"/>
  <g id="Path_36" data-name="Path 36" fill="none">
    <path d="M9.5,0A9.5,9.5,0,1,1,0,9.5,9.5,9.5,0,0,1,9.5,0Z" stroke="none"/>
    <path d="M 9.5 2 C 5.364489555358887 2 2 5.364489555358887 2 9.5 C 2 13.6355094909668 5.364489555358887 17 9.5 17 C 13.6355094909668 17 17 13.6355094909668 17 9.5 C 17 5.364489555358887 13.6355094909668 2 9.5 2 M 9.5 0 C 14.74670028686523 0 19 4.253299713134766 19 9.5 C 19 14.74670028686523 14.74670028686523 19 9.5 19 C 4.253299713134766 19 0 14.74670028686523 0 9.5 C 0 4.253299713134766 4.253299713134766 0 9.5 0 Z" stroke="none" fill="#212224"/>
  </g>
</svg>
