<svg xmlns="http://www.w3.org/2000/svg" width="6.326" height="7.921" viewBox="0 0 6.326 7.921">
  <g id="Reschedule_Workday" data-name="Reschedule Workday" transform="translate(0.25 0.25)">
    <path id="Path_35" data-name="Path 35" d="M6.88-3.189a.5.5,0,0,1,.094.292.4.4,0,0,1-.151.318.519.519,0,0,1-.349.13A.543.543,0,0,1,6-2.71l-1.4-2.168A1.516,1.516,0,0,0,4.1-5.4a1.449,1.449,0,0,0-.709-.151H2.211v2.543a.547.547,0,0,1-.141.4.518.518,0,0,1-.391.146.521.521,0,0,1-.386-.146.535.535,0,0,1-.146-.4V-9.349a.514.514,0,0,1,.141-.38A.528.528,0,0,1,1.68-9.87h2.6a2.81,2.81,0,0,1,1.86.542,1.958,1.958,0,0,1,.641,1.584,2,2,0,0,1-.49,1.4,2.32,2.32,0,0,1-1.4.683,1.24,1.24,0,0,1,.49.261,2.257,2.257,0,0,1,.427.521ZM4.15-6.42a1.889,1.889,0,0,0,1.2-.318,1.2,1.2,0,0,0,.391-.985A1.172,1.172,0,0,0,5.359-8.7,1.932,1.932,0,0,0,4.15-9H2.2V-6.42Z" transform="translate(-1.148 9.87)" fill="#212224" stroke="#212224" stroke-width="0.5"/>
  </g>
</svg>
