<svg xmlns="http://www.w3.org/2000/svg" width="9.997" height="9.731" viewBox="0 0 9.997 9.731">
  <g id="Work_not_carried_out" data-name="Work not carried out" transform="translate(0.498 0.561)">
    <path id="Path_34" data-name="Path 34" d="M1.681-2.449A.523.523,0,0,1,1.294-2.6a.537.537,0,0,1-.146-.4V-9.347a.516.516,0,0,1,.141-.381.53.53,0,0,1,.392-.141H4.2A2.649,2.649,0,0,1,6.019-9.3a2.065,2.065,0,0,1,.648,1.631,2.085,2.085,0,0,1-.648,1.631A2.618,2.618,0,0,1,4.2-5.449H2.225v2.456a.548.548,0,0,1-.141.4A.533.533,0,0,1,1.681-2.449Zm2.4-3.867q1.547,0,1.547-1.348T4.085-9H2.225v2.686Z" transform="translate(1.352 11.37)" fill="#212224" stroke="#212224" stroke-width="0.5"/>
    <line id="Line_19" data-name="Line 19" x1="9" y2="8" fill="none" stroke="#212224" stroke-width="1.5"/>
  </g>
</svg>
